<?xml version="1.0" encoding="UTF-8" standalone="no"?>
<!DOCTYPE svg PUBLIC "-//W3C//DTD SVG 1.1//EN"
 "http://www.w3.org/Graphics/SVG/1.1/DTD/svg11.dtd">
<!-- Generated by graphviz version 2.40.1 (20161225.0304)
 -->
<!-- Title: %3 Pages: 1 -->
<svg width="436pt" height="349pt"
 viewBox="0.00 0.00 436.39 349.00" xmlns="http://www.w3.org/2000/svg" xmlns:xlink="http://www.w3.org/1999/xlink">
<g id="graph0" class="graph" transform="scale(1 1) rotate(0) translate(4 345)">
<title>%3</title>
<polygon fill="#ffffff" stroke="transparent" points="-4,4 -4,-345 432.3867,-345 432.3867,4 -4,4"/>
<!-- 4606668640 -->
<g id="node1" class="node">
<title>4606668640</title>
<ellipse fill="none" stroke="#000000" cx="102.9416" cy="-104" rx="102.8833" ry="18"/>
<text text-anchor="middle" x="102.9416" y="-99.8" font-family="Times,serif" font-size="14.00" fill="#000000">push_xcom_for_branch_b</text>
</g>
<!-- 4607280688 -->
<g id="node7" class="node">
<title>4607280688</title>
<ellipse fill="none" stroke="#000000" cx="102.9416" cy="-18" rx="50.2637" ry="18"/>
<text text-anchor="middle" x="102.9416" y="-13.8" font-family="Times,serif" font-size="14.00" fill="#000000">print_value</text>
</g>
<!-- 4606668640&#45;&gt;4607280688 -->
<g id="edge1" class="edge">
<title>4606668640&#45;&gt;4607280688</title>
<path fill="none" stroke="#000000" d="M102.9416,-85.7616C102.9416,-74.3597 102.9416,-59.4342 102.9416,-46.494"/>
<polygon fill="#000000" stroke="#000000" points="106.4417,-46.2121 102.9416,-36.2121 99.4417,-46.2121 106.4417,-46.2121"/>
<text text-anchor="middle" x="106.4416" y="-56.8" font-family="Times,serif" font-size="14.00" fill="#000000">x</text>
</g>
<!-- 4340724568 -->
<g id="node9" class="node">
<title>4340724568</title>
<ellipse fill="none" stroke="#000000" cx="214.9416" cy="-18" rx="27" ry="18"/>
<text text-anchor="middle" x="214.9416" y="-13.8" font-family="Times,serif" font-size="14.00" fill="#000000">join</text>
</g>
<!-- 4606668640&#45;&gt;4340724568 -->
<g id="edge2" class="edge">
<title>4606668640&#45;&gt;4340724568</title>
<path fill="none" stroke="#000000" d="M125.8768,-86.3891C144.2737,-72.2628 170.0881,-52.4411 189.1918,-37.7722"/>
<polygon fill="#000000" stroke="#000000" points="191.3863,-40.5 197.1862,-31.6336 187.1231,-34.9479 191.3863,-40.5"/>
</g>
<!-- 4607053952 -->
<g id="node2" class="node">
<title>4607053952</title>
<ellipse fill="none" stroke="#000000" cx="242.9416" cy="-323" rx="57.0563" ry="18"/>
<text text-anchor="middle" x="242.9416" y="-318.8" font-family="Times,serif" font-size="14.00" fill="#000000">run_this_first</text>
</g>
<!-- 4526848040 -->
<g id="node3" class="node">
<title>4526848040</title>
<ellipse fill="none" stroke="#000000" cx="242.9416" cy="-250" rx="45.4355" ry="18"/>
<text text-anchor="middle" x="242.9416" y="-245.8" font-family="Times,serif" font-size="14.00" fill="#000000">branching</text>
</g>
<!-- 4607053952&#45;&gt;4526848040 -->
<g id="edge9" class="edge">
<title>4607053952&#45;&gt;4526848040</title>
<path fill="none" stroke="#000000" d="M242.9416,-304.9551C242.9416,-296.8828 242.9416,-287.1764 242.9416,-278.1817"/>
<polygon fill="#000000" stroke="#000000" points="246.4417,-278.0903 242.9416,-268.0904 239.4417,-278.0904 246.4417,-278.0903"/>
</g>
<!-- 4526847480 -->
<g id="node5" class="node">
<title>4526847480</title>
<ellipse fill="none" stroke="#000000" cx="191.9416" cy="-177" rx="43.0215" ry="18"/>
<text text-anchor="middle" x="191.9416" y="-172.8" font-family="Times,serif" font-size="14.00" fill="#000000">branch_b</text>
</g>
<!-- 4526848040&#45;&gt;4526847480 -->
<g id="edge5" class="edge">
<title>4526848040&#45;&gt;4526847480</title>
<path fill="none" stroke="#000000" d="M230.5959,-232.3287C224.3942,-223.4517 216.7629,-212.5285 209.9239,-202.7393"/>
<polygon fill="#000000" stroke="#000000" points="212.7699,-200.7016 204.1736,-194.5085 207.0316,-204.7106 212.7699,-200.7016"/>
</g>
<!-- 4607056696 -->
<g id="node8" class="node">
<title>4607056696</title>
<ellipse fill="none" stroke="#000000" cx="310.9416" cy="-177" rx="42.5283" ry="18"/>
<text text-anchor="middle" x="310.9416" y="-172.8" font-family="Times,serif" font-size="14.00" fill="#000000">branch_a</text>
</g>
<!-- 4526848040&#45;&gt;4607056696 -->
<g id="edge7" class="edge">
<title>4526848040&#45;&gt;4607056696</title>
<path fill="none" stroke="#000000" d="M258.7131,-233.0688C267.4672,-223.671 278.5103,-211.8159 288.1849,-201.4301"/>
<polygon fill="#000000" stroke="#000000" points="291.0006,-203.5422 295.2557,-193.8393 285.8786,-198.771 291.0006,-203.5422"/>
</g>
<!-- 4606429224 -->
<g id="node4" class="node">
<title>4606429224</title>
<ellipse fill="none" stroke="#000000" cx="325.9416" cy="-104" rx="102.3901" ry="18"/>
<text text-anchor="middle" x="325.9416" y="-99.8" font-family="Times,serif" font-size="14.00" fill="#000000">push_xcom_for_branch_a</text>
</g>
<!-- 4607280464 -->
<g id="node6" class="node">
<title>4607280464</title>
<ellipse fill="none" stroke="#000000" cx="325.9416" cy="-18" rx="50.2637" ry="18"/>
<text text-anchor="middle" x="325.9416" y="-13.8" font-family="Times,serif" font-size="14.00" fill="#000000">print_value</text>
</g>
<!-- 4606429224&#45;&gt;4607280464 -->
<g id="edge8" class="edge">
<title>4606429224&#45;&gt;4607280464</title>
<path fill="none" stroke="#000000" d="M325.9416,-85.7616C325.9416,-74.3597 325.9416,-59.4342 325.9416,-46.494"/>
<polygon fill="#000000" stroke="#000000" points="329.4417,-46.2121 325.9416,-36.2121 322.4417,-46.2121 329.4417,-46.2121"/>
<text text-anchor="middle" x="329.4416" y="-56.8" font-family="Times,serif" font-size="14.00" fill="#000000">x</text>
</g>
<!-- 4606429224&#45;&gt;4340724568 -->
<g id="edge3" class="edge">
<title>4606429224&#45;&gt;4340724568</title>
<path fill="none" stroke="#000000" d="M303.2113,-86.3891C285.089,-72.3485 259.7045,-52.6811 240.8065,-38.0394"/>
<polygon fill="#000000" stroke="#000000" points="242.9361,-35.2619 232.8875,-31.904 238.6489,-40.7954 242.9361,-35.2619"/>
</g>
<!-- 4526847480&#45;&gt;4606668640 -->
<g id="edge4" class="edge">
<title>4526847480&#45;&gt;4606668640</title>
<path fill="none" stroke="#000000" d="M172.1896,-160.7989C160.4847,-151.1982 145.4302,-138.8502 132.3494,-128.121"/>
<polygon fill="#000000" stroke="#000000" points="134.4588,-125.3245 124.5073,-121.6887 130.0195,-130.7367 134.4588,-125.3245"/>
</g>
<!-- 4607056696&#45;&gt;4606429224 -->
<g id="edge6" class="edge">
<title>4607056696&#45;&gt;4606429224</title>
<path fill="none" stroke="#000000" d="M314.6495,-158.9551C316.3262,-150.7951 318.346,-140.9652 320.2111,-131.8887"/>
<polygon fill="#000000" stroke="#000000" points="323.64,-132.5902 322.2244,-122.0904 316.7832,-131.1812 323.64,-132.5902"/>
</g>
</g>
</svg>
