<?xml version="1.0" encoding="UTF-8" standalone="no"?>
<!DOCTYPE svg PUBLIC "-//W3C//DTD SVG 1.1//EN"
 "http://www.w3.org/Graphics/SVG/1.1/DTD/svg11.dtd">
<!-- Generated by graphviz version 2.40.1 (20161225.0304)
 -->
<!-- Title: %3 Pages: 1 -->
<svg width="338pt" height="302pt"
 viewBox="0.00 0.00 338.32 302.00" xmlns="http://www.w3.org/2000/svg" xmlns:xlink="http://www.w3.org/1999/xlink">
<g id="graph0" class="graph" transform="scale(1 1) rotate(0) translate(4 298)">
<title>%3</title>
<polygon fill="#ffffff" stroke="transparent" points="-4,4 -4,-298 334.318,-298 334.318,4 -4,4"/>
<!-- 4604589728 -->
<g id="node1" class="node">
<title>4604589728</title>
<ellipse fill="#f0fff0" fill-opacity="0.501961" stroke="#f0fff0" stroke-opacity="0.501961" cx="90" cy="-18" rx="27" ry="18"/>
<text text-anchor="middle" x="90" y="-13.8" font-family="Times,serif" font-size="14.00" fill="#000000">Div</text>
</g>
<!-- 4604589952 -->
<g id="node2" class="node">
<title>4604589952</title>
<ellipse fill="#008000" fill-opacity="0.501961" stroke="#008000" stroke-opacity="0.501961" cx="127" cy="-276" rx="27" ry="18"/>
<text text-anchor="middle" x="127" y="-271.8" font-family="Times,serif" font-size="14.00" fill="#000000">y</text>
</g>
<!-- 4604589616 -->
<g id="node5" class="node">
<title>4604589616</title>
<ellipse fill="#008000" fill-opacity="0.501961" stroke="#008000" stroke-opacity="0.501961" cx="163" cy="-190" rx="27" ry="18"/>
<text text-anchor="middle" x="163" y="-185.8" font-family="Times,serif" font-size="14.00" fill="#000000">Add</text>
</g>
<!-- 4604589952&#45;&gt;4604589616 -->
<g id="edge5" class="edge">
<title>4604589952&#45;&gt;4604589616</title>
<path fill="none" stroke="#000000" d="M134.2851,-258.5966C139.3111,-246.5902 146.0893,-230.3977 151.7982,-216.76"/>
<polygon fill="#000000" stroke="#000000" points="155.0928,-217.9534 155.7257,-207.3775 148.6357,-215.2504 155.0928,-217.9534"/>
<text text-anchor="middle" x="150.5" y="-228.8" font-family="Times,serif" font-size="14.00" fill="#000000">y</text>
</g>
<!-- 4604588104 -->
<g id="node3" class="node">
<title>4604588104</title>
<ellipse fill="#008000" fill-opacity="0.501961" stroke="#008000" stroke-opacity="0.501961" cx="27" cy="-104" rx="27" ry="18"/>
<text text-anchor="middle" x="27" y="-99.8" font-family="Times,serif" font-size="14.00" fill="#000000">6</text>
</g>
<!-- 4604588104&#45;&gt;4604589728 -->
<g id="edge3" class="edge">
<title>4604588104&#45;&gt;4604589728</title>
<path fill="none" stroke="#000000" d="M38.8498,-87.8241C48.2057,-75.0525 61.4123,-57.0245 72.0624,-42.4863"/>
<polygon fill="#000000" stroke="#000000" points="74.903,-44.5312 77.9891,-34.3958 69.256,-40.3945 74.903,-44.5312"/>
<text text-anchor="middle" x="66.5" y="-56.8" font-family="Times,serif" font-size="14.00" fill="#000000">x</text>
</g>
<!-- 4604544728 -->
<g id="node4" class="node">
<title>4604544728</title>
<ellipse fill="#f0fff0" fill-opacity="0.501961" stroke="#f0fff0" stroke-opacity="0.501961" cx="163" cy="-104" rx="48.0481" ry="18"/>
<text text-anchor="middle" x="163" y="-99.8" font-family="Times,serif" font-size="14.00" fill="#000000">match: &quot;1&quot;</text>
</g>
<!-- 4604544728&#45;&gt;4604589728 -->
<g id="edge7" class="edge">
<title>4604544728&#45;&gt;4604589728</title>
<path fill="none" stroke="#000000" d="M148.2274,-86.5966C137.2918,-73.7136 122.2652,-56.011 110.2163,-41.8165"/>
<polygon fill="#000000" stroke="#000000" points="112.6594,-39.2861 103.5197,-33.9273 107.3227,-43.816 112.6594,-39.2861"/>
</g>
<!-- 4604589616&#45;&gt;4604589728 -->
<g id="edge4" class="edge">
<title>4604589616&#45;&gt;4604589728</title>
<path fill="none" stroke="#000000" d="M144.8775,-176.5873C129.7396,-164.2485 109.0642,-144.4933 99,-122 88.2991,-98.0836 86.8143,-68.0112 87.549,-46.3637"/>
<polygon fill="#000000" stroke="#000000" points="91.0543,-46.3516 88.0778,-36.1835 84.0637,-45.9885 91.0543,-46.3516"/>
<text text-anchor="middle" x="102.5" y="-99.8" font-family="Times,serif" font-size="14.00" fill="#000000">y</text>
</g>
<!-- 4604589616&#45;&gt;4604544728 -->
<g id="edge8" class="edge">
<title>4604589616&#45;&gt;4604544728</title>
<path fill="none" stroke="#000000" d="M163,-171.7616C163,-160.3597 163,-145.4342 163,-132.494"/>
<polygon fill="#000000" stroke="#000000" points="166.5001,-132.2121 163,-122.2121 159.5001,-132.2121 166.5001,-132.2121"/>
<text text-anchor="middle" x="178.1587" y="-142.8" font-family="Times,serif" font-size="14.00" fill="#000000">value</text>
</g>
<!-- 4604588496 -->
<g id="node7" class="node">
<title>4604588496</title>
<ellipse fill="#f0fff0" fill-opacity="0.501961" stroke="#f0fff0" stroke-opacity="0.501961" cx="277" cy="-104" rx="48.0481" ry="18"/>
<text text-anchor="middle" x="277" y="-99.8" font-family="Times,serif" font-size="14.00" fill="#000000">match: &quot;0&quot;</text>
</g>
<!-- 4604589616&#45;&gt;4604588496 -->
<g id="edge1" class="edge">
<title>4604589616&#45;&gt;4604588496</title>
<path fill="none" stroke="#000000" d="M181.0636,-176.373C198.9107,-162.9095 226.5129,-142.0867 247.5366,-126.2267"/>
<polygon fill="#000000" stroke="#000000" points="249.6476,-129.0185 255.5229,-120.202 245.4319,-123.4303 249.6476,-129.0185"/>
<text text-anchor="middle" x="241.1587" y="-142.8" font-family="Times,serif" font-size="14.00" fill="#000000">value</text>
</g>
<!-- 4604588944 -->
<g id="node6" class="node">
<title>4604588944</title>
<ellipse fill="#f0fff0" fill-opacity="0.501961" stroke="#f0fff0" stroke-opacity="0.501961" cx="277" cy="-18" rx="53.1367" ry="18"/>
<text text-anchor="middle" x="277" y="-13.8" font-family="Times,serif" font-size="14.00" fill="#000000">handle_zero</text>
</g>
<!-- 4604588496&#45;&gt;4604588944 -->
<g id="edge6" class="edge">
<title>4604588496&#45;&gt;4604588944</title>
<path fill="none" stroke="#000000" d="M277,-85.7616C277,-74.3597 277,-59.4342 277,-46.494"/>
<polygon fill="#000000" stroke="#000000" points="280.5001,-46.2121 277,-36.2121 273.5001,-46.2121 280.5001,-46.2121"/>
</g>
<!-- 4604589112 -->
<g id="node8" class="node">
<title>4604589112</title>
<ellipse fill="#008000" fill-opacity="0.501961" stroke="#008000" stroke-opacity="0.501961" cx="199" cy="-276" rx="27" ry="18"/>
<text text-anchor="middle" x="199" y="-271.8" font-family="Times,serif" font-size="14.00" fill="#000000">x</text>
</g>
<!-- 4604589112&#45;&gt;4604589616 -->
<g id="edge2" class="edge">
<title>4604589112&#45;&gt;4604589616</title>
<path fill="none" stroke="#000000" d="M191.7149,-258.5966C186.6889,-246.5902 179.9107,-230.3977 174.2018,-216.76"/>
<polygon fill="#000000" stroke="#000000" points="177.3643,-215.2504 170.2743,-207.3775 170.9072,-217.9534 177.3643,-215.2504"/>
<text text-anchor="middle" x="186.5" y="-228.8" font-family="Times,serif" font-size="14.00" fill="#000000">x</text>
</g>
</g>
</svg>
