<?xml version="1.0" encoding="UTF-8" standalone="no"?>
<!DOCTYPE svg PUBLIC "-//W3C//DTD SVG 1.1//EN"
 "http://www.w3.org/Graphics/SVG/1.1/DTD/svg11.dtd">
<!-- Generated by graphviz version 2.40.1 (20161225.0304)
 -->
<!-- Title: %3 Pages: 1 -->
<svg width="385pt" height="289pt"
 viewBox="0.00 0.00 384.94 289.00" xmlns="http://www.w3.org/2000/svg" xmlns:xlink="http://www.w3.org/1999/xlink">
<g id="graph0" class="graph" transform="scale(1 1) rotate(0) translate(4 285)">
<title>%3</title>
<polygon fill="#ffffff" stroke="transparent" points="-4,4 -4,-285 380.9351,-285 380.9351,4 -4,4"/>
<!-- 4726580224 -->
<g id="node1" class="node">
<title>4726580224</title>
<ellipse fill="#28a745" fill-opacity="0.501961" stroke="#28a745" stroke-opacity="0.501961" cx="193.9675" cy="-177" rx="27" ry="18"/>
<text text-anchor="middle" x="193.9675" y="-172.8" font-family="Times,serif" font-size="14.00" fill="#000000">Add</text>
</g>
<!-- 4726820992 -->
<g id="node3" class="node">
<title>4726820992</title>
<ellipse fill="#62757f" fill-opacity="0.501961" stroke="#62757f" stroke-opacity="0.501961" cx="78.9675" cy="-91" rx="78.9351" ry="18"/>
<text text-anchor="middle" x="78.9675" y="-86.8" font-family="Times,serif" font-size="14.00" fill="#000000">CompareValue: &quot;1&quot;</text>
</g>
<!-- 4726580224&#45;&gt;4726820992 -->
<g id="edge2" class="edge">
<title>4726580224&#45;&gt;4726820992</title>
<path fill="none" stroke="#000000" d="M175.9988,-163.5625C158.4875,-150.4671 131.4953,-130.2817 110.4215,-114.5221"/>
<polygon fill="#000000" stroke="#000000" points="112.4826,-111.693 102.3781,-108.507 108.2904,-117.2989 112.4826,-111.693"/>
<text text-anchor="middle" x="159.1262" y="-129.8" font-family="Times,serif" font-size="14.00" fill="#000000">value</text>
</g>
<!-- 4726580168 -->
<g id="node4" class="node">
<title>4726580168</title>
<ellipse fill="#62757f" fill-opacity="0.501961" stroke="#62757f" stroke-opacity="0.501961" cx="181.9675" cy="-18" rx="27" ry="18"/>
<text text-anchor="middle" x="181.9675" y="-13.8" font-family="Times,serif" font-size="14.00" fill="#000000">Div</text>
</g>
<!-- 4726580224&#45;&gt;4726580168 -->
<g id="edge7" class="edge">
<title>4726580224&#45;&gt;4726580168</title>
<path fill="none" stroke="#000000" d="M192.591,-158.7607C190.5113,-131.2051 186.5513,-78.735 184.0975,-46.2226"/>
<polygon fill="#000000" stroke="#000000" points="187.5708,-45.7348 183.328,-36.0266 180.5906,-46.2617 187.5708,-45.7348"/>
<text text-anchor="middle" x="192.4675" y="-86.8" font-family="Times,serif" font-size="14.00" fill="#000000">y</text>
</g>
<!-- 4726718416 -->
<g id="node6" class="node">
<title>4726718416</title>
<ellipse fill="#62757f" fill-opacity="0.501961" stroke="#62757f" stroke-opacity="0.501961" cx="297.9675" cy="-91" rx="78.9351" ry="18"/>
<text text-anchor="middle" x="297.9675" y="-86.8" font-family="Times,serif" font-size="14.00" fill="#000000">CompareValue: &quot;0&quot;</text>
</g>
<!-- 4726580224&#45;&gt;4726718416 -->
<g id="edge6" class="edge">
<title>4726580224&#45;&gt;4726718416</title>
<path fill="none" stroke="#000000" d="M211.141,-162.7988C226.821,-149.8328 250.3197,-130.4011 268.9183,-115.0215"/>
<polygon fill="#000000" stroke="#000000" points="271.3359,-117.564 276.8119,-108.4941 266.875,-112.1695 271.3359,-117.564"/>
<text text-anchor="middle" x="267.1262" y="-129.8" font-family="Times,serif" font-size="14.00" fill="#000000">value</text>
</g>
<!-- 4726580448 -->
<g id="node2" class="node">
<title>4726580448</title>
<ellipse fill="#28a745" fill-opacity="0.501961" stroke="#28a745" stroke-opacity="0.501961" cx="157.9675" cy="-263" rx="27" ry="18"/>
<text text-anchor="middle" x="157.9675" y="-258.8" font-family="Times,serif" font-size="14.00" fill="#000000">y</text>
</g>
<!-- 4726580448&#45;&gt;4726580224 -->
<g id="edge1" class="edge">
<title>4726580448&#45;&gt;4726580224</title>
<path fill="none" stroke="#000000" d="M165.2527,-245.5966C170.2786,-233.5902 177.0569,-217.3977 182.7657,-203.76"/>
<polygon fill="#000000" stroke="#000000" points="186.0603,-204.9534 186.6932,-194.3775 179.6032,-202.2504 186.0603,-204.9534"/>
<text text-anchor="middle" x="182.4675" y="-215.8" font-family="Times,serif" font-size="14.00" fill="#000000">y</text>
</g>
<!-- 4726820992&#45;&gt;4726580168 -->
<g id="edge3" class="edge">
<title>4726820992&#45;&gt;4726580168</title>
<path fill="none" stroke="#000000" d="M103.3771,-73.7C118.8369,-62.7431 138.8498,-48.5592 154.8109,-37.2469"/>
<polygon fill="#000000" stroke="#000000" points="157.0719,-39.9345 163.2067,-31.2965 153.0242,-34.2234 157.0719,-39.9345"/>
</g>
<!-- 4470668592 -->
<g id="node5" class="node">
<title>4470668592</title>
<ellipse fill="#28a745" fill-opacity="0.501961" stroke="#28a745" stroke-opacity="0.501961" cx="229.9675" cy="-263" rx="27" ry="18"/>
<text text-anchor="middle" x="229.9675" y="-258.8" font-family="Times,serif" font-size="14.00" fill="#000000">x</text>
</g>
<!-- 4470668592&#45;&gt;4726580224 -->
<g id="edge4" class="edge">
<title>4470668592&#45;&gt;4726580224</title>
<path fill="none" stroke="#000000" d="M222.6824,-245.5966C217.6565,-233.5902 210.8782,-217.3977 205.1694,-203.76"/>
<polygon fill="#000000" stroke="#000000" points="208.3318,-202.2504 201.2418,-194.3775 201.8747,-204.9534 208.3318,-202.2504"/>
<text text-anchor="middle" x="217.4675" y="-215.8" font-family="Times,serif" font-size="14.00" fill="#000000">x</text>
</g>
<!-- 4726580056 -->
<g id="node7" class="node">
<title>4726580056</title>
<ellipse fill="#62757f" fill-opacity="0.501961" stroke="#62757f" stroke-opacity="0.501961" cx="297.9675" cy="-18" rx="53.1367" ry="18"/>
<text text-anchor="middle" x="297.9675" y="-13.8" font-family="Times,serif" font-size="14.00" fill="#000000">handle_zero</text>
</g>
<!-- 4726718416&#45;&gt;4726580056 -->
<g id="edge5" class="edge">
<title>4726718416&#45;&gt;4726580056</title>
<path fill="none" stroke="#000000" d="M297.9675,-72.9551C297.9675,-64.8828 297.9675,-55.1764 297.9675,-46.1817"/>
<polygon fill="#000000" stroke="#000000" points="301.4676,-46.0903 297.9675,-36.0904 294.4676,-46.0904 301.4676,-46.0903"/>
</g>
</g>
</svg>
