<?xml version="1.0" encoding="UTF-8" standalone="no"?>
<!DOCTYPE svg PUBLIC "-//W3C//DTD SVG 1.1//EN"
 "http://www.w3.org/Graphics/SVG/1.1/DTD/svg11.dtd">
<!-- Generated by graphviz version 2.40.1 (20161225.0304)
 -->
<!-- Title: %3 Pages: 1 -->
<svg width="399pt" height="474pt"
 viewBox="0.00 0.00 398.65 474.00" xmlns="http://www.w3.org/2000/svg" xmlns:xlink="http://www.w3.org/1999/xlink">
<g id="graph0" class="graph" transform="scale(1 1) rotate(0) translate(4 470)">
<title>%3</title>
<polygon fill="#ffffff" stroke="transparent" points="-4,4 -4,-470 394.6548,-470 394.6548,4 -4,4"/>
<!-- 4713769000 -->
<g id="node1" class="node">
<title>4713769000</title>
<ellipse fill="none" stroke="#000000" cx="169.4746" cy="-362" rx="51.207" ry="18"/>
<text text-anchor="middle" x="169.4746" y="-357.8" font-family="Times,serif" font-size="14.00" fill="#000000">retrieve_url</text>
</g>
<!-- 4713769672 -->
<g id="node2" class="node">
<title>4713769672</title>
<ellipse fill="none" stroke="#000000" cx="256.4746" cy="-276" rx="77.7589" ry="18"/>
<text text-anchor="middle" x="256.4746" y="-271.8" font-family="Times,serif" font-size="14.00" fill="#000000">create_episode_list</text>
</g>
<!-- 4713769000&#45;&gt;4713769672 -->
<g id="edge5" class="edge">
<title>4713769000&#45;&gt;4713769672</title>
<path fill="none" stroke="#000000" d="M170.2349,-343.6648C171.5166,-333.3865 174.601,-320.8865 181.8125,-312 187.1568,-305.4144 193.9976,-299.953 201.3627,-295.4472"/>
<polygon fill="#000000" stroke="#000000" points="203.119,-298.4757 210.1912,-290.5867 199.743,-292.3436 203.119,-298.4757"/>
<text text-anchor="middle" x="212.8056" y="-314.8" font-family="Times,serif" font-size="14.00" fill="#000000">main_html</text>
</g>
<!-- 4713770232 -->
<g id="node9" class="node">
<title>4713770232</title>
<polygon fill="none" stroke="#000000" points="318.6664,-208 194.2828,-208 194.2828,-172 318.6664,-172 318.6664,-208"/>
<text text-anchor="middle" x="256.4746" y="-185.8" font-family="Times,serif" font-size="14.00" fill="#000000">retrieve_url &lt;map&gt;</text>
</g>
<!-- 4713769672&#45;&gt;4713770232 -->
<g id="edge2" class="edge">
<title>4713769672&#45;&gt;4713770232</title>
<path fill="none" stroke="#000000" stroke-dasharray="5,2" d="M256.4746,-257.7616C256.4746,-246.3597 256.4746,-231.4342 256.4746,-218.494"/>
<polygon fill="#000000" stroke="#000000" points="259.9747,-218.2121 256.4746,-208.2121 252.9747,-218.2121 259.9747,-218.2121"/>
<text text-anchor="middle" x="264.2504" y="-228.8" font-family="Times,serif" font-size="14.00" fill="#000000">url</text>
</g>
<!-- 4713707784 -->
<g id="node3" class="node">
<title>4713707784</title>
<ellipse fill="none" stroke="#000000" cx="44.4746" cy="-104" rx="44.4491" ry="18"/>
<text text-anchor="middle" x="44.4746" y="-99.8" font-family="Times,serif" font-size="14.00" fill="#000000">create_db</text>
</g>
<!-- 4713708344 -->
<g id="node7" class="node">
<title>4713708344</title>
<polygon fill="none" stroke="#000000" points="194.7385,-36 54.2106,-36 54.2106,0 194.7385,0 194.7385,-36"/>
<text text-anchor="middle" x="124.4746" y="-13.8" font-family="Times,serif" font-size="14.00" fill="#000000">insert_episode &lt;map&gt;</text>
</g>
<!-- 4713707784&#45;&gt;4713708344 -->
<g id="edge7" class="edge">
<title>4713707784&#45;&gt;4713708344</title>
<path fill="none" stroke="#000000" d="M60.28,-87.0092C71.8063,-74.6184 87.6259,-57.6123 100.6766,-43.5828"/>
<polygon fill="#000000" stroke="#000000" points="103.3488,-45.8489 107.5972,-36.1431 98.2235,-41.0812 103.3488,-45.8489"/>
</g>
<!-- 4713708680 -->
<g id="node4" class="node">
<title>4713708680</title>
<ellipse fill="none" stroke="#000000" cx="91.4746" cy="-190" rx="34.8458" ry="18"/>
<text text-anchor="middle" x="91.4746" y="-185.8" font-family="Times,serif" font-size="14.00" fill="#000000">db_file</text>
</g>
<!-- 4713708680&#45;&gt;4713707784 -->
<g id="edge3" class="edge">
<title>4713708680&#45;&gt;4713707784</title>
<path fill="none" stroke="#000000" d="M81.735,-172.4372C78.4959,-166.5788 74.8761,-160.0131 71.5849,-154 67.4055,-146.364 62.8896,-138.0579 58.7647,-130.4487"/>
<polygon fill="#000000" stroke="#000000" points="61.8153,-128.7318 53.976,-121.6046 55.6597,-132.0648 61.8153,-128.7318"/>
<text text-anchor="middle" x="91.9194" y="-142.8" font-family="Times,serif" font-size="14.00" fill="#000000">db_file</text>
</g>
<!-- 4713708680&#45;&gt;4713708344 -->
<g id="edge10" class="edge">
<title>4713708680&#45;&gt;4713708344</title>
<path fill="none" stroke="#000000" d="M102.3573,-172.6348C105.4757,-166.9004 108.5489,-160.3578 110.4746,-154 121.4082,-117.9017 124.1624,-74.2166 124.6789,-46.2722"/>
<polygon fill="#000000" stroke="#000000" points="128.181,-46.0647 124.7802,-36.0306 121.1814,-45.9954 128.181,-46.0647"/>
<text text-anchor="middle" x="142.9194" y="-99.8" font-family="Times,serif" font-size="14.00" fill="#000000">db_file</text>
</g>
<!-- 4713768664 -->
<g id="node5" class="node">
<title>4713768664</title>
<ellipse fill="none" stroke="#000000" cx="212.4746" cy="-448" rx="27" ry="18"/>
<text text-anchor="middle" x="212.4746" y="-443.8" font-family="Times,serif" font-size="14.00" fill="#000000">url</text>
</g>
<!-- 4713768664&#45;&gt;4713769000 -->
<g id="edge1" class="edge">
<title>4713768664&#45;&gt;4713769000</title>
<path fill="none" stroke="#000000" d="M203.7729,-430.5966C197.8486,-418.7482 189.8861,-402.8231 183.1244,-389.2996"/>
<polygon fill="#000000" stroke="#000000" points="186.062,-387.3485 178.4593,-379.9695 179.801,-390.4791 186.062,-387.3485"/>
<text text-anchor="middle" x="202.2504" y="-400.8" font-family="Times,serif" font-size="14.00" fill="#000000">url</text>
</g>
<!-- 4713768664&#45;&gt;4713769672 -->
<g id="edge6" class="edge">
<title>4713768664&#45;&gt;4713769672</title>
<path fill="none" stroke="#000000" d="M217.0176,-430.2408C224.6716,-400.3208 240.1933,-339.6451 249.3214,-303.9623"/>
<polygon fill="#000000" stroke="#000000" points="252.7364,-304.7349 251.824,-294.1795 245.9548,-303 252.7364,-304.7349"/>
<text text-anchor="middle" x="263.1884" y="-357.8" font-family="Times,serif" font-size="14.00" fill="#000000">base_url</text>
</g>
<!-- 4713769392 -->
<g id="node6" class="node">
<title>4713769392</title>
<polygon fill="none" stroke="#000000" points="331.8285,-122 181.1206,-122 181.1206,-86 331.8285,-86 331.8285,-122"/>
<text text-anchor="middle" x="256.4746" y="-99.8" font-family="Times,serif" font-size="14.00" fill="#000000">scrape_dialogue &lt;map&gt;</text>
</g>
<!-- 4713769392&#45;&gt;4713708344 -->
<g id="edge9" class="edge">
<title>4713769392&#45;&gt;4713708344</title>
<path fill="none" stroke="#000000" stroke-dasharray="5,2" d="M228.803,-85.9716C209.0026,-73.0713 182.1589,-55.5822 160.6594,-41.575"/>
<polygon fill="#000000" stroke="#000000" points="162.3989,-38.531 152.1097,-36.0047 158.5777,-44.3961 162.3989,-38.531"/>
<text text-anchor="middle" x="219.8574" y="-56.8" font-family="Times,serif" font-size="14.00" fill="#000000">episode</text>
</g>
<!-- 4713768888 -->
<g id="node8" class="node">
<title>4713768888</title>
<ellipse fill="none" stroke="#000000" cx="356.4746" cy="-362" rx="34.3614" ry="18"/>
<text text-anchor="middle" x="356.4746" y="-357.8" font-family="Times,serif" font-size="14.00" fill="#000000">bypass</text>
</g>
<!-- 4713768888&#45;&gt;4713769672 -->
<g id="edge4" class="edge">
<title>4713768888&#45;&gt;4713769672</title>
<path fill="none" stroke="#000000" d="M338.5966,-346.6249C323.5916,-333.7206 301.8934,-315.0602 284.5686,-300.1609"/>
<polygon fill="#000000" stroke="#000000" points="286.8202,-297.4809 276.9561,-293.6142 282.2559,-302.7882 286.8202,-297.4809"/>
<text text-anchor="middle" x="330.5297" y="-314.8" font-family="Times,serif" font-size="14.00" fill="#000000">bypass</text>
</g>
<!-- 4713770232&#45;&gt;4713769392 -->
<g id="edge8" class="edge">
<title>4713770232&#45;&gt;4713769392</title>
<path fill="none" stroke="#000000" stroke-dasharray="5,2" d="M256.4746,-171.7616C256.4746,-160.3597 256.4746,-145.4342 256.4746,-132.494"/>
<polygon fill="#000000" stroke="#000000" points="259.9747,-132.2121 256.4746,-122.2121 252.9747,-132.2121 259.9747,-132.2121"/>
<text text-anchor="middle" x="294.1919" y="-142.8" font-family="Times,serif" font-size="14.00" fill="#000000">episode_html</text>
</g>
</g>
</svg>
