<svg width="495" height="800" viewBox="0 0 495 800" fill="none" xmlns="http://www.w3.org/2000/svg">
<rect width="494.686" height="800" fill="black" fill-opacity="0"/>
<mask id="mask0" mask-type="alpha" maskUnits="userSpaceOnUse" x="0" y="0" width="495" height="797">
<path d="M494.686 371.014L247.343 247.343V498.551L494.686 371.014Z" fill="black"/>
<path d="M270.882 485.455C274.448 483.47 276.231 482.478 277.057 480.768C277.883 479.057 277.551 477.044 276.888 473.017L271.183 438.398C262.637 386.535 258.364 360.603 252.854 361.054C247.343 361.505 247.343 387.787 247.343 440.349V498.551L270.882 485.455Z" fill="black"/>
<path d="M252.709 2.68326C250.076 1.36655 248.759 0.708199 247.343 0.708201C245.926 0.708202 244.61 1.36656 241.976 2.68328L21.4662 112.938C12.0997 117.622 7.41641 119.963 7.41641 123.671C7.41641 127.38 12.0997 129.721 21.4662 134.405L494.686 371.014L494.686 131.087C494.686 127.479 494.686 125.675 493.79 124.225C492.894 122.775 491.28 121.968 488.053 120.354L252.709 2.68326Z" fill="black"/>
<path d="M247.343 247.343L6.63344 367.698C3.40594 369.311 1.79219 370.118 0.896095 371.568C0 373.018 0 374.822 0 378.431V780.854C0 789.45 0 793.747 2.81358 795.511C5.62716 797.274 9.49516 795.401 17.2312 791.654L240.574 683.472C243.865 681.878 245.511 681.081 246.427 679.619C247.343 678.158 247.343 676.329 247.343 672.672V247.343Z" fill="black"/>
<path d="M463.768 355.556L247.343 247.343L241.038 250.495C230.491 255.769 225.217 258.406 225.423 262.33C225.629 266.253 231.15 268.324 242.191 272.464L463.768 355.556Z" fill="black"/>
</mask>
<g mask="url(#mask0)">
<path d="M494.686 371.014L247.343 247.343V498.551L494.686 371.014Z" fill="url(#paint0_linear)"/>
<path d="M278.592 483.126L247.343 293.72V498.551L278.592 483.126Z" fill="#0D3958" fill-opacity="0.2"/>
<path d="M463.768 355.555L320.22 210.645L216.425 262.802L463.768 355.555Z" fill="#0D3958" fill-opacity="0.2"/>
<path d="M247.343 247.343L0 371.014V800L247.343 680.193V247.343Z" fill="url(#paint1_linear)"/>
<path d="M247.343 5.15998e-05L0 123.672L494.686 371.014V123.671L247.343 5.15998e-05Z" fill="url(#paint2_linear)"/>
</g>
<defs>
<linearGradient id="paint0_linear" x1="463.732" y1="456.067" x2="275.783" y2="292.718" gradientUnits="userSpaceOnUse">
<stop stop-color="#B4C0C9"/>
<stop offset="0.972376" stop-color="#94A5B2"/>
</linearGradient>
<linearGradient id="paint1_linear" x1="74.0755" y1="270.537" x2="375.649" y2="578.846" gradientUnits="userSpaceOnUse">
<stop stop-color="#647989"/>
<stop offset="1" stop-color="#2F383E"/>
</linearGradient>
<linearGradient id="paint2_linear" x1="66.5221" y1="58.9318" x2="332.024" y2="389.337" gradientUnits="userSpaceOnUse">
<stop stop-color="#2EDAFF"/>
<stop offset="1" stop-color="#3B8DFF"/>
</linearGradient>
</defs>
</svg>
