<?xml version="1.0" encoding="UTF-8" standalone="no"?>
<!DOCTYPE svg PUBLIC "-//W3C//DTD SVG 1.1//EN"
 "http://www.w3.org/Graphics/SVG/1.1/DTD/svg11.dtd">
<!-- Generated by graphviz version 2.38.0 (20140413.2041)
 -->
<!-- Title: %3 Pages: 1 -->
<svg width="369pt" height="302pt"
 viewBox="0.00 0.00 369.32 302.00" xmlns="http://www.w3.org/2000/svg" xmlns:xlink="http://www.w3.org/1999/xlink">
<g id="graph0" class="graph" transform="scale(1 1) rotate(0) translate(4 298)">
<title>%3</title>
<polygon fill="white" stroke="none" points="-4,4 -4,-298 365.318,-298 365.318,4 -4,4"/>
<!-- 4682134080 -->
<g id="node1" class="node"><title>4682134080</title>
<ellipse fill="none" stroke="black" cx="194" cy="-190" rx="27" ry="18"/>
<text text-anchor="middle" x="194" y="-185.8" font-family="Times,serif" font-size="14.00">add</text>
</g>
<!-- 4682309760 -->
<g id="node3" class="node"><title>4682309760</title>
<ellipse fill="none" stroke="black" cx="90" cy="-18" rx="32.4237" ry="18"/>
<text text-anchor="middle" x="90" y="-13.8" font-family="Times,serif" font-size="14.00">divide</text>
</g>
<!-- 4682134080&#45;&gt;4682309760 -->
<g id="edge3" class="edge"><title>4682134080&#45;&gt;4682309760</title>
<path fill="none" stroke="black" d="M171.124,-179.815C148.537,-169.424 115.099,-150.193 98.8965,-122 85.6003,-98.8641 84.7471,-67.8617 86.3688,-45.9328"/>
<polygon fill="black" stroke="black" points="89.8535,-46.2583 87.32,-35.9708 82.8852,-45.5928 89.8535,-46.2583"/>
<text text-anchor="middle" x="118.052" y="-99.8" font-family="Times,serif" font-size="14.00">denom</text>
</g>
<!-- 4682310320 -->
<g id="node7" class="node"><title>4682310320</title>
<ellipse fill="none" stroke="black" cx="194" cy="-104" rx="48.0481" ry="18"/>
<text text-anchor="middle" x="194" y="-99.8" font-family="Times,serif" font-size="14.00">match: &quot;1&quot;</text>
</g>
<!-- 4682134080&#45;&gt;4682310320 -->
<g id="edge1" class="edge"><title>4682134080&#45;&gt;4682310320</title>
<path fill="none" stroke="black" d="M194,-171.595C194,-160.257 194,-145.227 194,-132.315"/>
<polygon fill="black" stroke="black" points="197.5,-132.095 194,-122.095 190.5,-132.095 197.5,-132.095"/>
<text text-anchor="middle" x="209.159" y="-142.8" font-family="Times,serif" font-size="14.00">value</text>
</g>
<!-- 4682310040 -->
<g id="node8" class="node"><title>4682310040</title>
<ellipse fill="none" stroke="black" cx="308" cy="-104" rx="48.0481" ry="18"/>
<text text-anchor="middle" x="308" y="-99.8" font-family="Times,serif" font-size="14.00">match: &quot;0&quot;</text>
</g>
<!-- 4682134080&#45;&gt;4682310040 -->
<g id="edge8" class="edge"><title>4682134080&#45;&gt;4682310040</title>
<path fill="none" stroke="black" d="M211.812,-175.875C229.755,-162.654 257.739,-142.034 278.906,-126.437"/>
<polygon fill="black" stroke="black" points="281.249,-129.059 287.223,-120.309 277.096,-123.424 281.249,-129.059"/>
<text text-anchor="middle" x="272.159" y="-142.8" font-family="Times,serif" font-size="14.00">value</text>
</g>
<!-- 4682133856 -->
<g id="node2" class="node"><title>4682133856</title>
<ellipse fill="none" stroke="black" cx="158" cy="-276" rx="27" ry="18"/>
<text text-anchor="middle" x="158" y="-271.8" font-family="Times,serif" font-size="14.00">x</text>
</g>
<!-- 4682133856&#45;&gt;4682134080 -->
<g id="edge2" class="edge"><title>4682133856&#45;&gt;4682134080</title>
<path fill="none" stroke="black" d="M165.112,-258.404C170.191,-246.554 177.122,-230.382 182.922,-216.849"/>
<polygon fill="black" stroke="black" points="186.18,-218.131 186.902,-207.561 179.746,-215.374 186.18,-218.131"/>
<text text-anchor="middle" x="182.5" y="-228.8" font-family="Times,serif" font-size="14.00">x</text>
</g>
<!-- 4682309984 -->
<g id="node4" class="node"><title>4682309984</title>
<ellipse fill="none" stroke="black" cx="27" cy="-104" rx="27" ry="18"/>
<text text-anchor="middle" x="27" y="-99.8" font-family="Times,serif" font-size="14.00">6</text>
</g>
<!-- 4682309984&#45;&gt;4682309760 -->
<g id="edge4" class="edge"><title>4682309984&#45;&gt;4682309760</title>
<path fill="none" stroke="black" d="M33.3687,-86.2178C37.5733,-76.3118 43.6745,-63.8296 51.1104,-54 54.8316,-49.0808 59.315,-44.3086 63.8944,-39.9516"/>
<polygon fill="black" stroke="black" points="66.4702,-42.3428 71.5743,-33.0584 61.7944,-37.1334 66.4702,-42.3428"/>
<text text-anchor="middle" x="64.4448" y="-56.8" font-family="Times,serif" font-size="14.00">num</text>
</g>
<!-- 4682133800 -->
<g id="node5" class="node"><title>4682133800</title>
<ellipse fill="none" stroke="black" cx="308" cy="-18" rx="53.1367" ry="18"/>
<text text-anchor="middle" x="308" y="-13.8" font-family="Times,serif" font-size="14.00">handle_zero</text>
</g>
<!-- 4682134416 -->
<g id="node6" class="node"><title>4682134416</title>
<ellipse fill="none" stroke="black" cx="230" cy="-276" rx="27" ry="18"/>
<text text-anchor="middle" x="230" y="-271.8" font-family="Times,serif" font-size="14.00">y</text>
</g>
<!-- 4682134416&#45;&gt;4682134080 -->
<g id="edge6" class="edge"><title>4682134416&#45;&gt;4682134080</title>
<path fill="none" stroke="black" d="M222.888,-258.404C217.809,-246.554 210.878,-230.382 205.078,-216.849"/>
<polygon fill="black" stroke="black" points="208.254,-215.374 201.098,-207.561 201.82,-218.131 208.254,-215.374"/>
<text text-anchor="middle" x="218.5" y="-228.8" font-family="Times,serif" font-size="14.00">y</text>
</g>
<!-- 4682310320&#45;&gt;4682309760 -->
<g id="edge5" class="edge"><title>4682310320&#45;&gt;4682309760</title>
<path fill="none" stroke="black" d="M174.438,-87.2002C157.804,-73.7648 133.796,-54.3737 115.629,-39.7"/>
<polygon fill="black" stroke="black" points="117.718,-36.8889 107.74,-33.3283 113.32,-42.3345 117.718,-36.8889"/>
</g>
<!-- 4682310040&#45;&gt;4682133800 -->
<g id="edge7" class="edge"><title>4682310040&#45;&gt;4682133800</title>
<path fill="none" stroke="black" d="M308,-85.5951C308,-74.2572 308,-59.2271 308,-46.3153"/>
<polygon fill="black" stroke="black" points="311.5,-46.0951 308,-36.0952 304.5,-46.0952 311.5,-46.0951"/>
</g>
</g>
</svg>
