<?xml version="1.0" encoding="UTF-8" standalone="no"?>
<!DOCTYPE svg PUBLIC "-//W3C//DTD SVG 1.1//EN"
 "http://www.w3.org/Graphics/SVG/1.1/DTD/svg11.dtd">
<!-- Generated by graphviz version 2.38.0 (20140413.2041)
 -->
<!-- Title: %3 Pages: 1 -->
<svg width="317pt" height="302pt"
 viewBox="0.00 0.00 317.33 302.00" xmlns="http://www.w3.org/2000/svg" xmlns:xlink="http://www.w3.org/1999/xlink">
<g id="graph0" class="graph" transform="scale(1 1) rotate(0) translate(4 298)">
<title>%3</title>
<polygon fill="white" stroke="none" points="-4,4 -4,-298 313.33,-298 313.33,4 -4,4"/>
<!-- 4338082144 -->
<g id="node1" class="node"><title>4338082144</title>
<ellipse fill="none" stroke="black" cx="142.012" cy="-190" rx="27" ry="18"/>
<text text-anchor="middle" x="142.012" y="-185.8" font-family="Times,serif" font-size="14.00">Add</text>
</g>
<!-- 4396410304 -->
<g id="node3" class="node"><title>4396410304</title>
<ellipse fill="none" stroke="black" cx="49.0116" cy="-18" rx="27" ry="18"/>
<text text-anchor="middle" x="49.0116" y="-13.8" font-family="Times,serif" font-size="14.00">Div</text>
</g>
<!-- 4338082144&#45;&gt;4396410304 -->
<g id="edge4" class="edge"><title>4338082144&#45;&gt;4396410304</title>
<path fill="none" stroke="black" d="M115.979,-184.631C83.7172,-177.669 30.065,-160.664 6.01162,-122 -10.2353,-95.8845 10.1941,-62.5583 28.0659,-41.0019"/>
<polygon fill="black" stroke="black" points="30.7921,-43.2005 34.7084,-33.356 25.5078,-38.6096 30.7921,-43.2005"/>
<text text-anchor="middle" x="9.51162" y="-99.8" font-family="Times,serif" font-size="14.00">y</text>
</g>
<!-- 4396411480 -->
<g id="node6" class="node"><title>4396411480</title>
<ellipse fill="none" stroke="black" cx="256.012" cy="-104" rx="48.0481" ry="18"/>
<text text-anchor="middle" x="256.012" y="-99.8" font-family="Times,serif" font-size="14.00">match: &quot;0&quot;</text>
</g>
<!-- 4338082144&#45;&gt;4396411480 -->
<g id="edge2" class="edge"><title>4338082144&#45;&gt;4396411480</title>
<path fill="none" stroke="black" d="M159.824,-175.875C177.767,-162.654 205.751,-142.034 226.918,-126.437"/>
<polygon fill="black" stroke="black" points="229.26,-129.059 235.235,-120.309 225.108,-123.424 229.26,-129.059"/>
<text text-anchor="middle" x="220.17" y="-142.8" font-family="Times,serif" font-size="14.00">value</text>
</g>
<!-- 4396409968 -->
<g id="node7" class="node"><title>4396409968</title>
<ellipse fill="none" stroke="black" cx="142.012" cy="-104" rx="48.0481" ry="18"/>
<text text-anchor="middle" x="142.012" y="-99.8" font-family="Times,serif" font-size="14.00">match: &quot;1&quot;</text>
</g>
<!-- 4338082144&#45;&gt;4396409968 -->
<g id="edge3" class="edge"><title>4338082144&#45;&gt;4396409968</title>
<path fill="none" stroke="black" d="M142.012,-171.595C142.012,-160.257 142.012,-145.227 142.012,-132.315"/>
<polygon fill="black" stroke="black" points="145.512,-132.095 142.012,-122.095 138.512,-132.095 145.512,-132.095"/>
<text text-anchor="middle" x="157.17" y="-142.8" font-family="Times,serif" font-size="14.00">value</text>
</g>
<!-- 4396544576 -->
<g id="node2" class="node"><title>4396544576</title>
<ellipse fill="none" stroke="black" cx="106.012" cy="-276" rx="27" ry="18"/>
<text text-anchor="middle" x="106.012" y="-271.8" font-family="Times,serif" font-size="14.00">y</text>
</g>
<!-- 4396544576&#45;&gt;4338082144 -->
<g id="edge5" class="edge"><title>4396544576&#45;&gt;4338082144</title>
<path fill="none" stroke="black" d="M113.124,-258.404C118.203,-246.554 125.134,-230.382 130.933,-216.849"/>
<polygon fill="black" stroke="black" points="134.192,-218.131 134.914,-207.561 127.758,-215.374 134.192,-218.131"/>
<text text-anchor="middle" x="130.512" y="-228.8" font-family="Times,serif" font-size="14.00">y</text>
</g>
<!-- 4396411424 -->
<g id="node4" class="node"><title>4396411424</title>
<ellipse fill="none" stroke="black" cx="49.0116" cy="-104" rx="27" ry="18"/>
<text text-anchor="middle" x="49.0116" y="-99.8" font-family="Times,serif" font-size="14.00">6</text>
</g>
<!-- 4396411424&#45;&gt;4396410304 -->
<g id="edge6" class="edge"><title>4396411424&#45;&gt;4396410304</title>
<path fill="none" stroke="black" d="M49.0116,-85.5951C49.0116,-74.2572 49.0116,-59.2271 49.0116,-46.3153"/>
<polygon fill="black" stroke="black" points="52.5117,-46.0951 49.0116,-36.0952 45.5117,-46.0952 52.5117,-46.0951"/>
<text text-anchor="middle" x="52.5116" y="-56.8" font-family="Times,serif" font-size="14.00">x</text>
</g>
<!-- 4396544296 -->
<g id="node5" class="node"><title>4396544296</title>
<ellipse fill="none" stroke="black" cx="256.012" cy="-18" rx="53.1367" ry="18"/>
<text text-anchor="middle" x="256.012" y="-13.8" font-family="Times,serif" font-size="14.00">handle_zero</text>
</g>
<!-- 4396411480&#45;&gt;4396544296 -->
<g id="edge7" class="edge"><title>4396411480&#45;&gt;4396544296</title>
<path fill="none" stroke="black" d="M256.012,-85.5951C256.012,-74.2572 256.012,-59.2271 256.012,-46.3153"/>
<polygon fill="black" stroke="black" points="259.512,-46.0951 256.012,-36.0952 252.512,-46.0952 259.512,-46.0951"/>
</g>
<!-- 4396409968&#45;&gt;4396410304 -->
<g id="edge1" class="edge"><title>4396409968&#45;&gt;4396410304</title>
<path fill="none" stroke="black" d="M124.519,-87.2002C109.688,-73.8042 88.3011,-54.4873 72.0724,-39.8291"/>
<polygon fill="black" stroke="black" points="74.3383,-37.1593 64.5712,-33.0538 69.6462,-42.3541 74.3383,-37.1593"/>
</g>
<!-- 4337978840 -->
<g id="node8" class="node"><title>4337978840</title>
<ellipse fill="none" stroke="black" cx="178.012" cy="-276" rx="27" ry="18"/>
<text text-anchor="middle" x="178.012" y="-271.8" font-family="Times,serif" font-size="14.00">x</text>
</g>
<!-- 4337978840&#45;&gt;4338082144 -->
<g id="edge8" class="edge"><title>4337978840&#45;&gt;4338082144</title>
<path fill="none" stroke="black" d="M170.899,-258.404C165.821,-246.554 158.89,-230.382 153.09,-216.849"/>
<polygon fill="black" stroke="black" points="156.266,-215.374 149.109,-207.561 149.832,-218.131 156.266,-215.374"/>
<text text-anchor="middle" x="165.512" y="-228.8" font-family="Times,serif" font-size="14.00">x</text>
</g>
</g>
</svg>
