<?xml version="1.0" encoding="UTF-8" standalone="no"?>
<!DOCTYPE svg PUBLIC "-//W3C//DTD SVG 1.1//EN"
 "http://www.w3.org/Graphics/SVG/1.1/DTD/svg11.dtd">
<!-- Generated by graphviz version 2.38.0 (20140413.2041)
 -->
<!-- Title: %3 Pages: 1 -->
<svg width="134pt" height="130pt"
 viewBox="0.00 0.00 134.00 130.00" xmlns="http://www.w3.org/2000/svg" xmlns:xlink="http://www.w3.org/1999/xlink">
<g id="graph0" class="graph" transform="scale(1 1) rotate(0) translate(4 126)">
<title>%3</title>
<polygon fill="white" stroke="none" points="-4,4 -4,-126 130,-126 130,4 -4,4"/>
<!-- 4396544296 -->
<g id="node1" class="node"><title>4396544296</title>
<ellipse fill="none" stroke="black" cx="63" cy="-18" rx="27" ry="18"/>
<text text-anchor="middle" x="63" y="-13.8" font-family="Times,serif" font-size="14.00">Add</text>
</g>
<!-- 4338082088 -->
<g id="node2" class="node"><title>4338082088</title>
<ellipse fill="none" stroke="black" cx="27" cy="-104" rx="27" ry="18"/>
<text text-anchor="middle" x="27" y="-99.8" font-family="Times,serif" font-size="14.00">x</text>
</g>
<!-- 4338082088&#45;&gt;4396544296 -->
<g id="edge2" class="edge"><title>4338082088&#45;&gt;4396544296</title>
<path fill="none" stroke="black" d="M34.1124,-86.4043C39.1911,-74.5542 46.1219,-58.3822 51.9217,-44.8493"/>
<polygon fill="black" stroke="black" points="55.1801,-46.1314 55.9023,-35.5612 48.7461,-43.3739 55.1801,-46.1314"/>
<text text-anchor="middle" x="51.5" y="-56.8" font-family="Times,serif" font-size="14.00">x</text>
</g>
<!-- 4338082144 -->
<g id="node3" class="node"><title>4338082144</title>
<ellipse fill="none" stroke="black" cx="99" cy="-104" rx="27" ry="18"/>
<text text-anchor="middle" x="99" y="-99.8" font-family="Times,serif" font-size="14.00">y</text>
</g>
<!-- 4338082144&#45;&gt;4396544296 -->
<g id="edge1" class="edge"><title>4338082144&#45;&gt;4396544296</title>
<path fill="none" stroke="black" d="M91.8876,-86.4043C86.8089,-74.5542 79.8781,-58.3822 74.0783,-44.8493"/>
<polygon fill="black" stroke="black" points="77.2539,-43.3739 70.0977,-35.5612 70.8199,-46.1314 77.2539,-43.3739"/>
<text text-anchor="middle" x="86.5" y="-56.8" font-family="Times,serif" font-size="14.00">y</text>
</g>
</g>
</svg>
