<?xml version="1.0" encoding="UTF-8" standalone="no"?>
<!DOCTYPE svg PUBLIC "-//W3C//DTD SVG 1.1//EN"
 "http://www.w3.org/Graphics/SVG/1.1/DTD/svg11.dtd">
<!-- Generated by graphviz version 2.40.1 (20161225.0304)
 -->
<!-- Title: %3 Pages: 1 -->
<svg width="1304pt" height="260pt"
 viewBox="0.00 0.00 1303.54 260.00" xmlns="http://www.w3.org/2000/svg" xmlns:xlink="http://www.w3.org/1999/xlink">
<g id="graph0" class="graph" transform="scale(1 1) rotate(0) translate(4 256)">
<title>%3</title>
<polygon fill="#ffffff" stroke="transparent" points="-4,4 -4,-256 1299.5404,-256 1299.5404,4 -4,4"/>
<!-- 140460341385360 -->
<g id="node1" class="node">
<title>140460341385360</title>
<ellipse fill="#696969" fill-opacity="0.600000" stroke="#696969" stroke-opacity="0.600000" cx="507.3968" cy="-234" rx="28.6953" ry="18"/>
<text text-anchor="middle" x="507.3968" y="-230.3" font-family="Times,serif" font-size="14.00" fill="#000000">State</text>
</g>
<!-- 140460341387264 -->
<g id="node2" class="node">
<title>140460341387264</title>
<ellipse fill="#7ebdff" fill-opacity="0.600000" stroke="#7ebdff" stroke-opacity="0.600000" cx="224.3968" cy="-162" rx="40.0939" ry="18"/>
<text text-anchor="middle" x="224.3968" y="-158.3" font-family="Times,serif" font-size="14.00" fill="#000000">Pending</text>
</g>
<!-- 140460341385360&#45;&gt;140460341387264 -->
<g id="edge1" class="edge">
<title>140460341385360&#45;&gt;140460341387264</title>
<path fill="none" stroke="#000000" d="M480.7728,-227.2264C432.2564,-214.883 328.9718,-188.6057 269.364,-173.4404"/>
<polygon fill="#000000" stroke="#000000" points="270.0307,-169.9986 259.4764,-170.9249 268.3047,-176.7825 270.0307,-169.9986"/>
</g>
<!-- 140460341391840 -->
<g id="node7" class="node">
<title>140460341391840</title>
<ellipse fill="#696969" fill-opacity="0.600000" stroke="#696969" stroke-opacity="0.600000" cx="401.3968" cy="-162" rx="51.9908" ry="18"/>
<text text-anchor="middle" x="401.3968" y="-158.3" font-family="Times,serif" font-size="14.00" fill="#000000">_MetaState</text>
</g>
<!-- 140460341385360&#45;&gt;140460341391840 -->
<g id="edge6" class="edge">
<title>140460341385360&#45;&gt;140460341391840</title>
<path fill="none" stroke="#000000" d="M487.9547,-220.7941C472.7512,-210.4672 451.2891,-195.8891 433.54,-183.8331"/>
<polygon fill="#000000" stroke="#000000" points="435.4075,-180.8706 425.1687,-178.147 431.4743,-186.6611 435.4075,-180.8706"/>
</g>
<!-- 140460341400928 -->
<g id="node11" class="node">
<title>140460341400928</title>
<ellipse fill="#3d67ff" fill-opacity="0.600000" stroke="#3d67ff" stroke-opacity="0.600000" cx="538.3968" cy="-162" rx="42.4939" ry="18"/>
<text text-anchor="middle" x="538.3968" y="-158.3" font-family="Times,serif" font-size="14.00" fill="#000000">Running</text>
</g>
<!-- 140460341385360&#45;&gt;140460341400928 -->
<g id="edge10" class="edge">
<title>140460341385360&#45;&gt;140460341400928</title>
<path fill="none" stroke="#000000" d="M514.901,-216.5708C518.4652,-208.2927 522.8062,-198.2104 526.7824,-188.9752"/>
<polygon fill="#000000" stroke="#000000" points="530.0063,-190.3379 530.7463,-179.7689 523.5769,-187.5696 530.0063,-190.3379"/>
</g>
<!-- 140460341404144 -->
<g id="node13" class="node">
<title>140460341404144</title>
<ellipse fill="#003ccb" fill-opacity="0.600000" stroke="#003ccb" stroke-opacity="0.600000" cx="790.3968" cy="-162" rx="42.4939" ry="18"/>
<text text-anchor="middle" x="790.3968" y="-158.3" font-family="Times,serif" font-size="14.00" fill="#000000">Finished</text>
</g>
<!-- 140460341385360&#45;&gt;140460341404144 -->
<g id="edge12" class="edge">
<title>140460341385360&#45;&gt;140460341404144</title>
<path fill="none" stroke="#000000" d="M534.0207,-227.2264C582.1469,-214.9823 684.1639,-189.0274 743.9829,-173.8085"/>
<polygon fill="#000000" stroke="#000000" points="745.0941,-177.1373 753.9224,-171.2797 743.3681,-170.3534 745.0941,-177.1373"/>
</g>
<!-- 140460341388208 -->
<g id="node3" class="node">
<title>140460341388208</title>
<ellipse fill="#ffab00" fill-opacity="0.600000" stroke="#ffab00" stroke-opacity="0.600000" cx="131.3968" cy="-90" rx="48.9926" ry="18"/>
<text text-anchor="middle" x="131.3968" y="-86.3" font-family="Times,serif" font-size="14.00" fill="#000000">Scheduled</text>
</g>
<!-- 140460341387264&#45;&gt;140460341388208 -->
<g id="edge2" class="edge">
<title>140460341387264&#45;&gt;140460341388208</title>
<path fill="none" stroke="#000000" d="M204.2172,-146.3771C191.4451,-136.4891 174.723,-123.5429 160.5246,-112.5506"/>
<polygon fill="#000000" stroke="#000000" points="162.5552,-109.6964 152.5054,-106.3421 158.27,-115.2314 162.5552,-109.6964"/>
</g>
<!-- 140460341390096 -->
<g id="node4" class="node">
<title>140460341390096</title>
<ellipse fill="#99a8e8" fill-opacity="0.600000" stroke="#99a8e8" stroke-opacity="0.600000" cx="36.3968" cy="-18" rx="36.2938" ry="18"/>
<text text-anchor="middle" x="36.3968" y="-14.3" font-family="Times,serif" font-size="14.00" fill="#000000">Paused</text>
</g>
<!-- 140460341388208&#45;&gt;140460341390096 -->
<g id="edge3" class="edge">
<title>140460341388208&#45;&gt;140460341390096</title>
<path fill="none" stroke="#000000" d="M109.8398,-73.6621C96.4771,-63.5346 79.163,-50.4123 64.7023,-39.4526"/>
<polygon fill="#000000" stroke="#000000" points="66.653,-36.5394 56.5692,-33.2886 62.4249,-42.1182 66.653,-36.5394"/>
</g>
<!-- 140460341397376 -->
<g id="node5" class="node">
<title>140460341397376</title>
<ellipse fill="#f58c0c" fill-opacity="0.600000" stroke="#f58c0c" stroke-opacity="0.600000" cx="131.3968" cy="-18" rx="40.0939" ry="18"/>
<text text-anchor="middle" x="131.3968" y="-14.3" font-family="Times,serif" font-size="14.00" fill="#000000">Resume</text>
</g>
<!-- 140460341388208&#45;&gt;140460341397376 -->
<g id="edge4" class="edge">
<title>140460341388208&#45;&gt;140460341397376</title>
<path fill="none" stroke="#000000" d="M131.3968,-71.8314C131.3968,-64.131 131.3968,-54.9743 131.3968,-46.4166"/>
<polygon fill="#000000" stroke="#000000" points="134.8969,-46.4132 131.3968,-36.4133 127.8969,-46.4133 134.8969,-46.4132"/>
</g>
<!-- 140460341399056 -->
<g id="node6" class="node">
<title>140460341399056</title>
<ellipse fill="#f66a0a" fill-opacity="0.600000" stroke="#f66a0a" stroke-opacity="0.600000" cx="232.3968" cy="-18" rx="42.4939" ry="18"/>
<text text-anchor="middle" x="232.3968" y="-14.3" font-family="Times,serif" font-size="14.00" fill="#000000">Retrying</text>
</g>
<!-- 140460341388208&#45;&gt;140460341399056 -->
<g id="edge5" class="edge">
<title>140460341388208&#45;&gt;140460341399056</title>
<path fill="none" stroke="#000000" d="M154.0631,-73.8418C168.2943,-63.6968 186.814,-50.4946 202.273,-39.4744"/>
<polygon fill="#000000" stroke="#000000" points="204.3886,-42.2645 210.4997,-33.6098 200.3253,-36.5646 204.3886,-42.2645"/>
</g>
<!-- 140460341392784 -->
<g id="node8" class="node">
<title>140460341392784</title>
<ellipse fill="#eb0000" fill-opacity="0.600000" stroke="#eb0000" stroke-opacity="0.600000" cx="254.3968" cy="-90" rx="55.7903" ry="18"/>
<text text-anchor="middle" x="254.3968" y="-86.3" font-family="Times,serif" font-size="14.00" fill="#000000">ClientFailed</text>
</g>
<!-- 140460341391840&#45;&gt;140460341392784 -->
<g id="edge7" class="edge">
<title>140460341391840&#45;&gt;140460341392784</title>
<path fill="none" stroke="#000000" d="M371.2944,-147.256C349.1223,-136.3962 318.7415,-121.5158 294.5091,-109.6469"/>
<polygon fill="#000000" stroke="#000000" points="295.7379,-106.3515 285.2177,-105.096 292.6588,-112.6379 295.7379,-106.3515"/>
</g>
<!-- 140460341394608 -->
<g id="node9" class="node">
<title>140460341394608</title>
<ellipse fill="#ffdf5d" fill-opacity="0.600000" stroke="#ffdf5d" stroke-opacity="0.600000" cx="376.3968" cy="-90" rx="48.1917" ry="18"/>
<text text-anchor="middle" x="376.3968" y="-86.3" font-family="Times,serif" font-size="14.00" fill="#000000">Submitted</text>
</g>
<!-- 140460341391840&#45;&gt;140460341394608 -->
<g id="edge8" class="edge">
<title>140460341391840&#45;&gt;140460341394608</title>
<path fill="none" stroke="#000000" d="M395.0882,-143.8314C392.3137,-135.8406 388.9946,-126.2819 385.9285,-117.4514"/>
<polygon fill="#000000" stroke="#000000" points="389.2032,-116.2121 382.6167,-107.9134 382.5905,-118.5082 389.2032,-116.2121"/>
</g>
<!-- 140460341395552 -->
<g id="node10" class="node">
<title>140460341395552</title>
<ellipse fill="#ffea7f" fill-opacity="0.600000" stroke="#ffea7f" stroke-opacity="0.600000" cx="481.3968" cy="-90" rx="38.9931" ry="18"/>
<text text-anchor="middle" x="481.3968" y="-86.3" font-family="Times,serif" font-size="14.00" fill="#000000">Queued</text>
</g>
<!-- 140460341391840&#45;&gt;140460341395552 -->
<g id="edge9" class="edge">
<title>140460341391840&#45;&gt;140460341395552</title>
<path fill="none" stroke="#000000" d="M420.3557,-144.937C430.9424,-135.4089 444.2782,-123.4067 455.7825,-113.0529"/>
<polygon fill="#000000" stroke="#000000" points="458.3065,-115.4901 463.398,-106.1989 453.6237,-110.287 458.3065,-115.4901"/>
</g>
<!-- 140460341402496 -->
<g id="node12" class="node">
<title>140460341402496</title>
<ellipse fill="#E8E8E8" fill-opacity="0.600000" stroke="#E8E8E8" stroke-opacity="0.600000" cx="588.3968" cy="-90" rx="50.0912" ry="18"/>
<text text-anchor="middle" x="588.3968" y="-86.3" font-family="Times,serif" font-size="14.00" fill="#000000">Cancelling</text>
</g>
<!-- 140460341400928&#45;&gt;140460341402496 -->
<g id="edge11" class="edge">
<title>140460341400928&#45;&gt;140460341402496</title>
<path fill="none" stroke="#000000" d="M550.5004,-144.5708C556.4749,-135.9675 563.8026,-125.4156 570.4168,-115.8911"/>
<polygon fill="#000000" stroke="#000000" points="573.4021,-117.7284 576.2313,-107.5182 567.6525,-113.7356 573.4021,-117.7284"/>
</g>
<!-- 140460341405728 -->
<g id="node14" class="node">
<title>140460341405728</title>
<ellipse fill="#003ccb" fill-opacity="0.600000" stroke="#003ccb" stroke-opacity="0.600000" cx="694.3968" cy="-90" rx="38.1938" ry="18"/>
<text text-anchor="middle" x="694.3968" y="-86.3" font-family="Times,serif" font-size="14.00" fill="#000000">Looped</text>
</g>
<!-- 140460341404144&#45;&gt;140460341405728 -->
<g id="edge13" class="edge">
<title>140460341404144&#45;&gt;140460341405728</title>
<path fill="none" stroke="#000000" d="M769.0913,-146.0209C755.6078,-135.9082 738.0036,-122.7051 723.2724,-111.6568"/>
<polygon fill="#000000" stroke="#000000" points="725.0838,-108.6403 714.9838,-105.4403 720.8838,-114.2403 725.0838,-108.6403"/>
</g>
<!-- 140460341407584 -->
<g id="node15" class="node">
<title>140460341407584</title>
<ellipse fill="#28a745" fill-opacity="0.600000" stroke="#28a745" stroke-opacity="0.600000" cx="790.3968" cy="-90" rx="39.7935" ry="18"/>
<text text-anchor="middle" x="790.3968" y="-86.3" font-family="Times,serif" font-size="14.00" fill="#000000">Success</text>
</g>
<!-- 140460341404144&#45;&gt;140460341407584 -->
<g id="edge14" class="edge">
<title>140460341404144&#45;&gt;140460341407584</title>
<path fill="none" stroke="#000000" d="M790.3968,-143.8314C790.3968,-136.131 790.3968,-126.9743 790.3968,-118.4166"/>
<polygon fill="#000000" stroke="#000000" points="793.8969,-118.4132 790.3968,-108.4133 786.8969,-118.4133 793.8969,-118.4132"/>
</g>
<!-- 140460341411952 -->
<g id="node19" class="node">
<title>140460341411952</title>
<ellipse fill="#bdbdbd" fill-opacity="0.600000" stroke="#bdbdbd" stroke-opacity="0.600000" cx="894.3968" cy="-90" rx="46.5926" ry="18"/>
<text text-anchor="middle" x="894.3968" y="-86.3" font-family="Times,serif" font-size="14.00" fill="#000000">Cancelled</text>
</g>
<!-- 140460341404144&#45;&gt;140460341411952 -->
<g id="edge18" class="edge">
<title>140460341404144&#45;&gt;140460341411952</title>
<path fill="none" stroke="#000000" d="M812.7074,-146.5542C827.3115,-136.4436 846.6142,-123.0803 862.789,-111.8823"/>
<polygon fill="#000000" stroke="#000000" points="865.1738,-114.4882 871.4035,-105.9184 861.1893,-108.7329 865.1738,-114.4882"/>
</g>
<!-- 140460341413568 -->
<g id="node20" class="node">
<title>140460341413568</title>
<ellipse fill="#eb0000" fill-opacity="0.600000" stroke="#eb0000" stroke-opacity="0.600000" cx="1032.3968" cy="-90" rx="33.2948" ry="18"/>
<text text-anchor="middle" x="1032.3968" y="-86.3" font-family="Times,serif" font-size="14.00" fill="#000000">Failed</text>
</g>
<!-- 140460341404144&#45;&gt;140460341413568 -->
<g id="edge19" class="edge">
<title>140460341404144&#45;&gt;140460341413568</title>
<path fill="none" stroke="#000000" d="M825.0695,-151.6842C869.6335,-138.4254 946.7953,-115.4682 993.3708,-101.611"/>
<polygon fill="#000000" stroke="#000000" points="994.5176,-104.9215 1003.1043,-98.7151 992.5214,-98.2122 994.5176,-104.9215"/>
</g>
<!-- 140460341409120 -->
<g id="node16" class="node">
<title>140460341409120</title>
<ellipse fill="#34d058" fill-opacity="0.600000" stroke="#34d058" stroke-opacity="0.600000" cx="644.3968" cy="-18" rx="37.8943" ry="18"/>
<text text-anchor="middle" x="644.3968" y="-14.3" font-family="Times,serif" font-size="14.00" fill="#000000">Cached</text>
</g>
<!-- 140460341407584&#45;&gt;140460341409120 -->
<g id="edge15" class="edge">
<title>140460341407584&#45;&gt;140460341409120</title>
<path fill="none" stroke="#000000" d="M763.2775,-76.6261C739.7749,-65.0358 705.6023,-48.1835 679.9206,-35.5186"/>
<polygon fill="#000000" stroke="#000000" points="681.3953,-32.3435 670.8786,-31.0595 678.2993,-38.6216 681.3953,-32.3435"/>
</g>
<!-- 140460341411008 -->
<g id="node17" class="node">
<title>140460341411008</title>
<ellipse fill="#003ccb" fill-opacity="0.600000" stroke="#003ccb" stroke-opacity="0.600000" cx="740.3968" cy="-18" rx="40.0939" ry="18"/>
<text text-anchor="middle" x="740.3968" y="-14.3" font-family="Times,serif" font-size="14.00" fill="#000000">Mapped</text>
</g>
<!-- 140460341407584&#45;&gt;140460341411008 -->
<g id="edge16" class="edge">
<title>140460341407584&#45;&gt;140460341411008</title>
<path fill="none" stroke="#000000" d="M778.2932,-72.5708C772.2744,-63.9038 764.8823,-53.2592 758.2298,-43.6796"/>
<polygon fill="#000000" stroke="#000000" points="760.9677,-41.486 752.3889,-35.2687 755.2181,-45.4788 760.9677,-41.486"/>
</g>
<!-- 140460341419808 -->
<g id="node18" class="node">
<title>140460341419808</title>
<ellipse fill="#62757f" fill-opacity="0.600000" stroke="#62757f" stroke-opacity="0.600000" cx="839.3968" cy="-18" rx="40.0939" ry="18"/>
<text text-anchor="middle" x="839.3968" y="-14.3" font-family="Times,serif" font-size="14.00" fill="#000000">Skipped</text>
</g>
<!-- 140460341407584&#45;&gt;140460341419808 -->
<g id="edge17" class="edge">
<title>140460341407584&#45;&gt;140460341419808</title>
<path fill="none" stroke="#000000" d="M802.2583,-72.5708C808.1567,-63.9038 815.4009,-53.2592 821.9204,-43.6796"/>
<polygon fill="#000000" stroke="#000000" points="824.9117,-45.505 827.6445,-35.2687 819.1247,-41.5666 824.9117,-45.505"/>
</g>
<!-- 140460341415104 -->
<g id="node21" class="node">
<title>140460341415104</title>
<ellipse fill="#ff4e33" fill-opacity="0.600000" stroke="#ff4e33" stroke-opacity="0.600000" cx="945.3968" cy="-18" rx="48.1917" ry="18"/>
<text text-anchor="middle" x="945.3968" y="-14.3" font-family="Times,serif" font-size="14.00" fill="#000000">TimedOut</text>
</g>
<!-- 140460341413568&#45;&gt;140460341415104 -->
<g id="edge20" class="edge">
<title>140460341413568&#45;&gt;140460341415104</title>
<path fill="none" stroke="#000000" d="M1013.9463,-74.7307C1002.1328,-64.9539 986.5802,-52.0828 973.2757,-41.0722"/>
<polygon fill="#000000" stroke="#000000" points="975.2713,-38.1806 965.3359,-34.5013 970.8083,-43.5734 975.2713,-38.1806"/>
</g>
<!-- 140460341416672 -->
<g id="node22" class="node">
<title>140460341416672</title>
<ellipse fill="#ff5131" fill-opacity="0.600000" stroke="#ff5131" stroke-opacity="0.600000" cx="1072.3968" cy="-18" rx="60.3893" ry="18"/>
<text text-anchor="middle" x="1072.3968" y="-14.3" font-family="Times,serif" font-size="14.00" fill="#000000">TriggerFailed</text>
</g>
<!-- 140460341413568&#45;&gt;140460341416672 -->
<g id="edge21" class="edge">
<title>140460341413568&#45;&gt;140460341416672</title>
<path fill="none" stroke="#000000" d="M1042.0797,-72.5708C1046.727,-64.2055 1052.3979,-53.998 1057.5724,-44.6839"/>
<polygon fill="#000000" stroke="#000000" points="1060.7282,-46.2102 1062.5252,-35.7689 1054.6091,-42.8107 1060.7282,-46.2102"/>
</g>
<!-- 140460341418224 -->
<g id="node23" class="node">
<title>140460341418224</title>
<ellipse fill="#ff5131" fill-opacity="0.600000" stroke="#ff5131" stroke-opacity="0.600000" cx="1223.3968" cy="-18" rx="72.2875" ry="18"/>
<text text-anchor="middle" x="1223.3968" y="-14.3" font-family="Times,serif" font-size="14.00" fill="#000000">ValidationFailed</text>
</g>
<!-- 140460341413568&#45;&gt;140460341418224 -->
<g id="edge22" class="edge">
<title>140460341413568&#45;&gt;140460341418224</title>
<path fill="none" stroke="#000000" d="M1059.7624,-79.6842C1089.4948,-68.4761 1137.6122,-50.3376 1173.9907,-36.6243"/>
<polygon fill="#000000" stroke="#000000" points="1175.3179,-39.8645 1183.4405,-33.062 1172.8487,-33.3144 1175.3179,-39.8645"/>
</g>
</g>
</svg>
