<?xml version="1.0" encoding="UTF-8" standalone="no"?>
<!DOCTYPE svg PUBLIC "-//W3C//DTD SVG 1.1//EN"
 "http://www.w3.org/Graphics/SVG/1.1/DTD/svg11.dtd">
<!-- Generated by graphviz version 2.40.1 (20161225.0304)
 -->
<!-- Title: %3 Pages: 1 -->
<svg width="1040pt" height="260pt"
 viewBox="0.00 0.00 1039.58 260.00" xmlns="http://www.w3.org/2000/svg" xmlns:xlink="http://www.w3.org/1999/xlink">
<g id="graph0" class="graph" transform="scale(1 1) rotate(0) translate(4 256)">
<title>%3</title>
<polygon fill="#ffffff" stroke="transparent" points="-4,4 -4,-256 1035.5825,-256 1035.5825,4 -4,4"/>
<!-- 140284683902568 -->
<g id="node1" class="node">
<title>140284683902568</title>
<ellipse fill="#696969" fill-opacity="0.600000" stroke="#696969" stroke-opacity="0.600000" cx="418.1604" cy="-234" rx="27.5804" ry="18"/>
<text text-anchor="middle" x="418.1604" y="-229.8" font-family="Times,serif" font-size="14.00" fill="#000000">State</text>
</g>
<!-- 140284683904456 -->
<g id="node2" class="node">
<title>140284683904456</title>
<ellipse fill="#7ebdff" fill-opacity="0.600000" stroke="#7ebdff" stroke-opacity="0.600000" cx="192.1604" cy="-162" rx="39.1887" ry="18"/>
<text text-anchor="middle" x="192.1604" y="-157.8" font-family="Times,serif" font-size="14.00" fill="#000000">Pending</text>
</g>
<!-- 140284683902568&#45;&gt;140284683904456 -->
<g id="edge1" class="edge">
<title>140284683902568&#45;&gt;140284683904456</title>
<path fill="none" stroke="#000000" d="M393.111,-226.0196C354.7802,-213.8081 281.1152,-190.3396 234.4165,-175.4621"/>
<polygon fill="#000000" stroke="#000000" points="235.1877,-172.0345 224.5971,-172.3338 233.0628,-178.7042 235.1877,-172.0345"/>
</g>
<!-- 140284683909592 -->
<g id="node7" class="node">
<title>140284683909592</title>
<ellipse fill="#696969" fill-opacity="0.600000" stroke="#696969" stroke-opacity="0.600000" cx="364.1604" cy="-162" rx="50.2637" ry="18"/>
<text text-anchor="middle" x="364.1604" y="-157.8" font-family="Times,serif" font-size="14.00" fill="#000000">_MetaState</text>
</g>
<!-- 140284683902568&#45;&gt;140284683909592 -->
<g id="edge6" class="edge">
<title>140284683902568&#45;&gt;140284683909592</title>
<path fill="none" stroke="#000000" d="M405.907,-217.6621C399.2459,-208.7806 390.8573,-197.5959 383.3502,-187.5864"/>
<polygon fill="#000000" stroke="#000000" points="386.1089,-185.4312 377.3088,-179.5312 380.5088,-189.6312 386.1089,-185.4312"/>
</g>
<!-- 140284683918584 -->
<g id="node11" class="node">
<title>140284683918584</title>
<ellipse fill="#3d67ff" fill-opacity="0.600000" stroke="#3d67ff" stroke-opacity="0.600000" cx="473.1604" cy="-162" rx="40.6421" ry="18"/>
<text text-anchor="middle" x="473.1604" y="-157.8" font-family="Times,serif" font-size="14.00" fill="#000000">Running</text>
</g>
<!-- 140284683902568&#45;&gt;140284683918584 -->
<g id="edge10" class="edge">
<title>140284683902568&#45;&gt;140284683918584</title>
<path fill="none" stroke="#000000" d="M430.6408,-217.6621C437.4748,-208.7157 446.0939,-197.4325 453.7826,-187.3674"/>
<polygon fill="#000000" stroke="#000000" points="456.6734,-189.3487 459.9625,-179.2773 451.1107,-185.0993 456.6734,-189.3487"/>
</g>
<!-- 140284683920136 -->
<g id="node12" class="node">
<title>140284683920136</title>
<ellipse fill="#003ccb" fill-opacity="0.600000" stroke="#003ccb" stroke-opacity="0.600000" cx="652.1604" cy="-162" rx="40.6421" ry="18"/>
<text text-anchor="middle" x="652.1604" y="-157.8" font-family="Times,serif" font-size="14.00" fill="#000000">Finished</text>
</g>
<!-- 140284683902568&#45;&gt;140284683920136 -->
<g id="edge11" class="edge">
<title>140284683902568&#45;&gt;140284683920136</title>
<path fill="none" stroke="#000000" d="M443.648,-226.1577C483.4316,-213.9166 560.7455,-190.1277 609.2322,-175.2087"/>
<polygon fill="#000000" stroke="#000000" points="610.2929,-178.5443 618.8213,-172.2582 608.2342,-171.8539 610.2929,-178.5443"/>
</g>
<!-- 140284683905992 -->
<g id="node3" class="node">
<title>140284683905992</title>
<ellipse fill="#ffab00" fill-opacity="0.600000" stroke="#ffab00" stroke-opacity="0.600000" cx="127.1604" cy="-90" rx="46.8891" ry="18"/>
<text text-anchor="middle" x="127.1604" y="-85.8" font-family="Times,serif" font-size="14.00" fill="#000000">Scheduled</text>
</g>
<!-- 140284683904456&#45;&gt;140284683905992 -->
<g id="edge2" class="edge">
<title>140284683904456&#45;&gt;140284683905992</title>
<path fill="none" stroke="#000000" d="M177.0847,-145.3008C168.8364,-136.1641 158.4621,-124.6726 149.3103,-114.5353"/>
<polygon fill="#000000" stroke="#000000" points="151.9047,-112.186 142.6057,-107.1086 146.7088,-116.8767 151.9047,-112.186"/>
</g>
<!-- 140284683907864 -->
<g id="node4" class="node">
<title>140284683907864</title>
<ellipse fill="#cfd8dc" fill-opacity="0.600000" stroke="#cfd8dc" stroke-opacity="0.600000" cx="35.1604" cy="-18" rx="35.3216" ry="18"/>
<text text-anchor="middle" x="35.1604" y="-13.8" font-family="Times,serif" font-size="14.00" fill="#000000">Paused</text>
</g>
<!-- 140284683905992&#45;&gt;140284683907864 -->
<g id="edge3" class="edge">
<title>140284683905992&#45;&gt;140284683907864</title>
<path fill="none" stroke="#000000" d="M106.2842,-73.6621C93.3435,-63.5346 76.5762,-50.4123 62.5721,-39.4526"/>
<polygon fill="#000000" stroke="#000000" points="64.728,-36.6955 54.6959,-33.2886 60.4139,-42.208 64.728,-36.6955"/>
</g>
<!-- 140284683915064 -->
<g id="node5" class="node">
<title>140284683915064</title>
<ellipse fill="#fb8532" fill-opacity="0.600000" stroke="#fb8532" stroke-opacity="0.600000" cx="127.1604" cy="-18" rx="38.6955" ry="18"/>
<text text-anchor="middle" x="127.1604" y="-13.8" font-family="Times,serif" font-size="14.00" fill="#000000">Resume</text>
</g>
<!-- 140284683905992&#45;&gt;140284683915064 -->
<g id="edge4" class="edge">
<title>140284683905992&#45;&gt;140284683915064</title>
<path fill="none" stroke="#000000" d="M127.1604,-71.8314C127.1604,-64.131 127.1604,-54.9743 127.1604,-46.4166"/>
<polygon fill="#000000" stroke="#000000" points="130.6605,-46.4132 127.1604,-36.4133 123.6605,-46.4133 130.6605,-46.4132"/>
</g>
<!-- 140284683916728 -->
<g id="node6" class="node">
<title>140284683916728</title>
<ellipse fill="#f66a0a" fill-opacity="0.600000" stroke="#f66a0a" stroke-opacity="0.600000" cx="225.1604" cy="-18" rx="41.1093" ry="18"/>
<text text-anchor="middle" x="225.1604" y="-13.8" font-family="Times,serif" font-size="14.00" fill="#000000">Retrying</text>
</g>
<!-- 140284683905992&#45;&gt;140284683916728 -->
<g id="edge5" class="edge">
<title>140284683905992&#45;&gt;140284683916728</title>
<path fill="none" stroke="#000000" d="M148.9098,-74.0209C162.5799,-63.9775 180.3991,-50.8859 195.3738,-39.8841"/>
<polygon fill="#000000" stroke="#000000" points="197.8225,-42.4281 203.809,-33.6867 193.6779,-36.787 197.8225,-42.4281"/>
</g>
<!-- 140284683910520 -->
<g id="node8" class="node">
<title>140284683910520</title>
<ellipse fill="#eb0000" fill-opacity="0.600000" stroke="#eb0000" stroke-opacity="0.600000" cx="246.1604" cy="-90" rx="53.6557" ry="18"/>
<text text-anchor="middle" x="246.1604" y="-85.8" font-family="Times,serif" font-size="14.00" fill="#000000">ClientFailed</text>
</g>
<!-- 140284683909592&#45;&gt;140284683910520 -->
<g id="edge7" class="edge">
<title>140284683909592&#45;&gt;140284683910520</title>
<path fill="none" stroke="#000000" d="M338.5562,-146.3771C321.6635,-136.0696 299.3246,-122.4391 280.8439,-111.1628"/>
<polygon fill="#000000" stroke="#000000" points="282.4816,-108.062 272.1222,-105.8411 278.8356,-114.0375 282.4816,-108.062"/>
</g>
<!-- 140284683912328 -->
<g id="node9" class="node">
<title>140284683912328</title>
<ellipse fill="#ffdf5d" fill-opacity="0.600000" stroke="#ffdf5d" stroke-opacity="0.600000" cx="364.1604" cy="-90" rx="46.4304" ry="18"/>
<text text-anchor="middle" x="364.1604" y="-85.8" font-family="Times,serif" font-size="14.00" fill="#000000">Submitted</text>
</g>
<!-- 140284683909592&#45;&gt;140284683912328 -->
<g id="edge8" class="edge">
<title>140284683909592&#45;&gt;140284683912328</title>
<path fill="none" stroke="#000000" d="M364.1604,-143.8314C364.1604,-136.131 364.1604,-126.9743 364.1604,-118.4166"/>
<polygon fill="#000000" stroke="#000000" points="367.6605,-118.4132 364.1604,-108.4133 360.6605,-118.4133 367.6605,-118.4132"/>
</g>
<!-- 140284683913256 -->
<g id="node10" class="node">
<title>140284683913256</title>
<ellipse fill="#ffea7f" fill-opacity="0.600000" stroke="#ffea7f" stroke-opacity="0.600000" cx="466.1604" cy="-90" rx="37.7179" ry="18"/>
<text text-anchor="middle" x="466.1604" y="-85.8" font-family="Times,serif" font-size="14.00" fill="#000000">Queued</text>
</g>
<!-- 140284683909592&#45;&gt;140284683913256 -->
<g id="edge9" class="edge">
<title>140284683909592&#45;&gt;140284683913256</title>
<path fill="none" stroke="#000000" d="M387.0512,-145.8418C401.6215,-135.5569 420.6432,-122.1298 436.3826,-111.0196"/>
<polygon fill="#000000" stroke="#000000" points="438.5887,-113.7466 444.74,-105.1203 434.5519,-108.0278 438.5887,-113.7466"/>
</g>
<!-- 140284683921704 -->
<g id="node13" class="node">
<title>140284683921704</title>
<ellipse fill="#003ccb" fill-opacity="0.600000" stroke="#003ccb" stroke-opacity="0.600000" cx="559.1604" cy="-90" rx="37.2421" ry="18"/>
<text text-anchor="middle" x="559.1604" y="-85.8" font-family="Times,serif" font-size="14.00" fill="#000000">Looped</text>
</g>
<!-- 140284683920136&#45;&gt;140284683921704 -->
<g id="edge12" class="edge">
<title>140284683920136&#45;&gt;140284683921704</title>
<path fill="none" stroke="#000000" d="M631.9808,-146.3771C618.8515,-136.2125 601.5481,-122.8162 587.1028,-111.6328"/>
<polygon fill="#000000" stroke="#000000" points="589.031,-108.6993 578.9812,-105.3451 584.7458,-114.2344 589.031,-108.6993"/>
</g>
<!-- 140284683923544 -->
<g id="node14" class="node">
<title>140284683923544</title>
<ellipse fill="#28a745" fill-opacity="0.600000" stroke="#28a745" stroke-opacity="0.600000" cx="652.1604" cy="-90" rx="38.211" ry="18"/>
<text text-anchor="middle" x="652.1604" y="-85.8" font-family="Times,serif" font-size="14.00" fill="#000000">Success</text>
</g>
<!-- 140284683920136&#45;&gt;140284683923544 -->
<g id="edge13" class="edge">
<title>140284683920136&#45;&gt;140284683923544</title>
<path fill="none" stroke="#000000" d="M652.1604,-143.8314C652.1604,-136.131 652.1604,-126.9743 652.1604,-118.4166"/>
<polygon fill="#000000" stroke="#000000" points="655.6605,-118.4132 652.1604,-108.4133 648.6605,-118.4133 655.6605,-118.4132"/>
</g>
<!-- 140284683927784 -->
<g id="node18" class="node">
<title>140284683927784</title>
<ellipse fill="#c42800" fill-opacity="0.600000" stroke="#c42800" stroke-opacity="0.600000" cx="754.1604" cy="-90" rx="45.4269" ry="18"/>
<text text-anchor="middle" x="754.1604" y="-85.8" font-family="Times,serif" font-size="14.00" fill="#000000">Cancelled</text>
</g>
<!-- 140284683920136&#45;&gt;140284683927784 -->
<g id="edge17" class="edge">
<title>140284683920136&#45;&gt;140284683927784</title>
<path fill="none" stroke="#000000" d="M673.792,-146.7307C688.1997,-136.5605 707.3511,-123.0419 723.3447,-111.7523"/>
<polygon fill="#000000" stroke="#000000" points="725.7036,-114.3713 731.8549,-105.7451 721.6668,-108.6526 725.7036,-114.3713"/>
</g>
<!-- 140284683929384 -->
<g id="node19" class="node">
<title>140284683929384</title>
<ellipse fill="#eb0000" fill-opacity="0.600000" stroke="#eb0000" stroke-opacity="0.600000" cx="850.1604" cy="-90" rx="32.4237" ry="18"/>
<text text-anchor="middle" x="850.1604" y="-85.8" font-family="Times,serif" font-size="14.00" fill="#000000">Failed</text>
</g>
<!-- 140284683920136&#45;&gt;140284683929384 -->
<g id="edge18" class="edge">
<title>140284683920136&#45;&gt;140284683929384</title>
<path fill="none" stroke="#000000" d="M684.975,-151.401C716.7151,-140.9707 766.0604,-124.2839 808.1604,-108 810.4078,-107.1307 812.7132,-106.2143 815.0312,-105.2742"/>
<polygon fill="#000000" stroke="#000000" points="816.6216,-108.4036 824.5146,-101.336 813.9369,-101.9389 816.6216,-108.4036"/>
</g>
<!-- 140284683925064 -->
<g id="node15" class="node">
<title>140284683925064</title>
<ellipse fill="#34d058" fill-opacity="0.600000" stroke="#34d058" stroke-opacity="0.600000" cx="557.1604" cy="-18" rx="36.7489" ry="18"/>
<text text-anchor="middle" x="557.1604" y="-13.8" font-family="Times,serif" font-size="14.00" fill="#000000">Cached</text>
</g>
<!-- 140284683923544&#45;&gt;140284683925064 -->
<g id="edge14" class="edge">
<title>140284683923544&#45;&gt;140284683925064</title>
<path fill="none" stroke="#000000" d="M631.5468,-74.3771C618.1352,-64.2125 600.4596,-50.8162 585.7038,-39.6328"/>
<polygon fill="#000000" stroke="#000000" points="587.4912,-36.5959 577.4074,-33.3451 583.2631,-42.1747 587.4912,-36.5959"/>
</g>
<!-- 140284683926856 -->
<g id="node16" class="node">
<title>140284683926856</title>
<ellipse fill="#003ccb" fill-opacity="0.600000" stroke="#003ccb" stroke-opacity="0.600000" cx="651.1604" cy="-18" rx="39.1713" ry="18"/>
<text text-anchor="middle" x="651.1604" y="-13.8" font-family="Times,serif" font-size="14.00" fill="#000000">Mapped</text>
</g>
<!-- 140284683923544&#45;&gt;140284683926856 -->
<g id="edge15" class="edge">
<title>140284683923544&#45;&gt;140284683926856</title>
<path fill="none" stroke="#000000" d="M651.9081,-71.8314C651.8011,-64.131 651.674,-54.9743 651.5551,-46.4166"/>
<polygon fill="#000000" stroke="#000000" points="655.0548,-46.3637 651.4162,-36.4133 648.0555,-46.4609 655.0548,-46.3637"/>
</g>
<!-- 140284683933992 -->
<g id="node17" class="node">
<title>140284683933992</title>
<ellipse fill="#62757f" fill-opacity="0.600000" stroke="#62757f" stroke-opacity="0.600000" cx="747.1604" cy="-18" rx="39.1887" ry="18"/>
<text text-anchor="middle" x="747.1604" y="-13.8" font-family="Times,serif" font-size="14.00" fill="#000000">Skipped</text>
</g>
<!-- 140284683923544&#45;&gt;140284683933992 -->
<g id="edge16" class="edge">
<title>140284683923544&#45;&gt;140284683933992</title>
<path fill="none" stroke="#000000" d="M672.774,-74.3771C686.0944,-64.2816 703.6209,-50.9983 718.3156,-39.8614"/>
<polygon fill="#000000" stroke="#000000" points="720.7314,-42.4221 726.5871,-33.5924 716.5033,-36.8433 720.7314,-42.4221"/>
</g>
<!-- 140284683930904 -->
<g id="node20" class="node">
<title>140284683930904</title>
<ellipse fill="#ff4e33" fill-opacity="0.600000" stroke="#ff4e33" stroke-opacity="0.600000" cx="850.1604" cy="-18" rx="46.3005" ry="18"/>
<text text-anchor="middle" x="850.1604" y="-13.8" font-family="Times,serif" font-size="14.00" fill="#000000">TimedOut</text>
</g>
<!-- 140284683929384&#45;&gt;140284683930904 -->
<g id="edge19" class="edge">
<title>140284683929384&#45;&gt;140284683930904</title>
<path fill="none" stroke="#000000" d="M850.1604,-71.8314C850.1604,-64.131 850.1604,-54.9743 850.1604,-46.4166"/>
<polygon fill="#000000" stroke="#000000" points="853.6605,-46.4132 850.1604,-36.4133 846.6605,-46.4133 853.6605,-46.4132"/>
</g>
<!-- 140284683932456 -->
<g id="node21" class="node">
<title>140284683932456</title>
<ellipse fill="#ff5131" fill-opacity="0.600000" stroke="#ff5131" stroke-opacity="0.600000" cx="973.1604" cy="-18" rx="58.3442" ry="18"/>
<text text-anchor="middle" x="973.1604" y="-13.8" font-family="Times,serif" font-size="14.00" fill="#000000">TriggerFailed</text>
</g>
<!-- 140284683929384&#45;&gt;140284683932456 -->
<g id="edge20" class="edge">
<title>140284683929384&#45;&gt;140284683932456</title>
<path fill="none" stroke="#000000" d="M872.4348,-76.9613C890.4862,-66.3946 916.2759,-51.2983 937.24,-39.0266"/>
<polygon fill="#000000" stroke="#000000" points="939.0305,-42.0341 945.8926,-33.9617 935.4943,-35.993 939.0305,-42.0341"/>
</g>
</g>
</svg>
