<?xml version="1.0" encoding="UTF-8" standalone="no"?>
<!DOCTYPE svg PUBLIC "-//W3C//DTD SVG 1.1//EN"
 "http://www.w3.org/Graphics/SVG/1.1/DTD/svg11.dtd">
<!-- Generated by graphviz version 2.40.1 (20161225.0304)
 -->
<!-- Title: %3 Pages: 1 -->
<svg width="1011pt" height="260pt"
 viewBox="0.00 0.00 1010.58 260.00" xmlns="http://www.w3.org/2000/svg" xmlns:xlink="http://www.w3.org/1999/xlink">
<g id="graph0" class="graph" transform="scale(1 1) rotate(0) translate(4 256)">
<title>%3</title>
<polygon fill="#ffffff" stroke="transparent" points="-4,4 -4,-256 1006.5825,-256 1006.5825,4 -4,4"/>
<!-- 140623203936248 -->
<g id="node1" class="node">
<title>140623203936248</title>
<ellipse fill="#696969" fill-opacity="0.600000" stroke="#696969" stroke-opacity="0.600000" cx="423.1604" cy="-234" rx="27.5804" ry="18"/>
<text text-anchor="middle" x="423.1604" y="-229.8" font-family="Times,serif" font-size="14.00" fill="#000000">State</text>
</g>
<!-- 140623203957272 -->
<g id="node2" class="node">
<title>140623203957272</title>
<ellipse fill="#7ebdff" fill-opacity="0.600000" stroke="#7ebdff" stroke-opacity="0.600000" cx="135.1604" cy="-162" rx="39.1887" ry="18"/>
<text text-anchor="middle" x="135.1604" y="-157.8" font-family="Times,serif" font-size="14.00" fill="#000000">Pending</text>
</g>
<!-- 140623203936248&#45;&gt;140623203957272 -->
<g id="edge1" class="edge">
<title>140623203936248&#45;&gt;140623203957272</title>
<path fill="none" stroke="#000000" d="M397.0944,-227.4835C347.7772,-215.1542 240.3181,-188.2894 179.4756,-173.0788"/>
<polygon fill="#000000" stroke="#000000" points="180.3161,-169.6813 169.7657,-170.6513 178.6183,-176.4723 180.3161,-169.6813"/>
</g>
<!-- 140623203960904 -->
<g id="node7" class="node">
<title>140623203960904</title>
<ellipse fill="#696969" fill-opacity="0.600000" stroke="#696969" stroke-opacity="0.600000" cx="369.1604" cy="-162" rx="50.2637" ry="18"/>
<text text-anchor="middle" x="369.1604" y="-157.8" font-family="Times,serif" font-size="14.00" fill="#000000">_MetaState</text>
</g>
<!-- 140623203936248&#45;&gt;140623203960904 -->
<g id="edge6" class="edge">
<title>140623203936248&#45;&gt;140623203960904</title>
<path fill="none" stroke="#000000" d="M410.907,-217.6621C404.2459,-208.7806 395.8573,-197.5959 388.3502,-187.5864"/>
<polygon fill="#000000" stroke="#000000" points="391.1089,-185.4312 382.3088,-179.5312 385.5088,-189.6312 391.1089,-185.4312"/>
</g>
<!-- 140623203969944 -->
<g id="node11" class="node">
<title>140623203969944</title>
<ellipse fill="#3d67ff" fill-opacity="0.600000" stroke="#3d67ff" stroke-opacity="0.600000" cx="478.1604" cy="-162" rx="40.6421" ry="18"/>
<text text-anchor="middle" x="478.1604" y="-157.8" font-family="Times,serif" font-size="14.00" fill="#000000">Running</text>
</g>
<!-- 140623203936248&#45;&gt;140623203969944 -->
<g id="edge10" class="edge">
<title>140623203936248&#45;&gt;140623203969944</title>
<path fill="none" stroke="#000000" d="M435.6408,-217.6621C442.4748,-208.7157 451.0939,-197.4325 458.7826,-187.3674"/>
<polygon fill="#000000" stroke="#000000" points="461.6734,-189.3487 464.9625,-179.2773 456.1107,-185.0993 461.6734,-189.3487"/>
</g>
<!-- 140623203970872 -->
<g id="node12" class="node">
<title>140623203970872</title>
<ellipse fill="#003ccb" fill-opacity="0.600000" stroke="#003ccb" stroke-opacity="0.600000" cx="577.1604" cy="-162" rx="40.6421" ry="18"/>
<text text-anchor="middle" x="577.1604" y="-157.8" font-family="Times,serif" font-size="14.00" fill="#000000">Finished</text>
</g>
<!-- 140623203936248&#45;&gt;140623203970872 -->
<g id="edge11" class="edge">
<title>140623203936248&#45;&gt;140623203970872</title>
<path fill="none" stroke="#000000" d="M445.8837,-223.3762C470.6466,-211.7987 510.6476,-193.0969 539.9947,-179.3762"/>
<polygon fill="#000000" stroke="#000000" points="541.5394,-182.5177 549.1159,-175.1117 538.5747,-176.1765 541.5394,-182.5177"/>
</g>
<!-- 140623203958200 -->
<g id="node3" class="node">
<title>140623203958200</title>
<ellipse fill="#cfd8dc" fill-opacity="0.600000" stroke="#cfd8dc" stroke-opacity="0.600000" cx="35.1604" cy="-90" rx="35.3216" ry="18"/>
<text text-anchor="middle" x="35.1604" y="-85.8" font-family="Times,serif" font-size="14.00" fill="#000000">Paused</text>
</g>
<!-- 140623203957272&#45;&gt;140623203958200 -->
<g id="edge2" class="edge">
<title>140623203957272&#45;&gt;140623203958200</title>
<path fill="none" stroke="#000000" d="M113.953,-146.7307C99.4408,-136.2819 80.0196,-122.2986 64.0903,-110.8295"/>
<polygon fill="#000000" stroke="#000000" points="65.8138,-107.7576 55.6533,-104.7549 61.7236,-113.4384 65.8138,-107.7576"/>
</g>
<!-- 140623203959128 -->
<g id="node4" class="node">
<title>140623203959128</title>
<ellipse fill="#ffab00" fill-opacity="0.600000" stroke="#ffab00" stroke-opacity="0.600000" cx="135.1604" cy="-90" rx="46.8891" ry="18"/>
<text text-anchor="middle" x="135.1604" y="-85.8" font-family="Times,serif" font-size="14.00" fill="#000000">Scheduled</text>
</g>
<!-- 140623203957272&#45;&gt;140623203959128 -->
<g id="edge3" class="edge">
<title>140623203957272&#45;&gt;140623203959128</title>
<path fill="none" stroke="#000000" d="M135.1604,-143.8314C135.1604,-136.131 135.1604,-126.9743 135.1604,-118.4166"/>
<polygon fill="#000000" stroke="#000000" points="138.6605,-118.4132 135.1604,-108.4133 131.6605,-118.4133 138.6605,-118.4132"/>
</g>
<!-- 140623203966632 -->
<g id="node5" class="node">
<title>140623203966632</title>
<ellipse fill="#fb8532" fill-opacity="0.600000" stroke="#fb8532" stroke-opacity="0.600000" cx="86.1604" cy="-18" rx="38.6955" ry="18"/>
<text text-anchor="middle" x="86.1604" y="-13.8" font-family="Times,serif" font-size="14.00" fill="#000000">Resume</text>
</g>
<!-- 140623203959128&#45;&gt;140623203966632 -->
<g id="edge4" class="edge">
<title>140623203959128&#45;&gt;140623203966632</title>
<path fill="none" stroke="#000000" d="M123.2989,-72.5708C117.4005,-63.9038 110.1563,-53.2592 103.6368,-43.6796"/>
<polygon fill="#000000" stroke="#000000" points="106.4325,-41.5666 97.9127,-35.2687 100.6455,-45.505 106.4325,-41.5666"/>
</g>
<!-- 140623203968184 -->
<g id="node6" class="node">
<title>140623203968184</title>
<ellipse fill="#f66a0a" fill-opacity="0.600000" stroke="#f66a0a" stroke-opacity="0.600000" cx="184.1604" cy="-18" rx="41.1093" ry="18"/>
<text text-anchor="middle" x="184.1604" y="-13.8" font-family="Times,serif" font-size="14.00" fill="#000000">Retrying</text>
</g>
<!-- 140623203959128&#45;&gt;140623203968184 -->
<g id="edge5" class="edge">
<title>140623203959128&#45;&gt;140623203968184</title>
<path fill="none" stroke="#000000" d="M147.022,-72.5708C152.9204,-63.9038 160.1646,-53.2592 166.684,-43.6796"/>
<polygon fill="#000000" stroke="#000000" points="169.6753,-45.505 172.4081,-35.2687 163.8883,-41.5666 169.6753,-45.505"/>
</g>
<!-- 140623203961832 -->
<g id="node8" class="node">
<title>140623203961832</title>
<ellipse fill="#eb0000" fill-opacity="0.600000" stroke="#eb0000" stroke-opacity="0.600000" cx="254.1604" cy="-90" rx="53.6557" ry="18"/>
<text text-anchor="middle" x="254.1604" y="-85.8" font-family="Times,serif" font-size="14.00" fill="#000000">ClientFailed</text>
</g>
<!-- 140623203960904&#45;&gt;140623203961832 -->
<g id="edge7" class="edge">
<title>140623203960904&#45;&gt;140623203961832</title>
<path fill="none" stroke="#000000" d="M343.9232,-146.1993C327.7079,-136.0471 306.4314,-122.7262 288.6628,-111.6015"/>
<polygon fill="#000000" stroke="#000000" points="290.0694,-108.3528 279.7362,-106.0127 286.3547,-114.2859 290.0694,-108.3528"/>
</g>
<!-- 140623203963368 -->
<g id="node9" class="node">
<title>140623203963368</title>
<ellipse fill="#ffdf5d" fill-opacity="0.600000" stroke="#ffdf5d" stroke-opacity="0.600000" cx="372.1604" cy="-90" rx="46.4304" ry="18"/>
<text text-anchor="middle" x="372.1604" y="-85.8" font-family="Times,serif" font-size="14.00" fill="#000000">Submitted</text>
</g>
<!-- 140623203960904&#45;&gt;140623203963368 -->
<g id="edge8" class="edge">
<title>140623203960904&#45;&gt;140623203963368</title>
<path fill="none" stroke="#000000" d="M369.9175,-143.8314C370.2383,-136.131 370.6198,-126.9743 370.9764,-118.4166"/>
<polygon fill="#000000" stroke="#000000" points="374.4738,-118.5503 371.3932,-108.4133 367.4798,-118.2589 374.4738,-118.5503"/>
</g>
<!-- 140623203965080 -->
<g id="node10" class="node">
<title>140623203965080</title>
<ellipse fill="#ffea7f" fill-opacity="0.600000" stroke="#ffea7f" stroke-opacity="0.600000" cx="474.1604" cy="-90" rx="37.7179" ry="18"/>
<text text-anchor="middle" x="474.1604" y="-85.8" font-family="Times,serif" font-size="14.00" fill="#000000">Queued</text>
</g>
<!-- 140623203960904&#45;&gt;140623203965080 -->
<g id="edge9" class="edge">
<title>140623203960904&#45;&gt;140623203965080</title>
<path fill="none" stroke="#000000" d="M392.4633,-146.0209C407.5526,-135.6739 427.3602,-122.0916 443.6926,-110.8922"/>
<polygon fill="#000000" stroke="#000000" points="446.0886,-113.4931 452.3566,-104.9512 442.1299,-107.72 446.0886,-113.4931"/>
</g>
<!-- 140623203971800 -->
<g id="node13" class="node">
<title>140623203971800</title>
<ellipse fill="#28a745" fill-opacity="0.600000" stroke="#28a745" stroke-opacity="0.600000" cx="574.1604" cy="-90" rx="38.211" ry="18"/>
<text text-anchor="middle" x="574.1604" y="-85.8" font-family="Times,serif" font-size="14.00" fill="#000000">Success</text>
</g>
<!-- 140623203970872&#45;&gt;140623203971800 -->
<g id="edge12" class="edge">
<title>140623203970872&#45;&gt;140623203971800</title>
<path fill="none" stroke="#000000" d="M576.4034,-143.8314C576.0826,-136.131 575.701,-126.9743 575.3445,-118.4166"/>
<polygon fill="#000000" stroke="#000000" points="578.841,-118.2589 574.9276,-108.4133 571.8471,-118.5503 578.841,-118.2589"/>
</g>
<!-- 140623203977736 -->
<g id="node17" class="node">
<title>140623203977736</title>
<ellipse fill="#eb0000" fill-opacity="0.600000" stroke="#eb0000" stroke-opacity="0.600000" cx="770.1604" cy="-90" rx="32.4237" ry="18"/>
<text text-anchor="middle" x="770.1604" y="-85.8" font-family="Times,serif" font-size="14.00" fill="#000000">Failed</text>
</g>
<!-- 140623203970872&#45;&gt;140623203977736 -->
<g id="edge16" class="edge">
<title>140623203970872&#45;&gt;140623203977736</title>
<path fill="none" stroke="#000000" d="M608.5988,-150.2717C642.7709,-137.5235 697.3175,-117.1746 733.4348,-103.7008"/>
<polygon fill="#000000" stroke="#000000" points="734.9548,-106.8694 743.1007,-100.0948 732.5081,-100.3109 734.9548,-106.8694"/>
</g>
<!-- 140623203972728 -->
<g id="node14" class="node">
<title>140623203972728</title>
<ellipse fill="#34d058" fill-opacity="0.600000" stroke="#34d058" stroke-opacity="0.600000" cx="432.1604" cy="-18" rx="36.7489" ry="18"/>
<text text-anchor="middle" x="432.1604" y="-13.8" font-family="Times,serif" font-size="14.00" fill="#000000">Cached</text>
</g>
<!-- 140623203971800&#45;&gt;140623203972728 -->
<g id="edge13" class="edge">
<title>140623203971800&#45;&gt;140623203972728</title>
<path fill="none" stroke="#000000" d="M548.1154,-76.7941C525.3965,-65.2746 492.2451,-48.4655 467.2025,-35.7678"/>
<polygon fill="#000000" stroke="#000000" points="468.5421,-32.5229 458.0403,-31.1222 465.3765,-38.7662 468.5421,-32.5229"/>
</g>
<!-- 140623203975912 -->
<g id="node15" class="node">
<title>140623203975912</title>
<ellipse fill="#003ccb" fill-opacity="0.600000" stroke="#003ccb" stroke-opacity="0.600000" cx="526.1604" cy="-18" rx="39.1713" ry="18"/>
<text text-anchor="middle" x="526.1604" y="-13.8" font-family="Times,serif" font-size="14.00" fill="#000000">Mapped</text>
</g>
<!-- 140623203971800&#45;&gt;140623203975912 -->
<g id="edge14" class="edge">
<title>140623203971800&#45;&gt;140623203975912</title>
<path fill="none" stroke="#000000" d="M562.541,-72.5708C556.763,-63.9038 549.6666,-53.2592 543.2802,-43.6796"/>
<polygon fill="#000000" stroke="#000000" points="546.1321,-41.6477 537.6729,-35.2687 540.3077,-45.5307 546.1321,-41.6477"/>
</g>
<!-- 140623203981448 -->
<g id="node16" class="node">
<title>140623203981448</title>
<ellipse fill="#62757f" fill-opacity="0.600000" stroke="#62757f" stroke-opacity="0.600000" cx="622.1604" cy="-18" rx="39.1887" ry="18"/>
<text text-anchor="middle" x="622.1604" y="-13.8" font-family="Times,serif" font-size="14.00" fill="#000000">Skipped</text>
</g>
<!-- 140623203971800&#45;&gt;140623203981448 -->
<g id="edge15" class="edge">
<title>140623203971800&#45;&gt;140623203981448</title>
<path fill="none" stroke="#000000" d="M585.7799,-72.5708C591.5579,-63.9038 598.6543,-53.2592 605.0407,-43.6796"/>
<polygon fill="#000000" stroke="#000000" points="608.0131,-45.5307 610.648,-35.2687 602.1887,-41.6477 608.0131,-45.5307"/>
</g>
<!-- 140623203978664 -->
<g id="node18" class="node">
<title>140623203978664</title>
<ellipse fill="#c42800" fill-opacity="0.600000" stroke="#c42800" stroke-opacity="0.600000" cx="718.1604" cy="-18" rx="39.1713" ry="18"/>
<text text-anchor="middle" x="718.1604" y="-13.8" font-family="Times,serif" font-size="14.00" fill="#000000">Aborted</text>
</g>
<!-- 140623203977736&#45;&gt;140623203978664 -->
<g id="edge17" class="edge">
<title>140623203977736&#45;&gt;140623203978664</title>
<path fill="none" stroke="#000000" d="M758.0999,-73.3008C751.6953,-64.4329 743.6885,-53.3465 736.5288,-43.4332"/>
<polygon fill="#000000" stroke="#000000" points="739.209,-41.1662 730.5167,-35.1086 733.5342,-45.2647 739.209,-41.1662"/>
</g>
<!-- 140623203979592 -->
<g id="node19" class="node">
<title>140623203979592</title>
<ellipse fill="#ff4e33" fill-opacity="0.600000" stroke="#ff4e33" stroke-opacity="0.600000" cx="821.1604" cy="-18" rx="46.3005" ry="18"/>
<text text-anchor="middle" x="821.1604" y="-13.8" font-family="Times,serif" font-size="14.00" fill="#000000">TimedOut</text>
</g>
<!-- 140623203977736&#45;&gt;140623203979592 -->
<g id="edge18" class="edge">
<title>140623203977736&#45;&gt;140623203979592</title>
<path fill="none" stroke="#000000" d="M782.2467,-72.937C788.4435,-64.1886 796.1177,-53.3545 803.009,-43.6256"/>
<polygon fill="#000000" stroke="#000000" points="805.8825,-45.624 808.8066,-35.4407 800.1703,-41.5779 805.8825,-45.624"/>
</g>
<!-- 140623203980520 -->
<g id="node20" class="node">
<title>140623203980520</title>
<ellipse fill="#ff5131" fill-opacity="0.600000" stroke="#ff5131" stroke-opacity="0.600000" cx="944.1604" cy="-18" rx="58.3442" ry="18"/>
<text text-anchor="middle" x="944.1604" y="-13.8" font-family="Times,serif" font-size="14.00" fill="#000000">TriggerFailed</text>
</g>
<!-- 140623203977736&#45;&gt;140623203980520 -->
<g id="edge19" class="edge">
<title>140623203977736&#45;&gt;140623203980520</title>
<path fill="none" stroke="#000000" d="M796.21,-79.2209C823.5631,-67.9023 867.0699,-49.8995 899.8388,-36.34"/>
<polygon fill="#000000" stroke="#000000" points="901.3012,-39.5227 909.2032,-32.4651 898.6247,-33.0546 901.3012,-39.5227"/>
</g>
</g>
</svg>
