<?xml version="1.0" encoding="UTF-8" standalone="no"?>
<!DOCTYPE svg PUBLIC "-//W3C//DTD SVG 1.1//EN"
 "http://www.w3.org/Graphics/SVG/1.1/DTD/svg11.dtd">
<!-- Generated by graphviz version 2.40.1 (20161225.0304)
 -->
<!-- Title: %3 Pages: 1 -->
<svg width="811pt" height="260pt"
 viewBox="0.00 0.00 810.58 260.00" xmlns="http://www.w3.org/2000/svg" xmlns:xlink="http://www.w3.org/1999/xlink">
<g id="graph0" class="graph" transform="scale(1 1) rotate(0) translate(4 256)">
<title>%3</title>
<polygon fill="#ffffff" stroke="transparent" points="-4,4 -4,-256 806.5825,-256 806.5825,4 -4,4"/>
<!-- 140725529033224 -->
<g id="node1" class="node">
<title>140725529033224</title>
<ellipse fill="#000000" fill-opacity="0.600000" stroke="#000000" stroke-opacity="0.600000" cx="281.1604" cy="-234" rx="27.5804" ry="18"/>
<text text-anchor="middle" x="281.1604" y="-229.8" font-family="Times,serif" font-size="14.00" fill="#000000">State</text>
</g>
<!-- 140725529034840 -->
<g id="node2" class="node">
<title>140725529034840</title>
<ellipse fill="#d3d3d3" fill-opacity="0.600000" stroke="#d3d3d3" stroke-opacity="0.600000" cx="125.1604" cy="-162" rx="39.1887" ry="18"/>
<text text-anchor="middle" x="125.1604" y="-157.8" font-family="Times,serif" font-size="14.00" fill="#000000">Pending</text>
</g>
<!-- 140725529033224&#45;&gt;140725529034840 -->
<g id="edge1" class="edge">
<title>140725529033224&#45;&gt;140725529034840</title>
<path fill="none" stroke="#000000" d="M258.4767,-223.5306C233.2373,-211.8816 192.0774,-192.8848 162.1605,-179.0769"/>
<polygon fill="#000000" stroke="#000000" points="163.423,-175.8049 152.8767,-174.7921 160.4895,-182.1606 163.423,-175.8049"/>
</g>
<!-- 140725529038440 -->
<g id="node7" class="node">
<title>140725529038440</title>
<ellipse fill="#000000" fill-opacity="0.600000" stroke="#000000" stroke-opacity="0.600000" cx="229.1604" cy="-162" rx="46.4304" ry="18"/>
<text text-anchor="middle" x="229.1604" y="-157.8" font-family="Times,serif" font-size="14.00" fill="#000000">Submitted</text>
</g>
<!-- 140725529033224&#45;&gt;140725529038440 -->
<g id="edge6" class="edge">
<title>140725529033224&#45;&gt;140725529038440</title>
<path fill="none" stroke="#000000" d="M269.3608,-217.6621C263.0105,-208.8694 255.03,-197.8194 247.8566,-187.887"/>
<polygon fill="#000000" stroke="#000000" points="250.5142,-185.5888 241.8218,-179.5312 244.8394,-189.6872 250.5142,-185.5888"/>
</g>
<!-- 140725529043528 -->
<g id="node8" class="node">
<title>140725529043528</title>
<ellipse fill="#00ff00" fill-opacity="0.600000" stroke="#00ff00" stroke-opacity="0.600000" cx="334.1604" cy="-162" rx="40.6421" ry="18"/>
<text text-anchor="middle" x="334.1604" y="-157.8" font-family="Times,serif" font-size="14.00" fill="#000000">Running</text>
</g>
<!-- 140725529033224&#45;&gt;140725529043528 -->
<g id="edge7" class="edge">
<title>140725529033224&#45;&gt;140725529043528</title>
<path fill="none" stroke="#000000" d="M293.1869,-217.6621C299.7724,-208.7157 308.0782,-197.4325 315.4872,-187.3674"/>
<polygon fill="#000000" stroke="#000000" points="318.3329,-189.4055 321.4424,-179.2773 312.6955,-185.2558 318.3329,-189.4055"/>
</g>
<!-- 140725529044456 -->
<g id="node9" class="node">
<title>140725529044456</title>
<ellipse fill="#ba55d3" fill-opacity="0.600000" stroke="#ba55d3" stroke-opacity="0.600000" cx="433.1604" cy="-162" rx="40.6421" ry="18"/>
<text text-anchor="middle" x="433.1604" y="-157.8" font-family="Times,serif" font-size="14.00" fill="#000000">Finished</text>
</g>
<!-- 140725529033224&#45;&gt;140725529044456 -->
<g id="edge8" class="edge">
<title>140725529033224&#45;&gt;140725529044456</title>
<path fill="none" stroke="#000000" d="M303.9164,-223.2209C328.2474,-211.6956 367.21,-193.2397 396.0016,-179.6015"/>
<polygon fill="#000000" stroke="#000000" points="397.8009,-182.6221 405.34,-175.1781 394.8043,-176.2959 397.8009,-182.6221"/>
</g>
<!-- 140725529035768 -->
<g id="node3" class="node">
<title>140725529035768</title>
<ellipse fill="#800000" fill-opacity="0.600000" stroke="#800000" stroke-opacity="0.600000" cx="35.1604" cy="-90" rx="35.3216" ry="18"/>
<text text-anchor="middle" x="35.1604" y="-85.8" font-family="Times,serif" font-size="14.00" fill="#000000">Paused</text>
</g>
<!-- 140725529034840&#45;&gt;140725529035768 -->
<g id="edge2" class="edge">
<title>140725529034840&#45;&gt;140725529035768</title>
<path fill="none" stroke="#000000" d="M105.6318,-146.3771C92.926,-136.2125 76.1807,-122.8162 62.2015,-111.6328"/>
<polygon fill="#000000" stroke="#000000" points="64.3369,-108.859 54.3418,-105.3451 59.9641,-114.3251 64.3369,-108.859"/>
</g>
<!-- 140725529036696 -->
<g id="node4" class="node">
<title>140725529036696</title>
<ellipse fill="#b0c4de" fill-opacity="0.600000" stroke="#b0c4de" stroke-opacity="0.600000" cx="135.1604" cy="-90" rx="46.8891" ry="18"/>
<text text-anchor="middle" x="135.1604" y="-85.8" font-family="Times,serif" font-size="14.00" fill="#000000">Scheduled</text>
</g>
<!-- 140725529034840&#45;&gt;140725529036696 -->
<g id="edge3" class="edge">
<title>140725529034840&#45;&gt;140725529036696</title>
<path fill="none" stroke="#000000" d="M127.6839,-143.8314C128.7534,-136.131 130.0251,-126.9743 131.2137,-118.4166"/>
<polygon fill="#000000" stroke="#000000" points="134.694,-118.7997 132.603,-108.4133 127.7605,-117.8367 134.694,-118.7997"/>
</g>
<!-- 140725529040248 -->
<g id="node5" class="node">
<title>140725529040248</title>
<ellipse fill="#20b2aa" fill-opacity="0.600000" stroke="#20b2aa" stroke-opacity="0.600000" cx="58.1604" cy="-18" rx="38.6955" ry="18"/>
<text text-anchor="middle" x="58.1604" y="-13.8" font-family="Times,serif" font-size="14.00" fill="#000000">Resume</text>
</g>
<!-- 140725529036696&#45;&gt;140725529040248 -->
<g id="edge4" class="edge">
<title>140725529036696&#45;&gt;140725529040248</title>
<path fill="none" stroke="#000000" d="M117.3015,-73.3008C107.05,-63.715 94.0264,-51.537 82.8116,-41.0504"/>
<polygon fill="#000000" stroke="#000000" points="85.0875,-38.3869 75.3928,-34.1134 80.3066,-43.4998 85.0875,-38.3869"/>
</g>
<!-- 140725529041784 -->
<g id="node6" class="node">
<title>140725529041784</title>
<ellipse fill="#ffff00" fill-opacity="0.600000" stroke="#ffff00" stroke-opacity="0.600000" cx="156.1604" cy="-18" rx="41.1093" ry="18"/>
<text text-anchor="middle" x="156.1604" y="-13.8" font-family="Times,serif" font-size="14.00" fill="#000000">Retrying</text>
</g>
<!-- 140725529036696&#45;&gt;140725529041784 -->
<g id="edge5" class="edge">
<title>140725529036696&#45;&gt;140725529041784</title>
<path fill="none" stroke="#000000" d="M140.4596,-71.8314C142.7652,-63.9266 145.5183,-54.4872 148.0706,-45.7365"/>
<polygon fill="#000000" stroke="#000000" points="151.4956,-46.4934 150.9357,-35.9134 144.7756,-44.5334 151.4956,-46.4934"/>
</g>
<!-- 140725529045384 -->
<g id="node10" class="node">
<title>140725529045384</title>
<ellipse fill="#008000" fill-opacity="0.600000" stroke="#008000" stroke-opacity="0.600000" cx="427.1604" cy="-90" rx="38.211" ry="18"/>
<text text-anchor="middle" x="427.1604" y="-85.8" font-family="Times,serif" font-size="14.00" fill="#000000">Success</text>
</g>
<!-- 140725529044456&#45;&gt;140725529045384 -->
<g id="edge9" class="edge">
<title>140725529044456&#45;&gt;140725529045384</title>
<path fill="none" stroke="#000000" d="M431.6464,-143.8314C431.0047,-136.131 430.2416,-126.9743 429.5285,-118.4166"/>
<polygon fill="#000000" stroke="#000000" points="433.0133,-118.088 428.6949,-108.4133 426.0375,-118.6694 433.0133,-118.088"/>
</g>
<!-- 140725529049864 -->
<g id="node14" class="node">
<title>140725529049864</title>
<ellipse fill="#ff0000" fill-opacity="0.600000" stroke="#ff0000" stroke-opacity="0.600000" cx="621.1604" cy="-90" rx="32.4237" ry="18"/>
<text text-anchor="middle" x="621.1604" y="-85.8" font-family="Times,serif" font-size="14.00" fill="#000000">Failed</text>
</g>
<!-- 140725529044456&#45;&gt;140725529049864 -->
<g id="edge13" class="edge">
<title>140725529044456&#45;&gt;140725529049864</title>
<path fill="none" stroke="#000000" d="M464.2048,-150.1107C497.3793,-137.4055 549.9152,-117.2854 584.9501,-103.8678"/>
<polygon fill="#000000" stroke="#000000" points="586.2502,-107.1178 594.337,-100.2728 583.7466,-100.5808 586.2502,-107.1178"/>
</g>
<!-- 140725529046312 -->
<g id="node11" class="node">
<title>140725529046312</title>
<ellipse fill="#ffa500" fill-opacity="0.600000" stroke="#ffa500" stroke-opacity="0.600000" cx="311.1604" cy="-18" rx="54.1144" ry="18"/>
<text text-anchor="middle" x="311.1604" y="-13.8" font-family="Times,serif" font-size="14.00" fill="#000000">CachedState</text>
</g>
<!-- 140725529045384&#45;&gt;140725529046312 -->
<g id="edge10" class="edge">
<title>140725529045384&#45;&gt;140725529046312</title>
<path fill="none" stroke="#000000" d="M403.9649,-75.6028C387.2983,-65.258 364.5473,-51.1367 345.743,-39.4651"/>
<polygon fill="#000000" stroke="#000000" points="347.4879,-36.4287 337.1457,-34.1288 343.7963,-42.3762 347.4879,-36.4287"/>
</g>
<!-- 140725529048040 -->
<g id="node12" class="node">
<title>140725529048040</title>
<ellipse fill="#97ffff" fill-opacity="0.600000" stroke="#97ffff" stroke-opacity="0.600000" cx="422.1604" cy="-18" rx="39.1713" ry="18"/>
<text text-anchor="middle" x="422.1604" y="-13.8" font-family="Times,serif" font-size="14.00" fill="#000000">Mapped</text>
</g>
<!-- 140725529045384&#45;&gt;140725529048040 -->
<g id="edge11" class="edge">
<title>140725529045384&#45;&gt;140725529048040</title>
<path fill="none" stroke="#000000" d="M425.8987,-71.8314C425.364,-64.131 424.7281,-54.9743 424.1338,-46.4166"/>
<polygon fill="#000000" stroke="#000000" points="427.6236,-46.1467 423.4391,-36.4133 420.6404,-46.6317 427.6236,-46.1467"/>
</g>
<!-- 140725529052648 -->
<g id="node13" class="node">
<title>140725529052648</title>
<ellipse fill="#f0fff0" fill-opacity="0.600000" stroke="#f0fff0" stroke-opacity="0.600000" cx="518.1604" cy="-18" rx="39.1887" ry="18"/>
<text text-anchor="middle" x="518.1604" y="-13.8" font-family="Times,serif" font-size="14.00" fill="#000000">Skipped</text>
</g>
<!-- 140725529045384&#45;&gt;140725529052648 -->
<g id="edge12" class="edge">
<title>140725529045384&#45;&gt;140725529052648</title>
<path fill="none" stroke="#000000" d="M446.9061,-74.3771C459.6656,-64.2816 476.4542,-50.9983 490.5301,-39.8614"/>
<polygon fill="#000000" stroke="#000000" points="492.7828,-42.5421 498.4533,-33.5924 488.4394,-37.0525 492.7828,-42.5421"/>
</g>
<!-- 140725529050792 -->
<g id="node15" class="node">
<title>140725529050792</title>
<ellipse fill="#cdc9a5" fill-opacity="0.600000" stroke="#cdc9a5" stroke-opacity="0.600000" cx="621.1604" cy="-18" rx="46.3005" ry="18"/>
<text text-anchor="middle" x="621.1604" y="-13.8" font-family="Times,serif" font-size="14.00" fill="#000000">TimedOut</text>
</g>
<!-- 140725529049864&#45;&gt;140725529050792 -->
<g id="edge14" class="edge">
<title>140725529049864&#45;&gt;140725529050792</title>
<path fill="none" stroke="#000000" d="M621.1604,-71.8314C621.1604,-64.131 621.1604,-54.9743 621.1604,-46.4166"/>
<polygon fill="#000000" stroke="#000000" points="624.6605,-46.4132 621.1604,-36.4133 617.6605,-46.4133 624.6605,-46.4132"/>
</g>
<!-- 140725529051720 -->
<g id="node16" class="node">
<title>140725529051720</title>
<ellipse fill="#f08080" fill-opacity="0.600000" stroke="#f08080" stroke-opacity="0.600000" cx="744.1604" cy="-18" rx="58.3442" ry="18"/>
<text text-anchor="middle" x="744.1604" y="-13.8" font-family="Times,serif" font-size="14.00" fill="#000000">TriggerFailed</text>
</g>
<!-- 140725529049864&#45;&gt;140725529051720 -->
<g id="edge15" class="edge">
<title>140725529049864&#45;&gt;140725529051720</title>
<path fill="none" stroke="#000000" d="M643.4348,-76.9613C661.4862,-66.3946 687.2759,-51.2983 708.24,-39.0266"/>
<polygon fill="#000000" stroke="#000000" points="710.0305,-42.0341 716.8926,-33.9617 706.4943,-35.993 710.0305,-42.0341"/>
</g>
</g>
</svg>
