<?xml version="1.0" encoding="UTF-8" standalone="no"?>
<!DOCTYPE svg PUBLIC "-//W3C//DTD SVG 1.1//EN"
 "http://www.w3.org/Graphics/SVG/1.1/DTD/svg11.dtd">
<!-- Generated by graphviz version 2.40.1 (20161225.0304)
 -->
<!-- Title: %3 Pages: 1 -->
<svg width="1100pt" height="260pt"
 viewBox="0.00 0.00 1099.72 260.00" xmlns="http://www.w3.org/2000/svg" xmlns:xlink="http://www.w3.org/1999/xlink">
<g id="graph0" class="graph" transform="scale(1 1) rotate(0) translate(4 256)">
<title>%3</title>
<polygon fill="#ffffff" stroke="transparent" points="-4,4 -4,-256 1095.7213,-256 1095.7213,4 -4,4"/>
<!-- 140566526487720 -->
<g id="node1" class="node">
<title>140566526487720</title>
<ellipse fill="#696969" fill-opacity="0.600000" stroke="#696969" stroke-opacity="0.600000" cx="418.1604" cy="-234" rx="27.5804" ry="18"/>
<text text-anchor="middle" x="418.1604" y="-229.8" font-family="Times,serif" font-size="14.00" fill="#000000">State</text>
</g>
<!-- 140566526489608 -->
<g id="node2" class="node">
<title>140566526489608</title>
<ellipse fill="#7ebdff" fill-opacity="0.600000" stroke="#7ebdff" stroke-opacity="0.600000" cx="192.1604" cy="-162" rx="39.1887" ry="18"/>
<text text-anchor="middle" x="192.1604" y="-157.8" font-family="Times,serif" font-size="14.00" fill="#000000">Pending</text>
</g>
<!-- 140566526487720&#45;&gt;140566526489608 -->
<g id="edge1" class="edge">
<title>140566526487720&#45;&gt;140566526489608</title>
<path fill="none" stroke="#000000" d="M393.111,-226.0196C354.7802,-213.8081 281.1152,-190.3396 234.4165,-175.4621"/>
<polygon fill="#000000" stroke="#000000" points="235.1877,-172.0345 224.5971,-172.3338 233.0628,-178.7042 235.1877,-172.0345"/>
</g>
<!-- 140566526494136 -->
<g id="node7" class="node">
<title>140566526494136</title>
<ellipse fill="#696969" fill-opacity="0.600000" stroke="#696969" stroke-opacity="0.600000" cx="364.1604" cy="-162" rx="50.2637" ry="18"/>
<text text-anchor="middle" x="364.1604" y="-157.8" font-family="Times,serif" font-size="14.00" fill="#000000">_MetaState</text>
</g>
<!-- 140566526487720&#45;&gt;140566526494136 -->
<g id="edge6" class="edge">
<title>140566526487720&#45;&gt;140566526494136</title>
<path fill="none" stroke="#000000" d="M405.907,-217.6621C399.2459,-208.7806 390.8573,-197.5959 383.3502,-187.5864"/>
<polygon fill="#000000" stroke="#000000" points="386.1089,-185.4312 377.3088,-179.5312 380.5088,-189.6312 386.1089,-185.4312"/>
</g>
<!-- 140566526503128 -->
<g id="node11" class="node">
<title>140566526503128</title>
<ellipse fill="#3d67ff" fill-opacity="0.600000" stroke="#3d67ff" stroke-opacity="0.600000" cx="473.1604" cy="-162" rx="40.6421" ry="18"/>
<text text-anchor="middle" x="473.1604" y="-157.8" font-family="Times,serif" font-size="14.00" fill="#000000">Running</text>
</g>
<!-- 140566526487720&#45;&gt;140566526503128 -->
<g id="edge10" class="edge">
<title>140566526487720&#45;&gt;140566526503128</title>
<path fill="none" stroke="#000000" d="M430.6408,-217.6621C437.4748,-208.7157 446.0939,-197.4325 453.7826,-187.3674"/>
<polygon fill="#000000" stroke="#000000" points="456.6734,-189.3487 459.9625,-179.2773 451.1107,-185.0993 456.6734,-189.3487"/>
</g>
<!-- 140566526504680 -->
<g id="node12" class="node">
<title>140566526504680</title>
<ellipse fill="#003ccb" fill-opacity="0.600000" stroke="#003ccb" stroke-opacity="0.600000" cx="703.1604" cy="-162" rx="40.6421" ry="18"/>
<text text-anchor="middle" x="703.1604" y="-157.8" font-family="Times,serif" font-size="14.00" fill="#000000">Finished</text>
</g>
<!-- 140566526487720&#45;&gt;140566526504680 -->
<g id="edge11" class="edge">
<title>140566526487720&#45;&gt;140566526504680</title>
<path fill="none" stroke="#000000" d="M444.2078,-227.4196C492.6599,-215.1791 597.1908,-188.7713 657.5808,-173.5148"/>
<polygon fill="#000000" stroke="#000000" points="658.7611,-176.8267 667.5991,-170.9839 657.0464,-170.0399 658.7611,-176.8267"/>
</g>
<!-- 140566526490536 -->
<g id="node3" class="node">
<title>140566526490536</title>
<ellipse fill="#ffab00" fill-opacity="0.600000" stroke="#ffab00" stroke-opacity="0.600000" cx="127.1604" cy="-90" rx="46.8891" ry="18"/>
<text text-anchor="middle" x="127.1604" y="-85.8" font-family="Times,serif" font-size="14.00" fill="#000000">Scheduled</text>
</g>
<!-- 140566526489608&#45;&gt;140566526490536 -->
<g id="edge2" class="edge">
<title>140566526489608&#45;&gt;140566526490536</title>
<path fill="none" stroke="#000000" d="M177.0847,-145.3008C168.8364,-136.1641 158.4621,-124.6726 149.3103,-114.5353"/>
<polygon fill="#000000" stroke="#000000" points="151.9047,-112.186 142.6057,-107.1086 146.7088,-116.8767 151.9047,-112.186"/>
</g>
<!-- 140566526492408 -->
<g id="node4" class="node">
<title>140566526492408</title>
<ellipse fill="#cfd8dc" fill-opacity="0.600000" stroke="#cfd8dc" stroke-opacity="0.600000" cx="35.1604" cy="-18" rx="35.3216" ry="18"/>
<text text-anchor="middle" x="35.1604" y="-13.8" font-family="Times,serif" font-size="14.00" fill="#000000">Paused</text>
</g>
<!-- 140566526490536&#45;&gt;140566526492408 -->
<g id="edge3" class="edge">
<title>140566526490536&#45;&gt;140566526492408</title>
<path fill="none" stroke="#000000" d="M106.2842,-73.6621C93.3435,-63.5346 76.5762,-50.4123 62.5721,-39.4526"/>
<polygon fill="#000000" stroke="#000000" points="64.728,-36.6955 54.6959,-33.2886 60.4139,-42.208 64.728,-36.6955"/>
</g>
<!-- 140566526499608 -->
<g id="node5" class="node">
<title>140566526499608</title>
<ellipse fill="#fb8532" fill-opacity="0.600000" stroke="#fb8532" stroke-opacity="0.600000" cx="127.1604" cy="-18" rx="38.6955" ry="18"/>
<text text-anchor="middle" x="127.1604" y="-13.8" font-family="Times,serif" font-size="14.00" fill="#000000">Resume</text>
</g>
<!-- 140566526490536&#45;&gt;140566526499608 -->
<g id="edge4" class="edge">
<title>140566526490536&#45;&gt;140566526499608</title>
<path fill="none" stroke="#000000" d="M127.1604,-71.8314C127.1604,-64.131 127.1604,-54.9743 127.1604,-46.4166"/>
<polygon fill="#000000" stroke="#000000" points="130.6605,-46.4132 127.1604,-36.4133 123.6605,-46.4133 130.6605,-46.4132"/>
</g>
<!-- 140566526501272 -->
<g id="node6" class="node">
<title>140566526501272</title>
<ellipse fill="#f66a0a" fill-opacity="0.600000" stroke="#f66a0a" stroke-opacity="0.600000" cx="225.1604" cy="-18" rx="41.1093" ry="18"/>
<text text-anchor="middle" x="225.1604" y="-13.8" font-family="Times,serif" font-size="14.00" fill="#000000">Retrying</text>
</g>
<!-- 140566526490536&#45;&gt;140566526501272 -->
<g id="edge5" class="edge">
<title>140566526490536&#45;&gt;140566526501272</title>
<path fill="none" stroke="#000000" d="M148.9098,-74.0209C162.5799,-63.9775 180.3991,-50.8859 195.3738,-39.8841"/>
<polygon fill="#000000" stroke="#000000" points="197.8225,-42.4281 203.809,-33.6867 193.6779,-36.787 197.8225,-42.4281"/>
</g>
<!-- 140566526495064 -->
<g id="node8" class="node">
<title>140566526495064</title>
<ellipse fill="#eb0000" fill-opacity="0.600000" stroke="#eb0000" stroke-opacity="0.600000" cx="246.1604" cy="-90" rx="53.6557" ry="18"/>
<text text-anchor="middle" x="246.1604" y="-85.8" font-family="Times,serif" font-size="14.00" fill="#000000">ClientFailed</text>
</g>
<!-- 140566526494136&#45;&gt;140566526495064 -->
<g id="edge7" class="edge">
<title>140566526494136&#45;&gt;140566526495064</title>
<path fill="none" stroke="#000000" d="M338.5562,-146.3771C321.6635,-136.0696 299.3246,-122.4391 280.8439,-111.1628"/>
<polygon fill="#000000" stroke="#000000" points="282.4816,-108.062 272.1222,-105.8411 278.8356,-114.0375 282.4816,-108.062"/>
</g>
<!-- 140566526496872 -->
<g id="node9" class="node">
<title>140566526496872</title>
<ellipse fill="#ffdf5d" fill-opacity="0.600000" stroke="#ffdf5d" stroke-opacity="0.600000" cx="364.1604" cy="-90" rx="46.4304" ry="18"/>
<text text-anchor="middle" x="364.1604" y="-85.8" font-family="Times,serif" font-size="14.00" fill="#000000">Submitted</text>
</g>
<!-- 140566526494136&#45;&gt;140566526496872 -->
<g id="edge8" class="edge">
<title>140566526494136&#45;&gt;140566526496872</title>
<path fill="none" stroke="#000000" d="M364.1604,-143.8314C364.1604,-136.131 364.1604,-126.9743 364.1604,-118.4166"/>
<polygon fill="#000000" stroke="#000000" points="367.6605,-118.4132 364.1604,-108.4133 360.6605,-118.4133 367.6605,-118.4132"/>
</g>
<!-- 140566526497800 -->
<g id="node10" class="node">
<title>140566526497800</title>
<ellipse fill="#ffea7f" fill-opacity="0.600000" stroke="#ffea7f" stroke-opacity="0.600000" cx="466.1604" cy="-90" rx="37.7179" ry="18"/>
<text text-anchor="middle" x="466.1604" y="-85.8" font-family="Times,serif" font-size="14.00" fill="#000000">Queued</text>
</g>
<!-- 140566526494136&#45;&gt;140566526497800 -->
<g id="edge9" class="edge">
<title>140566526494136&#45;&gt;140566526497800</title>
<path fill="none" stroke="#000000" d="M387.0512,-145.8418C401.6215,-135.5569 420.6432,-122.1298 436.3826,-111.0196"/>
<polygon fill="#000000" stroke="#000000" points="438.5887,-113.7466 444.74,-105.1203 434.5519,-108.0278 438.5887,-113.7466"/>
</g>
<!-- 140566526506248 -->
<g id="node13" class="node">
<title>140566526506248</title>
<ellipse fill="#003ccb" fill-opacity="0.600000" stroke="#003ccb" stroke-opacity="0.600000" cx="559.1604" cy="-90" rx="37.2421" ry="18"/>
<text text-anchor="middle" x="559.1604" y="-85.8" font-family="Times,serif" font-size="14.00" fill="#000000">Looped</text>
</g>
<!-- 140566526504680&#45;&gt;140566526506248 -->
<g id="edge12" class="edge">
<title>140566526504680&#45;&gt;140566526506248</title>
<path fill="none" stroke="#000000" d="M676.0751,-148.4574C652.9577,-136.8986 619.5548,-120.1972 594.367,-107.6033"/>
<polygon fill="#000000" stroke="#000000" points="595.6639,-104.3387 585.1543,-102.997 592.5334,-110.5996 595.6639,-104.3387"/>
</g>
<!-- 140566526508088 -->
<g id="node14" class="node">
<title>140566526508088</title>
<ellipse fill="#28a745" fill-opacity="0.600000" stroke="#28a745" stroke-opacity="0.600000" cx="652.1604" cy="-90" rx="38.211" ry="18"/>
<text text-anchor="middle" x="652.1604" y="-85.8" font-family="Times,serif" font-size="14.00" fill="#000000">Success</text>
</g>
<!-- 140566526504680&#45;&gt;140566526508088 -->
<g id="edge13" class="edge">
<title>140566526504680&#45;&gt;140566526508088</title>
<path fill="none" stroke="#000000" d="M690.8148,-144.5708C684.6756,-135.9038 677.1357,-125.2592 670.3501,-115.6796"/>
<polygon fill="#000000" stroke="#000000" points="673.0287,-113.4059 664.3924,-107.2687 667.3165,-117.452 673.0287,-113.4059"/>
</g>
<!-- 140566526512328 -->
<g id="node17" class="node">
<title>140566526512328</title>
<ellipse fill="#c42800" fill-opacity="0.600000" stroke="#c42800" stroke-opacity="0.600000" cx="754.1604" cy="-90" rx="45.4269" ry="18"/>
<text text-anchor="middle" x="754.1604" y="-85.8" font-family="Times,serif" font-size="14.00" fill="#000000">Cancelled</text>
</g>
<!-- 140566526504680&#45;&gt;140566526512328 -->
<g id="edge16" class="edge">
<title>140566526504680&#45;&gt;140566526512328</title>
<path fill="none" stroke="#000000" d="M715.5061,-144.5708C721.6001,-135.9675 729.0744,-125.4156 735.8209,-115.8911"/>
<polygon fill="#000000" stroke="#000000" points="738.8276,-117.7016 741.7517,-107.5182 733.1154,-113.6554 738.8276,-117.7016"/>
</g>
<!-- 140566526513928 -->
<g id="node18" class="node">
<title>140566526513928</title>
<ellipse fill="#eb0000" fill-opacity="0.600000" stroke="#eb0000" stroke-opacity="0.600000" cx="850.1604" cy="-90" rx="32.4237" ry="18"/>
<text text-anchor="middle" x="850.1604" y="-85.8" font-family="Times,serif" font-size="14.00" fill="#000000">Failed</text>
</g>
<!-- 140566526504680&#45;&gt;140566526513928 -->
<g id="edge17" class="edge">
<title>140566526504680&#45;&gt;140566526513928</title>
<path fill="none" stroke="#000000" d="M730.4655,-148.6261C754.8685,-136.6736 790.6966,-119.1251 816.7918,-106.3438"/>
<polygon fill="#000000" stroke="#000000" points="818.4852,-109.4117 825.9263,-101.8698 815.4061,-103.1253 818.4852,-109.4117"/>
</g>
<!-- 140566526518552 -->
<g id="node22" class="node">
<title>140566526518552</title>
<ellipse fill="#62757f" fill-opacity="0.600000" stroke="#62757f" stroke-opacity="0.600000" cx="939.1604" cy="-90" rx="39.1887" ry="18"/>
<text text-anchor="middle" x="939.1604" y="-85.8" font-family="Times,serif" font-size="14.00" fill="#000000">Skipped</text>
</g>
<!-- 140566526504680&#45;&gt;140566526518552 -->
<g id="edge21" class="edge">
<title>140566526504680&#45;&gt;140566526518552</title>
<path fill="none" stroke="#000000" d="M738.4097,-152.7695C776.3786,-142.6192 838.4434,-125.4253 891.1604,-108 893.8936,-107.0966 896.7023,-106.1341 899.5239,-105.1419"/>
<polygon fill="#000000" stroke="#000000" points="900.8562,-108.3822 909.0754,-101.6968 898.4811,-101.7974 900.8562,-108.3822"/>
</g>
<!-- 140566526509608 -->
<g id="node15" class="node">
<title>140566526509608</title>
<ellipse fill="#34d058" fill-opacity="0.600000" stroke="#34d058" stroke-opacity="0.600000" cx="558.1604" cy="-18" rx="36.7489" ry="18"/>
<text text-anchor="middle" x="558.1604" y="-13.8" font-family="Times,serif" font-size="14.00" fill="#000000">Cached</text>
</g>
<!-- 140566526508088&#45;&gt;140566526509608 -->
<g id="edge14" class="edge">
<title>140566526508088&#45;&gt;140566526509608</title>
<path fill="none" stroke="#000000" d="M631.7638,-74.3771C618.4934,-64.2125 601.0038,-50.8162 586.4033,-39.6328"/>
<polygon fill="#000000" stroke="#000000" points="588.2614,-36.6473 578.1943,-33.3451 584.0048,-42.2045 588.2614,-36.6473"/>
</g>
<!-- 140566526511400 -->
<g id="node16" class="node">
<title>140566526511400</title>
<ellipse fill="#003ccb" fill-opacity="0.600000" stroke="#003ccb" stroke-opacity="0.600000" cx="652.1604" cy="-18" rx="39.1713" ry="18"/>
<text text-anchor="middle" x="652.1604" y="-13.8" font-family="Times,serif" font-size="14.00" fill="#000000">Mapped</text>
</g>
<!-- 140566526508088&#45;&gt;140566526511400 -->
<g id="edge15" class="edge">
<title>140566526508088&#45;&gt;140566526511400</title>
<path fill="none" stroke="#000000" d="M652.1604,-71.8314C652.1604,-64.131 652.1604,-54.9743 652.1604,-46.4166"/>
<polygon fill="#000000" stroke="#000000" points="655.6605,-46.4132 652.1604,-36.4133 648.6605,-46.4133 655.6605,-46.4132"/>
</g>
<!-- 140566526515448 -->
<g id="node19" class="node">
<title>140566526515448</title>
<ellipse fill="#ff4e33" fill-opacity="0.600000" stroke="#ff4e33" stroke-opacity="0.600000" cx="755.1604" cy="-18" rx="46.3005" ry="18"/>
<text text-anchor="middle" x="755.1604" y="-13.8" font-family="Times,serif" font-size="14.00" fill="#000000">TimedOut</text>
</g>
<!-- 140566526513928&#45;&gt;140566526515448 -->
<g id="edge18" class="edge">
<title>140566526513928&#45;&gt;140566526515448</title>
<path fill="none" stroke="#000000" d="M830.9358,-75.4297C817.578,-65.3059 799.5296,-51.6272 784.398,-40.159"/>
<polygon fill="#000000" stroke="#000000" points="786.4237,-37.3026 776.3399,-34.0518 782.1955,-42.8814 786.4237,-37.3026"/>
</g>
<!-- 140566526517000 -->
<g id="node20" class="node">
<title>140566526517000</title>
<ellipse fill="#ff5131" fill-opacity="0.600000" stroke="#ff5131" stroke-opacity="0.600000" cx="878.1604" cy="-18" rx="58.3442" ry="18"/>
<text text-anchor="middle" x="878.1604" y="-13.8" font-family="Times,serif" font-size="14.00" fill="#000000">TriggerFailed</text>
</g>
<!-- 140566526513928&#45;&gt;140566526517000 -->
<g id="edge19" class="edge">
<title>140566526513928&#45;&gt;140566526517000</title>
<path fill="none" stroke="#000000" d="M857.0818,-72.2022C860.2215,-64.1287 864.0058,-54.3976 867.4963,-45.422"/>
<polygon fill="#000000" stroke="#000000" points="870.7617,-46.6818 871.1242,-36.0931 864.2377,-44.1446 870.7617,-46.6818"/>
</g>
<!-- 140566526520104 -->
<g id="node21" class="node">
<title>140566526520104</title>
<ellipse fill="#ff5131" fill-opacity="0.600000" stroke="#ff5131" stroke-opacity="0.600000" cx="1023.1604" cy="-18" rx="68.6219" ry="18"/>
<text text-anchor="middle" x="1023.1604" y="-13.8" font-family="Times,serif" font-size="14.00" fill="#000000">ValidationFailed</text>
</g>
<!-- 140566526513928&#45;&gt;140566526520104 -->
<g id="edge20" class="edge">
<title>140566526513928&#45;&gt;140566526520104</title>
<path fill="none" stroke="#000000" d="M875.7062,-78.6654C880.8148,-76.4324 886.1504,-74.1241 891.1604,-72 919.2573,-60.0876 950.8972,-47.1285 976.1556,-36.8919"/>
<polygon fill="#000000" stroke="#000000" points="977.5458,-40.1051 985.503,-33.1097 974.9202,-33.6161 977.5458,-40.1051"/>
</g>
</g>
</svg>
