<?xml version="1.0" encoding="UTF-8" standalone="no"?>
<!DOCTYPE svg PUBLIC "-//W3C//DTD SVG 1.1//EN"
 "http://www.w3.org/Graphics/SVG/1.1/DTD/svg11.dtd">
<!-- Generated by graphviz version 2.40.1 (20161225.0304)
 -->
<!-- Title: %3 Pages: 1 -->
<svg width="1103pt" height="260pt"
 viewBox="0.00 0.00 1102.58 260.00" xmlns="http://www.w3.org/2000/svg" xmlns:xlink="http://www.w3.org/1999/xlink">
<g id="graph0" class="graph" transform="scale(1 1) rotate(0) translate(4 256)">
<title>%3</title>
<polygon fill="#ffffff" stroke="transparent" points="-4,4 -4,-256 1098.5825,-256 1098.5825,4 -4,4"/>
<!-- 140466344662040 -->
<g id="node1" class="node">
<title>140466344662040</title>
<ellipse fill="#696969" fill-opacity="0.600000" stroke="#696969" stroke-opacity="0.600000" cx="418.1604" cy="-234" rx="27.5804" ry="18"/>
<text text-anchor="middle" x="418.1604" y="-229.8" font-family="Times,serif" font-size="14.00" fill="#000000">State</text>
</g>
<!-- 140466344683848 -->
<g id="node2" class="node">
<title>140466344683848</title>
<ellipse fill="#7ebdff" fill-opacity="0.600000" stroke="#7ebdff" stroke-opacity="0.600000" cx="192.1604" cy="-162" rx="39.1887" ry="18"/>
<text text-anchor="middle" x="192.1604" y="-157.8" font-family="Times,serif" font-size="14.00" fill="#000000">Pending</text>
</g>
<!-- 140466344662040&#45;&gt;140466344683848 -->
<g id="edge1" class="edge">
<title>140466344662040&#45;&gt;140466344683848</title>
<path fill="none" stroke="#000000" d="M393.111,-226.0196C354.7802,-213.8081 281.1152,-190.3396 234.4165,-175.4621"/>
<polygon fill="#000000" stroke="#000000" points="235.1877,-172.0345 224.5971,-172.3338 233.0628,-178.7042 235.1877,-172.0345"/>
</g>
<!-- 140466344688424 -->
<g id="node7" class="node">
<title>140466344688424</title>
<ellipse fill="#696969" fill-opacity="0.600000" stroke="#696969" stroke-opacity="0.600000" cx="364.1604" cy="-162" rx="50.2637" ry="18"/>
<text text-anchor="middle" x="364.1604" y="-157.8" font-family="Times,serif" font-size="14.00" fill="#000000">_MetaState</text>
</g>
<!-- 140466344662040&#45;&gt;140466344688424 -->
<g id="edge6" class="edge">
<title>140466344662040&#45;&gt;140466344688424</title>
<path fill="none" stroke="#000000" d="M405.907,-217.6621C399.2459,-208.7806 390.8573,-197.5959 383.3502,-187.5864"/>
<polygon fill="#000000" stroke="#000000" points="386.1089,-185.4312 377.3088,-179.5312 380.5088,-189.6312 386.1089,-185.4312"/>
</g>
<!-- 140466344697352 -->
<g id="node11" class="node">
<title>140466344697352</title>
<ellipse fill="#3d67ff" fill-opacity="0.600000" stroke="#3d67ff" stroke-opacity="0.600000" cx="473.1604" cy="-162" rx="40.6421" ry="18"/>
<text text-anchor="middle" x="473.1604" y="-157.8" font-family="Times,serif" font-size="14.00" fill="#000000">Running</text>
</g>
<!-- 140466344662040&#45;&gt;140466344697352 -->
<g id="edge10" class="edge">
<title>140466344662040&#45;&gt;140466344697352</title>
<path fill="none" stroke="#000000" d="M430.6408,-217.6621C437.4748,-208.7157 446.0939,-197.4325 453.7826,-187.3674"/>
<polygon fill="#000000" stroke="#000000" points="456.6734,-189.3487 459.9625,-179.2773 451.1107,-185.0993 456.6734,-189.3487"/>
</g>
<!-- 140466344698280 -->
<g id="node12" class="node">
<title>140466344698280</title>
<ellipse fill="#003ccb" fill-opacity="0.600000" stroke="#003ccb" stroke-opacity="0.600000" cx="612.1604" cy="-162" rx="40.6421" ry="18"/>
<text text-anchor="middle" x="612.1604" y="-157.8" font-family="Times,serif" font-size="14.00" fill="#000000">Finished</text>
</g>
<!-- 140466344662040&#45;&gt;140466344698280 -->
<g id="edge11" class="edge">
<title>140466344662040&#45;&gt;140466344698280</title>
<path fill="none" stroke="#000000" d="M442.3384,-225.0267C474.6432,-213.0373 532.3429,-191.623 571.4221,-177.1194"/>
<polygon fill="#000000" stroke="#000000" points="572.7722,-180.3517 580.9295,-173.5908 570.3366,-173.789 572.7722,-180.3517"/>
</g>
<!-- 140466344684776 -->
<g id="node3" class="node">
<title>140466344684776</title>
<ellipse fill="#ffab00" fill-opacity="0.600000" stroke="#ffab00" stroke-opacity="0.600000" cx="127.1604" cy="-90" rx="46.8891" ry="18"/>
<text text-anchor="middle" x="127.1604" y="-85.8" font-family="Times,serif" font-size="14.00" fill="#000000">Scheduled</text>
</g>
<!-- 140466344683848&#45;&gt;140466344684776 -->
<g id="edge2" class="edge">
<title>140466344683848&#45;&gt;140466344684776</title>
<path fill="none" stroke="#000000" d="M177.0847,-145.3008C168.8364,-136.1641 158.4621,-124.6726 149.3103,-114.5353"/>
<polygon fill="#000000" stroke="#000000" points="151.9047,-112.186 142.6057,-107.1086 146.7088,-116.8767 151.9047,-112.186"/>
</g>
<!-- 140466344686680 -->
<g id="node4" class="node">
<title>140466344686680</title>
<ellipse fill="#cfd8dc" fill-opacity="0.600000" stroke="#cfd8dc" stroke-opacity="0.600000" cx="35.1604" cy="-18" rx="35.3216" ry="18"/>
<text text-anchor="middle" x="35.1604" y="-13.8" font-family="Times,serif" font-size="14.00" fill="#000000">Paused</text>
</g>
<!-- 140466344684776&#45;&gt;140466344686680 -->
<g id="edge3" class="edge">
<title>140466344684776&#45;&gt;140466344686680</title>
<path fill="none" stroke="#000000" d="M106.2842,-73.6621C93.3435,-63.5346 76.5762,-50.4123 62.5721,-39.4526"/>
<polygon fill="#000000" stroke="#000000" points="64.728,-36.6955 54.6959,-33.2886 60.4139,-42.208 64.728,-36.6955"/>
</g>
<!-- 140466344693784 -->
<g id="node5" class="node">
<title>140466344693784</title>
<ellipse fill="#fb8532" fill-opacity="0.600000" stroke="#fb8532" stroke-opacity="0.600000" cx="127.1604" cy="-18" rx="38.6955" ry="18"/>
<text text-anchor="middle" x="127.1604" y="-13.8" font-family="Times,serif" font-size="14.00" fill="#000000">Resume</text>
</g>
<!-- 140466344684776&#45;&gt;140466344693784 -->
<g id="edge4" class="edge">
<title>140466344684776&#45;&gt;140466344693784</title>
<path fill="none" stroke="#000000" d="M127.1604,-71.8314C127.1604,-64.131 127.1604,-54.9743 127.1604,-46.4166"/>
<polygon fill="#000000" stroke="#000000" points="130.6605,-46.4132 127.1604,-36.4133 123.6605,-46.4133 130.6605,-46.4132"/>
</g>
<!-- 140466344695464 -->
<g id="node6" class="node">
<title>140466344695464</title>
<ellipse fill="#f66a0a" fill-opacity="0.600000" stroke="#f66a0a" stroke-opacity="0.600000" cx="225.1604" cy="-18" rx="41.1093" ry="18"/>
<text text-anchor="middle" x="225.1604" y="-13.8" font-family="Times,serif" font-size="14.00" fill="#000000">Retrying</text>
</g>
<!-- 140466344684776&#45;&gt;140466344695464 -->
<g id="edge5" class="edge">
<title>140466344684776&#45;&gt;140466344695464</title>
<path fill="none" stroke="#000000" d="M148.9098,-74.0209C162.5799,-63.9775 180.3991,-50.8859 195.3738,-39.8841"/>
<polygon fill="#000000" stroke="#000000" points="197.8225,-42.4281 203.809,-33.6867 193.6779,-36.787 197.8225,-42.4281"/>
</g>
<!-- 140466344689352 -->
<g id="node8" class="node">
<title>140466344689352</title>
<ellipse fill="#eb0000" fill-opacity="0.600000" stroke="#eb0000" stroke-opacity="0.600000" cx="246.1604" cy="-90" rx="53.6557" ry="18"/>
<text text-anchor="middle" x="246.1604" y="-85.8" font-family="Times,serif" font-size="14.00" fill="#000000">ClientFailed</text>
</g>
<!-- 140466344688424&#45;&gt;140466344689352 -->
<g id="edge7" class="edge">
<title>140466344688424&#45;&gt;140466344689352</title>
<path fill="none" stroke="#000000" d="M338.5562,-146.3771C321.6635,-136.0696 299.3246,-122.4391 280.8439,-111.1628"/>
<polygon fill="#000000" stroke="#000000" points="282.4816,-108.062 272.1222,-105.8411 278.8356,-114.0375 282.4816,-108.062"/>
</g>
<!-- 140466344690280 -->
<g id="node9" class="node">
<title>140466344690280</title>
<ellipse fill="#ffdf5d" fill-opacity="0.600000" stroke="#ffdf5d" stroke-opacity="0.600000" cx="364.1604" cy="-90" rx="46.4304" ry="18"/>
<text text-anchor="middle" x="364.1604" y="-85.8" font-family="Times,serif" font-size="14.00" fill="#000000">Submitted</text>
</g>
<!-- 140466344688424&#45;&gt;140466344690280 -->
<g id="edge8" class="edge">
<title>140466344688424&#45;&gt;140466344690280</title>
<path fill="none" stroke="#000000" d="M364.1604,-143.8314C364.1604,-136.131 364.1604,-126.9743 364.1604,-118.4166"/>
<polygon fill="#000000" stroke="#000000" points="367.6605,-118.4132 364.1604,-108.4133 360.6605,-118.4133 367.6605,-118.4132"/>
</g>
<!-- 140466344692104 -->
<g id="node10" class="node">
<title>140466344692104</title>
<ellipse fill="#ffea7f" fill-opacity="0.600000" stroke="#ffea7f" stroke-opacity="0.600000" cx="466.1604" cy="-90" rx="37.7179" ry="18"/>
<text text-anchor="middle" x="466.1604" y="-85.8" font-family="Times,serif" font-size="14.00" fill="#000000">Queued</text>
</g>
<!-- 140466344688424&#45;&gt;140466344692104 -->
<g id="edge9" class="edge">
<title>140466344688424&#45;&gt;140466344692104</title>
<path fill="none" stroke="#000000" d="M387.0512,-145.8418C401.6215,-135.5569 420.6432,-122.1298 436.3826,-111.0196"/>
<polygon fill="#000000" stroke="#000000" points="438.5887,-113.7466 444.74,-105.1203 434.5519,-108.0278 438.5887,-113.7466"/>
</g>
<!-- 140466344699208 -->
<g id="node13" class="node">
<title>140466344699208</title>
<ellipse fill="#003ccb" fill-opacity="0.600000" stroke="#003ccb" stroke-opacity="0.600000" cx="559.1604" cy="-90" rx="37.2421" ry="18"/>
<text text-anchor="middle" x="559.1604" y="-85.8" font-family="Times,serif" font-size="14.00" fill="#000000">Looped</text>
</g>
<!-- 140466344698280&#45;&gt;140466344699208 -->
<g id="edge12" class="edge">
<title>140466344698280&#45;&gt;140466344699208</title>
<path fill="none" stroke="#000000" d="M599.3306,-144.5708C592.8856,-135.8153 584.9551,-125.0418 577.8478,-115.3867"/>
<polygon fill="#000000" stroke="#000000" points="580.619,-113.2472 571.8721,-107.2687 574.9816,-117.3969 580.619,-113.2472"/>
</g>
<!-- 140466344700904 -->
<g id="node14" class="node">
<title>140466344700904</title>
<ellipse fill="#28a745" fill-opacity="0.600000" stroke="#28a745" stroke-opacity="0.600000" cx="652.1604" cy="-90" rx="38.211" ry="18"/>
<text text-anchor="middle" x="652.1604" y="-85.8" font-family="Times,serif" font-size="14.00" fill="#000000">Success</text>
</g>
<!-- 140466344698280&#45;&gt;140466344700904 -->
<g id="edge13" class="edge">
<title>140466344698280&#45;&gt;140466344700904</title>
<path fill="none" stroke="#000000" d="M622.0481,-144.2022C626.6982,-135.832 632.3381,-125.6802 637.474,-116.4356"/>
<polygon fill="#000000" stroke="#000000" points="640.5896,-118.0344 642.3865,-107.593 634.4705,-114.6348 640.5896,-118.0344"/>
</g>
<!-- 140466344706072 -->
<g id="node18" class="node">
<title>140466344706072</title>
<ellipse fill="#eb0000" fill-opacity="0.600000" stroke="#eb0000" stroke-opacity="0.600000" cx="858.1604" cy="-90" rx="32.4237" ry="18"/>
<text text-anchor="middle" x="858.1604" y="-85.8" font-family="Times,serif" font-size="14.00" fill="#000000">Failed</text>
</g>
<!-- 140466344698280&#45;&gt;140466344706072 -->
<g id="edge17" class="edge">
<title>140466344698280&#45;&gt;140466344706072</title>
<path fill="none" stroke="#000000" d="M646.1074,-152.0643C691.6368,-138.7386 772.2533,-115.1436 819.8887,-101.2015"/>
<polygon fill="#000000" stroke="#000000" points="820.9143,-104.5482 829.5285,-98.3801 818.9479,-97.8301 820.9143,-104.5482"/>
</g>
<!-- 140466344701832 -->
<g id="node15" class="node">
<title>140466344701832</title>
<ellipse fill="#34d058" fill-opacity="0.600000" stroke="#34d058" stroke-opacity="0.600000" cx="510.1604" cy="-18" rx="36.7489" ry="18"/>
<text text-anchor="middle" x="510.1604" y="-13.8" font-family="Times,serif" font-size="14.00" fill="#000000">Cached</text>
</g>
<!-- 140466344700904&#45;&gt;140466344701832 -->
<g id="edge14" class="edge">
<title>140466344700904&#45;&gt;140466344701832</title>
<path fill="none" stroke="#000000" d="M626.1154,-76.7941C603.3965,-65.2746 570.2451,-48.4655 545.2025,-35.7678"/>
<polygon fill="#000000" stroke="#000000" points="546.5421,-32.5229 536.0403,-31.1222 543.3765,-38.7662 546.5421,-32.5229"/>
</g>
<!-- 140466344705144 -->
<g id="node16" class="node">
<title>140466344705144</title>
<ellipse fill="#003ccb" fill-opacity="0.600000" stroke="#003ccb" stroke-opacity="0.600000" cx="604.1604" cy="-18" rx="39.1713" ry="18"/>
<text text-anchor="middle" x="604.1604" y="-13.8" font-family="Times,serif" font-size="14.00" fill="#000000">Mapped</text>
</g>
<!-- 140466344700904&#45;&gt;140466344705144 -->
<g id="edge15" class="edge">
<title>140466344700904&#45;&gt;140466344705144</title>
<path fill="none" stroke="#000000" d="M640.541,-72.5708C634.763,-63.9038 627.6666,-53.2592 621.2802,-43.6796"/>
<polygon fill="#000000" stroke="#000000" points="624.1321,-41.6477 615.6729,-35.2687 618.3077,-45.5307 624.1321,-41.6477"/>
</g>
<!-- 140466344712376 -->
<g id="node17" class="node">
<title>140466344712376</title>
<ellipse fill="#62757f" fill-opacity="0.600000" stroke="#62757f" stroke-opacity="0.600000" cx="700.1604" cy="-18" rx="39.1887" ry="18"/>
<text text-anchor="middle" x="700.1604" y="-13.8" font-family="Times,serif" font-size="14.00" fill="#000000">Skipped</text>
</g>
<!-- 140466344700904&#45;&gt;140466344712376 -->
<g id="edge16" class="edge">
<title>140466344700904&#45;&gt;140466344712376</title>
<path fill="none" stroke="#000000" d="M663.7799,-72.5708C669.5579,-63.9038 676.6543,-53.2592 683.0407,-43.6796"/>
<polygon fill="#000000" stroke="#000000" points="686.0131,-45.5307 688.648,-35.2687 680.1887,-41.6477 686.0131,-45.5307"/>
</g>
<!-- 140466344707640 -->
<g id="node19" class="node">
<title>140466344707640</title>
<ellipse fill="#c42800" fill-opacity="0.600000" stroke="#c42800" stroke-opacity="0.600000" cx="803.1604" cy="-18" rx="45.4269" ry="18"/>
<text text-anchor="middle" x="803.1604" y="-13.8" font-family="Times,serif" font-size="14.00" fill="#000000">Cancelled</text>
</g>
<!-- 140466344706072&#45;&gt;140466344707640 -->
<g id="edge18" class="edge">
<title>140466344706072&#45;&gt;140466344707640</title>
<path fill="none" stroke="#000000" d="M845.4041,-73.3008C838.6607,-64.4731 830.2381,-53.4471 822.6917,-43.5682"/>
<polygon fill="#000000" stroke="#000000" points="825.4667,-41.4353 816.6149,-35.6132 819.904,-45.6846 825.4667,-41.4353"/>
</g>
<!-- 140466344709240 -->
<g id="node20" class="node">
<title>140466344709240</title>
<ellipse fill="#ff4e33" fill-opacity="0.600000" stroke="#ff4e33" stroke-opacity="0.600000" cx="913.1604" cy="-18" rx="46.3005" ry="18"/>
<text text-anchor="middle" x="913.1604" y="-13.8" font-family="Times,serif" font-size="14.00" fill="#000000">TimedOut</text>
</g>
<!-- 140466344706072&#45;&gt;140466344709240 -->
<g id="edge19" class="edge">
<title>140466344706072&#45;&gt;140466344709240</title>
<path fill="none" stroke="#000000" d="M870.9168,-73.3008C877.6601,-64.4731 886.0828,-53.4471 893.6292,-43.5682"/>
<polygon fill="#000000" stroke="#000000" points="896.4168,-45.6846 899.7059,-35.6132 890.8541,-41.4353 896.4168,-45.6846"/>
</g>
<!-- 140466344710808 -->
<g id="node21" class="node">
<title>140466344710808</title>
<ellipse fill="#ff5131" fill-opacity="0.600000" stroke="#ff5131" stroke-opacity="0.600000" cx="1036.1604" cy="-18" rx="58.3442" ry="18"/>
<text text-anchor="middle" x="1036.1604" y="-13.8" font-family="Times,serif" font-size="14.00" fill="#000000">TriggerFailed</text>
</g>
<!-- 140466344706072&#45;&gt;140466344710808 -->
<g id="edge20" class="edge">
<title>140466344706072&#45;&gt;140466344710808</title>
<path fill="none" stroke="#000000" d="M884.4249,-79.3762C912.4146,-68.0545 957.2475,-49.9198 990.9367,-36.2928"/>
<polygon fill="#000000" stroke="#000000" points="992.6027,-39.3944 1000.5606,-32.3999 989.9778,-32.9052 992.6027,-39.3944"/>
</g>
</g>
</svg>
