<?xml version="1.0" encoding="UTF-8" standalone="no"?>
<!DOCTYPE svg PUBLIC "-//W3C//DTD SVG 1.1//EN"
 "http://www.w3.org/Graphics/SVG/1.1/DTD/svg11.dtd">
<!-- Generated by graphviz version 2.43.0 (0)
 -->
<!-- Title: %3 Pages: 1 -->
<svg width="1148pt" height="260pt"
 viewBox="0.00 0.00 1147.72 260.00" xmlns="http://www.w3.org/2000/svg" xmlns:xlink="http://www.w3.org/1999/xlink">
<g id="graph0" class="graph" transform="scale(1 1) rotate(0) translate(4 256)">
<title>%3</title>
<polygon fill="white" stroke="transparent" points="-4,4 -4,-256 1143.72,-256 1143.72,4 -4,4"/>
<!-- 140296059179616 -->
<g id="node1" class="node">
<title>140296059179616</title>
<ellipse fill="#696969" fill-opacity="0.600000" stroke="#696969" stroke-opacity="0.600000" cx="418.16" cy="-234" rx="27.58" ry="18"/>
<text text-anchor="middle" x="418.16" y="-229.8" font-family="Times,serif" font-size="14.00">State</text>
</g>
<!-- 140296059181520 -->
<g id="node2" class="node">
<title>140296059181520</title>
<ellipse fill="#7ebdff" fill-opacity="0.600000" stroke="#7ebdff" stroke-opacity="0.600000" cx="192.16" cy="-162" rx="39.19" ry="18"/>
<text text-anchor="middle" x="192.16" y="-157.8" font-family="Times,serif" font-size="14.00">Pending</text>
</g>
<!-- 140296059179616&#45;&gt;140296059181520 -->
<g id="edge1" class="edge">
<title>140296059179616&#45;&gt;140296059181520</title>
<path fill="none" stroke="black" d="M393.54,-225.38C355.07,-213.46 280.25,-190.28 233.43,-175.78"/>
<polygon fill="black" stroke="black" points="234.19,-172.35 223.6,-172.74 232.12,-179.04 234.19,-172.35"/>
</g>
<!-- 140296059186704 -->
<g id="node7" class="node">
<title>140296059186704</title>
<ellipse fill="#696969" fill-opacity="0.600000" stroke="#696969" stroke-opacity="0.600000" cx="364.16" cy="-162" rx="50.26" ry="18"/>
<text text-anchor="middle" x="364.16" y="-157.8" font-family="Times,serif" font-size="14.00">_MetaState</text>
</g>
<!-- 140296059179616&#45;&gt;140296059186704 -->
<g id="edge6" class="edge">
<title>140296059179616&#45;&gt;140296059186704</title>
<path fill="none" stroke="black" d="M406.18,-217.46C399.38,-208.65 390.72,-197.43 383.03,-187.46"/>
<polygon fill="black" stroke="black" points="385.74,-185.25 376.86,-179.47 380.2,-189.52 385.74,-185.25"/>
</g>
<!-- 140296059195792 -->
<g id="node11" class="node">
<title>140296059195792</title>
<ellipse fill="#3d67ff" fill-opacity="0.600000" stroke="#3d67ff" stroke-opacity="0.600000" cx="473.16" cy="-162" rx="40.64" ry="18"/>
<text text-anchor="middle" x="473.16" y="-157.8" font-family="Times,serif" font-size="14.00">Running</text>
</g>
<!-- 140296059179616&#45;&gt;140296059195792 -->
<g id="edge10" class="edge">
<title>140296059179616&#45;&gt;140296059195792</title>
<path fill="none" stroke="black" d="M430.37,-217.46C437.29,-208.65 446.11,-197.43 453.94,-187.46"/>
<polygon fill="black" stroke="black" points="456.8,-189.49 460.22,-179.47 451.29,-185.17 456.8,-189.49"/>
</g>
<!-- 140296059197360 -->
<g id="node12" class="node">
<title>140296059197360</title>
<ellipse fill="#003ccb" fill-opacity="0.600000" stroke="#003ccb" stroke-opacity="0.600000" cx="652.16" cy="-162" rx="40.64" ry="18"/>
<text text-anchor="middle" x="652.16" y="-157.8" font-family="Times,serif" font-size="14.00">Finished</text>
</g>
<!-- 140296059179616&#45;&gt;140296059197360 -->
<g id="edge11" class="edge">
<title>140296059179616&#45;&gt;140296059197360</title>
<path fill="none" stroke="black" d="M443.2,-225.51C483.02,-213.6 561.23,-190.2 609.86,-175.66"/>
<polygon fill="black" stroke="black" points="610.88,-179 619.46,-172.78 608.88,-172.29 610.88,-179"/>
</g>
<!-- 140296059183072 -->
<g id="node3" class="node">
<title>140296059183072</title>
<ellipse fill="#ffab00" fill-opacity="0.600000" stroke="#ffab00" stroke-opacity="0.600000" cx="127.16" cy="-90" rx="46.89" ry="18"/>
<text text-anchor="middle" x="127.16" y="-85.8" font-family="Times,serif" font-size="14.00">Scheduled</text>
</g>
<!-- 140296059181520&#45;&gt;140296059183072 -->
<g id="edge2" class="edge">
<title>140296059181520&#45;&gt;140296059183072</title>
<path fill="none" stroke="black" d="M177.41,-145.12C169.05,-136.12 158.44,-124.68 149.12,-114.65"/>
<polygon fill="black" stroke="black" points="151.67,-112.25 142.3,-107.31 146.54,-117.02 151.67,-112.25"/>
</g>
<!-- 140296059184960 -->
<g id="node4" class="node">
<title>140296059184960</title>
<ellipse fill="#99a8e8" fill-opacity="0.600000" stroke="#99a8e8" stroke-opacity="0.600000" cx="35.16" cy="-18" rx="35.32" ry="18"/>
<text text-anchor="middle" x="35.16" y="-13.8" font-family="Times,serif" font-size="14.00">Paused</text>
</g>
<!-- 140296059183072&#45;&gt;140296059184960 -->
<g id="edge3" class="edge">
<title>140296059183072&#45;&gt;140296059184960</title>
<path fill="none" stroke="black" d="M106.74,-73.46C93.56,-63.43 76.26,-50.27 61.97,-39.4"/>
<polygon fill="black" stroke="black" points="64.03,-36.57 53.95,-33.3 59.79,-42.14 64.03,-36.57"/>
</g>
<!-- 140296059192240 -->
<g id="node5" class="node">
<title>140296059192240</title>
<ellipse fill="#f58c0c" fill-opacity="0.600000" stroke="#f58c0c" stroke-opacity="0.600000" cx="127.16" cy="-18" rx="38.7" ry="18"/>
<text text-anchor="middle" x="127.16" y="-13.8" font-family="Times,serif" font-size="14.00">Resume</text>
</g>
<!-- 140296059183072&#45;&gt;140296059192240 -->
<g id="edge4" class="edge">
<title>140296059183072&#45;&gt;140296059192240</title>
<path fill="none" stroke="black" d="M127.16,-71.7C127.16,-63.98 127.16,-54.71 127.16,-46.11"/>
<polygon fill="black" stroke="black" points="130.66,-46.1 127.16,-36.1 123.66,-46.1 130.66,-46.1"/>
</g>
<!-- 140296059193920 -->
<g id="node6" class="node">
<title>140296059193920</title>
<ellipse fill="#f66a0a" fill-opacity="0.600000" stroke="#f66a0a" stroke-opacity="0.600000" cx="225.16" cy="-18" rx="41.11" ry="18"/>
<text text-anchor="middle" x="225.16" y="-13.8" font-family="Times,serif" font-size="14.00">Retrying</text>
</g>
<!-- 140296059183072&#45;&gt;140296059193920 -->
<g id="edge5" class="edge">
<title>140296059183072&#45;&gt;140296059193920</title>
<path fill="none" stroke="black" d="M148.42,-73.81C162.48,-63.77 181.09,-50.48 196.45,-39.5"/>
<polygon fill="black" stroke="black" points="198.51,-42.34 204.61,-33.68 194.44,-36.64 198.51,-42.34"/>
</g>
<!-- 140296059187648 -->
<g id="node8" class="node">
<title>140296059187648</title>
<ellipse fill="#eb0000" fill-opacity="0.600000" stroke="#eb0000" stroke-opacity="0.600000" cx="246.16" cy="-90" rx="53.66" ry="18"/>
<text text-anchor="middle" x="246.16" y="-85.8" font-family="Times,serif" font-size="14.00">ClientFailed</text>
</g>
<!-- 140296059186704&#45;&gt;140296059187648 -->
<g id="edge7" class="edge">
<title>140296059186704&#45;&gt;140296059187648</title>
<path fill="none" stroke="black" d="M339.14,-146.15C322.04,-136.02 299.18,-122.45 280.4,-111.31"/>
<polygon fill="black" stroke="black" points="281.94,-108.16 271.56,-106.07 278.37,-114.18 281.94,-108.16"/>
</g>
<!-- 140296059189472 -->
<g id="node9" class="node">
<title>140296059189472</title>
<ellipse fill="#ffdf5d" fill-opacity="0.600000" stroke="#ffdf5d" stroke-opacity="0.600000" cx="364.16" cy="-90" rx="46.43" ry="18"/>
<text text-anchor="middle" x="364.16" y="-85.8" font-family="Times,serif" font-size="14.00">Submitted</text>
</g>
<!-- 140296059186704&#45;&gt;140296059189472 -->
<g id="edge8" class="edge">
<title>140296059186704&#45;&gt;140296059189472</title>
<path fill="none" stroke="black" d="M364.16,-143.7C364.16,-135.98 364.16,-126.71 364.16,-118.11"/>
<polygon fill="black" stroke="black" points="367.66,-118.1 364.16,-108.1 360.66,-118.1 367.66,-118.1"/>
</g>
<!-- 140296059190416 -->
<g id="node10" class="node">
<title>140296059190416</title>
<ellipse fill="#ffea7f" fill-opacity="0.600000" stroke="#ffea7f" stroke-opacity="0.600000" cx="466.16" cy="-90" rx="37.72" ry="18"/>
<text text-anchor="middle" x="466.16" y="-85.8" font-family="Times,serif" font-size="14.00">Queued</text>
</g>
<!-- 140296059186704&#45;&gt;140296059190416 -->
<g id="edge9" class="edge">
<title>140296059186704&#45;&gt;140296059190416</title>
<path fill="none" stroke="black" d="M386.29,-145.81C401.12,-135.63 420.81,-122.12 436.93,-111.06"/>
<polygon fill="black" stroke="black" points="439.2,-113.75 445.46,-105.21 435.24,-107.98 439.2,-113.75"/>
</g>
<!-- 140296059198944 -->
<g id="node13" class="node">
<title>140296059198944</title>
<ellipse fill="#003ccb" fill-opacity="0.600000" stroke="#003ccb" stroke-opacity="0.600000" cx="559.16" cy="-90" rx="37.24" ry="18"/>
<text text-anchor="middle" x="559.16" y="-85.8" font-family="Times,serif" font-size="14.00">Looped</text>
</g>
<!-- 140296059197360&#45;&gt;140296059198944 -->
<g id="edge12" class="edge">
<title>140296059197360&#45;&gt;140296059198944</title>
<path fill="none" stroke="black" d="M632.44,-146.15C619.16,-136.16 601.45,-122.83 586.77,-111.78"/>
<polygon fill="black" stroke="black" points="588.63,-108.8 578.54,-105.58 584.42,-114.39 588.63,-108.8"/>
</g>
<!-- 140296059200800 -->
<g id="node14" class="node">
<title>140296059200800</title>
<ellipse fill="#28a745" fill-opacity="0.600000" stroke="#28a745" stroke-opacity="0.600000" cx="652.16" cy="-90" rx="38.21" ry="18"/>
<text text-anchor="middle" x="652.16" y="-85.8" font-family="Times,serif" font-size="14.00">Success</text>
</g>
<!-- 140296059197360&#45;&gt;140296059200800 -->
<g id="edge13" class="edge">
<title>140296059197360&#45;&gt;140296059200800</title>
<path fill="none" stroke="black" d="M652.16,-143.7C652.16,-135.98 652.16,-126.71 652.16,-118.11"/>
<polygon fill="black" stroke="black" points="655.66,-118.1 652.16,-108.1 648.66,-118.1 655.66,-118.1"/>
</g>
<!-- 140296059205088 -->
<g id="node18" class="node">
<title>140296059205088</title>
<ellipse fill="#bdbdbd" fill-opacity="0.600000" stroke="#f58c0c" stroke-opacity="0.600000" cx="754.16" cy="-90" rx="45.43" ry="18"/>
<text text-anchor="middle" x="754.16" y="-85.8" font-family="Times,serif" font-size="14.00">Cancelled</text>
</g>
<!-- 140296059197360&#45;&gt;140296059205088 -->
<g id="edge17" class="edge">
<title>140296059197360&#45;&gt;140296059205088</title>
<path fill="none" stroke="black" d="M673.29,-146.5C687.87,-136.49 707.47,-123.05 723.72,-111.89"/>
<polygon fill="black" stroke="black" points="726.08,-114.51 732.35,-105.97 722.12,-108.74 726.08,-114.51"/>
</g>
<!-- 140296059206704 -->
<g id="node19" class="node">
<title>140296059206704</title>
<ellipse fill="#eb0000" fill-opacity="0.600000" stroke="#eb0000" stroke-opacity="0.600000" cx="888.16" cy="-90" rx="32.42" ry="18"/>
<text text-anchor="middle" x="888.16" y="-85.8" font-family="Times,serif" font-size="14.00">Failed</text>
</g>
<!-- 140296059197360&#45;&gt;140296059206704 -->
<g id="edge18" class="edge">
<title>140296059197360&#45;&gt;140296059206704</title>
<path fill="none" stroke="black" d="M684.98,-151.27C728.42,-138.38 804.87,-115.71 850.58,-102.15"/>
<polygon fill="black" stroke="black" points="851.81,-105.43 860.4,-99.23 849.82,-98.72 851.81,-105.43"/>
</g>
<!-- 140296059202336 -->
<g id="node15" class="node">
<title>140296059202336</title>
<ellipse fill="#34d058" fill-opacity="0.600000" stroke="#34d058" stroke-opacity="0.600000" cx="510.16" cy="-18" rx="36.75" ry="18"/>
<text text-anchor="middle" x="510.16" y="-13.8" font-family="Times,serif" font-size="14.00">Cached</text>
</g>
<!-- 140296059200800&#45;&gt;140296059202336 -->
<g id="edge14" class="edge">
<title>140296059200800&#45;&gt;140296059202336</title>
<path fill="none" stroke="black" d="M626.77,-76.49C603.85,-65.19 569.94,-48.47 544.58,-35.97"/>
<polygon fill="black" stroke="black" points="545.84,-32.69 535.33,-31.41 542.75,-38.97 545.84,-32.69"/>
</g>
<!-- 140296059204144 -->
<g id="node16" class="node">
<title>140296059204144</title>
<ellipse fill="#003ccb" fill-opacity="0.600000" stroke="#003ccb" stroke-opacity="0.600000" cx="604.16" cy="-18" rx="39.17" ry="18"/>
<text text-anchor="middle" x="604.16" y="-13.8" font-family="Times,serif" font-size="14.00">Mapped</text>
</g>
<!-- 140296059200800&#45;&gt;140296059204144 -->
<g id="edge15" class="edge">
<title>140296059200800&#45;&gt;140296059204144</title>
<path fill="none" stroke="black" d="M641.03,-72.76C635.18,-64.23 627.87,-53.58 621.32,-44.02"/>
<polygon fill="black" stroke="black" points="624.11,-41.9 615.57,-35.63 618.33,-45.86 624.11,-41.9"/>
</g>
<!-- 140296059212944 -->
<g id="node17" class="node">
<title>140296059212944</title>
<ellipse fill="#62757f" fill-opacity="0.600000" stroke="#62757f" stroke-opacity="0.600000" cx="700.16" cy="-18" rx="39.19" ry="18"/>
<text text-anchor="middle" x="700.16" y="-13.8" font-family="Times,serif" font-size="14.00">Skipped</text>
</g>
<!-- 140296059200800&#45;&gt;140296059212944 -->
<g id="edge16" class="edge">
<title>140296059200800&#45;&gt;140296059212944</title>
<path fill="none" stroke="black" d="M663.29,-72.76C669.15,-64.23 676.45,-53.58 683,-44.02"/>
<polygon fill="black" stroke="black" points="685.99,-45.86 688.75,-35.63 680.21,-41.9 685.99,-45.86"/>
</g>
<!-- 140296059208240 -->
<g id="node20" class="node">
<title>140296059208240</title>
<ellipse fill="#ff4e33" fill-opacity="0.600000" stroke="#ff4e33" stroke-opacity="0.600000" cx="803.16" cy="-18" rx="46.3" ry="18"/>
<text text-anchor="middle" x="803.16" y="-13.8" font-family="Times,serif" font-size="14.00">TimedOut</text>
</g>
<!-- 140296059206704&#45;&gt;140296059208240 -->
<g id="edge19" class="edge">
<title>140296059206704&#45;&gt;140296059208240</title>
<path fill="none" stroke="black" d="M870.55,-74.5C858.79,-64.81 843.11,-51.9 829.83,-40.96"/>
<polygon fill="black" stroke="black" points="831.87,-38.11 821.93,-34.46 827.42,-43.52 831.87,-38.11"/>
</g>
<!-- 140296059209808 -->
<g id="node21" class="node">
<title>140296059209808</title>
<ellipse fill="#ff5131" fill-opacity="0.600000" stroke="#ff5131" stroke-opacity="0.600000" cx="926.16" cy="-18" rx="58.34" ry="18"/>
<text text-anchor="middle" x="926.16" y="-13.8" font-family="Times,serif" font-size="14.00">TriggerFailed</text>
</g>
<!-- 140296059206704&#45;&gt;140296059209808 -->
<g id="edge20" class="edge">
<title>140296059206704&#45;&gt;140296059209808</title>
<path fill="none" stroke="black" d="M897.17,-72.41C901.64,-64.16 907.16,-54.01 912.17,-44.78"/>
<polygon fill="black" stroke="black" points="915.26,-46.41 916.96,-35.96 909.11,-43.07 915.26,-46.41"/>
</g>
<!-- 140296059211360 -->
<g id="node22" class="node">
<title>140296059211360</title>
<ellipse fill="#ff5131" fill-opacity="0.600000" stroke="#ff5131" stroke-opacity="0.600000" cx="1071.16" cy="-18" rx="68.62" ry="18"/>
<text text-anchor="middle" x="1071.16" y="-13.8" font-family="Times,serif" font-size="14.00">ValidationFailed</text>
</g>
<!-- 140296059206704&#45;&gt;140296059211360 -->
<g id="edge21" class="edge">
<title>140296059206704&#45;&gt;140296059211360</title>
<path fill="none" stroke="black" d="M913.99,-79.12C942.63,-68.16 989.41,-50.27 1024.5,-36.85"/>
<polygon fill="black" stroke="black" points="1025.97,-40.03 1034.06,-33.19 1023.47,-33.49 1025.97,-40.03"/>
</g>
</g>
</svg>
