<?xml version="1.0" encoding="UTF-8" standalone="no"?>
<!DOCTYPE svg PUBLIC "-//W3C//DTD SVG 1.1//EN"
 "http://www.w3.org/Graphics/SVG/1.1/DTD/svg11.dtd">
<!-- Generated by graphviz version 2.40.1 (20161225.0304)
 -->
<!-- Title: %3 Pages: 1 -->
<svg width="1097pt" height="260pt"
 viewBox="0.00 0.00 1096.58 260.00" xmlns="http://www.w3.org/2000/svg" xmlns:xlink="http://www.w3.org/1999/xlink">
<g id="graph0" class="graph" transform="scale(1 1) rotate(0) translate(4 256)">
<title>%3</title>
<polygon fill="#ffffff" stroke="transparent" points="-4,4 -4,-256 1092.5825,-256 1092.5825,4 -4,4"/>
<!-- 140320532009368 -->
<g id="node1" class="node">
<title>140320532009368</title>
<ellipse fill="#696969" fill-opacity="0.600000" stroke="#696969" stroke-opacity="0.600000" cx="426.1604" cy="-234" rx="27.5804" ry="18"/>
<text text-anchor="middle" x="426.1604" y="-229.8" font-family="Times,serif" font-size="14.00" fill="#000000">State</text>
</g>
<!-- 140320532013064 -->
<g id="node2" class="node">
<title>140320532013064</title>
<ellipse fill="#7ebdff" fill-opacity="0.600000" stroke="#7ebdff" stroke-opacity="0.600000" cx="135.1604" cy="-162" rx="39.1887" ry="18"/>
<text text-anchor="middle" x="135.1604" y="-157.8" font-family="Times,serif" font-size="14.00" fill="#000000">Pending</text>
</g>
<!-- 140320532009368&#45;&gt;140320532013064 -->
<g id="edge1" class="edge">
<title>140320532009368&#45;&gt;140320532013064</title>
<path fill="none" stroke="#000000" d="M400.08,-227.5471C350.2603,-215.2206 241.0545,-188.2006 179.5435,-172.9814"/>
<polygon fill="#000000" stroke="#000000" points="180.2804,-169.5582 169.7324,-170.5539 178.5991,-176.3533 180.2804,-169.5582"/>
</g>
<!-- 140320532016696 -->
<g id="node7" class="node">
<title>140320532016696</title>
<ellipse fill="#696969" fill-opacity="0.600000" stroke="#696969" stroke-opacity="0.600000" cx="372.1604" cy="-162" rx="50.2637" ry="18"/>
<text text-anchor="middle" x="372.1604" y="-157.8" font-family="Times,serif" font-size="14.00" fill="#000000">_MetaState</text>
</g>
<!-- 140320532009368&#45;&gt;140320532016696 -->
<g id="edge6" class="edge">
<title>140320532009368&#45;&gt;140320532016696</title>
<path fill="none" stroke="#000000" d="M413.907,-217.6621C407.2459,-208.7806 398.8573,-197.5959 391.3502,-187.5864"/>
<polygon fill="#000000" stroke="#000000" points="394.1089,-185.4312 385.3088,-179.5312 388.5088,-189.6312 394.1089,-185.4312"/>
</g>
<!-- 140320532025736 -->
<g id="node11" class="node">
<title>140320532025736</title>
<ellipse fill="#3d67ff" fill-opacity="0.600000" stroke="#3d67ff" stroke-opacity="0.600000" cx="481.1604" cy="-162" rx="40.6421" ry="18"/>
<text text-anchor="middle" x="481.1604" y="-157.8" font-family="Times,serif" font-size="14.00" fill="#000000">Running</text>
</g>
<!-- 140320532009368&#45;&gt;140320532025736 -->
<g id="edge10" class="edge">
<title>140320532009368&#45;&gt;140320532025736</title>
<path fill="none" stroke="#000000" d="M438.6408,-217.6621C445.4748,-208.7157 454.0939,-197.4325 461.7826,-187.3674"/>
<polygon fill="#000000" stroke="#000000" points="464.6734,-189.3487 467.9625,-179.2773 459.1107,-185.0993 464.6734,-189.3487"/>
</g>
<!-- 140320532026664 -->
<g id="node12" class="node">
<title>140320532026664</title>
<ellipse fill="#003ccb" fill-opacity="0.600000" stroke="#003ccb" stroke-opacity="0.600000" cx="620.1604" cy="-162" rx="40.6421" ry="18"/>
<text text-anchor="middle" x="620.1604" y="-157.8" font-family="Times,serif" font-size="14.00" fill="#000000">Finished</text>
</g>
<!-- 140320532009368&#45;&gt;140320532026664 -->
<g id="edge11" class="edge">
<title>140320532009368&#45;&gt;140320532026664</title>
<path fill="none" stroke="#000000" d="M450.3384,-225.0267C482.6432,-213.0373 540.3429,-191.623 579.4221,-177.1194"/>
<polygon fill="#000000" stroke="#000000" points="580.7722,-180.3517 588.9295,-173.5908 578.3366,-173.789 580.7722,-180.3517"/>
</g>
<!-- 140320532013992 -->
<g id="node3" class="node">
<title>140320532013992</title>
<ellipse fill="#cfd8dc" fill-opacity="0.600000" stroke="#cfd8dc" stroke-opacity="0.600000" cx="35.1604" cy="-90" rx="35.3216" ry="18"/>
<text text-anchor="middle" x="35.1604" y="-85.8" font-family="Times,serif" font-size="14.00" fill="#000000">Paused</text>
</g>
<!-- 140320532013064&#45;&gt;140320532013992 -->
<g id="edge2" class="edge">
<title>140320532013064&#45;&gt;140320532013992</title>
<path fill="none" stroke="#000000" d="M113.953,-146.7307C99.4408,-136.2819 80.0196,-122.2986 64.0903,-110.8295"/>
<polygon fill="#000000" stroke="#000000" points="65.8138,-107.7576 55.6533,-104.7549 61.7236,-113.4384 65.8138,-107.7576"/>
</g>
<!-- 140320532014920 -->
<g id="node4" class="node">
<title>140320532014920</title>
<ellipse fill="#ffab00" fill-opacity="0.600000" stroke="#ffab00" stroke-opacity="0.600000" cx="135.1604" cy="-90" rx="46.8891" ry="18"/>
<text text-anchor="middle" x="135.1604" y="-85.8" font-family="Times,serif" font-size="14.00" fill="#000000">Scheduled</text>
</g>
<!-- 140320532013064&#45;&gt;140320532014920 -->
<g id="edge3" class="edge">
<title>140320532013064&#45;&gt;140320532014920</title>
<path fill="none" stroke="#000000" d="M135.1604,-143.8314C135.1604,-136.131 135.1604,-126.9743 135.1604,-118.4166"/>
<polygon fill="#000000" stroke="#000000" points="138.6605,-118.4132 135.1604,-108.4133 131.6605,-118.4133 138.6605,-118.4132"/>
</g>
<!-- 140320532022424 -->
<g id="node5" class="node">
<title>140320532022424</title>
<ellipse fill="#fb8532" fill-opacity="0.600000" stroke="#fb8532" stroke-opacity="0.600000" cx="86.1604" cy="-18" rx="38.6955" ry="18"/>
<text text-anchor="middle" x="86.1604" y="-13.8" font-family="Times,serif" font-size="14.00" fill="#000000">Resume</text>
</g>
<!-- 140320532014920&#45;&gt;140320532022424 -->
<g id="edge4" class="edge">
<title>140320532014920&#45;&gt;140320532022424</title>
<path fill="none" stroke="#000000" d="M123.2989,-72.5708C117.4005,-63.9038 110.1563,-53.2592 103.6368,-43.6796"/>
<polygon fill="#000000" stroke="#000000" points="106.4325,-41.5666 97.9127,-35.2687 100.6455,-45.505 106.4325,-41.5666"/>
</g>
<!-- 140320532023976 -->
<g id="node6" class="node">
<title>140320532023976</title>
<ellipse fill="#f66a0a" fill-opacity="0.600000" stroke="#f66a0a" stroke-opacity="0.600000" cx="184.1604" cy="-18" rx="41.1093" ry="18"/>
<text text-anchor="middle" x="184.1604" y="-13.8" font-family="Times,serif" font-size="14.00" fill="#000000">Retrying</text>
</g>
<!-- 140320532014920&#45;&gt;140320532023976 -->
<g id="edge5" class="edge">
<title>140320532014920&#45;&gt;140320532023976</title>
<path fill="none" stroke="#000000" d="M147.022,-72.5708C152.9204,-63.9038 160.1646,-53.2592 166.684,-43.6796"/>
<polygon fill="#000000" stroke="#000000" points="169.6753,-45.505 172.4081,-35.2687 163.8883,-41.5666 169.6753,-45.505"/>
</g>
<!-- 140320532017624 -->
<g id="node8" class="node">
<title>140320532017624</title>
<ellipse fill="#eb0000" fill-opacity="0.600000" stroke="#eb0000" stroke-opacity="0.600000" cx="254.1604" cy="-90" rx="53.6557" ry="18"/>
<text text-anchor="middle" x="254.1604" y="-85.8" font-family="Times,serif" font-size="14.00" fill="#000000">ClientFailed</text>
</g>
<!-- 140320532016696&#45;&gt;140320532017624 -->
<g id="edge7" class="edge">
<title>140320532016696&#45;&gt;140320532017624</title>
<path fill="none" stroke="#000000" d="M346.5562,-146.3771C329.6635,-136.0696 307.3246,-122.4391 288.8439,-111.1628"/>
<polygon fill="#000000" stroke="#000000" points="290.4816,-108.062 280.1222,-105.8411 286.8356,-114.0375 290.4816,-108.062"/>
</g>
<!-- 140320532019160 -->
<g id="node9" class="node">
<title>140320532019160</title>
<ellipse fill="#ffdf5d" fill-opacity="0.600000" stroke="#ffdf5d" stroke-opacity="0.600000" cx="372.1604" cy="-90" rx="46.4304" ry="18"/>
<text text-anchor="middle" x="372.1604" y="-85.8" font-family="Times,serif" font-size="14.00" fill="#000000">Submitted</text>
</g>
<!-- 140320532016696&#45;&gt;140320532019160 -->
<g id="edge8" class="edge">
<title>140320532016696&#45;&gt;140320532019160</title>
<path fill="none" stroke="#000000" d="M372.1604,-143.8314C372.1604,-136.131 372.1604,-126.9743 372.1604,-118.4166"/>
<polygon fill="#000000" stroke="#000000" points="375.6605,-118.4132 372.1604,-108.4133 368.6605,-118.4133 375.6605,-118.4132"/>
</g>
<!-- 140320532020872 -->
<g id="node10" class="node">
<title>140320532020872</title>
<ellipse fill="#ffea7f" fill-opacity="0.600000" stroke="#ffea7f" stroke-opacity="0.600000" cx="474.1604" cy="-90" rx="37.7179" ry="18"/>
<text text-anchor="middle" x="474.1604" y="-85.8" font-family="Times,serif" font-size="14.00" fill="#000000">Queued</text>
</g>
<!-- 140320532016696&#45;&gt;140320532020872 -->
<g id="edge9" class="edge">
<title>140320532016696&#45;&gt;140320532020872</title>
<path fill="none" stroke="#000000" d="M395.0512,-145.8418C409.6215,-135.5569 428.6432,-122.1298 444.3826,-111.0196"/>
<polygon fill="#000000" stroke="#000000" points="446.5887,-113.7466 452.74,-105.1203 442.5519,-108.0278 446.5887,-113.7466"/>
</g>
<!-- 140320532027592 -->
<g id="node13" class="node">
<title>140320532027592</title>
<ellipse fill="#003ccb" fill-opacity="0.600000" stroke="#003ccb" stroke-opacity="0.600000" cx="567.1604" cy="-90" rx="37.2421" ry="18"/>
<text text-anchor="middle" x="567.1604" y="-85.8" font-family="Times,serif" font-size="14.00" fill="#000000">Looped</text>
</g>
<!-- 140320532026664&#45;&gt;140320532027592 -->
<g id="edge12" class="edge">
<title>140320532026664&#45;&gt;140320532027592</title>
<path fill="none" stroke="#000000" d="M607.3306,-144.5708C600.8856,-135.8153 592.9551,-125.0418 585.8478,-115.3867"/>
<polygon fill="#000000" stroke="#000000" points="588.619,-113.2472 579.8721,-107.2687 582.9816,-117.3969 588.619,-113.2472"/>
</g>
<!-- 140320532029160 -->
<g id="node14" class="node">
<title>140320532029160</title>
<ellipse fill="#28a745" fill-opacity="0.600000" stroke="#28a745" stroke-opacity="0.600000" cx="660.1604" cy="-90" rx="38.211" ry="18"/>
<text text-anchor="middle" x="660.1604" y="-85.8" font-family="Times,serif" font-size="14.00" fill="#000000">Success</text>
</g>
<!-- 140320532026664&#45;&gt;140320532029160 -->
<g id="edge13" class="edge">
<title>140320532026664&#45;&gt;140320532029160</title>
<path fill="none" stroke="#000000" d="M630.0481,-144.2022C634.6982,-135.832 640.3381,-125.6802 645.474,-116.4356"/>
<polygon fill="#000000" stroke="#000000" points="648.5896,-118.0344 650.3865,-107.593 642.4705,-114.6348 648.5896,-118.0344"/>
</g>
<!-- 140320532035096 -->
<g id="node18" class="node">
<title>140320532035096</title>
<ellipse fill="#eb0000" fill-opacity="0.600000" stroke="#eb0000" stroke-opacity="0.600000" cx="856.1604" cy="-90" rx="32.4237" ry="18"/>
<text text-anchor="middle" x="856.1604" y="-85.8" font-family="Times,serif" font-size="14.00" fill="#000000">Failed</text>
</g>
<!-- 140320532026664&#45;&gt;140320532035096 -->
<g id="edge17" class="edge">
<title>140320532026664&#45;&gt;140320532035096</title>
<path fill="none" stroke="#000000" d="M653.7228,-151.7606C697.1422,-138.514 772.592,-115.4954 818.1004,-101.6115"/>
<polygon fill="#000000" stroke="#000000" points="819.3418,-104.8921 827.8852,-98.6263 817.2991,-98.1968 819.3418,-104.8921"/>
</g>
<!-- 140320532030088 -->
<g id="node15" class="node">
<title>140320532030088</title>
<ellipse fill="#34d058" fill-opacity="0.600000" stroke="#34d058" stroke-opacity="0.600000" cx="518.1604" cy="-18" rx="36.7489" ry="18"/>
<text text-anchor="middle" x="518.1604" y="-13.8" font-family="Times,serif" font-size="14.00" fill="#000000">Cached</text>
</g>
<!-- 140320532029160&#45;&gt;140320532030088 -->
<g id="edge14" class="edge">
<title>140320532029160&#45;&gt;140320532030088</title>
<path fill="none" stroke="#000000" d="M634.1154,-76.7941C611.3965,-65.2746 578.2451,-48.4655 553.2025,-35.7678"/>
<polygon fill="#000000" stroke="#000000" points="554.5421,-32.5229 544.0403,-31.1222 551.3765,-38.7662 554.5421,-32.5229"/>
</g>
<!-- 140320532033272 -->
<g id="node16" class="node">
<title>140320532033272</title>
<ellipse fill="#003ccb" fill-opacity="0.600000" stroke="#003ccb" stroke-opacity="0.600000" cx="612.1604" cy="-18" rx="39.1713" ry="18"/>
<text text-anchor="middle" x="612.1604" y="-13.8" font-family="Times,serif" font-size="14.00" fill="#000000">Mapped</text>
</g>
<!-- 140320532029160&#45;&gt;140320532033272 -->
<g id="edge15" class="edge">
<title>140320532029160&#45;&gt;140320532033272</title>
<path fill="none" stroke="#000000" d="M648.541,-72.5708C642.763,-63.9038 635.6666,-53.2592 629.2802,-43.6796"/>
<polygon fill="#000000" stroke="#000000" points="632.1321,-41.6477 623.6729,-35.2687 626.3077,-45.5307 632.1321,-41.6477"/>
</g>
<!-- 140320532038808 -->
<g id="node17" class="node">
<title>140320532038808</title>
<ellipse fill="#62757f" fill-opacity="0.600000" stroke="#62757f" stroke-opacity="0.600000" cx="708.1604" cy="-18" rx="39.1887" ry="18"/>
<text text-anchor="middle" x="708.1604" y="-13.8" font-family="Times,serif" font-size="14.00" fill="#000000">Skipped</text>
</g>
<!-- 140320532029160&#45;&gt;140320532038808 -->
<g id="edge16" class="edge">
<title>140320532029160&#45;&gt;140320532038808</title>
<path fill="none" stroke="#000000" d="M671.7799,-72.5708C677.5579,-63.9038 684.6543,-53.2592 691.0407,-43.6796"/>
<polygon fill="#000000" stroke="#000000" points="694.0131,-45.5307 696.648,-35.2687 688.1887,-41.6477 694.0131,-45.5307"/>
</g>
<!-- 140320532036024 -->
<g id="node19" class="node">
<title>140320532036024</title>
<ellipse fill="#c42800" fill-opacity="0.600000" stroke="#c42800" stroke-opacity="0.600000" cx="804.1604" cy="-18" rx="39.1713" ry="18"/>
<text text-anchor="middle" x="804.1604" y="-13.8" font-family="Times,serif" font-size="14.00" fill="#000000">Aborted</text>
</g>
<!-- 140320532035096&#45;&gt;140320532036024 -->
<g id="edge18" class="edge">
<title>140320532035096&#45;&gt;140320532036024</title>
<path fill="none" stroke="#000000" d="M844.0999,-73.3008C837.6953,-64.4329 829.6885,-53.3465 822.5288,-43.4332"/>
<polygon fill="#000000" stroke="#000000" points="825.209,-41.1662 816.5167,-35.1086 819.5342,-45.2647 825.209,-41.1662"/>
</g>
<!-- 140320532036952 -->
<g id="node20" class="node">
<title>140320532036952</title>
<ellipse fill="#ff4e33" fill-opacity="0.600000" stroke="#ff4e33" stroke-opacity="0.600000" cx="907.1604" cy="-18" rx="46.3005" ry="18"/>
<text text-anchor="middle" x="907.1604" y="-13.8" font-family="Times,serif" font-size="14.00" fill="#000000">TimedOut</text>
</g>
<!-- 140320532035096&#45;&gt;140320532036952 -->
<g id="edge19" class="edge">
<title>140320532035096&#45;&gt;140320532036952</title>
<path fill="none" stroke="#000000" d="M868.2467,-72.937C874.4435,-64.1886 882.1177,-53.3545 889.009,-43.6256"/>
<polygon fill="#000000" stroke="#000000" points="891.8825,-45.624 894.8066,-35.4407 886.1703,-41.5779 891.8825,-45.624"/>
</g>
<!-- 140320532037880 -->
<g id="node21" class="node">
<title>140320532037880</title>
<ellipse fill="#ff5131" fill-opacity="0.600000" stroke="#ff5131" stroke-opacity="0.600000" cx="1030.1604" cy="-18" rx="58.3442" ry="18"/>
<text text-anchor="middle" x="1030.1604" y="-13.8" font-family="Times,serif" font-size="14.00" fill="#000000">TriggerFailed</text>
</g>
<!-- 140320532035096&#45;&gt;140320532037880 -->
<g id="edge20" class="edge">
<title>140320532035096&#45;&gt;140320532037880</title>
<path fill="none" stroke="#000000" d="M882.21,-79.2209C909.5631,-67.9023 953.0699,-49.8995 985.8388,-36.34"/>
<polygon fill="#000000" stroke="#000000" points="987.3012,-39.5227 995.2032,-32.4651 984.6247,-33.0546 987.3012,-39.5227"/>
</g>
</g>
</svg>
