<?xml version="1.0" encoding="UTF-8" standalone="no"?>
<!DOCTYPE svg PUBLIC "-//W3C//DTD SVG 1.1//EN"
 "http://www.w3.org/Graphics/SVG/1.1/DTD/svg11.dtd">
<!-- Generated by graphviz version 2.40.1 (20161225.0304)
 -->
<!-- Title: %3 Pages: 1 -->
<svg width="787pt" height="260pt"
 viewBox="0.00 0.00 786.58 260.00" xmlns="http://www.w3.org/2000/svg" xmlns:xlink="http://www.w3.org/1999/xlink">
<g id="graph0" class="graph" transform="scale(1 1) rotate(0) translate(4 256)">
<title>%3</title>
<polygon fill="#ffffff" stroke="transparent" points="-4,4 -4,-256 782.5825,-256 782.5825,4 -4,4"/>
<!-- 140616481483608 -->
<g id="node1" class="node">
<title>140616481483608</title>
<ellipse fill="#000000" fill-opacity="0.600000" stroke="#000000" stroke-opacity="0.600000" cx="300.1604" cy="-234" rx="27.5804" ry="18"/>
<text text-anchor="middle" x="300.1604" y="-229.8" font-family="Times,serif" font-size="14.00" fill="#000000">State</text>
</g>
<!-- 140616480673752 -->
<g id="node2" class="node">
<title>140616480673752</title>
<ellipse fill="#d3d3d3" fill-opacity="0.600000" stroke="#d3d3d3" stroke-opacity="0.600000" cx="135.1604" cy="-162" rx="39.1887" ry="18"/>
<text text-anchor="middle" x="135.1604" y="-157.8" font-family="Times,serif" font-size="14.00" fill="#000000">Pending</text>
</g>
<!-- 140616481483608&#45;&gt;140616480673752 -->
<g id="edge1" class="edge">
<title>140616481483608&#45;&gt;140616480673752</title>
<path fill="none" stroke="#000000" d="M276.8699,-223.8369C249.9009,-212.0685 205.0901,-192.5147 173.0785,-178.5461"/>
<polygon fill="#000000" stroke="#000000" points="174.154,-175.1967 163.5888,-174.4051 171.3543,-181.6125 174.154,-175.1967"/>
</g>
<!-- 140616481487928 -->
<g id="node7" class="node">
<title>140616481487928</title>
<ellipse fill="#b0c4de" fill-opacity="0.600000" stroke="#b0c4de" stroke-opacity="0.600000" cx="246.1604" cy="-162" rx="50.2637" ry="18"/>
<text text-anchor="middle" x="246.1604" y="-157.8" font-family="Times,serif" font-size="14.00" fill="#000000">_MetaState</text>
</g>
<!-- 140616481483608&#45;&gt;140616481487928 -->
<g id="edge6" class="edge">
<title>140616481483608&#45;&gt;140616481487928</title>
<path fill="none" stroke="#000000" d="M287.907,-217.6621C281.2459,-208.7806 272.8573,-197.5959 265.3502,-187.5864"/>
<polygon fill="#000000" stroke="#000000" points="268.1089,-185.4312 259.3088,-179.5312 262.5088,-189.6312 268.1089,-185.4312"/>
</g>
<!-- 140616481494808 -->
<g id="node10" class="node">
<title>140616481494808</title>
<ellipse fill="#00ff00" fill-opacity="0.600000" stroke="#00ff00" stroke-opacity="0.600000" cx="355.1604" cy="-162" rx="40.6421" ry="18"/>
<text text-anchor="middle" x="355.1604" y="-157.8" font-family="Times,serif" font-size="14.00" fill="#000000">Running</text>
</g>
<!-- 140616481483608&#45;&gt;140616481494808 -->
<g id="edge9" class="edge">
<title>140616481483608&#45;&gt;140616481494808</title>
<path fill="none" stroke="#000000" d="M312.6408,-217.6621C319.4748,-208.7157 328.0939,-197.4325 335.7826,-187.3674"/>
<polygon fill="#000000" stroke="#000000" points="338.6734,-189.3487 341.9625,-179.2773 333.1107,-185.0993 338.6734,-189.3487"/>
</g>
<!-- 140616481495736 -->
<g id="node11" class="node">
<title>140616481495736</title>
<ellipse fill="#ba55d3" fill-opacity="0.600000" stroke="#ba55d3" stroke-opacity="0.600000" cx="454.1604" cy="-162" rx="40.6421" ry="18"/>
<text text-anchor="middle" x="454.1604" y="-157.8" font-family="Times,serif" font-size="14.00" fill="#000000">Finished</text>
</g>
<!-- 140616481483608&#45;&gt;140616481495736 -->
<g id="edge10" class="edge">
<title>140616481483608&#45;&gt;140616481495736</title>
<path fill="none" stroke="#000000" d="M322.8837,-223.3762C347.6466,-211.7987 387.6476,-193.0969 416.9947,-179.3762"/>
<polygon fill="#000000" stroke="#000000" points="418.5394,-182.5177 426.1159,-175.1117 415.5747,-176.1765 418.5394,-182.5177"/>
</g>
<!-- 140616481485224 -->
<g id="node3" class="node">
<title>140616481485224</title>
<ellipse fill="#800000" fill-opacity="0.600000" stroke="#800000" stroke-opacity="0.600000" cx="35.1604" cy="-90" rx="35.3216" ry="18"/>
<text text-anchor="middle" x="35.1604" y="-85.8" font-family="Times,serif" font-size="14.00" fill="#000000">Paused</text>
</g>
<!-- 140616480673752&#45;&gt;140616481485224 -->
<g id="edge2" class="edge">
<title>140616480673752&#45;&gt;140616481485224</title>
<path fill="none" stroke="#000000" d="M113.953,-146.7307C99.4408,-136.2819 80.0196,-122.2986 64.0903,-110.8295"/>
<polygon fill="#000000" stroke="#000000" points="65.8138,-107.7576 55.6533,-104.7549 61.7236,-113.4384 65.8138,-107.7576"/>
</g>
<!-- 140616481486152 -->
<g id="node4" class="node">
<title>140616481486152</title>
<ellipse fill="#b0c4de" fill-opacity="0.600000" stroke="#b0c4de" stroke-opacity="0.600000" cx="135.1604" cy="-90" rx="46.8891" ry="18"/>
<text text-anchor="middle" x="135.1604" y="-85.8" font-family="Times,serif" font-size="14.00" fill="#000000">Scheduled</text>
</g>
<!-- 140616480673752&#45;&gt;140616481486152 -->
<g id="edge3" class="edge">
<title>140616480673752&#45;&gt;140616481486152</title>
<path fill="none" stroke="#000000" d="M135.1604,-143.8314C135.1604,-136.131 135.1604,-126.9743 135.1604,-118.4166"/>
<polygon fill="#000000" stroke="#000000" points="138.6605,-118.4132 135.1604,-108.4133 131.6605,-118.4133 138.6605,-118.4132"/>
</g>
<!-- 140616481491496 -->
<g id="node5" class="node">
<title>140616481491496</title>
<ellipse fill="#20b2aa" fill-opacity="0.600000" stroke="#20b2aa" stroke-opacity="0.600000" cx="95.1604" cy="-18" rx="38.6955" ry="18"/>
<text text-anchor="middle" x="95.1604" y="-13.8" font-family="Times,serif" font-size="14.00" fill="#000000">Resume</text>
</g>
<!-- 140616481486152&#45;&gt;140616481491496 -->
<g id="edge4" class="edge">
<title>140616481486152&#45;&gt;140616481491496</title>
<path fill="none" stroke="#000000" d="M125.2728,-72.2022C120.6226,-63.832 114.9827,-53.6802 109.8469,-44.4356"/>
<polygon fill="#000000" stroke="#000000" points="112.8504,-42.6348 104.9343,-35.593 106.7313,-46.0344 112.8504,-42.6348"/>
</g>
<!-- 140616481493048 -->
<g id="node6" class="node">
<title>140616481493048</title>
<ellipse fill="#ffff00" fill-opacity="0.600000" stroke="#ffff00" stroke-opacity="0.600000" cx="193.1604" cy="-18" rx="41.1093" ry="18"/>
<text text-anchor="middle" x="193.1604" y="-13.8" font-family="Times,serif" font-size="14.00" fill="#000000">Retrying</text>
</g>
<!-- 140616481486152&#45;&gt;140616481493048 -->
<g id="edge5" class="edge">
<title>140616481486152&#45;&gt;140616481493048</title>
<path fill="none" stroke="#000000" d="M149.2006,-72.5708C156.3249,-63.7269 165.1078,-52.8239 172.9455,-43.0945"/>
<polygon fill="#000000" stroke="#000000" points="175.7019,-45.2519 179.2495,-35.2687 170.2506,-40.8606 175.7019,-45.2519"/>
</g>
<!-- 140616481488856 -->
<g id="node8" class="node">
<title>140616481488856</title>
<ellipse fill="#b0c4de" fill-opacity="0.600000" stroke="#b0c4de" stroke-opacity="0.600000" cx="246.1604" cy="-90" rx="46.4304" ry="18"/>
<text text-anchor="middle" x="246.1604" y="-85.8" font-family="Times,serif" font-size="14.00" fill="#000000">Submitted</text>
</g>
<!-- 140616481487928&#45;&gt;140616481488856 -->
<g id="edge7" class="edge">
<title>140616481487928&#45;&gt;140616481488856</title>
<path fill="none" stroke="#000000" d="M246.1604,-143.8314C246.1604,-136.131 246.1604,-126.9743 246.1604,-118.4166"/>
<polygon fill="#000000" stroke="#000000" points="249.6605,-118.4132 246.1604,-108.4133 242.6605,-118.4133 249.6605,-118.4132"/>
</g>
<!-- 140616481490568 -->
<g id="node9" class="node">
<title>140616481490568</title>
<ellipse fill="#b0c4de" fill-opacity="0.600000" stroke="#b0c4de" stroke-opacity="0.600000" cx="348.1604" cy="-90" rx="37.7179" ry="18"/>
<text text-anchor="middle" x="348.1604" y="-85.8" font-family="Times,serif" font-size="14.00" fill="#000000">Queued</text>
</g>
<!-- 140616481487928&#45;&gt;140616481490568 -->
<g id="edge8" class="edge">
<title>140616481487928&#45;&gt;140616481490568</title>
<path fill="none" stroke="#000000" d="M269.0512,-145.8418C283.6215,-135.5569 302.6432,-122.1298 318.3826,-111.0196"/>
<polygon fill="#000000" stroke="#000000" points="320.5887,-113.7466 326.74,-105.1203 316.5519,-108.0278 320.5887,-113.7466"/>
</g>
<!-- 140616481496664 -->
<g id="node12" class="node">
<title>140616481496664</title>
<ellipse fill="#008000" fill-opacity="0.600000" stroke="#008000" stroke-opacity="0.600000" cx="448.1604" cy="-90" rx="38.211" ry="18"/>
<text text-anchor="middle" x="448.1604" y="-85.8" font-family="Times,serif" font-size="14.00" fill="#000000">Success</text>
</g>
<!-- 140616481495736&#45;&gt;140616481496664 -->
<g id="edge11" class="edge">
<title>140616481495736&#45;&gt;140616481496664</title>
<path fill="none" stroke="#000000" d="M452.6464,-143.8314C452.0047,-136.131 451.2416,-126.9743 450.5285,-118.4166"/>
<polygon fill="#000000" stroke="#000000" points="454.0133,-118.088 449.6949,-108.4133 447.0375,-118.6694 454.0133,-118.088"/>
</g>
<!-- 140616481501096 -->
<g id="node16" class="node">
<title>140616481501096</title>
<ellipse fill="#ff0000" fill-opacity="0.600000" stroke="#ff0000" stroke-opacity="0.600000" cx="597.1604" cy="-90" rx="32.4237" ry="18"/>
<text text-anchor="middle" x="597.1604" y="-85.8" font-family="Times,serif" font-size="14.00" fill="#000000">Failed</text>
</g>
<!-- 140616481495736&#45;&gt;140616481501096 -->
<g id="edge15" class="edge">
<title>140616481495736&#45;&gt;140616481501096</title>
<path fill="none" stroke="#000000" d="M481.0576,-148.4574C504.445,-136.6819 538.433,-119.569 563.5966,-106.8993"/>
<polygon fill="#000000" stroke="#000000" points="565.4105,-109.9047 572.7682,-102.2814 562.2625,-103.6524 565.4105,-109.9047"/>
</g>
<!-- 140616481497592 -->
<g id="node13" class="node">
<title>140616481497592</title>
<ellipse fill="#ffa500" fill-opacity="0.600000" stroke="#ffa500" stroke-opacity="0.600000" cx="304.1604" cy="-18" rx="36.7489" ry="18"/>
<text text-anchor="middle" x="304.1604" y="-13.8" font-family="Times,serif" font-size="14.00" fill="#000000">Cached</text>
</g>
<!-- 140616481496664&#45;&gt;140616481497592 -->
<g id="edge12" class="edge">
<title>140616481496664&#45;&gt;140616481497592</title>
<path fill="none" stroke="#000000" d="M421.7486,-76.7941C398.4636,-65.1516 364.3719,-48.1057 338.885,-35.3623"/>
<polygon fill="#000000" stroke="#000000" points="340.4299,-32.2216 329.9203,-30.8799 337.2993,-38.4826 340.4299,-32.2216"/>
</g>
<!-- 140616481499272 -->
<g id="node14" class="node">
<title>140616481499272</title>
<ellipse fill="#97ffff" fill-opacity="0.600000" stroke="#97ffff" stroke-opacity="0.600000" cx="398.1604" cy="-18" rx="39.1713" ry="18"/>
<text text-anchor="middle" x="398.1604" y="-13.8" font-family="Times,serif" font-size="14.00" fill="#000000">Mapped</text>
</g>
<!-- 140616481496664&#45;&gt;140616481499272 -->
<g id="edge13" class="edge">
<title>140616481496664&#45;&gt;140616481499272</title>
<path fill="none" stroke="#000000" d="M436.0568,-72.5708C430.0381,-63.9038 422.646,-53.2592 415.9935,-43.6796"/>
<polygon fill="#000000" stroke="#000000" points="418.7314,-41.486 410.1526,-35.2687 412.9818,-45.4788 418.7314,-41.486"/>
</g>
<!-- 140616481503880 -->
<g id="node15" class="node">
<title>140616481503880</title>
<ellipse fill="#f0fff0" fill-opacity="0.600000" stroke="#f0fff0" stroke-opacity="0.600000" cx="494.1604" cy="-18" rx="39.1887" ry="18"/>
<text text-anchor="middle" x="494.1604" y="-13.8" font-family="Times,serif" font-size="14.00" fill="#000000">Skipped</text>
</g>
<!-- 140616481496664&#45;&gt;140616481503880 -->
<g id="edge14" class="edge">
<title>140616481496664&#45;&gt;140616481503880</title>
<path fill="none" stroke="#000000" d="M459.2957,-72.5708C464.7765,-63.9922 471.4951,-53.4762 477.5665,-43.9732"/>
<polygon fill="#000000" stroke="#000000" points="480.6932,-45.58 483.1277,-35.2687 474.7943,-41.8113 480.6932,-45.58"/>
</g>
<!-- 140616481502024 -->
<g id="node17" class="node">
<title>140616481502024</title>
<ellipse fill="#cdc9a5" fill-opacity="0.600000" stroke="#cdc9a5" stroke-opacity="0.600000" cx="597.1604" cy="-18" rx="46.3005" ry="18"/>
<text text-anchor="middle" x="597.1604" y="-13.8" font-family="Times,serif" font-size="14.00" fill="#000000">TimedOut</text>
</g>
<!-- 140616481501096&#45;&gt;140616481502024 -->
<g id="edge16" class="edge">
<title>140616481501096&#45;&gt;140616481502024</title>
<path fill="none" stroke="#000000" d="M597.1604,-71.8314C597.1604,-64.131 597.1604,-54.9743 597.1604,-46.4166"/>
<polygon fill="#000000" stroke="#000000" points="600.6605,-46.4132 597.1604,-36.4133 593.6605,-46.4133 600.6605,-46.4132"/>
</g>
<!-- 140616481502952 -->
<g id="node18" class="node">
<title>140616481502952</title>
<ellipse fill="#f08080" fill-opacity="0.600000" stroke="#f08080" stroke-opacity="0.600000" cx="720.1604" cy="-18" rx="58.3442" ry="18"/>
<text text-anchor="middle" x="720.1604" y="-13.8" font-family="Times,serif" font-size="14.00" fill="#000000">TriggerFailed</text>
</g>
<!-- 140616481501096&#45;&gt;140616481502952 -->
<g id="edge17" class="edge">
<title>140616481501096&#45;&gt;140616481502952</title>
<path fill="none" stroke="#000000" d="M619.4348,-76.9613C637.4862,-66.3946 663.2759,-51.2983 684.24,-39.0266"/>
<polygon fill="#000000" stroke="#000000" points="686.0305,-42.0341 692.8926,-33.9617 682.4943,-35.993 686.0305,-42.0341"/>
</g>
</g>
</svg>
