<?xml version="1.0" encoding="UTF-8" standalone="no"?>
<!DOCTYPE svg PUBLIC "-//W3C//DTD SVG 1.1//EN"
 "http://www.w3.org/Graphics/SVG/1.1/DTD/svg11.dtd">
<!-- Generated by graphviz version 2.40.1 (20161225.0304)
 -->
<!-- Title: %3 Pages: 1 -->
<svg width="615pt" height="260pt"
 viewBox="0.00 0.00 614.58 260.00" xmlns="http://www.w3.org/2000/svg" xmlns:xlink="http://www.w3.org/1999/xlink">
<g id="graph0" class="graph" transform="scale(1 1) rotate(0) translate(4 256)">
<title>%3</title>
<polygon fill="#ffffff" stroke="transparent" points="-4,4 -4,-256 610.5825,-256 610.5825,4 -4,4"/>
<!-- 140206936848632 -->
<g id="node1" class="node">
<title>140206936848632</title>
<ellipse fill="#000000" fill-opacity="0.600000" stroke="#000000" stroke-opacity="0.600000" cx="293.1604" cy="-234" rx="27.5804" ry="18"/>
<text text-anchor="middle" x="293.1604" y="-229.8" font-family="Times,serif" font-size="14.00" fill="#000000">State</text>
</g>
<!-- 140206936850824 -->
<g id="node2" class="node">
<title>140206936850824</title>
<ellipse fill="#d3d3d3" fill-opacity="0.600000" stroke="#d3d3d3" stroke-opacity="0.600000" cx="160.1604" cy="-162" rx="39.1887" ry="18"/>
<text text-anchor="middle" x="160.1604" y="-157.8" font-family="Times,serif" font-size="14.00" fill="#000000">Pending</text>
</g>
<!-- 140206936848632&#45;&gt;140206936850824 -->
<g id="edge1" class="edge">
<title>140206936848632&#45;&gt;140206936850824</title>
<path fill="none" stroke="#000000" d="M271.7917,-222.432C250.956,-211.1525 218.9285,-193.8143 194.5136,-180.5972"/>
<polygon fill="#000000" stroke="#000000" points="196.0286,-177.4374 185.5682,-175.7546 192.6961,-183.5933 196.0286,-177.4374"/>
</g>
<!-- 140206936857080 -->
<g id="node7" class="node">
<title>140206936857080</title>
<ellipse fill="#00ff00" fill-opacity="0.600000" stroke="#00ff00" stroke-opacity="0.600000" cx="293.1604" cy="-162" rx="40.6421" ry="18"/>
<text text-anchor="middle" x="293.1604" y="-157.8" font-family="Times,serif" font-size="14.00" fill="#000000">Running</text>
</g>
<!-- 140206936848632&#45;&gt;140206936857080 -->
<g id="edge6" class="edge">
<title>140206936848632&#45;&gt;140206936857080</title>
<path fill="none" stroke="#000000" d="M293.1604,-215.8314C293.1604,-208.131 293.1604,-198.9743 293.1604,-190.4166"/>
<polygon fill="#000000" stroke="#000000" points="296.6605,-190.4132 293.1604,-180.4133 289.6605,-190.4133 296.6605,-190.4132"/>
</g>
<!-- 140206936858008 -->
<g id="node8" class="node">
<title>140206936858008</title>
<ellipse fill="#ba55d3" fill-opacity="0.600000" stroke="#ba55d3" stroke-opacity="0.600000" cx="409.1604" cy="-162" rx="40.6421" ry="18"/>
<text text-anchor="middle" x="409.1604" y="-157.8" font-family="Times,serif" font-size="14.00" fill="#000000">Finished</text>
</g>
<!-- 140206936848632&#45;&gt;140206936858008 -->
<g id="edge7" class="edge">
<title>140206936848632&#45;&gt;140206936858008</title>
<path fill="none" stroke="#000000" d="M313.3661,-221.4586C330.7817,-210.6489 356.2497,-194.8411 376.5487,-182.2418"/>
<polygon fill="#000000" stroke="#000000" points="378.5273,-185.1331 385.1779,-176.8857 374.8357,-179.1856 378.5273,-185.1331"/>
</g>
<!-- 140206936851752 -->
<g id="node3" class="node">
<title>140206936851752</title>
<ellipse fill="#800000" fill-opacity="0.600000" stroke="#800000" stroke-opacity="0.600000" cx="35.1604" cy="-90" rx="35.3216" ry="18"/>
<text text-anchor="middle" x="35.1604" y="-85.8" font-family="Times,serif" font-size="14.00" fill="#000000">Paused</text>
</g>
<!-- 140206936850824&#45;&gt;140206936851752 -->
<g id="edge2" class="edge">
<title>140206936850824&#45;&gt;140206936851752</title>
<path fill="none" stroke="#000000" d="M135.4645,-147.7751C115.916,-136.5152 88.464,-120.7028 67.2201,-108.4664"/>
<polygon fill="#000000" stroke="#000000" points="68.9491,-105.4232 58.5368,-103.4648 65.4552,-111.4889 68.9491,-105.4232"/>
</g>
<!-- 140206936852680 -->
<g id="node4" class="node">
<title>140206936852680</title>
<ellipse fill="#ffa500" fill-opacity="0.600000" stroke="#ffa500" stroke-opacity="0.600000" cx="142.1604" cy="-90" rx="54.1144" ry="18"/>
<text text-anchor="middle" x="142.1604" y="-85.8" font-family="Times,serif" font-size="14.00" fill="#000000">CachedState</text>
</g>
<!-- 140206936850824&#45;&gt;140206936852680 -->
<g id="edge3" class="edge">
<title>140206936850824&#45;&gt;140206936852680</title>
<path fill="none" stroke="#000000" d="M155.6183,-143.8314C153.672,-136.0463 151.3537,-126.7729 149.1941,-118.1347"/>
<polygon fill="#000000" stroke="#000000" points="152.5847,-117.2658 146.7637,-108.4133 145.7937,-118.9636 152.5847,-117.2658"/>
</g>
<!-- 140206936854408 -->
<g id="node5" class="node">
<title>140206936854408</title>
<ellipse fill="#b0c4de" fill-opacity="0.600000" stroke="#b0c4de" stroke-opacity="0.600000" cx="261.1604" cy="-90" rx="46.8891" ry="18"/>
<text text-anchor="middle" x="261.1604" y="-85.8" font-family="Times,serif" font-size="14.00" fill="#000000">Scheduled</text>
</g>
<!-- 140206936850824&#45;&gt;140206936854408 -->
<g id="edge4" class="edge">
<title>140206936850824&#45;&gt;140206936854408</title>
<path fill="none" stroke="#000000" d="M181.5799,-146.7307C195.7487,-136.6301 214.5505,-123.2269 230.3209,-111.9846"/>
<polygon fill="#000000" stroke="#000000" points="232.6106,-114.6507 238.7217,-105.9959 228.5473,-108.9507 232.6106,-114.6507"/>
</g>
<!-- 140206936855336 -->
<g id="node6" class="node">
<title>140206936855336</title>
<ellipse fill="#ffff00" fill-opacity="0.600000" stroke="#ffff00" stroke-opacity="0.600000" cx="238.1604" cy="-18" rx="41.1093" ry="18"/>
<text text-anchor="middle" x="238.1604" y="-13.8" font-family="Times,serif" font-size="14.00" fill="#000000">Retrying</text>
</g>
<!-- 140206936854408&#45;&gt;140206936855336 -->
<g id="edge5" class="edge">
<title>140206936854408&#45;&gt;140206936855336</title>
<path fill="none" stroke="#000000" d="M255.3566,-71.8314C252.804,-63.8406 249.7505,-54.2819 246.9296,-45.4514"/>
<polygon fill="#000000" stroke="#000000" points="250.2598,-44.3741 243.8828,-35.9134 243.5918,-46.5043 250.2598,-44.3741"/>
</g>
<!-- 140206936858936 -->
<g id="node9" class="node">
<title>140206936858936</title>
<ellipse fill="#008000" fill-opacity="0.600000" stroke="#008000" stroke-opacity="0.600000" cx="409.1604" cy="-90" rx="38.211" ry="18"/>
<text text-anchor="middle" x="409.1604" y="-85.8" font-family="Times,serif" font-size="14.00" fill="#000000">Success</text>
</g>
<!-- 140206936858008&#45;&gt;140206936858936 -->
<g id="edge8" class="edge">
<title>140206936858008&#45;&gt;140206936858936</title>
<path fill="none" stroke="#000000" d="M409.1604,-143.8314C409.1604,-136.131 409.1604,-126.9743 409.1604,-118.4166"/>
<polygon fill="#000000" stroke="#000000" points="412.6605,-118.4132 409.1604,-108.4133 405.6605,-118.4133 412.6605,-118.4132"/>
</g>
<!-- 140206936861512 -->
<g id="node12" class="node">
<title>140206936861512</title>
<ellipse fill="#ff0000" fill-opacity="0.600000" stroke="#ff0000" stroke-opacity="0.600000" cx="534.1604" cy="-90" rx="32.4237" ry="18"/>
<text text-anchor="middle" x="534.1604" y="-85.8" font-family="Times,serif" font-size="14.00" fill="#000000">Failed</text>
</g>
<!-- 140206936858008&#45;&gt;140206936861512 -->
<g id="edge11" class="edge">
<title>140206936858008&#45;&gt;140206936861512</title>
<path fill="none" stroke="#000000" d="M434.1556,-147.6028C453.9799,-136.184 481.7929,-120.1637 503.0565,-107.9159"/>
<polygon fill="#000000" stroke="#000000" points="504.8077,-110.9463 511.7261,-102.9222 501.3139,-104.8806 504.8077,-110.9463"/>
</g>
<!-- 140206936859864 -->
<g id="node10" class="node">
<title>140206936859864</title>
<ellipse fill="#97ffff" fill-opacity="0.600000" stroke="#97ffff" stroke-opacity="0.600000" cx="336.1604" cy="-18" rx="39.1713" ry="18"/>
<text text-anchor="middle" x="336.1604" y="-13.8" font-family="Times,serif" font-size="14.00" fill="#000000">Mapped</text>
</g>
<!-- 140206936858936&#45;&gt;140206936859864 -->
<g id="edge9" class="edge">
<title>140206936858936&#45;&gt;140206936859864</title>
<path fill="none" stroke="#000000" d="M392.5956,-73.6621C383.0498,-64.247 370.8798,-52.2438 360.2869,-41.796"/>
<polygon fill="#000000" stroke="#000000" points="362.4898,-39.0528 352.9124,-34.5225 357.5743,-44.0365 362.4898,-39.0528"/>
</g>
<!-- 140206936863368 -->
<g id="node11" class="node">
<title>140206936863368</title>
<ellipse fill="#f0fff0" fill-opacity="0.600000" stroke="#f0fff0" stroke-opacity="0.600000" cx="432.1604" cy="-18" rx="39.1887" ry="18"/>
<text text-anchor="middle" x="432.1604" y="-13.8" font-family="Times,serif" font-size="14.00" fill="#000000">Skipped</text>
</g>
<!-- 140206936858936&#45;&gt;140206936863368 -->
<g id="edge10" class="edge">
<title>140206936858936&#45;&gt;140206936863368</title>
<path fill="none" stroke="#000000" d="M414.9643,-71.8314C417.5169,-63.8406 420.5704,-54.2819 423.3912,-45.4514"/>
<polygon fill="#000000" stroke="#000000" points="426.7291,-46.5043 426.4381,-35.9134 420.061,-44.3741 426.7291,-46.5043"/>
</g>
<!-- 140206936862440 -->
<g id="node13" class="node">
<title>140206936862440</title>
<ellipse fill="#f08080" fill-opacity="0.600000" stroke="#f08080" stroke-opacity="0.600000" cx="548.1604" cy="-18" rx="58.3442" ry="18"/>
<text text-anchor="middle" x="548.1604" y="-13.8" font-family="Times,serif" font-size="14.00" fill="#000000">TriggerFailed</text>
</g>
<!-- 140206936861512&#45;&gt;140206936862440 -->
<g id="edge12" class="edge">
<title>140206936861512&#45;&gt;140206936862440</title>
<path fill="none" stroke="#000000" d="M537.6932,-71.8314C539.1905,-64.131 540.971,-54.9743 542.635,-46.4166"/>
<polygon fill="#000000" stroke="#000000" points="546.1069,-46.8975 544.5801,-36.4133 539.2356,-45.5614 546.1069,-46.8975"/>
</g>
</g>
</svg>
