<?xml version="1.0" encoding="UTF-8" standalone="no"?>
<!DOCTYPE svg PUBLIC "-//W3C//DTD SVG 1.1//EN"
 "http://www.w3.org/Graphics/SVG/1.1/DTD/svg11.dtd">
<!-- Generated by graphviz version 2.43.0 (0)
 -->
<!-- Title: %3 Pages: 1 -->
<svg width="1041pt" height="260pt"
 viewBox="0.00 0.00 1040.58 260.00" xmlns="http://www.w3.org/2000/svg" xmlns:xlink="http://www.w3.org/1999/xlink">
<g id="graph0" class="graph" transform="scale(1 1) rotate(0) translate(4 256)">
<title>%3</title>
<polygon fill="white" stroke="transparent" points="-4,4 -4,-256 1036.58,-256 1036.58,4 -4,4"/>
<!-- 140676331523632 -->
<g id="node1" class="node">
<title>140676331523632</title>
<ellipse fill="#696969" fill-opacity="0.600000" stroke="#696969" stroke-opacity="0.600000" cx="418.16" cy="-234" rx="27.58" ry="18"/>
<text text-anchor="middle" x="418.16" y="-229.8" font-family="Times,serif" font-size="14.00">State</text>
</g>
<!-- 140676331525536 -->
<g id="node2" class="node">
<title>140676331525536</title>
<ellipse fill="#7ebdff" fill-opacity="0.600000" stroke="#7ebdff" stroke-opacity="0.600000" cx="192.16" cy="-162" rx="39.19" ry="18"/>
<text text-anchor="middle" x="192.16" y="-157.8" font-family="Times,serif" font-size="14.00">Pending</text>
</g>
<!-- 140676331523632&#45;&gt;140676331525536 -->
<g id="edge1" class="edge">
<title>140676331523632&#45;&gt;140676331525536</title>
<path fill="none" stroke="black" d="M393.54,-225.38C355.07,-213.46 280.25,-190.28 233.43,-175.78"/>
<polygon fill="black" stroke="black" points="234.19,-172.35 223.6,-172.74 232.12,-179.04 234.19,-172.35"/>
</g>
<!-- 140676331530720 -->
<g id="node7" class="node">
<title>140676331530720</title>
<ellipse fill="#696969" fill-opacity="0.600000" stroke="#696969" stroke-opacity="0.600000" cx="364.16" cy="-162" rx="50.26" ry="18"/>
<text text-anchor="middle" x="364.16" y="-157.8" font-family="Times,serif" font-size="14.00">_MetaState</text>
</g>
<!-- 140676331523632&#45;&gt;140676331530720 -->
<g id="edge6" class="edge">
<title>140676331523632&#45;&gt;140676331530720</title>
<path fill="none" stroke="black" d="M406.18,-217.46C399.38,-208.65 390.72,-197.43 383.03,-187.46"/>
<polygon fill="black" stroke="black" points="385.74,-185.25 376.86,-179.47 380.2,-189.52 385.74,-185.25"/>
</g>
<!-- 140676331539808 -->
<g id="node11" class="node">
<title>140676331539808</title>
<ellipse fill="#3d67ff" fill-opacity="0.600000" stroke="#3d67ff" stroke-opacity="0.600000" cx="473.16" cy="-162" rx="40.64" ry="18"/>
<text text-anchor="middle" x="473.16" y="-157.8" font-family="Times,serif" font-size="14.00">Running</text>
</g>
<!-- 140676331523632&#45;&gt;140676331539808 -->
<g id="edge10" class="edge">
<title>140676331523632&#45;&gt;140676331539808</title>
<path fill="none" stroke="black" d="M430.37,-217.46C437.29,-208.65 446.11,-197.43 453.94,-187.46"/>
<polygon fill="black" stroke="black" points="456.8,-189.49 460.22,-179.47 451.29,-185.17 456.8,-189.49"/>
</g>
<!-- 140676331541376 -->
<g id="node12" class="node">
<title>140676331541376</title>
<ellipse fill="#003ccb" fill-opacity="0.600000" stroke="#003ccb" stroke-opacity="0.600000" cx="652.16" cy="-162" rx="40.64" ry="18"/>
<text text-anchor="middle" x="652.16" y="-157.8" font-family="Times,serif" font-size="14.00">Finished</text>
</g>
<!-- 140676331523632&#45;&gt;140676331541376 -->
<g id="edge11" class="edge">
<title>140676331523632&#45;&gt;140676331541376</title>
<path fill="none" stroke="black" d="M443.2,-225.51C483.02,-213.6 561.23,-190.2 609.86,-175.66"/>
<polygon fill="black" stroke="black" points="610.88,-179 619.46,-172.78 608.88,-172.29 610.88,-179"/>
</g>
<!-- 140676331527088 -->
<g id="node3" class="node">
<title>140676331527088</title>
<ellipse fill="#ffab00" fill-opacity="0.600000" stroke="#ffab00" stroke-opacity="0.600000" cx="127.16" cy="-90" rx="46.89" ry="18"/>
<text text-anchor="middle" x="127.16" y="-85.8" font-family="Times,serif" font-size="14.00">Scheduled</text>
</g>
<!-- 140676331525536&#45;&gt;140676331527088 -->
<g id="edge2" class="edge">
<title>140676331525536&#45;&gt;140676331527088</title>
<path fill="none" stroke="black" d="M177.41,-145.12C169.05,-136.12 158.44,-124.68 149.12,-114.65"/>
<polygon fill="black" stroke="black" points="151.67,-112.25 142.3,-107.31 146.54,-117.02 151.67,-112.25"/>
</g>
<!-- 140676331528976 -->
<g id="node4" class="node">
<title>140676331528976</title>
<ellipse fill="#cfd8dc" fill-opacity="0.600000" stroke="#cfd8dc" stroke-opacity="0.600000" cx="35.16" cy="-18" rx="35.32" ry="18"/>
<text text-anchor="middle" x="35.16" y="-13.8" font-family="Times,serif" font-size="14.00">Paused</text>
</g>
<!-- 140676331527088&#45;&gt;140676331528976 -->
<g id="edge3" class="edge">
<title>140676331527088&#45;&gt;140676331528976</title>
<path fill="none" stroke="black" d="M106.74,-73.46C93.56,-63.43 76.26,-50.27 61.97,-39.4"/>
<polygon fill="black" stroke="black" points="64.03,-36.57 53.95,-33.3 59.79,-42.14 64.03,-36.57"/>
</g>
<!-- 140676331536256 -->
<g id="node5" class="node">
<title>140676331536256</title>
<ellipse fill="#fb8532" fill-opacity="0.600000" stroke="#fb8532" stroke-opacity="0.600000" cx="127.16" cy="-18" rx="38.7" ry="18"/>
<text text-anchor="middle" x="127.16" y="-13.8" font-family="Times,serif" font-size="14.00">Resume</text>
</g>
<!-- 140676331527088&#45;&gt;140676331536256 -->
<g id="edge4" class="edge">
<title>140676331527088&#45;&gt;140676331536256</title>
<path fill="none" stroke="black" d="M127.16,-71.7C127.16,-63.98 127.16,-54.71 127.16,-46.11"/>
<polygon fill="black" stroke="black" points="130.66,-46.1 127.16,-36.1 123.66,-46.1 130.66,-46.1"/>
</g>
<!-- 140676331537936 -->
<g id="node6" class="node">
<title>140676331537936</title>
<ellipse fill="#f66a0a" fill-opacity="0.600000" stroke="#f66a0a" stroke-opacity="0.600000" cx="225.16" cy="-18" rx="41.11" ry="18"/>
<text text-anchor="middle" x="225.16" y="-13.8" font-family="Times,serif" font-size="14.00">Retrying</text>
</g>
<!-- 140676331527088&#45;&gt;140676331537936 -->
<g id="edge5" class="edge">
<title>140676331527088&#45;&gt;140676331537936</title>
<path fill="none" stroke="black" d="M148.42,-73.81C162.48,-63.77 181.09,-50.48 196.45,-39.5"/>
<polygon fill="black" stroke="black" points="198.51,-42.34 204.61,-33.68 194.44,-36.64 198.51,-42.34"/>
</g>
<!-- 140676331531664 -->
<g id="node8" class="node">
<title>140676331531664</title>
<ellipse fill="#eb0000" fill-opacity="0.600000" stroke="#eb0000" stroke-opacity="0.600000" cx="246.16" cy="-90" rx="53.66" ry="18"/>
<text text-anchor="middle" x="246.16" y="-85.8" font-family="Times,serif" font-size="14.00">ClientFailed</text>
</g>
<!-- 140676331530720&#45;&gt;140676331531664 -->
<g id="edge7" class="edge">
<title>140676331530720&#45;&gt;140676331531664</title>
<path fill="none" stroke="black" d="M339.14,-146.15C322.04,-136.02 299.18,-122.45 280.4,-111.31"/>
<polygon fill="black" stroke="black" points="281.94,-108.16 271.56,-106.07 278.37,-114.18 281.94,-108.16"/>
</g>
<!-- 140676331533488 -->
<g id="node9" class="node">
<title>140676331533488</title>
<ellipse fill="#ffdf5d" fill-opacity="0.600000" stroke="#ffdf5d" stroke-opacity="0.600000" cx="364.16" cy="-90" rx="46.43" ry="18"/>
<text text-anchor="middle" x="364.16" y="-85.8" font-family="Times,serif" font-size="14.00">Submitted</text>
</g>
<!-- 140676331530720&#45;&gt;140676331533488 -->
<g id="edge8" class="edge">
<title>140676331530720&#45;&gt;140676331533488</title>
<path fill="none" stroke="black" d="M364.16,-143.7C364.16,-135.98 364.16,-126.71 364.16,-118.11"/>
<polygon fill="black" stroke="black" points="367.66,-118.1 364.16,-108.1 360.66,-118.1 367.66,-118.1"/>
</g>
<!-- 140676331534432 -->
<g id="node10" class="node">
<title>140676331534432</title>
<ellipse fill="#ffea7f" fill-opacity="0.600000" stroke="#ffea7f" stroke-opacity="0.600000" cx="466.16" cy="-90" rx="37.72" ry="18"/>
<text text-anchor="middle" x="466.16" y="-85.8" font-family="Times,serif" font-size="14.00">Queued</text>
</g>
<!-- 140676331530720&#45;&gt;140676331534432 -->
<g id="edge9" class="edge">
<title>140676331530720&#45;&gt;140676331534432</title>
<path fill="none" stroke="black" d="M386.29,-145.81C401.12,-135.63 420.81,-122.12 436.93,-111.06"/>
<polygon fill="black" stroke="black" points="439.2,-113.75 445.46,-105.21 435.24,-107.98 439.2,-113.75"/>
</g>
<!-- 140676331542960 -->
<g id="node13" class="node">
<title>140676331542960</title>
<ellipse fill="#003ccb" fill-opacity="0.600000" stroke="#003ccb" stroke-opacity="0.600000" cx="559.16" cy="-90" rx="37.24" ry="18"/>
<text text-anchor="middle" x="559.16" y="-85.8" font-family="Times,serif" font-size="14.00">Looped</text>
</g>
<!-- 140676331541376&#45;&gt;140676331542960 -->
<g id="edge12" class="edge">
<title>140676331541376&#45;&gt;140676331542960</title>
<path fill="none" stroke="black" d="M632.44,-146.15C619.16,-136.16 601.45,-122.83 586.77,-111.78"/>
<polygon fill="black" stroke="black" points="588.63,-108.8 578.54,-105.58 584.42,-114.39 588.63,-108.8"/>
</g>
<!-- 140676331544816 -->
<g id="node14" class="node">
<title>140676331544816</title>
<ellipse fill="#28a745" fill-opacity="0.600000" stroke="#28a745" stroke-opacity="0.600000" cx="652.16" cy="-90" rx="38.21" ry="18"/>
<text text-anchor="middle" x="652.16" y="-85.8" font-family="Times,serif" font-size="14.00">Success</text>
</g>
<!-- 140676331541376&#45;&gt;140676331544816 -->
<g id="edge13" class="edge">
<title>140676331541376&#45;&gt;140676331544816</title>
<path fill="none" stroke="black" d="M652.16,-143.7C652.16,-135.98 652.16,-126.71 652.16,-118.11"/>
<polygon fill="black" stroke="black" points="655.66,-118.1 652.16,-108.1 648.66,-118.1 655.66,-118.1"/>
</g>
<!-- 140676331550704 -->
<g id="node19" class="node">
<title>140676331550704</title>
<ellipse fill="#c42800" fill-opacity="0.600000" stroke="#c42800" stroke-opacity="0.600000" cx="754.16" cy="-90" rx="45.43" ry="18"/>
<text text-anchor="middle" x="754.16" y="-85.8" font-family="Times,serif" font-size="14.00">Cancelled</text>
</g>
<!-- 140676331541376&#45;&gt;140676331550704 -->
<g id="edge18" class="edge">
<title>140676331541376&#45;&gt;140676331550704</title>
<path fill="none" stroke="black" d="M673.29,-146.5C687.87,-136.49 707.47,-123.05 723.72,-111.89"/>
<polygon fill="black" stroke="black" points="726.08,-114.51 732.35,-105.97 722.12,-108.74 726.08,-114.51"/>
</g>
<!-- 140676331552320 -->
<g id="node20" class="node">
<title>140676331552320</title>
<ellipse fill="#eb0000" fill-opacity="0.600000" stroke="#eb0000" stroke-opacity="0.600000" cx="851.16" cy="-90" rx="32.42" ry="18"/>
<text text-anchor="middle" x="851.16" y="-85.8" font-family="Times,serif" font-size="14.00">Failed</text>
</g>
<!-- 140676331541376&#45;&gt;140676331552320 -->
<g id="edge19" class="edge">
<title>140676331541376&#45;&gt;140676331552320</title>
<path fill="none" stroke="black" d="M683.99,-150.69C715.63,-140.33 765.47,-123.68 808.16,-108 810.84,-107.01 813.61,-105.97 816.39,-104.91"/>
<polygon fill="black" stroke="black" points="817.72,-108.15 825.77,-101.28 815.18,-101.63 817.72,-108.15"/>
</g>
<!-- 140676331546352 -->
<g id="node15" class="node">
<title>140676331546352</title>
<ellipse fill="#fcba03" fill-opacity="0.600000" stroke="#fcba03" stroke-opacity="0.600000" cx="430.16" cy="-18" rx="72.99" ry="18"/>
<text text-anchor="middle" x="430.16" y="-13.8" font-family="Times,serif" font-size="14.00">ConditionNotMet</text>
</g>
<!-- 140676331544816&#45;&gt;140676331546352 -->
<g id="edge14" class="edge">
<title>140676331544816&#45;&gt;140676331546352</title>
<path fill="none" stroke="black" d="M623.16,-78.24C617.23,-76.11 611.01,-73.94 605.16,-72 565.4,-58.8 520.13,-45.12 485.59,-34.97"/>
<polygon fill="black" stroke="black" points="486.27,-31.52 475.69,-32.07 484.31,-38.24 486.27,-31.52"/>
</g>
<!-- 140676331547952 -->
<g id="node16" class="node">
<title>140676331547952</title>
<ellipse fill="#34d058" fill-opacity="0.600000" stroke="#34d058" stroke-opacity="0.600000" cx="558.16" cy="-18" rx="36.75" ry="18"/>
<text text-anchor="middle" x="558.16" y="-13.8" font-family="Times,serif" font-size="14.00">Cached</text>
</g>
<!-- 140676331544816&#45;&gt;140676331547952 -->
<g id="edge15" class="edge">
<title>140676331544816&#45;&gt;140676331547952</title>
<path fill="none" stroke="black" d="M632.68,-74.5C619.2,-64.45 601.04,-50.93 586.03,-39.75"/>
<polygon fill="black" stroke="black" points="587.72,-36.65 577.61,-33.49 583.54,-42.27 587.72,-36.65"/>
</g>
<!-- 140676331549760 -->
<g id="node17" class="node">
<title>140676331549760</title>
<ellipse fill="#003ccb" fill-opacity="0.600000" stroke="#003ccb" stroke-opacity="0.600000" cx="652.16" cy="-18" rx="39.17" ry="18"/>
<text text-anchor="middle" x="652.16" y="-13.8" font-family="Times,serif" font-size="14.00">Mapped</text>
</g>
<!-- 140676331544816&#45;&gt;140676331549760 -->
<g id="edge16" class="edge">
<title>140676331544816&#45;&gt;140676331549760</title>
<path fill="none" stroke="black" d="M652.16,-71.7C652.16,-63.98 652.16,-54.71 652.16,-46.11"/>
<polygon fill="black" stroke="black" points="655.66,-46.1 652.16,-36.1 648.66,-46.1 655.66,-46.1"/>
</g>
<!-- 140676331556976 -->
<g id="node18" class="node">
<title>140676331556976</title>
<ellipse fill="#62757f" fill-opacity="0.600000" stroke="#62757f" stroke-opacity="0.600000" cx="748.16" cy="-18" rx="39.19" ry="18"/>
<text text-anchor="middle" x="748.16" y="-13.8" font-family="Times,serif" font-size="14.00">Skipped</text>
</g>
<!-- 140676331544816&#45;&gt;140676331556976 -->
<g id="edge17" class="edge">
<title>140676331544816&#45;&gt;140676331556976</title>
<path fill="none" stroke="black" d="M672.05,-74.5C685.86,-64.43 704.46,-50.86 719.82,-39.67"/>
<polygon fill="black" stroke="black" points="721.95,-42.45 727.96,-33.73 717.82,-36.79 721.95,-42.45"/>
</g>
<!-- 140676331553856 -->
<g id="node21" class="node">
<title>140676331553856</title>
<ellipse fill="#ff4e33" fill-opacity="0.600000" stroke="#ff4e33" stroke-opacity="0.600000" cx="851.16" cy="-18" rx="46.3" ry="18"/>
<text text-anchor="middle" x="851.16" y="-13.8" font-family="Times,serif" font-size="14.00">TimedOut</text>
</g>
<!-- 140676331552320&#45;&gt;140676331553856 -->
<g id="edge20" class="edge">
<title>140676331552320&#45;&gt;140676331553856</title>
<path fill="none" stroke="black" d="M851.16,-71.7C851.16,-63.98 851.16,-54.71 851.16,-46.11"/>
<polygon fill="black" stroke="black" points="854.66,-46.1 851.16,-36.1 847.66,-46.1 854.66,-46.1"/>
</g>
<!-- 140676331555424 -->
<g id="node22" class="node">
<title>140676331555424</title>
<ellipse fill="#ff5131" fill-opacity="0.600000" stroke="#ff5131" stroke-opacity="0.600000" cx="974.16" cy="-18" rx="58.34" ry="18"/>
<text text-anchor="middle" x="974.16" y="-13.8" font-family="Times,serif" font-size="14.00">TriggerFailed</text>
</g>
<!-- 140676331552320&#45;&gt;140676331555424 -->
<g id="edge21" class="edge">
<title>140676331552320&#45;&gt;140676331555424</title>
<path fill="none" stroke="black" d="M872.87,-76.65C891.09,-66.27 917.49,-51.25 938.76,-39.15"/>
<polygon fill="black" stroke="black" points="940.57,-42.14 947.53,-34.16 937.11,-36.06 940.57,-42.14"/>
</g>
</g>
</svg>
