<?xml version="1.0" encoding="UTF-8" standalone="no"?>
<!DOCTYPE svg PUBLIC "-//W3C//DTD SVG 1.1//EN"
 "http://www.w3.org/Graphics/SVG/1.1/DTD/svg11.dtd">
<!-- Generated by graphviz version 2.40.1 (20161225.0304)
 -->
<!-- Title: %3 Pages: 1 -->
<svg width="489pt" height="260pt"
 viewBox="0.00 0.00 488.73 260.00" xmlns="http://www.w3.org/2000/svg" xmlns:xlink="http://www.w3.org/1999/xlink">
<g id="graph0" class="graph" transform="scale(1 1) rotate(0) translate(4 256)">
<title>%3</title>
<polygon fill="#ffffff" stroke="transparent" points="-4,4 -4,-256 484.7289,-256 484.7289,4 -4,4"/>
<!-- 140346112063512 -->
<g id="node1" class="node">
<title>140346112063512</title>
<ellipse fill="#000000" fill-opacity="0.501961" stroke="#000000" stroke-opacity="0.501961" cx="242.3069" cy="-234" rx="27.5804" ry="18"/>
<text text-anchor="middle" x="242.3069" y="-229.8" font-family="Times,serif" font-size="14.00" fill="#000000">State</text>
</g>
<!-- 140346112065016 -->
<g id="node2" class="node">
<title>140346112065016</title>
<ellipse fill="#d3d3d3" stroke="#d3d3d3" cx="144.3069" cy="-162" rx="39.1887" ry="18"/>
<text text-anchor="middle" x="144.3069" y="-157.8" font-family="Times,serif" font-size="14.00" fill="#000000">Pending</text>
</g>
<!-- 140346112063512&#45;&gt;140346112065016 -->
<g id="edge1" class="edge">
<title>140346112063512&#45;&gt;140346112065016</title>
<path fill="none" stroke="#000000" d="M223.8738,-220.4574C209.7092,-210.0507 189.8705,-195.4753 173.5466,-183.4822"/>
<polygon fill="#000000" stroke="#000000" points="175.5104,-180.5819 165.3792,-177.4817 171.3658,-186.2231 175.5104,-180.5819"/>
</g>
<!-- 140346112069448 -->
<g id="node6" class="node">
<title>140346112069448</title>
<ellipse fill="#00ff00" stroke="#00ff00" cx="242.3069" cy="-162" rx="40.6421" ry="18"/>
<text text-anchor="middle" x="242.3069" y="-157.8" font-family="Times,serif" font-size="14.00" fill="#000000">Running</text>
</g>
<!-- 140346112063512&#45;&gt;140346112069448 -->
<g id="edge5" class="edge">
<title>140346112063512&#45;&gt;140346112069448</title>
<path fill="none" stroke="#000000" d="M242.3069,-215.8314C242.3069,-208.131 242.3069,-198.9743 242.3069,-190.4166"/>
<polygon fill="#000000" stroke="#000000" points="245.807,-190.4132 242.3069,-180.4133 238.807,-190.4133 245.807,-190.4132"/>
</g>
<!-- 140346112070376 -->
<g id="node7" class="node">
<title>140346112070376</title>
<ellipse fill="#ba55d3" stroke="#ba55d3" cx="341.3069" cy="-162" rx="40.6421" ry="18"/>
<text text-anchor="middle" x="341.3069" y="-157.8" font-family="Times,serif" font-size="14.00" fill="#000000">Finished</text>
</g>
<!-- 140346112063512&#45;&gt;140346112070376 -->
<g id="edge6" class="edge">
<title>140346112063512&#45;&gt;140346112070376</title>
<path fill="none" stroke="#000000" d="M260.928,-220.4574C275.2372,-210.0507 295.2783,-195.4753 311.7688,-183.4822"/>
<polygon fill="#000000" stroke="#000000" points="313.9907,-186.1941 320.0195,-177.4817 309.8735,-180.5329 313.9907,-186.1941"/>
</g>
<!-- 140346112065944 -->
<g id="node3" class="node">
<title>140346112065944</title>
<ellipse fill="#ffa500" stroke="#ffa500" cx="54.3069" cy="-90" rx="54.1144" ry="18"/>
<text text-anchor="middle" x="54.3069" y="-85.8" font-family="Times,serif" font-size="14.00" fill="#000000">CachedState</text>
</g>
<!-- 140346112065016&#45;&gt;140346112065944 -->
<g id="edge2" class="edge">
<title>140346112065016&#45;&gt;140346112065944</title>
<path fill="none" stroke="#000000" d="M124.7782,-146.3771C112.705,-136.7185 96.9843,-124.142 83.4553,-113.3188"/>
<polygon fill="#000000" stroke="#000000" points="85.3622,-110.3621 75.367,-106.8481 80.9893,-115.8282 85.3622,-110.3621"/>
</g>
<!-- 140346112067592 -->
<g id="node4" class="node">
<title>140346112067592</title>
<ellipse fill="#b0c4de" stroke="#b0c4de" cx="173.3069" cy="-90" rx="46.8891" ry="18"/>
<text text-anchor="middle" x="173.3069" y="-85.8" font-family="Times,serif" font-size="14.00" fill="#000000">Scheduled</text>
</g>
<!-- 140346112065016&#45;&gt;140346112067592 -->
<g id="edge3" class="edge">
<title>140346112065016&#45;&gt;140346112067592</title>
<path fill="none" stroke="#000000" d="M151.4754,-144.2022C154.7519,-136.0675 158.7061,-126.2501 162.344,-117.2181"/>
<polygon fill="#000000" stroke="#000000" points="165.6307,-118.4261 166.1203,-107.8425 159.1376,-115.8107 165.6307,-118.4261"/>
</g>
<!-- 140346112068520 -->
<g id="node5" class="node">
<title>140346112068520</title>
<ellipse fill="#ffff00" fill-opacity="0.501961" stroke="#ffff00" stroke-opacity="0.501961" cx="173.3069" cy="-18" rx="41.1093" ry="18"/>
<text text-anchor="middle" x="173.3069" y="-13.8" font-family="Times,serif" font-size="14.00" fill="#000000">Retrying</text>
</g>
<!-- 140346112067592&#45;&gt;140346112068520 -->
<g id="edge4" class="edge">
<title>140346112067592&#45;&gt;140346112068520</title>
<path fill="none" stroke="#000000" d="M173.3069,-71.8314C173.3069,-64.131 173.3069,-54.9743 173.3069,-46.4166"/>
<polygon fill="#000000" stroke="#000000" points="176.807,-46.4132 173.3069,-36.4133 169.807,-46.4133 176.807,-46.4132"/>
</g>
<!-- 140346112071304 -->
<g id="node8" class="node">
<title>140346112071304</title>
<ellipse fill="#008000" fill-opacity="0.501961" stroke="#008000" stroke-opacity="0.501961" cx="313.3069" cy="-90" rx="38.211" ry="18"/>
<text text-anchor="middle" x="313.3069" y="-85.8" font-family="Times,serif" font-size="14.00" fill="#000000">Success</text>
</g>
<!-- 140346112070376&#45;&gt;140346112071304 -->
<g id="edge7" class="edge">
<title>140346112070376&#45;&gt;140346112071304</title>
<path fill="none" stroke="#000000" d="M334.3855,-144.2022C331.222,-136.0675 327.4041,-126.2501 323.8917,-117.2181"/>
<polygon fill="#000000" stroke="#000000" points="327.1322,-115.894 320.2456,-107.8425 320.6082,-118.4312 327.1322,-115.894"/>
</g>
<!-- 140346112072232 -->
<g id="node10" class="node">
<title>140346112072232</title>
<ellipse fill="#ff0000" fill-opacity="0.749020" stroke="#ff0000" stroke-opacity="0.749020" cx="415.3069" cy="-90" rx="32.4237" ry="18"/>
<text text-anchor="middle" x="415.3069" y="-85.8" font-family="Times,serif" font-size="14.00" fill="#000000">Failed</text>
</g>
<!-- 140346112070376&#45;&gt;140346112072232 -->
<g id="edge9" class="edge">
<title>140346112070376&#45;&gt;140346112072232</title>
<path fill="none" stroke="#000000" d="M358.47,-145.3008C368.4608,-135.5799 381.1914,-123.1935 392.0705,-112.6084"/>
<polygon fill="#000000" stroke="#000000" points="394.5234,-115.1051 399.25,-105.6229 389.6419,-110.088 394.5234,-115.1051"/>
</g>
<!-- 140346112074088 -->
<g id="node9" class="node">
<title>140346112074088</title>
<ellipse fill="#f0fff0" stroke="#f0fff0" cx="306.3069" cy="-18" rx="39.1887" ry="18"/>
<text text-anchor="middle" x="306.3069" y="-13.8" font-family="Times,serif" font-size="14.00" fill="#000000">Skipped</text>
</g>
<!-- 140346112071304&#45;&gt;140346112074088 -->
<g id="edge8" class="edge">
<title>140346112071304&#45;&gt;140346112074088</title>
<path fill="none" stroke="#000000" d="M311.5405,-71.8314C310.7918,-64.131 309.9016,-54.9743 309.0696,-46.4166"/>
<polygon fill="#000000" stroke="#000000" points="312.5484,-46.0276 308.0971,-36.4133 305.5812,-46.7051 312.5484,-46.0276"/>
</g>
<!-- 140346112073160 -->
<g id="node11" class="node">
<title>140346112073160</title>
<ellipse fill="#f08080" fill-opacity="0.501961" stroke="#f08080" stroke-opacity="0.501961" cx="422.3069" cy="-18" rx="58.3442" ry="18"/>
<text text-anchor="middle" x="422.3069" y="-13.8" font-family="Times,serif" font-size="14.00" fill="#000000">TriggerFailed</text>
</g>
<!-- 140346112072232&#45;&gt;140346112073160 -->
<g id="edge10" class="edge">
<title>140346112072232&#45;&gt;140346112073160</title>
<path fill="none" stroke="#000000" d="M417.0733,-71.8314C417.8219,-64.131 418.7121,-54.9743 419.5441,-46.4166"/>
<polygon fill="#000000" stroke="#000000" points="423.0325,-46.7051 420.5167,-36.4133 416.0654,-46.0276 423.0325,-46.7051"/>
</g>
</g>
</svg>
