<?xml version="1.0" encoding="UTF-8" standalone="no"?>
<!DOCTYPE svg PUBLIC "-//W3C//DTD SVG 1.1//EN"
 "http://www.w3.org/Graphics/SVG/1.1/DTD/svg11.dtd">
<!-- Generated by graphviz version 2.40.1 (20161225.0304)
 -->
<!-- Title: %3 Pages: 1 -->
<svg width="777pt" height="260pt"
 viewBox="0.00 0.00 776.58 260.00" xmlns="http://www.w3.org/2000/svg" xmlns:xlink="http://www.w3.org/1999/xlink">
<g id="graph0" class="graph" transform="scale(1 1) rotate(0) translate(4 256)">
<title>%3</title>
<polygon fill="#ffffff" stroke="transparent" points="-4,4 -4,-256 772.5825,-256 772.5825,4 -4,4"/>
<!-- 140324911128872 -->
<g id="node1" class="node">
<title>140324911128872</title>
<ellipse fill="#000000" fill-opacity="0.600000" stroke="#000000" stroke-opacity="0.600000" cx="291.1604" cy="-234" rx="27.5804" ry="18"/>
<text text-anchor="middle" x="291.1604" y="-229.8" font-family="Times,serif" font-size="14.00" fill="#000000">State</text>
</g>
<!-- 140324911131992 -->
<g id="node2" class="node">
<title>140324911131992</title>
<ellipse fill="#d3d3d3" fill-opacity="0.600000" stroke="#d3d3d3" stroke-opacity="0.600000" cx="135.1604" cy="-162" rx="39.1887" ry="18"/>
<text text-anchor="middle" x="135.1604" y="-157.8" font-family="Times,serif" font-size="14.00" fill="#000000">Pending</text>
</g>
<!-- 140324911128872&#45;&gt;140324911131992 -->
<g id="edge1" class="edge">
<title>140324911128872&#45;&gt;140324911131992</title>
<path fill="none" stroke="#000000" d="M268.4767,-223.5306C243.2373,-211.8816 202.0774,-192.8848 172.1605,-179.0769"/>
<polygon fill="#000000" stroke="#000000" points="173.423,-175.8049 162.8767,-174.7921 170.4895,-182.1606 173.423,-175.8049"/>
</g>
<!-- 140324911135624 -->
<g id="node7" class="node">
<title>140324911135624</title>
<ellipse fill="#b0c4de" fill-opacity="0.600000" stroke="#b0c4de" stroke-opacity="0.600000" cx="239.1604" cy="-162" rx="46.4304" ry="18"/>
<text text-anchor="middle" x="239.1604" y="-157.8" font-family="Times,serif" font-size="14.00" fill="#000000">Submitted</text>
</g>
<!-- 140324911128872&#45;&gt;140324911135624 -->
<g id="edge6" class="edge">
<title>140324911128872&#45;&gt;140324911135624</title>
<path fill="none" stroke="#000000" d="M279.3608,-217.6621C273.0105,-208.8694 265.03,-197.8194 257.8566,-187.887"/>
<polygon fill="#000000" stroke="#000000" points="260.5142,-185.5888 251.8218,-179.5312 254.8394,-189.6872 260.5142,-185.5888"/>
</g>
<!-- 140324911141576 -->
<g id="node9" class="node">
<title>140324911141576</title>
<ellipse fill="#00ff00" fill-opacity="0.600000" stroke="#00ff00" stroke-opacity="0.600000" cx="344.1604" cy="-162" rx="40.6421" ry="18"/>
<text text-anchor="middle" x="344.1604" y="-157.8" font-family="Times,serif" font-size="14.00" fill="#000000">Running</text>
</g>
<!-- 140324911128872&#45;&gt;140324911141576 -->
<g id="edge8" class="edge">
<title>140324911128872&#45;&gt;140324911141576</title>
<path fill="none" stroke="#000000" d="M303.1869,-217.6621C309.7724,-208.7157 318.0782,-197.4325 325.4872,-187.3674"/>
<polygon fill="#000000" stroke="#000000" points="328.3329,-189.4055 331.4424,-179.2773 322.6955,-185.2558 328.3329,-189.4055"/>
</g>
<!-- 140324911142504 -->
<g id="node10" class="node">
<title>140324911142504</title>
<ellipse fill="#ba55d3" fill-opacity="0.600000" stroke="#ba55d3" stroke-opacity="0.600000" cx="443.1604" cy="-162" rx="40.6421" ry="18"/>
<text text-anchor="middle" x="443.1604" y="-157.8" font-family="Times,serif" font-size="14.00" fill="#000000">Finished</text>
</g>
<!-- 140324911128872&#45;&gt;140324911142504 -->
<g id="edge9" class="edge">
<title>140324911128872&#45;&gt;140324911142504</title>
<path fill="none" stroke="#000000" d="M313.9164,-223.2209C338.2474,-211.6956 377.21,-193.2397 406.0016,-179.6015"/>
<polygon fill="#000000" stroke="#000000" points="407.8009,-182.6221 415.34,-175.1781 404.8043,-176.2959 407.8009,-182.6221"/>
</g>
<!-- 140324911132920 -->
<g id="node3" class="node">
<title>140324911132920</title>
<ellipse fill="#800000" fill-opacity="0.600000" stroke="#800000" stroke-opacity="0.600000" cx="35.1604" cy="-90" rx="35.3216" ry="18"/>
<text text-anchor="middle" x="35.1604" y="-85.8" font-family="Times,serif" font-size="14.00" fill="#000000">Paused</text>
</g>
<!-- 140324911131992&#45;&gt;140324911132920 -->
<g id="edge2" class="edge">
<title>140324911131992&#45;&gt;140324911132920</title>
<path fill="none" stroke="#000000" d="M113.953,-146.7307C99.4408,-136.2819 80.0196,-122.2986 64.0903,-110.8295"/>
<polygon fill="#000000" stroke="#000000" points="65.8138,-107.7576 55.6533,-104.7549 61.7236,-113.4384 65.8138,-107.7576"/>
</g>
<!-- 140324911133848 -->
<g id="node4" class="node">
<title>140324911133848</title>
<ellipse fill="#b0c4de" fill-opacity="0.600000" stroke="#b0c4de" stroke-opacity="0.600000" cx="135.1604" cy="-90" rx="46.8891" ry="18"/>
<text text-anchor="middle" x="135.1604" y="-85.8" font-family="Times,serif" font-size="14.00" fill="#000000">Scheduled</text>
</g>
<!-- 140324911131992&#45;&gt;140324911133848 -->
<g id="edge3" class="edge">
<title>140324911131992&#45;&gt;140324911133848</title>
<path fill="none" stroke="#000000" d="M135.1604,-143.8314C135.1604,-136.131 135.1604,-126.9743 135.1604,-118.4166"/>
<polygon fill="#000000" stroke="#000000" points="138.6605,-118.4132 135.1604,-108.4133 131.6605,-118.4133 138.6605,-118.4132"/>
</g>
<!-- 140324911138264 -->
<g id="node5" class="node">
<title>140324911138264</title>
<ellipse fill="#20b2aa" fill-opacity="0.600000" stroke="#20b2aa" stroke-opacity="0.600000" cx="90.1604" cy="-18" rx="38.6955" ry="18"/>
<text text-anchor="middle" x="90.1604" y="-13.8" font-family="Times,serif" font-size="14.00" fill="#000000">Resume</text>
</g>
<!-- 140324911133848&#45;&gt;140324911138264 -->
<g id="edge4" class="edge">
<title>140324911133848&#45;&gt;140324911138264</title>
<path fill="none" stroke="#000000" d="M124.0368,-72.2022C118.7115,-63.6817 112.2323,-53.315 106.372,-43.9385"/>
<polygon fill="#000000" stroke="#000000" points="109.2688,-41.9696 101.0008,-35.3446 103.3328,-45.6796 109.2688,-41.9696"/>
</g>
<!-- 140324911139816 -->
<g id="node6" class="node">
<title>140324911139816</title>
<ellipse fill="#ffff00" fill-opacity="0.600000" stroke="#ffff00" stroke-opacity="0.600000" cx="188.1604" cy="-18" rx="41.1093" ry="18"/>
<text text-anchor="middle" x="188.1604" y="-13.8" font-family="Times,serif" font-size="14.00" fill="#000000">Retrying</text>
</g>
<!-- 140324911133848&#45;&gt;140324911139816 -->
<g id="edge5" class="edge">
<title>140324911133848&#45;&gt;140324911139816</title>
<path fill="none" stroke="#000000" d="M147.9902,-72.5708C154.4352,-63.8153 162.3658,-53.0418 169.473,-43.3867"/>
<polygon fill="#000000" stroke="#000000" points="172.3392,-45.3969 175.4488,-35.2687 166.7019,-41.2472 172.3392,-45.3969"/>
</g>
<!-- 140324911137336 -->
<g id="node8" class="node">
<title>140324911137336</title>
<ellipse fill="#b0c4de" fill-opacity="0.600000" stroke="#b0c4de" stroke-opacity="0.600000" cx="239.1604" cy="-90" rx="37.7179" ry="18"/>
<text text-anchor="middle" x="239.1604" y="-85.8" font-family="Times,serif" font-size="14.00" fill="#000000">Queued</text>
</g>
<!-- 140324911135624&#45;&gt;140324911137336 -->
<g id="edge7" class="edge">
<title>140324911135624&#45;&gt;140324911137336</title>
<path fill="none" stroke="#000000" d="M239.1604,-143.8314C239.1604,-136.131 239.1604,-126.9743 239.1604,-118.4166"/>
<polygon fill="#000000" stroke="#000000" points="242.6605,-118.4132 239.1604,-108.4133 235.6605,-118.4133 242.6605,-118.4132"/>
</g>
<!-- 140324911143432 -->
<g id="node11" class="node">
<title>140324911143432</title>
<ellipse fill="#008000" fill-opacity="0.600000" stroke="#008000" stroke-opacity="0.600000" cx="438.1604" cy="-90" rx="38.211" ry="18"/>
<text text-anchor="middle" x="438.1604" y="-85.8" font-family="Times,serif" font-size="14.00" fill="#000000">Success</text>
</g>
<!-- 140324911142504&#45;&gt;140324911143432 -->
<g id="edge10" class="edge">
<title>140324911142504&#45;&gt;140324911143432</title>
<path fill="none" stroke="#000000" d="M441.8987,-143.8314C441.364,-136.131 440.7281,-126.9743 440.1338,-118.4166"/>
<polygon fill="#000000" stroke="#000000" points="443.6236,-118.1467 439.4391,-108.4133 436.6404,-118.6317 443.6236,-118.1467"/>
</g>
<!-- 140324911148792 -->
<g id="node15" class="node">
<title>140324911148792</title>
<ellipse fill="#ff0000" fill-opacity="0.600000" stroke="#ff0000" stroke-opacity="0.600000" cx="587.1604" cy="-90" rx="32.4237" ry="18"/>
<text text-anchor="middle" x="587.1604" y="-85.8" font-family="Times,serif" font-size="14.00" fill="#000000">Failed</text>
</g>
<!-- 140324911142504&#45;&gt;140324911148792 -->
<g id="edge14" class="edge">
<title>140324911142504&#45;&gt;140324911148792</title>
<path fill="none" stroke="#000000" d="M470.2457,-148.4574C493.9411,-136.6096 528.4427,-119.3589 553.8272,-106.6666"/>
<polygon fill="#000000" stroke="#000000" points="555.6892,-109.6488 563.0682,-102.0461 552.5587,-103.3878 555.6892,-109.6488"/>
</g>
<!-- 140324911144360 -->
<g id="node12" class="node">
<title>140324911144360</title>
<ellipse fill="#ffa500" fill-opacity="0.600000" stroke="#ffa500" stroke-opacity="0.600000" cx="294.1604" cy="-18" rx="36.7489" ry="18"/>
<text text-anchor="middle" x="294.1604" y="-13.8" font-family="Times,serif" font-size="14.00" fill="#000000">Cached</text>
</g>
<!-- 140324911143432&#45;&gt;140324911144360 -->
<g id="edge11" class="edge">
<title>140324911143432&#45;&gt;140324911144360</title>
<path fill="none" stroke="#000000" d="M411.7486,-76.7941C388.4636,-65.1516 354.3719,-48.1057 328.885,-35.3623"/>
<polygon fill="#000000" stroke="#000000" points="330.4299,-32.2216 319.9203,-30.8799 327.2993,-38.4826 330.4299,-32.2216"/>
</g>
<!-- 140324911146968 -->
<g id="node13" class="node">
<title>140324911146968</title>
<ellipse fill="#97ffff" fill-opacity="0.600000" stroke="#97ffff" stroke-opacity="0.600000" cx="388.1604" cy="-18" rx="39.1713" ry="18"/>
<text text-anchor="middle" x="388.1604" y="-13.8" font-family="Times,serif" font-size="14.00" fill="#000000">Mapped</text>
</g>
<!-- 140324911143432&#45;&gt;140324911146968 -->
<g id="edge12" class="edge">
<title>140324911143432&#45;&gt;140324911146968</title>
<path fill="none" stroke="#000000" d="M426.0568,-72.5708C420.0381,-63.9038 412.646,-53.2592 405.9935,-43.6796"/>
<polygon fill="#000000" stroke="#000000" points="408.7314,-41.486 400.1526,-35.2687 402.9818,-45.4788 408.7314,-41.486"/>
</g>
<!-- 140324911151576 -->
<g id="node14" class="node">
<title>140324911151576</title>
<ellipse fill="#f0fff0" fill-opacity="0.600000" stroke="#f0fff0" stroke-opacity="0.600000" cx="484.1604" cy="-18" rx="39.1887" ry="18"/>
<text text-anchor="middle" x="484.1604" y="-13.8" font-family="Times,serif" font-size="14.00" fill="#000000">Skipped</text>
</g>
<!-- 140324911143432&#45;&gt;140324911151576 -->
<g id="edge13" class="edge">
<title>140324911143432&#45;&gt;140324911151576</title>
<path fill="none" stroke="#000000" d="M449.2957,-72.5708C454.7765,-63.9922 461.4951,-53.4762 467.5665,-43.9732"/>
<polygon fill="#000000" stroke="#000000" points="470.6932,-45.58 473.1277,-35.2687 464.7943,-41.8113 470.6932,-45.58"/>
</g>
<!-- 140324911149720 -->
<g id="node16" class="node">
<title>140324911149720</title>
<ellipse fill="#cdc9a5" fill-opacity="0.600000" stroke="#cdc9a5" stroke-opacity="0.600000" cx="587.1604" cy="-18" rx="46.3005" ry="18"/>
<text text-anchor="middle" x="587.1604" y="-13.8" font-family="Times,serif" font-size="14.00" fill="#000000">TimedOut</text>
</g>
<!-- 140324911148792&#45;&gt;140324911149720 -->
<g id="edge15" class="edge">
<title>140324911148792&#45;&gt;140324911149720</title>
<path fill="none" stroke="#000000" d="M587.1604,-71.8314C587.1604,-64.131 587.1604,-54.9743 587.1604,-46.4166"/>
<polygon fill="#000000" stroke="#000000" points="590.6605,-46.4132 587.1604,-36.4133 583.6605,-46.4133 590.6605,-46.4132"/>
</g>
<!-- 140324911150648 -->
<g id="node17" class="node">
<title>140324911150648</title>
<ellipse fill="#f08080" fill-opacity="0.600000" stroke="#f08080" stroke-opacity="0.600000" cx="710.1604" cy="-18" rx="58.3442" ry="18"/>
<text text-anchor="middle" x="710.1604" y="-13.8" font-family="Times,serif" font-size="14.00" fill="#000000">TriggerFailed</text>
</g>
<!-- 140324911148792&#45;&gt;140324911150648 -->
<g id="edge16" class="edge">
<title>140324911148792&#45;&gt;140324911150648</title>
<path fill="none" stroke="#000000" d="M609.4348,-76.9613C627.4862,-66.3946 653.2759,-51.2983 674.24,-39.0266"/>
<polygon fill="#000000" stroke="#000000" points="676.0305,-42.0341 682.8926,-33.9617 672.4943,-35.993 676.0305,-42.0341"/>
</g>
</g>
</svg>
