<svg id="PREFECT_LOGO" data-name="PREFECT LOGO" xmlns="http://www.w3.org/2000/svg" xmlns:xlink="http://www.w3.org/1999/xlink" viewBox="0 0 2010 800"><defs><style>.cls-1{fill:#465968;}.cls-1,.cls-2,.cls-3,.cls-4,.cls-5{fill-rule:evenodd;}.cls-2{fill:url(#linear-gradient);}.cls-3{fill:#0d3958;fill-opacity:0.2;}.cls-4{fill:url(#linear-gradient-2);}.cls-5{fill:url(#linear-gradient-3);}</style><linearGradient id="linear-gradient" x1="1203.3" y1="-429.44" x2="1202.71" y2="-430.05" gradientTransform="translate(-278361.27 101786.32) scale(231.75 235.91)" gradientUnits="userSpaceOnUse"><stop offset="0" stop-color="#b4c0c9"/><stop offset="1" stop-color="#94a5b2"/></linearGradient><linearGradient id="linear-gradient-2" x1="1895.95" y1="-658.97" x2="1896.84" y2="-658.24" gradientTransform="translate(-438910.57 338958.38) scale(231.6 513.83)" gradientUnits="userSpaceOnUse"><stop offset="0" stop-color="#647989"/><stop offset="1" stop-color="#2f383e"/></linearGradient><linearGradient id="linear-gradient-3" x1="1899.79" y1="-659.79" x2="1900.28" y2="-659.19" gradientTransform="translate(-863631.67 229048.42) scale(454.75 346.97)" gradientUnits="userSpaceOnUse"><stop offset="0" stop-color="#2edaff"/><stop offset="0.97" stop-color="#3b8fff"/><stop offset="1" stop-color="#3b8dff"/></linearGradient></defs><title>Artboard 1</title><g id="LOGOTYPE"><path id="PREFECT" class="cls-1" d="M722.79,482.9V317.1h96.5c44.2,0,60.5,14.8,60.5,54s-16.3,53.7-60.5,53.7h-64.2v58.1Zm32.3-86.6h61.2c23.2,0,31.1-6.2,31.1-25.2s-7.9-25.5-31.1-25.5h-61.2Zm147.7,86.6V317.1h94.6c42.4,0,58,14.6,58,52.7,0,32.2-11.1,47.3-40,51.2l48.2,61.9h-39.5L977.39,422h-43.1v60.9Zm31.6-89.1h60.4c21.7,0,29.1-6.2,29.1-23.8,0-18.1-7.7-24.5-29.1-24.5h-60.4ZM1079,482.9V317.1h143.6v28.5h-111.8v39.1h95v28.2h-95v41.6h113.8v28.4Zm172.3,0V317.1h145.5v28.5h-113v39.1h95.9v28.2h-95.9v70Zm164.7,0V317.1h143.6v28.5h-111.8v39.1h95.1v28.2h-95.1v41.6h113.8v28.4Zm317.9-165.8h145.5v29h-60.5V482.9h-32.2V346h-119.8c-57.8,0-57.9-.5-57.9,54s0,54.5,57.9,54.5h52.2v28.4h-52.2c-90.1,0-90.1-5.4-90.1-82.9s-1.3-82.9,90.1-82.9Z"/></g><g id="LOGOMARK"><g id="middle-triangle"><g id="triangle"><polygon class="cls-2" points="557.69 380.12 362.55 282.35 362.55 481.08 557.69 380.12"/></g><polygon id="left-shadow" class="cls-3" points="387.4 468.2 362.55 320.48 362.55 481.08 387.4 468.2"/><polygon id="right-shadow" class="cls-3" points="532.68 367.49 362.55 282.35 362.55 304.02 532.68 367.49"/></g><path id="bottom" class="cls-4" d="M179.38,713.05c.41-.24,179.26-86.94,179.42-87,2.44-1.47,3.83-1.87,3.91-6.19,0-.41-.08-337.5-.08-337.5-75.78,37.89-182.44,91.1-191.64,96-2.94,1.63-3.34,3-3.34,5.13V704.33C167.56,711.58,168.05,718.76,179.38,713.05Z"/><path id="top" class="cls-5" d="M557.69,188.89V380S193.64,197.93,181,191.41c-8.39-4.4-8.39-8.55,0-13.28,7.74-4.32,155.46-78,178.12-89.3,2.93-1.31,3.83-1.31,6.43-.25L554,183c2.69,1.3,3.5,2.61,3.66,5.87Z"/></g></svg>