<svg width="323" height="76" viewBox="0 0 323 76" fill="none" xmlns="http://www.w3.org/2000/svg">
<path fill-rule="evenodd" clip-rule="evenodd" d="M15.8895 15.4725L38 26.9448V49.4725L59.9094 38.1044L60.1104 38.2086V38.0001V15.4725V15.2639L59.9094 15.3682L38 4.00006L15.8895 15.4725Z" fill="url(#paint0_linear_1_75)"/>
<path fill-rule="evenodd" clip-rule="evenodd" d="M37.7989 49.1595L15.8896 37.7915V60.5276L15.8895 60.5276L15.8896 60.5276V60.7363L16.0907 60.632L38 72V49.2639L38 49.2639L38 49.2639V49.0552L37.7989 49.1595Z" fill="#C7EBFF"/>
<path fill-rule="evenodd" clip-rule="evenodd" d="M89 54.9953V21H108.523C117.468 21 120.765 24.0347 120.765 32.0746C120.765 40.1145 117.468 43.0888 108.523 43.0888H95.5336V55L89 54.9953ZM95.5336 37.2378H107.913C112.608 37.2378 114.204 35.9645 114.204 32.0653C114.204 28.1662 112.608 26.8371 107.913 26.8371H95.5336V37.2378ZM125.419 54.9953V21H144.556C153.135 21 156.294 23.9929 156.294 31.8097C156.294 38.4136 154.047 41.5087 148.202 42.3081L157.94 54.9953H149.962L140.517 42.5079H131.806V54.9953H125.419ZM131.806 36.7266H144.029C148.417 36.7266 149.916 35.4533 149.916 31.8423C149.916 28.1244 148.357 26.8185 144.029 26.8185H131.806V36.7266ZM161.062 54.9953V21H190.118V26.8417H167.504V34.8584H186.725V40.6443H167.504V49.1722H190.526V54.9953H161.062ZM195.908 54.9953V21H225.344V26.8417H202.502V34.8584H221.905V40.6443H202.506V54.9953H195.908ZM229.228 54.9953V21H258.306V26.8417H235.688V34.8584H254.945V40.6443H235.688V49.1722H258.714V54.9953H229.228ZM293.573 21H323V26.9347H310.758V54.9861H304.257V26.9254H280.016C268.324 26.9254 268.301 26.8231 268.301 37.9954C268.301 49.1676 268.301 49.1769 280.016 49.1769H290.561V55H280.016C261.79 55 261.79 53.8939 261.79 37.9954C261.79 22.0968 261.524 21 280.016 21H293.573Z" fill="white"/>
<defs>
<linearGradient id="paint0_linear_1_75" x1="38" y1="4.00006" x2="38" y2="49.4725" gradientUnits="userSpaceOnUse">
<stop stop-color="#1D46D4"/>
<stop offset="1" stop-color="#89D5FF"/>
</linearGradient>
</defs>
</svg>
