<svg width="691" height="165" viewBox="0 0 691 165" fill="none" xmlns="http://www.w3.org/2000/svg">
<path fill-rule="evenodd" clip-rule="evenodd" d="M0 27.5L53 55V110L106 82.5V27.5L53 0L0 27.5Z" fill="#2D6DF6"/>
<path fill-rule="evenodd" clip-rule="evenodd" d="M0 27.5L53 55V110L106 82.5V27.5L53 0L0 27.5Z" fill="url(#paint0_linear_2070_5701)"/>
<path fill-rule="evenodd" clip-rule="evenodd" d="M53 110L0 82.5V137.5L53 165V110Z" fill="#080D33"/>
<path fill-rule="evenodd" clip-rule="evenodd" d="M180 130.15V57H222.58C242.09 57 249.28 63.53 249.28 80.83C249.28 98.13 242.09 104.53 222.58 104.53H194.25V130.16L180 130.15ZM194.25 91.94H221.25C231.49 91.94 234.97 89.2 234.97 80.81C234.97 72.42 231.49 69.56 221.25 69.56H194.25V91.94ZM259.43 130.15V57H301.17C319.88 57 326.77 63.44 326.77 80.26C326.77 94.47 321.87 101.13 309.12 102.85L330.36 130.15H312.96L292.36 103.28H273.36V130.15H259.43ZM273.36 90.84H300.02C309.59 90.84 312.86 88.1 312.86 80.33C312.86 72.33 309.46 69.52 300.02 69.52H273.36V90.84ZM337.17 130.15V57H400.54V69.57H351.22V86.82H393.14V99.27H351.22V117.62H401.43V130.15H337.17ZM413.17 130.15V57H477.37V69.57H427.55V86.82H469.87V99.27H427.56V130.15H413.17ZM485.84 130.15V57H549.26V69.57H499.93V86.82H541.93V99.27H499.93V117.62H550.15V130.15H485.84ZM626.18 57H690.36V69.77H663.66V130.13H649.48V69.75H596.61C571.11 69.75 571.06 69.53 571.06 93.57C571.06 117.61 571.06 117.63 596.61 117.63H619.61V130.16H596.61C556.86 130.16 556.86 127.78 556.86 93.57C556.86 59.36 556.28 57 596.61 57H626.18Z" fill="#080D33"/>
<defs>
<linearGradient id="paint0_linear_2070_5701" x1="53" y1="1" x2="53" y2="110" gradientUnits="userSpaceOnUse">
<stop stop-color="#1C44D2"/>
<stop offset="0.369792" stop-color="#2D6DF6"/>
<stop offset="1" stop-color="#89D5FF"/>
</linearGradient>
</defs>
</svg>
