<svg width="678" height="164" viewBox="0 0 678 164" fill="none" xmlns="http://www.w3.org/2000/svg">
<path fill-rule="evenodd" clip-rule="evenodd" d="M0 27.5L53 55V109L105.518 81.75L106 82V81.5V27.5V27L105.518 27.25L53 0L0 27.5Z" fill="#2D6DF6"/>
<path fill-rule="evenodd" clip-rule="evenodd" d="M0 27.5L53 55V109L105.518 81.75L106 82V81.5V27.5V27L105.518 27.25L53 0L0 27.5Z" fill="url(#paint0_linear_2106_9899)"/>
<path fill-rule="evenodd" clip-rule="evenodd" d="M53 109L0 81.5V136.5L53 164V109Z" fill="#C7EBFF"/>
<path fill-rule="evenodd" clip-rule="evenodd" d="M167 126.15V53H209.58C229.09 53 236.28 59.53 236.28 76.83C236.28 94.13 229.09 100.53 209.58 100.53H181.25V126.16L167 126.15ZM181.25 87.94H208.25C218.49 87.94 221.97 85.2 221.97 76.81C221.97 68.42 218.49 65.56 208.25 65.56H181.25V87.94ZM246.43 126.15V53H288.17C306.88 53 313.77 59.44 313.77 76.26C313.77 90.47 308.87 97.13 296.12 98.85L317.36 126.15H299.96L279.36 99.28H260.36V126.15H246.43ZM260.36 86.84H287.02C296.59 86.84 299.86 84.1 299.86 76.33C299.86 68.33 296.46 65.52 287.02 65.52H260.36V86.84ZM324.17 126.15V53H387.54V65.57H338.22V82.82H380.14V95.27H338.22V113.62H388.43V126.15H324.17ZM400.17 126.15V53H464.37V65.57H414.55V82.82H456.87V95.27H414.56V126.15H400.17ZM472.84 126.15V53H536.26V65.57H486.93V82.82H528.93V95.27H486.93V113.62H537.15V126.15H472.84ZM613.18 53H677.36V65.77H650.66V126.13H636.48V65.75H583.61C558.11 65.75 558.06 65.53 558.06 89.57C558.06 113.61 558.06 113.63 583.61 113.63H606.61V126.16H583.61C543.86 126.16 543.86 123.78 543.86 89.57C543.86 55.36 543.28 53 583.61 53H613.18Z" fill="white"/>
<defs>
<linearGradient id="paint0_linear_2106_9899" x1="53" y1="0" x2="53" y2="109" gradientUnits="userSpaceOnUse">
<stop stop-color="#1C44D2"/>
<stop offset="0.369792" stop-color="#2D6DF6"/>
<stop offset="1" stop-color="#89D5FF"/>
</linearGradient>
</defs>
</svg>
