<?xml version="1.0" encoding="UTF-8"?>
<svg width="604px" height="446px" viewBox="0 0 604 446" version="1.1" xmlns="http://www.w3.org/2000/svg" xmlns:xlink="http://www.w3.org/1999/xlink">
    <!-- Generator: Sketch 54.1 (76490) - https://sketchapp.com -->
    <title>Core Illustration Copy</title>
    <desc>Created with Sketch.</desc>
    <defs>
        <linearGradient x1="0%" y1="46.3640954%" x2="100%" y2="53.6359046%" id="linearGradient-1">
            <stop stop-color="#0049F3" offset="0%"></stop>
            <stop stop-color="#003BA7" offset="100%"></stop>
        </linearGradient>
        <linearGradient x1="0%" y1="0%" x2="100%" y2="100%" id="linearGradient-2">
            <stop stop-color="#0048F3" offset="0%"></stop>
            <stop stop-color="#003BA7" offset="100%"></stop>
        </linearGradient>
        <linearGradient x1="100%" y1="1.81075947%" x2="0%" y2="98.1892405%" id="linearGradient-3">
            <stop stop-color="#0049F5" offset="0%"></stop>
            <stop stop-color="#003BA7" offset="100%"></stop>
        </linearGradient>
        <linearGradient x1="0%" y1="46.4669124%" x2="100%" y2="53.5330876%" id="linearGradient-4">
            <stop stop-color="#0049F5" offset="0%"></stop>
            <stop stop-color="#003BA6" offset="100%"></stop>
        </linearGradient>
        <linearGradient x1="0%" y1="46.4669124%" x2="100%" y2="53.5330876%" id="linearGradient-5">
            <stop stop-color="#0049F4" offset="0%"></stop>
            <stop stop-color="#003BA7" offset="100%"></stop>
        </linearGradient>
        <linearGradient x1="0%" y1="49.2941868%" x2="100%" y2="50.7058132%" id="linearGradient-6">
            <stop stop-color="#FF01CB" offset="0%"></stop>
            <stop stop-color="#FF4E20" offset="100%"></stop>
        </linearGradient>
    </defs>
    <g id="Design" stroke="none" stroke-width="1" fill="none" fill-rule="evenodd">
        <g id="PrefectCore-HD-v4" transform="translate(-641.000000, -195.000000)">
            <g id="Core-Illustration-Copy" transform="translate(641.000000, 195.000000)">
                <rect id="Rectangle-Copy-42" fill="#06297B" x="250" y="216" width="158" height="42"></rect>
                <rect id="Rectangle-Copy-49" fill="#06297B" x="250" y="161" width="158" height="42"></rect>
                <path d="M331,209 C348.120827,209 362,195.120827 362,178 C362,160.879173 348.120827,147 331,147 C313.879173,147 300,160.879173 300,178 C300,195.120827 313.879173,209 331,209 Z" id="Oval" stroke="#FFFFFF" stroke-dasharray="1,6"></path>
                <path d="M331,244 C367.450793,244 397,214.450793 397,178 C397,141.549207 367.450793,112 331,112 C294.549207,112 265,141.549207 265,178 C265,214.450793 294.549207,244 331,244 Z" id="Oval" stroke="#FFFFFF" stroke-dasharray="1,6"></path>
                <path d="M331,309 C403.349302,309 462,250.349302 462,178 C462,105.650698 403.349302,47 331,47 C258.650698,47 200,105.650698 200,178 C200,250.349302 258.650698,309 331,309 Z" id="Oval" stroke="#FFFFFF" stroke-dasharray="1,6"></path>
                <rect id="Rectangle-Copy-48" fill="url(#linearGradient-1)" x="387" y="273" width="89" height="24"></rect>
                <rect id="Rectangle-Copy-50" fill="url(#linearGradient-1)" x="387" y="311" width="89" height="24"></rect>
                <path d="M309.991676,219 L320.599301,221.614564 L315.295488,262.081977 L317.474775,254.811802 L332.990912,245.577123 L342.960008,244.217834 L355.69052,244.217834 C355.316096,256.557318 360.382421,263.619963 370.889497,265.405769 C381.396572,267.191576 388.711438,262.311991 392.834095,250.767015 L411.962534,257.227648 C417.839271,259.846139 421.437942,264.635724 422.758546,271.596403 C424.079151,278.557082 427.826302,299.788558 434,335.290832 C433.703039,343.599683 429.955888,347.754108 422.758546,347.754108 C415.561205,347.754108 402.593942,347.754108 383.856759,347.754108 L383.369558,333.589767 L411.989798,326.381341 L405.187823,290.999638 C401.399571,304.6513 399.636378,314.861021 399.898246,321.628801 C400.549681,338.464669 400.586152,345.971523 400.007661,344.149363 L328.780961,380 C338.445855,341.259651 341.307547,316.74117 337.366036,306.444557 C333.424525,296.147945 331.96615,286.133522 332.990912,276.401289 L301.767329,290.999638 C289.423326,297.277576 286.030358,291.679772 291.588424,274.206226 C297.14649,256.732679 303.280907,238.330604 309.991676,219 Z" id="Path-81" fill="#FFFFFF"></path>
                <circle id="Oval-Copy-28" fill="url(#linearGradient-2)" cx="195.5" cy="404.5" r="41.5"></circle>
                <path d="M370.972627,167.869125 C366.639294,160.057815 369.139294,156.15216 378.472627,156.15216 C387.80596,156.15216 390.213835,155.395081 385.696252,153.880923 C390.203226,152.595475 391.508743,154.605481 389.612801,159.910938 C388.700367,162.464224 390.925485,165.802897 389.612801,167.869125 C388.669511,169.353908 385.909501,170.955167 381.332771,172.6729 L370.972627,167.869125 Z" id="Path-72" stroke="#0085FF" fill="#0085FF" transform="translate(379.683276, 163.088882) rotate(-6.000000) translate(-379.683276, -163.088882) "></path>
                <path d="M348.322006,214.699668 C350.079827,213.945781 350.452339,218.363523 350.027584,215.939797 L349.810254,214.699668 C349.484257,213.121322 349.375592,211.542977 349.375592,209.851892 L349.375592,197.635699 C349.375592,185.234412 359.04681,175.200643 371,175.200643 C382.95319,175.200643 392.624408,185.234412 392.624408,197.635699 L392.624408,214.812407 C392.624408,216.390752 392.515743,213.234061 392.189746,214.812407 L391.972416,216.052536 C390.942218,222.144795 392.113716,192.220768 392,220.049941 C391.993768,221.575008 389.697908,235.127946 389.697908,236.967561 C394.565969,219.867519 397,208.198387 397,201.960164 L397,198.312133 C397,182.754155 386.973809,169.563695 372.086654,169 C371.760658,169 371.325996,169 371,169 C370.674004,169 370.239342,169 369.913346,169 C354.917526,169.563695 345,182.866894 345,198.312133 L345,201.847425 C345,207.278171 345.686756,211.916659 347,220.049941 C347.213436,221.37181 350.848039,237.826036 351.124687,236.967561 C351.401335,236.109086 348.322006,220.040831 348.322006,216.631926 C348.322006,215.281968 348.322006,214.637882 348.322006,214.699668 Z" id="Path-Copy" fill="#0085FF" fill-rule="nonzero"></path>
                <path d="M363.94761,233 L385.302358,233 L384.060803,248.797297 L393,251.186047 C392.795039,256.058426 391.118713,259.832693 387.971023,262.508847 C384.823334,265.185001 380.374654,266.682052 374.624984,267 C369.085712,266.678463 364.638392,265.181412 361.283022,262.508847 C357.927652,259.836282 355.833312,253.880573 355,244.641718 L365.189165,244.641718 L363.94761,233 Z" id="Path-30" fill="#67D8FB"></path>
                <polygon id="Path-31" fill="#0085FF" points="384 231 369 234.829787 384 246"></polygon>
                <path d="M350.432124,189.190362 L393.432124,182.099453 L393.432124,210.529551 C392.788134,216.147073 391.856266,220.173295 390.63652,222.608219 C389.416773,225.043144 386.765308,228.170168 382.682124,231.989293 C377.966085,234.7294 374.382752,236.099453 371.932124,236.099453 C369.481497,236.099453 365.898163,234.7294 361.182124,231.989293 C357.036288,228.195938 354.347042,225.068913 353.114387,222.608219 C351.881732,220.147526 350.987644,216.121303 350.432124,210.529551 L350.432124,189.190362 Z" id="Path-29" fill="#67D8FB" transform="translate(371.932124, 209.099453) rotate(-6.000000) translate(-371.932124, -209.099453) "></path>
                <path d="M393,251.491091 C391.781031,259.811366 383.93392,266 374.639284,266 C365.344648,266 357.573723,259.742603 356.278569,251.491091 C356.136946,250.154174 356.051438,249.11383 356.022045,248.370059 C355.992652,247.626287 355.992652,246.502934 356.022045,245" id="Path" stroke="#003483" stroke-width="3" fill-rule="nonzero"></path>
                <path d="M362.444204,245.322655 L363.441484,235.834168 C363.441484,235.834168 363.249835,235.752003 362.966795,235.591813 C362.680102,235.429555 362.301971,235.189245 362.301971,235.189245 C356.620153,231.005876 353.206011,225.013482 351.943385,218.568832 L351.69086,217.325128 C351.312072,215.629167 351.185809,213.933207 351.185809,212.237246 L351.185809,192.513225" id="Shape" stroke="#06297B" stroke-width="3" fill-rule="nonzero" transform="translate(357.313647, 218.917940) rotate(-6.000000) translate(-357.313647, -218.917940) "></path>
                <path d="M394.031277,242.374001 L392.99744,232.537695 C392.960433,232.185596 392.611065,232.222316 392.484802,231.996188 C386.802984,227.812819 383.388843,221.820425 382.126217,215.375775 L381.873691,214.132071 C381.494903,212.43611 381.368641,210.74015 381.368641,209.044189 L381.368641,189.320168" id="Shape-Copy" stroke="#06297B" stroke-width="3" fill-rule="nonzero" transform="translate(387.699959, 215.847084) scale(-1, 1) rotate(6.000000) translate(-387.699959, -215.847084) "></path>
                <path d="M368.269716,169.190277 C354.210479,169.749487 344.818913,182.499487 344.818913,197.598172 L344.818913,193.494887 C348.40371,195.176394 351.070377,195.843061 352.818913,195.494887 C354.567448,195.146712 356.922792,194.146712 359.884945,192.494887 L359.884945,195.696856 C364.291571,200.394224 379.81088,186.724786 386.106061,186.724786 L393.818913,203.078435 L393.818913,196.927119 C393.818913,190.181395 393.166297,183.977609 389.389971,179.146059 C384.588678,173.003133 377.364708,169.078435 369.318913,169.078435 C368.899234,169.078435 368.584475,169.078435 368.269716,169.190277 Z" id="Path-Copy-3" fill="#0085FF" fill-rule="nonzero" transform="translate(369.318913, 186.078435) rotate(-6.000000) translate(-369.318913, -186.078435) "></path>
                <path d="M316,264 L316.983154,256.402158 C320.956389,253.836798 324.936771,251.302455 328.9243,248.799127 C332.911829,246.295799 337.825808,244.909941 343.666237,244.641553 L365.176142,244.641553 L365.176142,238" id="Shape-Copy-7" stroke="#06297B" stroke-width="3" fill-rule="nonzero"></path>
                <polygon id="Path-78" fill="#67D8FB" points="383.751976 335 378 336.691994 378 347.721467 385 348"></polygon>
                <path d="M392.82403,325.452069 L435,336.210087 L435,348 C413.422642,348 397.860887,348 388.314735,348 C378.768583,348 375.262941,342.141725 377.797807,330.425174 L388.314735,272.101052 C388.863543,265.419089 393.034481,259.773982 399.181126,257.70027 L427.780462,248.716989 L427.780462,237.887601" id="Shape-Copy-8" stroke="#06297B" stroke-width="3" fill-rule="nonzero" transform="translate(406.000000, 292.943801) scale(-1, 1) translate(-406.000000, -292.943801) "></path>
                <polygon id="Path-77" fill="#67D8FB" points="310 219.488564 312.125761 213 322 215.141779 321.030336 222"></polygon>
                <path d="M322,216 L316,264" id="Path-75" stroke="#06297B" stroke-width="3"></path>
                <path d="M311.849269,214 C305.430203,233.04365 298.000353,255.590753 291.666621,274.65443 C285.332889,293.718106 290.282021,298.68039 306.514018,289.54128 L333.400339,276.045938 C332.39951,288.279239 333.750779,295.479459 337.454145,305.64314 C341.157511,315.80682 335.224248,344.844325 328.818344,380 L400.02463,344.991867 M399.953733,329.898842 C399.746426,320.69435 400.377263,312.609116 401.846244,305.64314 C405.104214,290.193698 404.601315,287.433106 404.440394,289.54128 L412,326.768334" id="Shape" stroke="#06297B" stroke-width="3"></path>
                <g id="Group-3" transform="translate(322.387524, 193.074031) scale(-1, 1) rotate(-13.000000) translate(-322.387524, -193.074031) translate(309.887524, 168.074031)">
                    <ellipse id="Oval" fill="url(#linearGradient-3)" cx="7.63364136" cy="7.9093878" rx="7.36100876" ry="7.22648946"></ellipse>
                    <g id="Group-2" transform="translate(0.763531, 8.352562)">
                        <path d="M4.17671796,14.7922825 L4.17671796,2.22255266 C4.17671796,0.995070719 4.97106319,3.39909105e-16 6.56341393,0 C7.92839613,0 8.51625529,1.06155612 8.76713154,2.16791459 C8.9272856,2.87419025 8.95010991,10.3415904 8.95010991,10.8198671 C8.95010991,9.59238512 10.0186701,8.79567747 11.3368059,8.79567747 C12.6549417,8.79567747 13.7235019,9.79074819 13.7235019,11.0182301 L13.7235019,11.5738683 C13.7235019,10.3463863 14.792062,9.35131563 16.1101978,9.35131563 C17.4283336,9.35131563 18.4968938,10.3463863 18.4968938,11.5738683 L18.4968938,14.9076973 C18.4968938,13.6802153 19.565454,12.6851446 20.8835898,12.6851446 C22.2017256,12.6851446 23.2702858,13.6802153 23.2702858,14.9076973 L23.2702858,16.8607177 L23.2702858,31.831762 C22.9445539,37.6516446 19.0661729,40.561586 11.6351429,40.561586 C4.20411286,40.561586 0.325731896,37.6516446 0,31.831762 L0,25.0789257" id="Path" fill="#67D8FB"></path>
                        <path d="M0,27.5072824 L2.30671491e-15,16.6307153 C2.30671491e-15,15.3886309 1.34975776e-13,13.1166642 8.07679751e-14,13.1166642 C0,13.1166642 1.55740274,12.7915938 3.02834427,13.625818 C4.49928581,14.4600422 4.74903791,16.0205507 4.74903791,16.6307153 L4.74903791,27.5072824" id="Path" fill="#67D8FB"></path>
                        <path d="M8.31081634,8.50567036 L8.31081634,18.8262587" id="Path-17" fill="#AACEFF"></path>
                        <path d="M13.0856642,9.46670518 L13.0856642,18.0429722" id="Path-21" fill="#AACEFF"></path>
                        <path d="M17.8347022,11.3975012 L17.8347022,19.0591341" id="Path-24" fill="#AACEFF"></path>
                    </g>
                </g>
                <rect id="Rectangle" stroke="#003483" stroke-width="3" fill="#28B1FE" transform="translate(362.261876, 330.706567) scale(-1, 1) rotate(-13.000000) translate(-362.261876, -330.706567) " x="356.261876" y="301.206567" width="12" height="59" rx="3"></rect>
                <path d="M328.048762,205.181478 L328.048762,194.581598 C328.048762,193.371111 328.048762,191.156941 328.048762,191.156941 C328.048762,191.156941 329.595969,190.84014 331.057281,191.653142 C332.518593,192.466145 332.76671,193.986956 332.76671,194.581598 L332.76671,205.181478" id="Path" stroke="#06297B" stroke-width="3" transform="translate(330.407736, 198.138822) scale(-1, 1) rotate(-13.000000) translate(-330.407736, -198.138822) "></path>
                <path d="M314.112102,190.67249 L314.112102,178.276792 C314.112102,177.066305 314.89722,176.085011 316.471076,176.085011 C317.820204,176.085011 318.401235,177.131869 318.649197,178.22291 C318.807491,178.919407 318.83005,186.283419 318.83005,186.755074 C318.83005,185.544587 319.886199,184.75891 321.189025,184.75891 C322.49185,184.75891 323.547999,185.740203 323.547999,186.950691 L323.547999,187.498636 C323.547999,186.288149 324.604148,185.306855 325.906973,185.306855 C327.209799,185.306855 328.265948,186.288149 328.265948,187.498636 L328.265948,190.786307 C328.265948,189.57582 329.322096,188.594526 330.624922,188.594526 C331.927748,188.594526 332.983896,189.57582 332.983896,190.786307 L332.983896,192.712287 L332.983896,207.476054 C333.077515,212.886662 330.538772,215.796733 325.367669,216.206268 M318.72076,216.069542 C315.329572,216.218747 310.305845,213.215358 309.983896,207.476054 L309.983896,200.816712" id="Shape" stroke="#06297B" stroke-width="3" transform="translate(321.485145, 196.145640) scale(-1, 1) rotate(-13.000000) translate(-321.485145, -196.145640) "></path>
                <path d="M325.653633,186.709077 L325.653633,196.86246" id="Path-17" stroke="#06297B" stroke-width="3" transform="translate(325.428143, 191.872024) scale(-1, 1) rotate(-13.000000) translate(-325.428143, -191.872024) "></path>
                <path d="M320.257551,186.274239 L320.257551,194.785573" id="Path-21" stroke="#06297B" stroke-width="3" transform="translate(320.458531, 190.528718) scale(-1, 1) rotate(-13.000000) translate(-320.458531, -190.528718) "></path>
                <path d="M315.363884,187.003987 L315.363884,194.652339" id="Path-24" stroke="#06297B" stroke-width="3" transform="translate(315.564864, 190.752294) scale(-1, 1) rotate(-13.000000) translate(-315.564864, -190.752294) "></path>
                <g id="Group-4-Copy-2" transform="translate(347.500000, 342.000000) scale(-1, 1) rotate(-270.000000) translate(-347.500000, -342.000000) translate(334.000000, 309.000000)">
                    <g id="Group-3" transform="translate(0.185650, 30.764937)">
                        <g id="Group-2" transform="translate(0.763531, 0.352562)">
                            <path d="M5.17671796,7.79228248 L5.17671796,4.07286819 C5.17671796,2.84538625 5.97106319,1.85031553 7.56341393,1.85031553 C8.92839613,1.85031553 9.51625529,2.91187165 9.76713154,4.01823012 C9.9272856,4.72450578 9.95010991,3.34159039 9.95010991,3.81986706 C9.95010991,2.59238512 11.0186701,1.79567747 12.3368059,1.79567747 C13.6549417,1.79567747 14.7235019,2.79074819 14.7235019,4.01823012 L14.7235019,4.57386829 C14.7235019,3.34638635 15.792062,2.35131563 17.1101978,2.35131563 C18.4283336,2.35131563 19.4968938,3.34638635 19.4968938,4.57386829 L19.4968938,7.90769727 C19.4968938,6.68021533 20.565454,5.68514462 21.8835898,5.68514462 C23.2017256,5.68514462 24.2702858,6.68021533 24.2702858,7.90769727 L24.2702858,9.86071772 L24.2702858,24.831762 C23.9445539,30.6516446 20.0661729,33.561586 12.6351429,33.561586 C5.20411286,33.561586 1.3257319,30.6516446 1,24.831762 L1,18.0789257" id="Path" fill="#67D8FB"></path>
                            <path d="M0,19.5072824 L2.30671491e-15,8.63071531 C2.30671491e-15,7.38863094 1.34975776e-13,5.11666422 8.07679751e-14,5.11666422 C0,5.11666422 1.55740274,4.79159382 3.02834427,5.625818 C4.49928581,6.46004219 4.74903791,8.0205507 4.74903791,8.63071531 L4.74903791,19.5072824" id="Path" fill="#67D8FB"></path>
                            <path d="M8.31081634,0.505670362 L8.31081634,10.8262587" id="Path-17" fill="#AACEFF"></path>
                            <path d="M13.0856642,1.46670518 L13.0856642,10.0429722" id="Path-21" fill="#AACEFF"></path>
                            <path d="M17.8347022,3.39750123 L17.8347022,11.0591341" id="Path-24" fill="#AACEFF"></path>
                        </g>
                    </g>
                    <g id="Group-3" transform="translate(1.372691, 30.900183)" stroke="#06297B" stroke-width="3">
                        <g id="Group-2">
                            <path d="M4.12820513,6.58747938 L4.12820513,3.46750658 C4.12820513,2.25701945 4.91332399,1.27572575 6.48717949,1.27572575 C7.83630733,1.27572575 8.41733847,2.32258434 8.66530079,3.41362499 C8.82359464,4.11012208 8.84615385,2.19840831 8.84615385,2.67006311 C8.84615385,1.45957599 9.90230264,0.673898965 11.2051282,0.673898965 C12.5079538,0.673898965 13.5641026,1.65519266 13.5641026,2.86567979 L13.5641026,3.41362499 C13.5641026,2.20313787 14.6202514,1.22184417 15.9230769,1.22184417 C17.2259025,1.22184417 18.2820513,2.20313787 18.2820513,3.41362499 L18.2820513,6.70129623 C18.2820513,5.4908091 19.3382001,4.5095154 20.6410256,4.5095154 C21.9438512,4.5095154 23,5.4908091 23,6.70129623 L23,8.62727659 L23,23.3910427 C23.0936181,28.8016508 20.5548757,31.7117224 15.3837726,32.1212575 M8.73686352,31.9845307 C5.34567556,32.1337365 0.3219485,29.1303476 5.58208302e-11,23.3910427 L-1.30739863e-12,16.7317013" id="Shape"></path>
                            <path d="M-2.27373675e-13,19.0382355 L-2.25082061e-13,8.43835616 C-2.25082061e-13,7.22786904 -9.32815079e-14,5.01369863 -1.47134441e-13,5.01369863 C-2.27373675e-13,5.01369863 1.54720733,4.69689766 3.00851946,5.50990011 C4.46983159,6.32290256 4.71794872,7.84371346 4.71794872,8.43835616 L4.71794872,19.0382355" id="Path"></path>
                            <path d="M8.84615385,1.84661667 L8.84615385,12" id="Path-17"></path>
                            <path d="M13.5641026,2.56412765 L13.5641026,11.0754613" id="Path-21"></path>
                            <path d="M18.2820513,4.38898088 L18.2820513,12.0373325" id="Path-24"></path>
                        </g>
                    </g>
                </g>
                <path d="M310,219 C311.590831,220.417758 315.257497,221.417758 321,222" id="Path-76" stroke="#06297B" stroke-width="3" opacity="0.955031622"></path>
                <path d="M378,340 C379.645125,341.436569 383.436932,342.449837 389.375423,343.039804" id="Path-76-Copy" stroke="#06297B" stroke-width="3" opacity="0.955031622" transform="translate(383.687711, 341.519902) rotate(-109.000000) translate(-383.687711, -341.519902) "></path>
                <rect id="Rectangle-Copy-42" stroke="url(#linearGradient-4)" stroke-width="4" x="251" y="160" width="154" height="38"></rect>
                <rect id="Rectangle-Copy-44" stroke="url(#linearGradient-4)" stroke-width="4" x="251" y="215" width="154" height="38"></rect>
                <rect id="Rectangle-Copy-43" stroke="url(#linearGradient-5)" stroke-width="4" x="251" y="104" width="154" height="38"></rect>
                <rect id="Rectangle-Copy-46" fill="#67D8FB" x="37" y="60" width="158" height="42"></rect>
                <rect id="Rectangle-Copy-46" stroke="#06297B" stroke-width="4" x="38" y="59" width="154" height="38"></rect>
                <rect id="Rectangle-Copy-45" fill="#3386F7" transform="translate(197.112698, 181.213203) rotate(-45.000000) translate(-197.112698, -181.213203) " x="186.112698" y="170.213203" width="22" height="22"></rect>
                <rect id="Rectangle-Copy-45" stroke="#06297B" stroke-width="4" transform="translate(196.112698, 178.213203) rotate(-45.000000) translate(-196.112698, -178.213203) " x="187.112698" y="169.213203" width="18" height="18"></rect>
                <rect id="Rectangle-Copy-47" fill="#95E6FC" transform="translate(559.112698, 306.213203) rotate(-45.000000) translate(-559.112698, -306.213203) " x="544.112698" y="291.213203" width="30" height="30"></rect>
                <rect id="Rectangle-Copy-47" stroke="#06297B" stroke-width="4" transform="translate(558.112698, 303.213203) rotate(-45.000000) translate(-558.112698, -303.213203) " x="545.112698" y="290.213203" width="26" height="26"></rect>
                <circle id="Oval" fill="#95E6FC" cx="116" cy="181" r="32"></circle>
                <circle id="Oval" stroke="#06297B" stroke-width="4" cx="115" cy="178" r="32"></circle>
                <circle id="Oval-Copy-26" fill="#67D8FB" cx="560" cy="182" r="44"></circle>
                <circle id="Oval-Copy-20" fill="#FFFFFF" cx="453.5" cy="132.5" r="2.5"></circle>
                <circle id="Oval-Copy-21" fill="#FFFFFF" cx="526.5" cy="93.5" r="1.5"></circle>
                <circle id="Oval-Copy-21" fill="#FFFFFF" cx="566.5" cy="33.5" r="1.5"></circle>
                <circle id="Oval-Copy-37" fill="#FFFFFF" cx="393.5" cy="1.5" r="1.5"></circle>
                <circle id="Oval-Copy-22" fill="#FFFFFF" cx="413.5" cy="76.5" r="1.5"></circle>
                <circle id="Oval-Copy-23" fill="#FFFFFF" cx="220.5" cy="144.5" r="1.5"></circle>
                <circle id="Oval-Copy-24" fill="#FFFFFF" cx="309.5" cy="49.5" r="4.5"></circle>
                <circle id="Oval-Copy-25" fill="#FFFFFF" cx="103.5" cy="35.5" r="1.5"></circle>
                <circle id="Oval-Copy-29" fill="#FFFFFF" cx="165.5" cy="235.5" r="1.5"></circle>
                <circle id="Oval-Copy-36" fill="#FFFFFF" cx="239.5" cy="271.5" r="1.5"></circle>
                <circle id="Oval-Copy-31" fill="#FFFFFF" cx="67.5" cy="250.5" r="1.5"></circle>
                <circle id="Oval-Copy-32" fill="#FFFFFF" cx="330.5" cy="244.5" r="2.5"></circle>
                <circle id="Oval-Copy-33" fill="#FFFFFF" cx="442.5" cy="246.5" r="5.5"></circle>
                <circle id="Oval-Copy-35" fill="#FFFFFF" cx="1.5" cy="319.5" r="1.5"></circle>
                <circle id="Oval-Copy-30" fill="#FFFFFF" cx="34.5" cy="205.5" r="1.5"></circle>
                <circle id="Oval-Copy-34" fill="#FFFFFF" cx="85.5" cy="354.5" r="1.5"></circle>
                <circle id="Oval-Copy-26" stroke="#06297B" stroke-width="4" cx="558" cy="178" r="44"></circle>
                <circle id="Oval-Copy-27" fill="#67D8FB" cx="461" cy="181" r="13"></circle>
                <circle id="Oval-Copy-27" stroke="#06297B" stroke-width="4" cx="460" cy="178" r="13"></circle>
                <path d="M152.425072,178.713203 L181.925072,178.5" id="Path-79" stroke="#06297B" stroke-width="3" stroke-dasharray="3"></path>
                <path d="M213,178.5 L246.5,178.713203" id="Path-79-Copy" stroke="#06297B" stroke-width="3" stroke-dasharray="3"></path>
                <path d="M96,122.5 L135,122.5" id="Path-79-Copy-4" stroke="#06297B" stroke-width="3" stroke-dasharray="3" transform="translate(115.500000, 122.500000) rotate(-90.000000) translate(-115.500000, -122.500000) "></path>
                <path d="M531.778176,253.5 L585.5,253.5" id="Path-79-Copy-5" stroke="#06297B" stroke-width="3" stroke-dasharray="3" transform="translate(558.500000, 253.500000) rotate(-90.000000) translate(-558.500000, -253.500000) "></path>
                <path d="M411,178.5 L442,178.5" id="Path-79-Copy-2" stroke="#06297B" stroke-width="3" stroke-dasharray="3"></path>
                <path d="M477,178.5 L511.5,178.713203" id="Path-79-Copy-3" stroke="#06297B" stroke-width="3" stroke-dasharray="3"></path>
                <path d="M506.5,304.5 L536.398199,304.5" id="Path-79-Copy-6" stroke="#003483" stroke-width="3" stroke-dasharray="3"></path>
                <path d="M196,360 L196,312 C196,307.581722 199.581722,304 204,304 L307,304" id="Path-79-Copy-7" stroke="#06297B" stroke-width="3" stroke-dasharray="3"></path>
                <path d="M476,285 L493,285 C497.418278,285 501,288.581722 501,293 L501,315 C501,319.418278 497.418278,323 493,323 L476,323" id="Path-80" stroke="#06297B" stroke-width="3" stroke-dasharray="3"></path>
                <path d="M310,285 L327,285 C331.418278,285 335,288.581722 335,293 L335,315 C335,319.418278 331.418278,323 327,323 L310,323" id="Path-80-Copy" stroke="#06297B" stroke-width="3" stroke-dasharray="3" transform="translate(322.500000, 304.000000) scale(-1, 1) translate(-322.500000, -304.000000) "></path>
                <path d="M386.129678,346 L402,346 L401.116775,331 L385,335.007792 C385.62458,337.448389 386.00114,339.294051 386.129678,340.544776 C386.258216,341.7955 386.258216,343.613909 386.129678,346 Z" id="Path-83" fill="#FFFFFF"></path>
                <g id="Group-6-Copy" transform="translate(503.497423, 148.176915) rotate(-30.000000) translate(-503.497423, -148.176915) translate(447.497423, 114.176915)" stroke="#D3F5FE" stroke-linecap="round" stroke-width="8">
                    <path d="M-8.03216233,33.1743948 L119.538208,33.1743948" id="Path-16" transform="translate(55.753023, 33.174395) rotate(30.000000) translate(-55.753023, -33.174395) "></path>
                    <path d="M45.3431033,56.4459042 L85.1449487,56.4459042" id="Path-16-Copy" transform="translate(64.902783, 56.445904) rotate(30.000000) translate(-64.902783, -56.445904) "></path>
                    <path d="M38.4932523,15.6936688 L74.4334814,15.6936688" id="Path-16-Copy-2" transform="translate(56.461405, 15.193669) rotate(30.000000) translate(-56.461405, -15.193669) "></path>
                </g>
                <path d="M65,301.826049 C69.1430537,305.942016 72.3800321,308 74.7109354,308 C77.0418386,308 80.5381935,305.942016 85.2,301.826049 C89.6924613,297.942016 93.0618072,296 95.3080378,296 C97.5542685,296 100.918256,297.942016 105.4,301.826049 C109.73505,305.942016 113.044028,308 115.326932,308 C117.609836,308 121.034192,305.942016 125.6,301.826049 C129.824135,297.942016 133.091519,296 135.402152,296 C137.712785,296 141.178734,297.942016 145.8,301.826049 C150.170712,305.942016 153.493063,308 155.767051,308 C158.04104,308 161.452023,305.942016 166,301.826049" id="Path-54-Copy-2" stroke="url(#linearGradient-6)" stroke-width="3" stroke-linecap="round"></path>
                <path d="M380,69.8260493 C384.143054,73.9420164 387.380032,76 389.710935,76 C392.041839,76 395.538194,73.9420164 400.2,69.8260493 C404.692461,65.9420164 408.061807,64 410.308038,64 C412.554268,64 415.918256,65.9420164 420.4,69.8260493 C424.73505,73.9420164 428.044028,76 430.326932,76 C432.609836,76 436.034192,73.9420164 440.6,69.8260493 C444.824135,65.9420164 448.091519,64 450.402152,64 C452.712785,64 456.178734,65.9420164 460.8,69.8260493 C465.170712,73.9420164 468.493063,76 470.767051,76 C473.04104,76 476.452023,73.9420164 481,69.8260493" id="Path-54-Copy-2" stroke="url(#linearGradient-6)" stroke-width="3" stroke-linecap="round" transform="translate(430.500000, 70.000000) rotate(-90.000000) translate(-430.500000, -70.000000) "></path>
                <path d="M184.795321,399.5 L131,399.5" id="Path-4-Copy-11" stroke="#D3F5FE" stroke-width="8" stroke-linecap="round"></path>
                <path d="M161,415.5 L147,415.5" id="Path-4-Copy-14" stroke="#D3F5FE" stroke-width="8" stroke-linecap="round"></path>
                <path d="M201.59844,81.5 L171.59844,81.5" id="Path-4-Copy-12" stroke="#D3F5FE" stroke-width="8" stroke-linecap="round"></path>
                <circle id="Oval-Copy-34" fill="#D3F5FE" cx="214" cy="82" r="4"></circle>
                <path d="M379,367.5 L259,367.5" id="Path-4-Copy-11" stroke="#D3F5FE" stroke-width="8" stroke-linecap="round"></path>
                <path d="M335,383.5 L278.443987,383.5" id="Path-4-Copy-13" stroke="#D3F5FE" stroke-width="8" stroke-linecap="round"></path>
                <path d="M261,123.5 L223.716399,123.5" id="Path-4-Copy-15" stroke="#D3F5FE" stroke-width="8" stroke-linecap="round"></path>
            </g>
        </g>
    </g>
</svg>