<?xml version="1.0" encoding="UTF-8"?>
<svg width="255px" height="29px" viewBox="0 0 255 29" version="1.1" xmlns="http://www.w3.org/2000/svg" xmlns:xlink="http://www.w3.org/1999/xlink">
    <!-- Generator: Sketch 59.1 (86144) - https://sketch.com -->
    <title>Group 4 Copy 6</title>
    <desc>Created with Sketch.</desc>
    <defs>
        <polygon id="path-1" points="0.426658396 0.465157728 25.1618584 0.465157728 25.1618584 21.878577 0.426658396 21.878577"></polygon>
        <polygon id="path-3" points="0.00128180634 0.05010416 25.1503222 0.05010416 25.1503222 22.2443182 0.00128180634 22.2443182"></polygon>
    </defs>
    <g id="Design" stroke="none" stroke-width="1" fill="none" fill-rule="evenodd">
        <g id="PrefectCore-HD-v6" transform="translate(-536.000000, -132.000000)">
            <g id="Group-4-Copy-6" transform="translate(536.000000, 132.000000)">
                <g id="Group-10-Copy-5" transform="translate(42.000000, 5.000000)" fill="#333F48">
                    <g id="Group-10-Copy-4">
                        <path d="M112.771843,0 L129,0 L129,3.32325537 L122.252201,3.32325537 L122.252201,19 L118.660841,19 L118.660841,3.31169585 L111.913041,3.31169585 L105.299105,3.31169585 C98.8524694,3.31169585 98.8412187,3.2544334 98.8412187,9.5 C98.8412187,15.7453525 98.8412187,15.7453525 105.299105,15.7453525 L111.121119,15.7453525 L111.121119,19 L105.299105,19 C95.2497473,19 95.2497473,18.3810304 95.2497473,9.5 C95.2497473,0.618755492 95.1048496,0 105.299105,0 L112.771843,0 Z M77.3152449,19 L77.3152449,0 L93.3315145,0 L93.3315145,3.26599292 L80.8620194,3.26599292 L80.8620194,7.74659186 L91.4689032,7.74659186 L91.4689032,10.9782273 L80.8620194,10.9782273 L80.8620194,15.7453525 L93.5545486,15.7453525 L93.5545486,19 L77.3152449,19 Z M58.9456056,19 L58.9456056,0 L75.1737628,0 L75.1737628,3.26599292 L62.5705097,3.26599292 L62.5705097,7.74659186 L73.2664613,7.74659186 L73.2664613,10.9782273 L62.5705097,10.9782273 L62.5705097,19 L58.9456056,19 Z M39.7283114,19 L39.7283114,0 L55.744581,0 L55.744581,3.26599292 L43.2750859,3.26599292 L43.2750859,7.74659186 L53.8708232,7.74659186 L53.8708232,10.9782273 L43.2750859,10.9782273 L43.2750859,15.7453525 L55.9676152,15.7453525 L55.9676152,19 L39.7283114,19 Z M23.6004727,8.78941053 L30.3371253,8.78941053 C32.7574782,8.78941053 33.5828401,8.0789281 33.5828401,6.06211271 C33.5828401,3.98792785 32.7239346,3.2544334 30.3371253,3.2544334 L23.6004727,3.2544334 L23.6004727,8.78941053 Z M20.0760955,19 L20.0760955,0 L30.6271426,0 C35.3561752,0 37.096175,1.67313369 37.096175,6.03920773 C37.096175,9.72904978 35.8580802,11.4594459 32.6347626,11.9064141 L38.0107088,19 L33.6051331,19 L28.3964885,12.021153 L23.5893262,12.021153 L23.5893262,19 L20.0760955,19 Z M3.60250693,9.07593682 L10.4284356,9.07593682 C13.0159861,9.07593682 13.8970804,8.36545438 13.8970804,6.18809009 C13.8970804,4.01083283 13.0159861,3.26599292 10.4284356,3.26599292 L3.60250693,3.26599292 L3.60250693,9.07593682 Z M0,19 L0,0 L10.7629348,0 C15.6928127,0 17.5107338,1.69603867 17.5107338,6.18809009 C17.5107338,10.6802485 15.6928127,12.3419297 10.7629348,12.3419297 L3.60250693,12.3419297 L3.60250693,19 L0,19 Z" id="Fill-1"></path>
                    </g>
                </g>
                <path d="M182.125479,24 C184.584524,24 186.58069,23.6829971 188.750436,22.9048991 L188.547926,21.2622478 C186.378181,22.0691643 184.555594,22.3861671 182.154409,22.3861671 L181.729942,22.3827174 C175.877912,22.2857996 173.813346,20.1332284 173.765578,14.2130401 L173.764726,14 C173.764726,7.77521614 175.905542,5.61383285 182.154409,5.61383285 C184.555594,5.61383285 186.378181,5.93083573 188.547926,6.73775216 L188.750436,5.09510086 C186.60962,4.31700288 184.584524,4 182.125479,4 C174.884069,4 172.060217,6.7080205 172.000955,13.7706604 L172,14 C172,21.2334294 174.806204,24 182.125479,24 Z M202.029278,24 L202.486648,23.9966367 C209.631937,23.8898351 212.212618,21.2254078 212.212618,14 L212.209168,13.5497042 C212.100781,6.58949461 209.424866,4.05345754 202.259487,4.0008385 L202.029278,4 C194.585038,4 191.901333,6.56868539 191.84679,13.773343 L191.845939,14 C191.845939,21.3775216 194.507494,24 202.029278,24 Z M202.029278,22.4149856 L201.60671,22.41186 C195.642761,22.3218888 193.656324,20.2736534 193.611447,14.2130472 L193.610666,14 C193.610666,7.70268432 195.618793,5.63154013 201.816371,5.58579258 L202.029278,5.58501441 C208.393865,5.58501441 210.447891,7.63112392 210.447891,14 L210.444754,14.4228394 C210.353399,20.4598028 208.250841,22.4149856 202.029278,22.4149856 Z M216.494249,23.6541787 L218.230045,23.6541787 L218.230045,15.6714697 L225.60718,15.6714697 L232.463576,23.6541787 L234.749041,23.6541787 L227.892646,15.6714697 C232.405716,15.6426513 234.141513,14.0576369 234.141513,10.0518732 C234.141513,6.02261139 232.430668,4.39606432 227.959603,4.34697039 L216.494249,4.34582133 L216.494249,23.6541787 Z M218.230045,14.0864553 L218.230045,5.93083573 L227.574416,5.93083573 C231.132799,5.93083573 232.376786,7.0259366 232.376786,10.0518732 C232.376786,13.0489914 231.161729,14.0864553 227.574416,14.0864553 L218.230045,14.0864553 Z M238.365284,23.6541787 L238.365284,4.34582133 L254.76856,4.34582133 L254.76856,5.93083573 L240.101081,5.93083573 L240.101081,13.0201729 L252.859184,13.0201729 L252.859184,14.6051873 L240.101081,14.6051873 L240.101081,22.0691643 L255,22.0691643 L255,23.6541787 L238.365284,23.6541787 Z" id="CORE" fill="#333F48" fill-rule="nonzero"></path>
                <g id="Core-Mark">
                    <g id="Group-3" transform="translate(3.751628, 0.000000)">
                        <mask id="mask-2" fill="white">
                            <use xlink:href="#path-1"></use>
                        </mask>
                        <g id="Clip-2"></g>
                        <path d="M16.815468,12.7819597 L10.8532374,15.7094002 L23.0871633,21.878577 C24.3964369,19.7521417 25.1636896,17.2665112 25.1636896,14.6012831 C25.1636896,6.79417639 18.7088791,0.465157728 10.7488617,0.465157728 C6.70018485,0.465157728 3.04337448,2.11027155 0.426658396,4.746764 L16.815468,12.7819597 Z" id="Fill-1" fill="#333F48" mask="url(#mask-2)"></path>
                    </g>
                    <g id="Group-6" transform="translate(0.000000, 6.645833)">
                        <mask id="mask-4" fill="white">
                            <use xlink:href="#path-3"></use>
                        </mask>
                        <g id="Clip-5"></g>
                        <path d="M8.44106098,9.03906425 L14.3080717,6.02873134 L2.31768898,0.05010416 C0.85642975,2.29825807 0.00128180634,4.97593731 0.00128180634,7.85832651 C0.00128180634,15.8036314 6.45243,22.2446837 14.4124474,22.2446837 C18.6845248,22.2446837 22.5116323,20.3785332 25.1503222,17.4321722 L8.44106098,9.03906425 Z" id="Fill-4" fill="#333F48" mask="url(#mask-4)"></path>
                    </g>
                </g>
            </g>
        </g>
    </g>
</svg>