<?xml version="1.0" standalone="no"?>
<!DOCTYPE svg PUBLIC "-//W3C//DTD SVG 20010904//EN"
 "http://www.w3.org/TR/2001/REC-SVG-20010904/DTD/svg10.dtd">
<svg version="1.0" xmlns="http://www.w3.org/2000/svg"
 width="700.000000pt" height="700.000000pt" viewBox="0 0 700.000000 700.000000"
 preserveAspectRatio="xMidYMid meet">
<metadata>
Created by potrace 1.14, written by Peter Selinger 2001-2017
</metadata>
<g transform="translate(0.000000,700.000000) scale(0.100000,-0.100000)"
fill="#000000" stroke="none">
<path d="M3385 6612 c-146 -77 -361 -189 -695 -362 -311 -161 -470 -244 -680
-353 -80 -42 -226 -118 -325 -169 -208 -108 -222 -115 -215 -121 3 -2 109 -57
235 -122 127 -65 253 -130 280 -145 28 -15 131 -69 230 -120 99 -51 225 -116
280 -145 237 -124 724 -376 882 -457 l123 -63 0 -1052 c0 -579 -3 -1053 -7
-1053 -5 0 -19 6 -33 13 -238 125 -476 249 -685 357 -99 51 -216 112 -260 135
-44 23 -156 82 -250 130 -93 48 -215 111 -270 140 -55 29 -190 99 -300 155
-110 57 -204 107 -209 111 -6 5 -13 9 -16 9 -3 0 -5 -475 -5 -1056 l0 -1055
125 -66 c69 -35 195 -101 280 -145 85 -44 200 -104 255 -133 94 -50 203 -106
530 -275 77 -40 190 -98 250 -130 61 -32 182 -95 270 -140 88 -45 197 -103
242 -127 l83 -44 2 1056 3 1056 50 28 c28 15 158 83 290 151 132 67 276 142
320 165 44 23 148 77 230 120 152 79 305 158 495 257 58 30 198 103 312 162
113 59 235 122 270 140 l63 34 2 1055 3 1056 -33 19 c-17 11 -135 72 -262 137
-126 65 -234 121 -240 125 -5 4 -118 62 -250 130 -132 67 -262 135 -290 150
-27 15 -135 71 -240 125 -104 54 -235 121 -290 150 -261 136 -433 225 -436
225 -2 0 -53 -27 -114 -58z"/>
</g>
</svg>
