<svg width="375" height="375" viewBox="0 0 375 375" fill="none" xmlns="http://www.w3.org/2000/svg">
<rect width="375" height="375" rx="96" fill="#06000E"/>
<path fill-rule="evenodd" clip-rule="evenodd" d="M274.447 89.6836L296.285 102.25L296.999 102.662V226.282L296.285 226.694L210.02 276.336V247.912L210.734 247.5L222.047 240.995L236.613 232.601L272.309 212.059V118.526L191.042 165.296V335.898L166.352 320.695V151.081L273.023 89.6836L273.735 89.2754L274.447 89.6836ZM230.772 64.5469L254.758 78.3506L147.367 140.159V309.002L123.354 294.216L122.677 293.8V125.938L229.349 64.5469L230.061 64.1387L230.772 64.5469ZM187.096 39.4082L211.081 53.2119L103.69 115.021V282.102L79 266.899V100.806L185.672 39.4082L186.384 39L187.096 39.4082Z" fill="white"/>
</svg>
