<svg height="82" viewBox="0 0 582 154" fill="none" xmlns="http://www.w3.org/2000/svg">
<path d="M101.227 26.25L112.536 32.7588L112.906 32.9727V96.9971L112.536 97.2109L67.8584 122.922V108.2L68.2285 107.986L74.0869 104.618L81.6309 100.271L100.119 89.6309V41.1885L58.0293 65.4111V153.771L45.2412 145.896V58.0488L100.489 26.25L100.857 26.0391L101.227 26.25ZM78.6064 13.2314L91.0283 20.3809L35.4092 52.3926V139.84L22.9727 132.182L22.6211 131.966V45.0273L77.8682 13.2314L78.2373 13.0205L78.6064 13.2314ZM510.964 55.0645C528.448 55.0647 540.772 65.6846 544.495 82.7578H530.305C527.3 72.1386 520.415 66.8331 511.104 66.833C498.639 66.8331 490.326 77.023 490.326 93.9473C490.326 110.872 498.499 120.781 511.253 120.781C520.713 120.781 528.018 115.615 530.883 105.426H545.073C541.35 122.789 528.307 132.689 511.253 132.689V132.681C489.328 132.681 475.995 117.326 475.995 93.9473C475.995 70.5688 489.328 55.0645 510.964 55.0645ZM321.092 55.0645C342.158 55.0646 355.202 69.4114 355.491 92.2197L349.473 98.2441H301.321C302.609 112.012 310.064 121.053 322.389 121.053L322.38 121.062C331.262 121.061 337.717 116.326 341.011 107.145H355.342C351.619 123.928 339.434 132.68 322.38 132.681C299.885 132.681 286.842 117.194 286.842 93.9473C286.842 70.7003 300.025 55.0645 321.092 55.0645ZM435.343 55.0645C456.409 55.0646 469.453 69.4114 469.742 92.2197L463.724 98.2441H415.572C416.86 112.012 424.315 121.053 436.64 121.053V121.062C445.521 121.061 451.977 116.326 455.271 107.145H469.602C465.879 123.928 453.694 132.68 436.64 132.681C414.136 132.681 401.093 117.194 401.093 93.9473C401.093 70.7003 414.276 55.0645 435.343 55.0645ZM208.259 28.6611C228.756 28.6613 239.933 40.71 239.934 59.5107C239.934 78.3118 228.756 90.3612 208.259 90.3613H177.592V131.103H162.113V28.6611H208.259ZM401.338 40.5693H384.572V56.9238H399.473V69.1221H384.572V131.103H370.53V69.1221H358.206V56.9238H370.53V39.9912L383.425 28.6611H401.338V40.5693ZM287.009 69.1211H260.353V131.102H246.312L246.451 68.1133L259.205 56.9238H287.009V69.1211ZM567.148 56.9229H581.908V69.1211H567.148V118.903H581.908V131.102H561.84L552.958 122.35V34.6846H567.148V56.9229ZM55.9854 0.211914L68.4072 7.36133L12.7881 39.373V125.907L0 118.034V32.0107L55.248 0.211914L55.6162 0L55.9854 0.211914ZM321.241 66.6836C311.212 66.6836 303.616 74.5762 301.61 87.3438H341.738C339.724 73.8574 331.989 66.684 321.241 66.6836ZM435.492 66.6836C425.463 66.6836 417.867 74.5762 415.861 87.3438H455.989C453.974 73.8574 446.24 66.6839 435.492 66.6836ZM177.592 77.2949H203.958V77.3037C215.564 77.3036 224.307 72.7082 224.307 59.5107C224.306 48.0324 217.57 41.7189 203.958 41.7188H177.592V77.2949Z" fill="#fff"/>
</svg>
