<svg width="744" height="129" viewBox="0 0 744 129" fill="none" xmlns="http://www.w3.org/2000/svg">
<path d="M0 0L83 43.2535V128.592L0 85.338V0Z" fill="#2D6DF6"/>
<path d="M0 0L83 43.2535V128.592L0 85.338V0Z" fill="url(#paint0_linear_2111_9931)"/>
<path d="M166 0L83 43.2535V128.592L166 85.338V0Z" fill="#080D33"/>
<path d="M144.958 37.4082L104.043 58.6418V68.9716L144.958 47.738V37.4082Z" fill="white"/>
<path d="M144.958 59.6201L104.043 80.8537V91.1835L144.958 69.95V59.6201Z" fill="white"/>
<path fill-rule="evenodd" clip-rule="evenodd" d="M233 100.446V27.2959H275.58C295.09 27.2959 302.28 33.8259 302.28 51.1259C302.28 68.4259 295.09 74.8259 275.58 74.8259H247.25V100.456L233 100.446ZM247.25 62.2359H274.25C284.49 62.2359 287.97 59.4959 287.97 51.1059C287.97 42.7159 284.49 39.8559 274.25 39.8559H247.25V62.2359ZM312.43 100.446V27.2959H354.17C372.88 27.2959 379.77 33.7359 379.77 50.5559C379.77 64.7659 374.87 71.4259 362.12 73.1459L383.36 100.446H365.96L345.36 73.5759H326.36V100.446H312.43ZM326.36 61.1359H353.02C362.59 61.1359 365.86 58.3959 365.86 50.6259C365.86 42.6259 362.46 39.8159 353.02 39.8159H326.36V61.1359ZM390.17 100.446V27.2959H453.54V39.8659H404.22V57.1159H446.14V69.5659H404.22V87.9159H454.43V100.446H390.17ZM466.17 100.446V27.2959H530.37V39.8659H480.55V57.1159H522.87V69.5659H480.56V100.446H466.17ZM538.84 100.446V27.2959H602.26V39.8659H552.93V57.1159H594.93V69.5659H552.93V87.9159H603.15V100.446H538.84ZM679.18 27.2959H743.36V40.0659H716.66V100.426H702.48V40.0459H649.61C624.11 40.0459 624.06 39.8259 624.06 63.8659C624.06 87.9059 624.06 87.9259 649.61 87.9259H672.61V100.456H649.61C609.86 100.456 609.86 98.0759 609.86 63.8659C609.86 29.6559 609.28 27.2959 649.61 27.2959H679.18Z" fill="#080D33"/>
<defs>
<linearGradient id="paint0_linear_2111_9931" x1="41.5" y1="0" x2="41.5" y2="128.592" gradientUnits="userSpaceOnUse">
<stop stop-color="#1C44D2"/>
<stop offset="0.369792" stop-color="#2D6DF6"/>
<stop offset="1" stop-color="#89D5FF"/>
</linearGradient>
</defs>
</svg>
