<svg viewBox="0 0 20 20" xmlns="http://www.w3.org/2000/svg">
<g clip-path="url(#clip0_7_9)">
<mask id="mask0_7_9" style="mask-type:luminance" maskUnits="userSpaceOnUse" x="-1" y="-1" width="22" height="22">
<path d="M20.9091 -0.909058H-0.909088V20.9091H20.9091V-0.909058Z" fill="white"/>
</mask>
<g mask="url(#mask0_7_9)">
<path fill-rule="evenodd" clip-rule="evenodd" d="M0 10C0 4.47715 4.47715 0 10 0C15.5228 0 20 4.47715 20 10C20 15.5228 15.5228 20 10 20C4.47715 20 0 15.5228 0 10ZM10 1.81818C5.4813 1.81818 1.81818 5.4813 1.81818 10C1.81818 14.5187 5.48131 18.1818 10 18.1818C14.5187 18.1818 18.1818 14.5187 18.1818 10C18.1818 5.48131 14.5187 1.81818 10 1.81818Z" fill="white"/>
<path d="M8.18183 5.45459H6.36365C5.86157 5.45459 5.45456 5.8616 5.45456 6.36368V8.18186C5.45456 8.68394 5.86157 9.09095 6.36365 9.09095H8.18183C8.68391 9.09095 9.09092 8.68394 9.09092 8.18186V6.36368C9.09092 5.8616 8.68391 5.45459 8.18183 5.45459Z" fill="white"/>
<path d="M13.6364 5.45459H11.8182C11.3161 5.45459 10.9091 5.8616 10.9091 6.36368V8.18186C10.9091 8.68394 11.3161 9.09095 11.8182 9.09095H13.6364C14.1384 9.09095 14.5455 8.68394 14.5455 8.18186V6.36368C14.5455 5.8616 14.1384 5.45459 13.6364 5.45459Z" fill="white"/>
<path d="M13.6364 10.9091H11.8182C11.3161 10.9091 10.9091 11.3161 10.9091 11.8181V13.6363C10.9091 14.1384 11.3161 14.5454 11.8182 14.5454H13.6364C14.1384 14.5454 14.5455 14.1384 14.5455 13.6363V11.8181C14.5455 11.3161 14.1384 10.9091 13.6364 10.9091Z" fill="white"/>
<path d="M8.18183 10.9091H6.36365C5.86157 10.9091 5.45456 11.3161 5.45456 11.8181V13.6363C5.45456 14.1384 5.86157 14.5454 6.36365 14.5454H8.18183C8.68391 14.5454 9.09092 14.1384 9.09092 13.6363V11.8181C9.09092 11.3161 8.68391 10.9091 8.18183 10.9091Z" fill="white"/>
</g>
</g>
<defs>
<clipPath id="clip0_7_9">
<rect width="20" height="20" fill="white"/>
</clipPath>
</defs>
</svg>
