<svg viewBox="0 0 20 20" xmlns="http://www.w3.org/2000/svg">
<g clip-path="url(#clip0_7_36)">
<mask id="mask0_7_36" style="mask-type:luminance" maskUnits="userSpaceOnUse" x="-1" y="-1" width="22" height="22">
<path d="M20.9091 -0.909058H-0.909088V20.9091H20.9091V-0.909058Z" fill="white"/>
</mask>
<g mask="url(#mask0_7_36)">
<path fill-rule="evenodd" clip-rule="evenodd" d="M0 10C0 4.47715 4.47715 0 10 0C15.5228 0 20 4.47715 20 10C20 15.5228 15.5228 20 10 20C4.47715 20 0 15.5228 0 10ZM10 1.81818C5.4813 1.81818 1.81818 5.4813 1.81818 10C1.81818 14.5187 5.48131 18.1818 10 18.1818C14.5187 18.1818 18.1818 14.5187 18.1818 10C18.1818 5.48131 14.5187 1.81818 10 1.81818Z" fill="white"/>
<path fill-rule="evenodd" clip-rule="evenodd" d="M11.4718 10.0244C11.2567 9.97354 11.0304 10.0028 10.8353 10.1067L2.29995 14.6522C1.8568 14.8882 1.68886 15.4387 1.92486 15.8818C2.16086 16.325 2.71143 16.4929 3.15458 16.2569L11.3872 11.8727L17.9726 13.4302C18.4612 13.5457 18.951 13.2433 19.0665 12.7546C19.1821 12.2661 18.8796 11.7764 18.3911 11.6607L11.4718 10.0244Z" fill="white"/>
<path d="M6.07329 9.09092C5.32016 9.09092 4.70966 8.48037 4.70966 7.72728C4.70966 6.97417 5.32016 6.36365 6.07329 6.36365C6.82643 6.36365 7.43693 6.97417 7.43693 7.72728C7.43693 8.48037 6.82643 9.09092 6.07329 9.09092Z" fill="white"/>
</g>
</g>
<defs>
<clipPath id="clip0_7_36">
<rect width="20" height="20" fill="white"/>
</clipPath>
</defs>
</svg>
