<svg viewBox="0 0 20 20" xmlns="http://www.w3.org/2000/svg">
<g clip-path="url(#clip0_7_2)">
<mask id="mask0_7_2" style="mask-type:luminance" maskUnits="userSpaceOnUse" x="-1" y="-1" width="22" height="22">
<path d="M20.9091 -0.909058H-0.909088V20.9091H20.9091V-0.909058Z" fill="white"/>
</mask>
<g mask="url(#mask0_7_2)">
<path fill-rule="evenodd" clip-rule="evenodd" d="M8.04937 0.190318C8.681 0.0653727 9.33327 0 10 0C10.6667 0 11.319 0.0653727 11.9506 0.190318L11.5978 1.97394C11.0817 1.87185 10.5475 1.81818 10 1.81818C9.45245 1.81818 8.91827 1.87185 8.40218 1.97394L8.04937 0.190318ZM15.5568 1.68489C16.6469 2.41471 17.5853 3.35308 18.3151 4.4432L16.8043 5.45469C16.2066 4.56206 15.4379 3.79335 14.5453 3.19574L15.5568 1.68489ZM1.68489 4.4432C2.41471 3.35308 3.35308 2.41471 4.4432 1.68489L5.45469 3.19574C4.56206 3.79335 3.79335 4.56206 3.19574 5.45469L1.68489 4.4432ZM19.8096 8.04937C19.9346 8.681 20 9.33327 20 10C20 10.6667 19.9346 11.319 19.8096 11.9506L18.0261 11.5978C18.1282 11.0817 18.1818 10.5475 18.1818 10C18.1818 9.45245 18.1282 8.91827 18.0261 8.40218L19.8096 8.04937ZM0 10C0 9.33327 0.0653727 8.681 0.190318 8.04937L1.97394 8.40218C1.87185 8.91827 1.81818 9.45245 1.81818 10C1.81818 10.5475 1.87185 11.0817 1.97394 11.5978L0.190318 11.9506C0.0653727 11.319 0 10.6667 0 10ZM18.3151 15.5568C17.5853 16.6469 16.6469 17.5853 15.5568 18.3151L14.5453 16.8043C15.4379 16.2066 16.2066 15.4379 16.8043 14.5453L18.3151 15.5568ZM4.4432 18.3151C3.35308 17.5853 2.41471 16.6469 1.68489 15.5568L3.19574 14.5453C3.79335 15.4379 4.56206 16.2066 5.45469 16.8043L4.4432 18.3151ZM10 20C9.33327 20 8.681 19.9346 8.04937 19.8096L8.40218 18.0261C8.91827 18.1282 9.45245 18.1818 10 18.1818C10.5475 18.1818 11.0817 18.1282 11.5978 18.0261L11.9506 19.8096C11.319 19.9346 10.6667 20 10 20Z" fill="white"/>
<path d="M10 11.8181C8.99582 11.8181 8.18182 11.0041 8.18182 9.99994C8.18182 8.99576 8.99582 8.18176 10 8.18176C11.0042 8.18176 11.8182 8.99576 11.8182 9.99994C11.8182 11.0041 11.0042 11.8181 10 11.8181Z" fill="white"/>
</g>
</g>
<defs>
<clipPath id="clip0_7_2">
<rect width="20" height="20" fill="white"/>
</clipPath>
</defs>
</svg>
