<svg viewBox="0 0 20 20" xmlns="http://www.w3.org/2000/svg">
<g clip-path="url(#clip0_7_19)">
<mask id="mask0_7_19" style="mask-type:luminance" maskUnits="userSpaceOnUse" x="-1" y="-1" width="22" height="22">
<path d="M20.9091 -0.909058H-0.909088V20.9091H20.9091V-0.909058Z" fill="white"/>
</mask>
<g mask="url(#mask0_7_19)">
<path fill-rule="evenodd" clip-rule="evenodd" d="M0 10C0 4.47715 4.47715 0 10 0C15.5228 0 20 4.47715 20 10C20 15.5228 15.5228 20 10 20C4.47715 20 0 15.5228 0 10ZM10 1.81818C5.4813 1.81818 1.81818 5.4813 1.81818 10C1.81818 14.5187 5.48131 18.1818 10 18.1818C14.5187 18.1818 18.1818 14.5187 18.1818 10C18.1818 5.48131 14.5187 1.81818 10 1.81818Z" fill="white"/>
<path fill-rule="evenodd" clip-rule="evenodd" d="M5.68182 5.63634C5.68182 5.15937 6.06849 4.77271 6.54546 4.77271H13.4546C13.9316 4.77271 14.3182 5.15937 14.3182 5.63634V14.2512C14.3182 14.8932 13.6426 15.3108 13.0683 15.0237L11.8182 14.3986L10.3863 15.1146C10.1431 15.2362 9.85691 15.2362 9.61373 15.1146L8.18182 14.3986L6.93169 15.0237C6.35746 15.3108 5.68182 14.8932 5.68182 14.2512V5.63634ZM7.04546 6.13634V13.4423L7.7956 13.0672C8.03873 12.9456 8.32491 12.9456 8.5681 13.0672L10 13.7832L11.4319 13.0672C11.6751 12.9456 11.9613 12.9456 12.2045 13.0672L12.9546 13.4423V6.13634H7.04546Z" fill="white"/>
<path fill-rule="evenodd" clip-rule="evenodd" d="M6.36365 8.63631C6.36365 8.38531 6.56716 8.18176 6.81819 8.18176H6.98566C7.23669 8.18176 7.4402 8.38531 7.4402 8.63631C7.4402 8.88731 7.23669 9.09085 6.98566 9.09085H6.81819C6.56716 9.09085 6.36365 8.88731 6.36365 8.63631ZM7.78709 8.63631C7.78709 8.38531 7.9906 8.18176 8.24165 8.18176H8.57656C8.82765 8.18176 9.0311 8.38531 9.0311 8.63631C9.0311 8.88731 8.82765 9.09085 8.57656 9.09085H8.24165C7.9906 9.09085 7.78709 8.88731 7.78709 8.63631ZM9.37801 8.63631C9.37801 8.38531 9.58147 8.18176 9.83256 8.18176H10.1675C10.4186 8.18176 10.622 8.38531 10.622 8.63631C10.622 8.88731 10.4186 9.09085 10.1675 9.09085H9.83256C9.58147 9.09085 9.37801 8.88731 9.37801 8.63631ZM10.9689 8.63631C10.9689 8.38531 11.1724 8.18176 11.4235 8.18176H11.7584C12.0095 8.18176 12.2129 8.38531 12.2129 8.63631C12.2129 8.88731 12.0095 9.09085 11.7584 9.09085H11.4235C11.1724 9.09085 10.9689 8.88731 10.9689 8.63631ZM12.5598 8.63631C12.5598 8.38531 12.7633 8.18176 13.0144 8.18176H13.1818C13.4328 8.18176 13.6364 8.38531 13.6364 8.63631C13.6364 8.88731 13.4328 9.09085 13.1818 9.09085H13.0144C12.7633 9.09085 12.5598 8.88731 12.5598 8.63631Z" fill="white"/>
</g>
</g>
<defs>
<clipPath id="clip0_7_19">
<rect width="20" height="20" fill="white"/>
</clipPath>
</defs>
</svg>
