<svg viewBox="0 0 20 20" xmlns="http://www.w3.org/2000/svg">
<g clip-path="url(#clip0_7_27)">
<mask id="mask0_7_27" style="mask-type:luminance" maskUnits="userSpaceOnUse" x="-1" y="-1" width="22" height="22">
<path d="M20.9091 -0.909058H-0.909088V20.9091H20.9091V-0.909058Z" fill="white"/>
</mask>
<g mask="url(#mask0_7_27)">
<path fill-rule="evenodd" clip-rule="evenodd" d="M0 10C0 4.47715 4.47715 0 10 0C15.5228 0 20 4.47715 20 10C20 15.5228 15.5228 20 10 20C4.47715 20 0 15.5228 0 10ZM10 1.81818C5.4813 1.81818 1.81818 5.4813 1.81818 10C1.81818 14.5187 5.48131 18.1818 10 18.1818C14.5187 18.1818 18.1818 14.5187 18.1818 10C18.1818 5.48131 14.5187 1.81818 10 1.81818Z" fill="white"/>
<path fill-rule="evenodd" clip-rule="evenodd" d="M6.36365 10C6.36365 9.49794 6.77067 9.09094 7.27274 9.09094H12.7273C13.2294 9.09094 13.6364 9.49794 13.6364 10C13.6364 10.5021 13.2294 10.9091 12.7273 10.9091H7.27274C6.77067 10.9091 6.36365 10.5021 6.36365 10Z" fill="white"/>
<path fill-rule="evenodd" clip-rule="evenodd" d="M6.36365 13.6364C6.36365 13.1343 6.77067 12.7273 7.27274 12.7273H9.09092C9.59301 12.7273 10 13.1343 10 13.6364C10 14.1385 9.59301 14.5455 9.09092 14.5455H7.27274C6.77067 14.5455 6.36365 14.1385 6.36365 13.6364Z" fill="white"/>
<path fill-rule="evenodd" clip-rule="evenodd" d="M6.36365 6.36368C6.36365 5.86161 6.77067 5.45459 7.27274 5.45459H11.8182C12.3203 5.45459 12.7273 5.86161 12.7273 6.36368C12.7273 6.86575 12.3203 7.27277 11.8182 7.27277H7.27274C6.77067 7.27277 6.36365 6.86575 6.36365 6.36368Z" fill="white"/>
</g>
</g>
<defs>
<clipPath id="clip0_7_27">
<rect width="20" height="20" fill="white"/>
</clipPath>
</defs>
</svg>
