<?xml version="1.0" encoding="iso-8859-1"?>
<!-- Generator: Adobe Illustrator 18.0.0, SVG Export Plug-In . SVG Version: 6.00 Build 0)  -->
<!DOCTYPE svg PUBLIC "-//W3C//DTD SVG 1.1//EN" "http://www.w3.org/Graphics/SVG/1.1/DTD/svg11.dtd">
<svg version="1.1" id="Capa_1" xmlns="http://www.w3.org/2000/svg" xmlns:xlink="http://www.w3.org/1999/xlink" x="0px" y="0px"
	 viewBox="0 0 350 350" style="enable-background:new 0 0 350 350;" xml:space="preserve">
<g>
	<path d="M156.834,62.487c-16.939,0-30.72,8.972-30.72,20s13.781,20,30.72,20s30.719-8.972,30.719-20S173.773,62.487,156.834,62.487
		z"/>
	<g>
		<path d="M267.013,329.333c-10.513,8.301-23.41,12.82-37.01,12.82c-13.231,0-25.803-4.276-36.155-12.153H77.855
			c-19.514,0-35.39-15.875-35.39-35.39v-19.218c9.604,7.996,21.945,12.811,35.39,12.811h92.562
			c-0.191-1.957-0.288-3.935-0.288-5.927c0-4.823,0.576-9.555,1.678-14.128H77.855c-19.514,0-35.39-15.876-35.39-35.39v-19.061
			c9.604,7.998,21.943,12.818,35.39,12.818h130.301c6.866-2.686,14.238-4.107,21.834-4.107c2.371,0,4.74,0.14,7.09,0.418
			l42.653-42.655c3.243-3.239,7.18-5.542,11.47-6.782v-118c0-30.542-24.848-55.39-55.39-55.39H77.855
			c-30.542,0-55.39,24.848-55.39,55.39v177.368c0,0.019,0.002,0.037,0.002,0.055h-0.002v61.797c0,30.542,24.848,55.39,55.39,55.39
			h157.958c17.403,0,32.948-8.075,43.11-20.667H267.013z M97.074,38.752c16.109-10.488,37.332-16.265,59.76-16.265
			c22.427,0,43.65,5.776,59.76,16.265c17.436,11.352,27.037,26.884,27.037,43.735s-9.602,32.384-27.037,43.735
			c-16.109,10.488-37.333,16.265-59.76,16.265c-22.428,0-43.65-5.776-59.76-16.265c-17.436-11.352-27.038-26.884-27.038-43.735
			S79.639,50.104,97.074,38.752z M42.465,152.058c9.604,7.998,21.943,12.817,35.39,12.817h157.958
			c13.446,0,25.785-4.82,35.39-12.817v18.905c0,19.514-15.876,35.39-35.39,35.39H77.855c-19.514,0-35.39-15.876-35.39-35.39V152.058
			z"/>
		<g>
			<path d="M213.305,281.879c-1.172-1.171-3.07-1.172-4.243,0l-4.243,4.242c-0.563,0.563-0.879,1.326-0.879,2.121
				c0,0.796,0.316,1.559,0.879,2.122l17.097,17.099c0.586,0.586,1.354,0.879,2.121,0.879c0.768,0,1.535-0.293,2.121-0.878
				l4.243-4.242c0.563-0.563,0.879-1.326,0.879-2.121c0-0.796-0.315-1.559-0.878-2.122L213.305,281.879z"/>
			<path d="M323.383,188.9c-2.64-2.64-6.295-4.154-10.063-4.154l-14.826,0.176c-3.718,0.045-7.219,1.519-9.858,4.153l-47.297,47.299
				c-3.705-0.912-7.514-1.374-11.349-1.374c-12.627,0-24.496,4.915-33.418,13.84c-8.932,8.931-13.851,20.805-13.851,33.436
				c0,12.631,4.919,24.505,13.851,33.435c8.931,8.93,20.804,13.848,33.432,13.848c12.629,0,24.502-4.918,33.434-13.848
				c11.739-11.736,16.435-28.746,12.472-44.772l47.295-47.296c2.637-2.635,4.112-6.137,4.155-9.859l0.176-14.691
				C327.577,195.297,326.064,191.582,323.383,188.9z M262.884,269.338l0.586,1.758c4.254,12.779,0.99,26.623-8.518,36.129
				c-6.666,6.665-15.526,10.335-24.949,10.335c-9.423,0-18.283-3.67-24.947-10.335c-6.664-6.663-10.335-15.523-10.335-24.949
				c0-9.425,3.671-18.286,10.336-24.951c6.656-6.658,15.511-10.325,24.933-10.325c3.818,0,7.585,0.609,11.193,1.811l1.759,0.586
				c1.077,0.358,2.266,0.079,3.069-0.725l51.105-51.108c0.414-0.413,0.94-0.636,1.521-0.643l14.719-0.176
				c0.564,0,1.142,0.239,1.541,0.638c0.406,0.406,0.645,0.993,0.638,1.568l-0.176,14.692c-0.007,0.579-0.228,1.102-0.64,1.514
				L306,223.877l-5.9-5.899c-1.172-1.171-3.071-1.171-4.243,0.001l-4.242,4.243c-0.563,0.563-0.878,1.326-0.878,2.122
				c0,0.795,0.316,1.559,0.879,2.121l5.899,5.898l-13.25,13.25l-5.898-5.899c-1.172-1.172-3.071-1.171-4.243,0l-4.243,4.242
				c-0.563,0.563-0.879,1.326-0.879,2.122c0,0.795,0.316,1.559,0.879,2.121l5.899,5.9l-12.17,12.171
				C262.806,267.073,262.525,268.261,262.884,269.338z"/>
		</g>
	</g>
</g>
<g>
</g>
<g>
</g>
<g>
</g>
<g>
</g>
<g>
</g>
<g>
</g>
<g>
</g>
<g>
</g>
<g>
</g>
<g>
</g>
<g>
</g>
<g>
</g>
<g>
</g>
<g>
</g>
<g>
</g>
</svg>
