<svg width="1411" height="1416" fill="none" xmlns="http://www.w3.org/2000/svg">
  <circle cx="709.5" cy="705.5" r="272.6" stroke="#F7F7F8" stroke-width="2"/>
  <circle cx="710.4" cy="706.4" r="340.4" stroke="#F7F7F8" stroke-width="2"/>
  <path d="M1120 706a409 409 0 1 1-819 0 409 409 0 0 1 819 0Z" stroke="#F7F7F8" stroke-width="2"/>
  <circle cx="710.3" cy="706.3" r="478.3" stroke="#F7F7F8" stroke-width="2"/>
  <circle cx="710.1" cy="706.1" r="546.1" stroke="#F7F7F8" stroke-width="2"/>
  <circle cx="710" cy="706" r="619" stroke="#F7F7F8" stroke-width="2"/>
  <circle cx="710" cy="706" r="700" stroke="#F7F7F8" stroke-width="2"/>
  <circle cx="776.5" cy="441.5" r="7" fill="#fff" stroke="#F7F7F8" stroke-width="5"/>
  <circle cx="710.5" cy="366.5" r="7" fill="#fff" stroke="#F7F7F8" stroke-width="5"/>
  <circle cx="512.5" cy="347.5" r="7" fill="#fff" stroke="#F7F7F8" stroke-width="5"/>
  <circle cx="964.5" cy="300.5" r="7" fill="#fff" stroke="#F7F7F8" stroke-width="5"/>
  <circle cx="654.5" cy="163.5" r="7" fill="#fff" stroke="#F7F7F8" stroke-width="5"/>
  <circle cx="899.5" cy="116.5" r="7" fill="#fff" stroke="#F7F7F8" stroke-width="5"/>
  <circle cx="760.5" cy="9.5" r="7" fill="#fff" stroke="#F7F7F8" stroke-width="5"/>
  <circle cx="507.5" cy="890.5" r="7" fill="#fff" stroke="#F7F7F8" stroke-width="5"/>
  <circle cx="1120.5" cy="710.5" r="7" fill="#fff" stroke="#F7F7F8" stroke-width="5"/>
  <circle cx="1031.5" cy="958.5" r="7" fill="#fff" stroke="#F7F7F8" stroke-width="5"/>
  <circle cx="1277.5" cy="295.5" r="7" fill="#fff" stroke="#F7F7F8" stroke-width="5"/>
  <circle cx="1395.5" cy="850.5" r="7" fill="#fff" stroke="#F7F7F8" stroke-width="5"/>
  <circle cx="781.5" cy="1248.5" r="7" fill="#fff" stroke="#F7F7F8" stroke-width="5"/>
  <circle cx="701.5" cy="1406.5" r="7" fill="#fff" stroke="#F7F7F8" stroke-width="5"/>
  <circle cx="268.5" cy="1138.5" r="7" fill="#fff" stroke="#F7F7F8" stroke-width="5"/>
  <circle cx="537.5" cy="1078.5" r="7" fill="#fff" stroke="#F7F7F8" stroke-width="5"/>
  <circle cx="1120.5" cy="1064.5" r="7" fill="#fff" stroke="#F7F7F8" stroke-width="5"/>
  <circle cx="191.5" cy="875.5" r="7" fill="#fff" stroke="#F7F7F8" stroke-width="5"/>
  <circle cx="9.5" cy="744.5" r="7" fill="#fff" stroke="#F7F7F8" stroke-width="5"/>
  <circle cx="279.5" cy="259.5" r="7" fill="#fff" stroke="#F7F7F8" stroke-width="5"/>
  <circle cx="279.5" cy="495.5" r="7" fill="#fff" stroke="#F7F7F8" stroke-width="5"/>
  <circle cx="1164.5" cy="553.5" r="7" fill="#fff" stroke="#F7F7F8" stroke-width="5"/>
  <circle cx="821.5" cy="1027.5" r="7" fill="#fff" stroke="#F7F7F8" stroke-width="5"/>
  <circle cx="369.5" cy="725.5" r="7" fill="#fff" stroke="#F7F7F8" stroke-width="5"/>
  <circle cx="973.5" cy="771.5" r="7" fill="#fff" stroke="#F7F7F8" stroke-width="5"/>
</svg>