<?xml version="1.0" standalone="no"?>
<!DOCTYPE svg PUBLIC "-//W3C//DTD SVG 20010904//EN"
 "http://www.w3.org/TR/2001/REC-SVG-20010904/DTD/svg10.dtd">
<svg version="1.0" xmlns="http://www.w3.org/2000/svg"
 width="1368.000000pt" height="1368.000000pt" viewBox="0 0 1368.000000 1368.000000"
 preserveAspectRatio="xMidYMid meet">
<metadata>
Created by potrace 1.14, written by Peter Selinger 2001-2017
</metadata>
<g transform="translate(0.000000,1368.000000) scale(0.100000,-0.100000)"
fill="#000000" stroke="none">
<path d="M6550 13550 c-140 -71 -261 -129 -267 -130 -7 0 -13 -4 -13 -10 0 -5
-4 -10 -9 -10 -10 0 -95 -40 -168 -79 -29 -16 -55 -26 -58 -23 -3 3 -5 0 -5
-6 0 -7 -9 -12 -20 -12 -11 0 -20 -4 -20 -9 0 -5 -12 -12 -27 -16 -15 -3 -30
-10 -33 -13 -6 -9 -465 -236 -465 -231 0 2 -14 -6 -31 -18 -17 -12 -34 -20
-38 -16 -3 3 -6 1 -6 -6 0 -7 -4 -10 -8 -7 -5 3 -19 -2 -32 -11 -12 -9 -90
-49 -174 -90 -83 -40 -155 -78 -160 -83 -6 -6 -16 -10 -24 -10 -8 0 -28 -10
-45 -22 -18 -13 -33 -22 -34 -21 -4 4 -183 -85 -199 -98 -8 -6 -14 -8 -14 -5
0 4 -13 -2 -30 -14 -16 -12 -30 -18 -30 -14 0 4 -8 0 -17 -8 -10 -9 -29 -19
-43 -23 -14 -4 -32 -13 -40 -20 -8 -7 -22 -15 -30 -17 -8 -2 -84 -38 -167 -81
-84 -42 -154 -76 -155 -75 -2 2 -17 -7 -34 -19 -17 -12 -34 -20 -38 -16 -3 3
-6 1 -6 -5 0 -7 -9 -12 -20 -12 -11 0 -20 -4 -20 -9 0 -5 -12 -12 -27 -16 -15
-3 -30 -10 -33 -13 -7 -10 -256 -132 -268 -132 -6 0 -12 -3 -14 -7 -3 -8 -252
-133 -263 -133 -3 0 -11 -5 -18 -10 -7 -6 -138 -73 -292 -151 -154 -77 -282
-145 -283 -150 -2 -5 -7 -7 -12 -4 -5 3 -24 -10 -44 -29 -20 -18 -36 -31 -36
-27 -1 3 -9 -9 -19 -28 -28 -53 -13 -97 52 -146 21 -15 338 -178 704 -362 367
-183 673 -339 681 -346 8 -7 16 -10 16 -8 1 4 320 -153 381 -187 11 -6 35 -17
53 -24 17 -7 32 -16 32 -20 0 -5 3 -7 8 -6 4 1 41 -16 82 -37 78 -41 90 -47
128 -60 12 -4 22 -11 22 -16 0 -5 5 -9 10 -9 10 0 301 -140 310 -150 5 -5 521
-263 530 -265 3 -1 93 -46 200 -100 107 -55 203 -101 213 -103 9 -2 17 -8 17
-13 0 -5 4 -9 10 -9 10 0 44 -16 399 -194 128 -65 232 -119 230 -121 -4 -3
-222 -111 -279 -138 -14 -7 -27 -14 -30 -17 -7 -7 -185 -93 -185 -89 0 1 -19
-10 -42 -24 -24 -15 -43 -25 -43 -21 0 3 -13 -4 -29 -15 -16 -12 -32 -21 -36
-21 -6 0 -246 -119 -303 -150 -9 -5 -143 -71 -297 -147 -154 -76 -283 -142
-286 -146 -3 -5 -10 -9 -15 -9 -8 0 -357 -172 -464 -228 -25 -13 -47 -24 -50
-25 -14 -2 -285 -141 -288 -147 -2 -5 -8 -8 -14 -8 -9 0 -374 -180 -578 -285
-41 -22 -77 -39 -80 -40 -13 -2 -225 -111 -228 -117 -2 -5 -8 -8 -14 -8 -9 0
-272 -129 -373 -184 -16 -9 -36 -16 -42 -16 -7 0 -13 -5 -13 -10 0 -6 -3 -9
-7 -8 -5 1 -24 -6 -43 -17 -19 -10 -42 -20 -50 -21 -8 -2 -16 -8 -18 -13 -2
-6 -12 -11 -22 -11 -10 0 -21 -4 -25 -9 -6 -10 -110 -62 -133 -67 -8 -1 -21
-8 -30 -16 -10 -7 -57 -33 -106 -58 -60 -30 -95 -55 -108 -75 -17 -29 -18
-150 -18 -3601 0 -3812 -2 -3623 45 -3670 36 -36 139 -23 225 30 19 11 36 20
37 18 2 -1 52 22 113 52 60 30 110 51 110 48 0 -4 7 2 16 13 8 11 17 19 20 17
2 -1 26 7 52 19 26 12 50 22 54 21 3 -1 12 5 18 13 7 8 17 15 22 15 5 0 67 28
136 61 70 34 210 102 312 151 102 49 193 93 203 98 40 22 58 32 189 94 75 36
141 66 147 66 5 0 11 5 13 11 2 5 10 11 18 12 8 2 69 29 135 62 66 32 122 60
125 61 3 1 15 5 28 9 12 4 22 11 22 16 0 5 3 8 8 7 4 0 24 6 44 16 21 9 41 16
44 15 4 0 10 3 13 8 10 15 88 52 95 46 3 -4 6 -1 6 5 0 7 4 12 10 12 5 0 88
38 185 85 97 47 186 90 198 95 12 6 29 14 37 19 8 5 47 24 85 42 39 18 73 37
77 43 4 6 8 8 8 4 0 -4 44 15 98 41 53 27 153 76 222 109 69 33 211 101 315
152 105 51 199 96 210 101 11 5 27 13 35 18 8 5 69 35 135 66 66 31 129 61
140 67 28 16 41 22 125 62 41 20 86 48 100 62 l25 27 0 1545 1 1546 109 58
c61 32 117 60 125 64 8 3 22 9 30 14 8 5 53 28 100 52 47 24 111 57 142 75 31
17 59 29 62 25 3 -3 6 -1 6 5 0 6 15 17 33 24 17 7 53 25 80 41 26 15 47 25
47 22 0 -4 6 -2 12 4 7 5 51 29 98 53 47 24 88 47 91 52 3 5 9 8 13 8 3 -1 36
14 74 33 37 19 102 52 144 74 42 21 84 45 93 52 8 7 15 9 15 6 0 -4 14 2 30
14 17 12 30 19 30 16 0 -4 17 4 38 17 20 12 69 38 107 57 39 19 82 42 98 53
15 10 27 16 27 13 0 -3 21 7 48 22 26 15 100 54 165 87 64 33 165 85 225 116
59 30 172 89 252 130 80 40 148 78 151 82 3 5 9 8 13 8 3 -1 34 13 69 31 76
40 267 138 384 198 49 25 90 48 91 53 2 4 9 7 15 7 7 0 23 6 37 13 82 44 582
303 740 383 63 33 117 62 118 67 2 4 12 7 23 7 10 0 19 5 19 10 0 6 9 10 19
10 11 0 21 3 23 8 2 4 60 36 131 72 l127 64 -2 2118 -3 2118 -25 24 c-14 14
-311 169 -660 344 -349 175 -644 323 -655 330 -11 6 -54 27 -96 47 -42 19 -79
39 -83 43 -4 4 -11 7 -14 7 -6 0 -197 95 -232 116 -8 4 -107 54 -220 110 -113
55 -211 106 -217 111 -7 6 -13 7 -13 3 0 -4 -6 -3 -12 3 -17 13 -171 91 -178
89 -3 -1 -18 7 -35 19 -16 11 -46 27 -65 34 -19 7 -47 22 -61 31 -14 10 -29
16 -33 12 -3 -3 -6 -2 -6 4 0 6 -12 14 -27 18 -15 3 -30 10 -33 14 -5 8 -96
50 -107 50 -3 -1 -9 3 -12 8 -8 11 -194 103 -202 100 -3 -1 -13 4 -21 10 -19
16 -193 103 -206 103 -6 0 -12 3 -14 8 -3 8 -308 162 -321 162 -4 0 -13 5 -20
10 -7 6 -154 82 -327 168 -233 117 -326 158 -355 159 -33 2 -86 -21 -295 -127z"/>
</g>
</svg>
