<?xml version="1.0" encoding="UTF-8"?>
<svg width="599px" height="401px" viewBox="0 0 599 401" version="1.1" xmlns="http://www.w3.org/2000/svg" xmlns:xlink="http://www.w3.org/1999/xlink">
    <!-- Generator: Sketch 59.1 (86144) - https://sketch.com -->
    <title>Group 32</title>
    <desc>Created with Sketch.</desc>
    <defs>
        <linearGradient x1="0%" y1="49.2941868%" x2="100%" y2="50.7058132%" id="linearGradient-1">
            <stop stop-color="#ED5B35" offset="0%"></stop>
            <stop stop-color="#EA3AC5" offset="100%"></stop>
        </linearGradient>
        <linearGradient x1="100%" y1="100%" x2="0%" y2="0%" id="linearGradient-2">
            <stop stop-color="#003483" offset="0%"></stop>
            <stop stop-color="#004BFF" offset="100%"></stop>
        </linearGradient>
        <linearGradient x1="100%" y1="0%" x2="0%" y2="100%" id="linearGradient-3">
            <stop stop-color="#003483" offset="0%"></stop>
            <stop stop-color="#0049F7" offset="100%"></stop>
        </linearGradient>
        <linearGradient x1="0%" y1="29.7520661%" x2="100%" y2="70.2479339%" id="linearGradient-4">
            <stop stop-color="#CEDBE5" offset="0%"></stop>
            <stop stop-color="#A7BECF" offset="100%"></stop>
        </linearGradient>
        <linearGradient x1="0%" y1="0%" x2="100%" y2="100%" id="linearGradient-5">
            <stop stop-color="#F6F9FB" offset="0%"></stop>
            <stop stop-color="#D7DFE4" offset="100%"></stop>
        </linearGradient>
    </defs>
    <g id="Design" stroke="none" stroke-width="1" fill="none" fill-rule="evenodd">
        <g id="Group-32" transform="translate(0.000000, 1.000000)">
            <text id="from-prefect-import" font-family="CourierNewPS-BoldItalicMT, Courier New" font-size="10" font-style="italic" font-weight="bold" line-spacing="14">
                <tspan x="0" y="78" fill="#67D8FB">from</tspan>
                <tspan x="24.0039062" y="78" font-family="CourierNewPSMT, Courier New" font-weight="normal" fill="#4A4A4A"> prefect </tspan>
                <tspan x="78.0126953" y="78" fill="#67D8FB">import</tspan>
                <tspan x="114.018555" y="78" font-family="CourierNewPSMT, Courier New" font-weight="normal" fill="#4A4A4A"> task, Flow</tspan>
                <tspan x="0" y="92" font-family="CourierNewPSMT, Courier New" font-weight="normal" fill="#4A4A4A"></tspan>
                <tspan x="0" y="106" font-family="CourierNewPSMT, Courier New" font-weight="normal" fill="#4A4A4A">@task</tspan>
                <tspan x="0" y="120" fill="#67D8FB">def</tspan>
                <tspan x="18.0029297" y="120" font-family="CourierNewPSMT, Courier New" font-weight="normal" fill="#4A4A4A"> </tspan>
                <tspan x="24.0039062" y="120" font-family="CourierNewPS-BoldMT, Courier New" fill="#178CFF">say_hello():</tspan>
                <tspan x="96.015625" y="120" font-family="CourierNewPSMT, Courier New" font-weight="normal" fill="#4A4A4A"></tspan>
                <tspan x="0" y="134" font-family="CourierNewPSMT, Courier New" font-weight="normal" fill="#4A4A4A">    </tspan>
                <tspan x="24.0039062" y="134" fill="#67D8FB">print</tspan>
                <tspan x="54.0087891" y="134" font-family="CourierNewPSMT, Courier New" font-weight="normal" fill="#008BFF">(</tspan>
                <tspan x="60.0097656" y="134" font-family="CourierNewPSMT, Courier New" font-weight="normal" fill="#EB3AC5">"Hello, world!"</tspan>
                <tspan x="150.024414" y="134" font-family="CourierNewPSMT, Courier New" font-weight="normal" fill="#009AFF">)</tspan>
                <tspan x="156.025391" y="134" font-family="CourierNewPSMT, Courier New" font-weight="normal" fill="#4A4A4A"></tspan>
                <tspan x="0" y="148" font-family="CourierNewPSMT, Courier New" font-weight="normal" fill="#4A4A4A"></tspan>
                <tspan x="0" y="162" fill="#67D8FB">with</tspan>
                <tspan x="24.0039062" y="162" font-family="CourierNewPSMT, Courier New" font-weight="normal" fill="#4A4A4A"> Flow</tspan>
                <tspan x="54.0087891" y="162" font-family="CourierNewPSMT, Courier New" font-weight="normal" fill="#009AFF">(</tspan>
                <tspan x="60.0097656" y="162" font-family="CourierNewPSMT, Courier New" font-weight="normal" fill="#EB3AC4">"My First Flow"</tspan>
                <tspan x="150.024414" y="162" font-family="CourierNewPSMT, Courier New" font-weight="normal" fill="#009AFF">)</tspan>
                <tspan x="156.025391" y="162" font-family="CourierNewPSMT, Courier New" font-weight="normal" fill="#4A4A4A"> </tspan>
                <tspan x="162.026367" y="162" fill="#67D8FB">as</tspan>
                <tspan x="174.02832" y="162" font-family="CourierNewPSMT, Courier New" font-weight="normal" fill="#4A4A4A"> flow:</tspan>
                <tspan x="0" y="176" font-family="CourierNewPSMT, Courier New" font-weight="normal" fill="#4A4A4A">    say_hello</tspan>
                <tspan x="78.0126953" y="176" font-family="CourierNewPSMT, Courier New" font-weight="normal" fill="#009AFF">()</tspan>
                <tspan x="90.0146484" y="176" font-family="CourierNewPSMT, Courier New" font-weight="normal" fill="#4A4A4A"></tspan>
                <tspan x="0" y="190" font-family="CourierNewPSMT, Courier New" font-weight="normal" fill="#4A4A4A"></tspan>
                <tspan x="0" y="204" font-family="CourierNewPSMT, Courier New" font-weight="normal" fill="#4A4A4A">flow.run() </tspan>
                <tspan x="66.0107422" y="204" font-family="CourierNewPS-ItalicMT, Courier New" font-weight="normal" fill="#819BAA"># "Hello, world!"</tspan>
            </text>
            <circle id="Oval-Copy-42" stroke="#003483" stroke-width="3" fill="#FFFFFF" cx="547" cy="185" r="10"></circle>
            <circle id="Oval-Copy-43" stroke="#003483" stroke-width="3" fill="#FFFFFF" cx="567" cy="185" r="10"></circle>
            <circle id="Oval-Copy-44" stroke="#003483" stroke-width="3" fill="#FFFFFF" cx="587" cy="185" r="10"></circle>
            <path d="M483,50.8260493 C487.143054,54.9420164 490.380032,57 492.710935,57 C495.041839,57 498.538194,54.9420164 503.2,50.8260493 C507.692461,46.9420164 511.061807,45 513.308038,45 C515.554268,45 518.918256,46.9420164 523.4,50.8260493 C527.73505,54.9420164 531.044028,57 533.326932,57 C535.609836,57 539.034192,54.9420164 543.6,50.8260493 C547.824135,46.9420164 551.091519,45 553.402152,45 C555.712785,45 559.178734,46.9420164 563.8,50.8260493 C568.170712,54.9420164 571.493063,57 573.767051,57 C576.04104,57 579.452023,54.9420164 584,50.8260493" id="Path-54-Copy-5" stroke="url(#linearGradient-1)" stroke-width="3" stroke-linecap="round" transform="translate(533.500000, 51.000000) rotate(-90.000000) translate(-533.500000, -51.000000) "></path>
            <g id="Group-31" transform="translate(305.000000, 245.983195)">
                <g id="Group-30" transform="translate(23.500000, 36.000000) rotate(-270.000000) translate(-23.500000, -36.000000) translate(-12.000000, 31.000000)">
                    <rect id="Rectangle-Copy-157" stroke="#002680" stroke-width="3" fill="#FFFFFF" x="1.5" y="1.5" width="68" height="7" rx="2"></rect>
                    <rect id="Rectangle-Copy-161" fill="#99DAFF" x="19" y="3" width="38" height="4"></rect>
                </g>
                <g id="Group-28" transform="translate(41.000000, 41.500000) rotate(-270.000000) translate(-41.000000, -41.500000) translate(10.000000, 36.000000)">
                    <rect id="Rectangle-Copy-158" stroke="#002680" stroke-width="3" fill="#FFFFFF" x="1.5168045" y="2" width="58" height="7" rx="2"></rect>
                    <rect id="Rectangle-Copy-160" fill="#99DAFF" x="3.0168045" y="3.5" width="41" height="4"></rect>
                </g>
                <g id="Group-28-Copy" transform="translate(16.000000, 43.000000) rotate(-270.000000) translate(-16.000000, -43.000000) translate(-12.500000, 38.000000)">
                    <rect id="Rectangle-Copy-158" stroke="#002680" stroke-width="3" fill="#FFFFFF" x="1.5" y="1.5" width="54" height="7" rx="2"></rect>
                    <rect id="Rectangle-Copy-160" fill="#99DAFF" x="3" y="3" width="38" height="4"></rect>
                </g>
                <g id="Group-29" transform="translate(32.000000, 43.000000) rotate(-270.000000) translate(-32.000000, -43.000000) translate(3.500000, 36.500000)">
                    <rect id="Rectangle-Copy-159" stroke="#002680" stroke-width="3" fill="#FFFFFF" x="1.5" y="1.5" width="54" height="10" rx="2"></rect>
                    <rect id="Rectangle-Copy-162" fill="#99DAFF" x="19" y="3" width="19" height="7"></rect>
                    <rect id="Rectangle-Copy-163" fill="#99DAFF" x="41" y="3" width="3" height="7"></rect>
                    <rect id="Rectangle-Copy-164" fill="#99DAFF" x="13" y="3" width="3" height="7"></rect>
                </g>
                <g id="Group-29-Copy" transform="translate(7.000000, 45.500000) rotate(-270.000000) translate(-7.000000, -45.500000) translate(-19.000000, 39.000000)">
                    <rect id="Rectangle-Copy-159" stroke="#002680" stroke-width="3" fill="#FFFFFF" x="2.0168045" y="1.5" width="48" height="10" rx="2"></rect>
                    <rect id="Rectangle-Copy-162" fill="#99DAFF" x="17.5168045" y="3" width="17" height="7"></rect>
                    <rect id="Rectangle-Copy-164" fill="#99DAFF" x="12.5168045" y="3" width="3" height="7"></rect>
                </g>
                <g id="Group-29-Copy-2" transform="translate(49.500000, 45.500000) rotate(-270.000000) translate(-49.500000, -45.500000) translate(23.500000, 39.000000)">
                    <rect id="Rectangle-Copy-159" stroke="#002680" stroke-width="3" fill="#FFFFFF" x="2.0168045" y="1.5" width="48" height="10" rx="2"></rect>
                    <rect id="Rectangle-Copy-162" fill="#99DAFF" x="17.5168045" y="3" width="17" height="7"></rect>
                    <rect id="Rectangle-Copy-163" fill="#99DAFF" x="37.5168045" y="3" width="3" height="7"></rect>
                </g>
            </g>
            <g id="Group-26" transform="translate(175.500000, 267.500000) scale(-1, 1) translate(-175.500000, -267.500000) translate(22.000000, 135.000000)">
                <path d="M222,180 C222,80.588745 141.411255,0 42,0 L42,180 L222,180 Z" id="Shape-Copy-14" fill="url(#linearGradient-2)"></path>
                <path d="M42,222 C42,198.804041 23.1959595,180 0,180 L0,222 L42,222 Z" id="Shape-Copy-15" fill="url(#linearGradient-3)" transform="translate(21.000000, 201.000000) rotate(-270.000000) translate(-21.000000, -201.000000) "></path>
                <path d="M307,265 C307,218.055796 268.944204,180 222,180 L222,265 L307,265 Z" id="Shape-Copy-16" fill="url(#linearGradient-3)" transform="translate(264.500000, 222.500000) rotate(-270.000000) translate(-264.500000, -222.500000) "></path>
            </g>
            <line x1="366.02461" y1="127" x2="226" y2="127" id="Path-4-Copy-17" stroke="#CBF6FF" stroke-width="8" stroke-linecap="round"></line>
            <line x1="0" y1="316" x2="568" y2="316" id="Path-37-Copy-4" stroke="#002680" stroke-width="3"></line>
            <g id="Group-27" transform="translate(145.000000, 105.000000)">
                <path d="M8.63905819,140 L8.63905819,128 C9.98140406,117.480646 13.5054501,110.15149 19.2111962,106.012532 C21.7094246,104.200312 25.0629549,103.449897 27.8577184,102.431147 C30.2498812,101.559154 33.7973084,100.245907 38.5,98.4914055 C41.6985291,104.881339 44.5639274,108.956803 47.0961948,110.717797 C49.6284622,112.478791 54.0963973,113.906192 60.5,115 C66.2573322,114.3204 70.3800573,113.12047 72.8681753,111.400209 C74.6802401,110.147365 77.4290227,107.992557 80,104 C80.6394609,103.00696 81.4657158,101.170761 82.4787645,98.4914055 L103.629951,106.012532 C107.681898,109.578281 110.281396,112.267866 111.428446,114.081288 C112.575496,115.894709 113.355149,118.547374 113.767405,122.039283 L113.767405,140 L8.63905819,140 Z" id="Path-140" fill="#FFFFFF"></path>
                <g id="Group-25-Copy-2">
                    <g id="Group-5-Copy-3" transform="translate(0.000000, 25.000000)">
                        <path d="M49.6061776,53.4802123 L71.5212355,53.4802123 L71.5212355,68.9813954 L82.4787645,72.3313774 C80.2298153,77.5607135 77.490201,81.5764692 74.2599218,84.3786443 C71.0296425,87.1808195 66.4642374,88.7483672 60.5637066,89.0812875 C55.3723618,88.7483672 50.8083517,87.1808195 46.8716762,84.3786443 C42.9350007,81.5764692 40.1939915,77.5607135 38.6486486,72.3313774 L49.6061776,68.9813954 L49.6061776,53.4802123 Z" id="Path-30" fill="#0085FF"></path>
                        <polygon id="Path-31" fill="#004BFF" points="71.7335907 53.4802123 56.4440154 57.4903459 71.7335907 69.186569"></polygon>
                        <path d="M37.9756629,9.73586029 C45.000561,4.80286214 51.2795141,1.87108457 56.8125223,0.940527579 C62.3455305,0.00997058737 71.2714166,0.48400385 83.5901807,2.36262737 L83.5901807,31.9246671 C82.9336014,37.7658494 81.9835168,41.9523757 80.7399267,44.4842461 C79.4963366,47.0161166 76.4243115,50.2676432 71.5238515,54.238826 C66.7156215,57.0880299 63.0622399,58.5126319 60.5637066,58.5126319 C58.0651732,58.5126319 54.4117916,57.0880299 49.6035616,54.238826 C44.9315117,50.2944388 41.967111,47.0429121 40.7103596,44.4842461 C39.4536082,41.9255801 38.5420426,37.7390538 37.9756629,31.9246671 L37.9756629,9.73586029 Z" id="Path-29" fill="#0085FF"></path>
                        <path d="M82.4787645,72.1122629 C81.0238229,82.3201542 71.6576363,89.9128005 60.5637066,89.9128005 C49.4697768,89.9128005 40.1945241,82.2357914 38.6486486,72.1122629 L38.6486486,72.1122629" id="Path" stroke="#003483" stroke-width="3" fill-rule="nonzero"></path>
                        <path d="M50.4131274,67.0923881 L50.4131274,56.4844302 C50.027027,56.2476537 48.0694981,54.4248431 47.9407979,54.1880665 C42.1492921,49.8077005 39.128008,43.7662783 37.8410067,37.0181468 L37.5836064,35.7158759 C37.197506,33.9400518 37.0688059,32.1642277 37.0688059,30.3884036 L37.0688059,18.237546" id="Shape" stroke="#003483" stroke-width="3" fill-rule="nonzero"></path>
                        <path d="M84.7286704,67.0923881 L84.7286704,56.4844302 C84.34257,56.2476537 82.3850411,54.4248431 82.2563409,54.1880665 C76.4648351,49.8077005 72.7734878,43.5331221 71.4864865,36.7849906 L71.2290862,35.4827197 C70.8429858,33.7068956 70.7142857,31.9310715 70.7142857,30.1552474 L70.7142857,19.3465874" id="Shape-Copy" stroke="#003483" stroke-width="3" fill-rule="nonzero" transform="translate(77.721478, 43.219488) scale(-1, 1) translate(-77.721478, -43.219488) "></path>
                        <path d="M36.4603728,74.804094 L50.4131274,70.1748831 L50.4131274,58.7156645" id="Shape" stroke="#003483" stroke-width="3" fill-rule="nonzero"></path>
                        <path d="M70.5868726,70.0214114 L99,79.2825019 C102.030073,81.0751169 104.477427,83.1681006 106.342062,85.5614532 C108.206696,87.9548059 109.658884,90.8732347 110.698624,94.3167398 L121,152.168487 L102.142857,152.168487 L93.988417,108.591046 L93.988417,152.168487 L22.0322121,152.168487 L22.0322121,108.591046 L16.5,152.206983 L1.8189894e-12,152.206983 L7.85714286,94.3167398 C8.41432529,87.3408534 15.7917689,81.4474322 22.0322121,79.2825019 L50.2857143,70.0214114 L50.2857143,58.7156645" id="Shape-Copy-2" stroke="#003483" stroke-width="3" fill-rule="nonzero" transform="translate(60.500000, 105.461324) scale(-1, 1) translate(-60.500000, -105.461324) "></path>
                    </g>
                    <path d="M61.2319356,9.7711861 C59.3439039,11.0209617 61.3946429,9.33980262 67.3841526,4.7277089 C73.3736623,0.115615183 76.0600699,-0.203978301 75.4433755,3.76892845 C74.4371164,6.96759733 76.9000951,6.81620001 82.8323115,3.31473651 C88.764528,-0.186726995 91.9151222,0.284263803 92.2840943,4.7277089 C92.2810749,6.62172008 93.8448493,7.56872566 96.9754175,7.56872566 C100.105986,7.56872566 101.230219,8.87006849 100.348116,11.4727541 C98.327028,14.7946639 100.186247,16.2746121 105.925774,15.9125985 C111.6653,15.550585 113.975378,17.0904769 112.856008,20.5322743 C111.59549,22.9310501 112.30629,26.0631324 114.98841,29.9285212 C117.67053,33.79391 117.67053,37.0857175 114.98841,39.8039436 C111.399449,41.7725309 110.256515,43.9829503 111.55961,46.435202 C112.862704,48.8874537 112.862704,51.9920351 111.55961,55.7489463 C109.351265,59.8347256 106.852286,61.8776152 104.062675,61.8776152 C101.273063,61.8776152 99.3381827,64.2923901 98.2580329,69.1219399 C97.8913715,73.2027606 95.1224983,75.243171 89.9514132,75.243171 C82.8323115,75.243171 74.7459803,85.0575149 71.9108176,81.0297055 C70.8825778,79.5689238 82.4738656,70.8009206 81.8808529,67.6345002 C81.6469626,66.3856312 82.9694385,64.0951314 83.5,59.9308763 C83.7506807,57.9633414 83.927309,54.14117 84.029885,48.464362 C80.6483294,45.7357598 78.0945068,43.032886 76.3684171,40.3557406 C72.82327,34.8572577 71.4887406,29.6307256 67.3841526,28.4156195 C65.3892969,27.8250703 63.1423289,28.6594819 60.8420431,28.4156195 C46.2571693,26.8694191 46.3871335,20.654608 61.2319356,9.7711861 Z" id="Combined-Shape" fill="#003483"></path>
                    <path d="M16.2319356,8.7711861 C14.3439039,10.0209617 16.3946429,8.33980262 22.3841526,3.7277089 C28.3736623,-0.884384817 31.0600699,-1.2039783 30.4433755,2.76892845 C29.4371164,5.96759733 31.9000951,5.81620001 37.8323115,2.31473651 C43.764528,-1.186727 46.9151222,-0.715736197 47.2840943,3.7277089 C47.2810749,5.62172008 48.8448493,6.56872566 51.9754175,6.56872566 C55.1059856,6.56872566 56.2302185,7.87006849 55.3481162,10.4727541 C53.327028,13.7946639 55.1862472,15.2746121 60.9257736,14.9125985 C66.6653,14.550585 68.9753782,16.0904769 67.8560083,19.5322743 C66.5954896,21.9310501 67.3062902,25.0631324 69.9884101,28.9285212 C72.67053,32.79391 72.67053,36.0857175 69.9884101,38.8039436 C66.3994488,40.7725309 65.2565154,42.9829503 66.5596098,45.435202 C67.8627042,47.8874537 67.8627042,50.9920351 66.5596098,54.7489463 C64.3512645,58.8347256 61.8522862,60.8776152 59.0626747,60.8776152 C56.2730633,60.8776152 54.3381827,63.2923901 53.2580329,68.1219399 C52.8913715,72.2027606 50.1224983,74.243171 44.9514132,74.243171 C37.8323115,74.243171 29.7459803,84.0575149 26.9108176,80.0297055 C25.8825778,78.5689238 38.4253242,69.3045439 37.8323115,66.1381235 C37.4326578,64.0041526 37.8571084,57.7235551 39.1056633,47.2963308 C35.6735888,44.6797494 33.0945068,42.032886 31.3684171,39.3557406 C27.82327,33.8572577 26.4887406,28.6307256 22.3841526,27.4156195 C20.3892969,26.8250703 18.1423289,27.6594819 15.8420431,27.4156195 C1.25716933,25.8694191 1.3871335,19.654608 16.2319356,8.7711861 Z" id="Combined-Shape-Copy-6" fill="#003483" transform="translate(38.500000, 40.500000) scale(-1, 1) translate(-38.500000, -40.500000) "></path>
                </g>
            </g>
            <rect id="Rectangle-Copy-146" fill="url(#linearGradient-4)" x="146" y="238" width="121" height="77" rx="4"></rect>
            <circle id="Oval-Copy-41" fill="url(#linearGradient-5)" cx="207" cy="277" r="9"></circle>
            <path d="M2,24.8260493 C6.14305368,28.9420164 9.38003214,31 11.7109354,31 C14.0418386,31 17.5381935,28.9420164 22.2,24.8260493 C26.6924613,20.9420164 30.0618072,19 32.3080378,19 C34.5542685,19 37.9182559,20.9420164 42.4,24.8260493 C46.7350504,28.9420164 50.0440276,31 52.3269317,31 C54.6098357,31 58.0341919,28.9420164 62.6,24.8260493 C66.8241351,20.9420164 70.0915191,19 72.402152,19 C74.7127849,19 78.1787342,20.9420164 82.8,24.8260493 C87.1707123,28.9420164 90.4930628,31 92.7670514,31 C95.0410399,31 98.4520228,28.9420164 103,24.8260493" id="Path-54-Copy-4" stroke="url(#linearGradient-1)" stroke-width="3" stroke-linecap="round"></path>
            <rect id="Rectangle-Copy-5" fill="#07E798" x="283" y="28" width="97" height="30" rx="4"></rect>
            <rect id="Rectangle-Copy-8" fill="#0085FF" x="380" y="77" width="100" height="30" rx="4"></rect>
            <rect id="Rectangle-Copy-13" fill="#FF2637" x="423" y="173" width="49" height="30" rx="4"></rect>
            <rect id="Rectangle-Copy-23" fill="#2DDAFF" transform="translate(539.000000, 282.000000) scale(-1, 1) translate(-539.000000, -282.000000) " x="480" y="267" width="118" height="30" rx="4"></rect>
            <rect id="Rectangle-Copy-9" fill="#07E798" x="392" y="126" width="69" height="30" rx="4"></rect>
            <rect id="Rectangle-Copy-147" fill="#07E798" x="410" y="220" width="83" height="30" rx="4"></rect>
            <rect id="Rectangle-Copy-148" stroke="#002680" stroke-width="3" x="392.5" y="124.5" width="66" height="27"></rect>
            <rect id="Rectangle-Copy-149" stroke="#002680" stroke-width="3" x="380.5" y="75.5" width="97" height="27"></rect>
            <rect id="Rectangle-Copy-154" stroke="#002680" stroke-width="3" x="423.5" y="171.5" width="46" height="27"></rect>
            <rect id="Rectangle-Copy-155" stroke="#002680" stroke-width="3" x="410.5" y="218.5" width="80" height="27"></rect>
            <rect id="Rectangle-Copy-156" stroke="#002680" stroke-width="3" x="480.5" y="265.5" width="115" height="27"></rect>
            <rect id="Rectangle-Copy-150" stroke="#002680" stroke-width="3" x="283.5" y="26.5" width="94" height="27"></rect>
            <circle id="Oval-Copy-45" stroke="#003483" stroke-width="3" fill="#FFFFFF" cx="67" cy="264" r="12"></circle>
            <circle id="Oval-Copy-47" stroke="#003483" stroke-width="3" fill="#FFFFFF" cx="91" cy="264" r="12"></circle>
            <circle id="Oval-Copy-48" stroke="#003483" stroke-width="3" fill="#FFFFFF" cx="115" cy="264" r="12"></circle>
            <path d="M394.165155,310.510401 L374.767496,320.448363 C371.364116,320.15476 368.554813,318.562645 366.339585,315.672019 C364.124358,312.781392 362.957485,309.236106 362.838966,305.036159 C362.758784,304.456128 362.88337,304.083613 363.212726,303.918614 C363.542081,303.753615 363.970088,303.849293 364.496748,304.20565 C366.248163,305.343337 367.660803,305.983515 368.73467,306.126185 C371.072188,306.436738 372.175127,305.874763 373.856799,305.154718 C377.539935,303.577702 377.281749,301.295886 376.725838,300.223154 C376.35523,299.508 375.278301,298.652797 373.495051,297.657543 C371.928313,297.057169 370.849635,295.893267 370.259017,294.165837 C369.668399,292.438407 369.798422,290.548782 370.649086,288.496961 C371.043019,287.461893 371.723129,286.487035 372.689416,285.572389 C373.655704,284.657743 374.807839,284.029207 376.145822,283.686782 C377.465681,283.453403 378.600269,283.453403 379.549587,283.686782 C380.498906,283.92016 381.316606,284.482132 382.002686,285.372699 C382.239474,285.628813 382.451066,285.916942 382.637461,286.237086 C382.917053,286.717302 383.958477,288.106923 384.46044,288.442095 C384.795082,288.665544 385.34232,288.63408 386.102152,288.347704 C386.70182,288.022166 387.131922,287.80852 387.392458,287.706767 C388.1214,287.422075 388.69842,287.343189 388.933161,287.389009 C389.173392,287.435902 389.490229,287.576813 389.505897,288.027059 C389.50956,288.130258 389.429495,288.841944 388.820652,289.979778 C388.635062,290.326617 388.255857,290.816814 387.683038,291.450367 C388.449908,291.649791 389.000161,292.119472 389.333798,292.859411 C389.667435,293.59935 388.887213,293.973157 386.99313,293.98083 C386.094464,294.03599 385.417555,294.257965 384.962403,294.646755 C384.279676,295.22994 384.302634,295.376063 384.151429,295.713834 C383.940396,296.18525 384.634014,297.844998 385.566419,298.607007 C385.694001,298.711273 386.865737,299.411231 388.216329,299.367361 C390.850952,299.281783 393.207822,298.787471 395.430199,301.127089 C395.737271,301.450361 397.984009,304.198516 397.32979,306.741556 C396.893644,308.436915 395.838766,309.693197 394.165155,310.510401 Z" id="Path-141" fill="#2DDAFF" transform="translate(380.132010, 301.980056) rotate(27.000000) translate(-380.132010, -301.980056) "></path>
            <path d="M394.165155,310.510401 L374.767496,320.448363 C371.364116,320.15476 368.554813,318.562645 366.339585,315.672019 C364.124358,312.781392 362.957485,309.236106 362.838966,305.036159 C362.758784,304.456128 362.88337,304.083613 363.212726,303.918614 C363.542081,303.753615 363.970088,303.849293 364.496748,304.20565 C366.248163,305.343337 367.660803,305.983515 368.73467,306.126185 C371.072188,306.436738 372.175127,305.874763 373.856799,305.154718 C377.539935,303.577702 377.281749,301.295886 376.725838,300.223154 C376.35523,299.508 375.278301,298.652797 373.495051,297.657543 C371.928313,297.057169 370.849635,295.893267 370.259017,294.165837 C369.668399,292.438407 369.798422,290.548782 370.649086,288.496961 C371.043019,287.461893 371.723129,286.487035 372.689416,285.572389 C373.655704,284.657743 374.807839,284.029207 376.145822,283.686782 C377.465681,283.453403 378.600269,283.453403 379.549587,283.686782 C380.498906,283.92016 381.316606,284.482132 382.002686,285.372699 C382.239474,285.628813 382.451066,285.916942 382.637461,286.237086 C382.917053,286.717302 383.958477,288.106923 384.46044,288.442095 C384.795082,288.665544 385.34232,288.63408 386.102152,288.347704 C386.70182,288.022166 387.131922,287.80852 387.392458,287.706767 C388.1214,287.422075 388.69842,287.343189 388.933161,287.389009 C389.173392,287.435902 389.490229,287.576813 389.505897,288.027059 C389.50956,288.130258 389.429495,288.841944 388.820652,289.979778 C388.635062,290.326617 388.255857,290.816814 387.683038,291.450367 C388.449908,291.649791 389.000161,292.119472 389.333798,292.859411 C389.667435,293.59935 388.887213,293.973157 386.99313,293.98083 C386.094464,294.03599 385.417555,294.257965 384.962403,294.646755 C384.279676,295.22994 384.302634,295.376063 384.151429,295.713834 C383.940396,296.18525 384.634014,297.844998 385.566419,298.607007 C385.694001,298.711273 386.865737,299.411231 388.216329,299.367361 C390.850952,299.281783 393.207822,298.787471 395.430199,301.127089 C395.737271,301.450361 397.984009,304.198516 397.32979,306.741556 C396.893644,308.436915 395.838766,309.693197 394.165155,310.510401 Z" id="Path-141" stroke="#002680" stroke-width="3" transform="translate(380.132010, 301.980056) rotate(27.000000) translate(-380.132010, -301.980056) "></path>
            <circle id="Oval-Copy-24" fill="#CBF6FF" cx="347.5" cy="109" r="4"></circle>
            <circle id="Oval-Copy-49" fill="#CBF6FF" cx="263" cy="175" r="4"></circle>
            <g id="Group-6" transform="translate(291.448385, 93.250000) rotate(-30.000000) translate(-291.448385, -93.250000) translate(262.948385, 58.750000)" stroke="#CBF6FF" stroke-linecap="round" stroke-width="8">
                <line x1="-3.03923795" y1="52.6314458" x2="60.7029282" y2="52.6314458" id="Path-16-Copy" transform="translate(28.831845, 52.631446) rotate(30.000000) translate(-28.831845, -52.631446) "></line>
                <line x1="-2.24842167" y1="13.7447007" x2="49.223655" y2="13.7447007" id="Path-16-Copy-2" transform="translate(23.487617, 13.744701) rotate(30.000000) translate(-23.487617, -13.744701) "></line>
            </g>
            <line x1="398" y1="204" x2="268" y2="204" id="Path-4-Copy" stroke="#CBF6FF" stroke-width="8" stroke-linecap="round"></line>
            <line x1="398" y1="143" x2="332" y2="143" id="Path-4-Copy-18" stroke="#CBF6FF" stroke-width="8" stroke-linecap="round"></line>
            <line x1="340" y1="175" x2="278.09844" y2="175" id="Path-4-Copy-2" stroke="#CBF6FF" stroke-width="8" stroke-linecap="round"></line>
            <line x1="366.02461" y1="159" x2="314.07383" y2="159" id="Path-4-Copy-16" stroke="#CBF6FF" stroke-width="8" stroke-linecap="round"></line>
        </g>
    </g>
</svg>