<svg xmlns="http://www.w3.org/2000/svg" viewBox="0 0 1625.65 415.24"><title>prefect-logo-full-flat-white</title><path d="M577,488.76V311.24H680.33c47.32,0,64.77,15.85,64.77,57.82s-17.45,57.49-64.77,57.49H611.59v62.21ZM611.59,396h65.52c24.84,0,33.3-6.64,33.3-27s-8.46-27.3-33.3-27.3H611.59Zm158.14,92.72V311.24H871c45.4,0,62.1,15.63,62.1,56.43,0,34.47-11.89,50.64-42.83,54.81l51.61,66.28H899.6l-50-65.21H803.45v65.21Zm33.83-95.4h64.67c23.23,0,31.15-6.64,31.15-25.48,0-19.38-8.24-26.23-31.15-26.23H803.56Zm154.82,95.4V311.24h153.74v30.52H992.42v41.86h101.72v30.19H992.42v44.54h121.84v30.41Zm184.47,0V311.24h155.78v30.52h-121v41.86h102.67v30.19H1177.65v74.95Zm176.34,0V311.24h153.75v30.52h-119.7v41.86h101.82v30.19H1353.24v44.54h121.84v30.41Zm340.36-177.52h155.78v31.05h-64.77V488.76h-34.48V342.18H1587.82c-61.89,0-62-.53-62,57.82s0,58.35,62,58.35h55.89v30.41h-55.89c-96.47,0-96.47-5.78-96.47-88.76s-1.39-88.76,96.47-88.76Z" transform="translate(-189.68 -192.38)" style="fill:#fff;fill-rule:evenodd"/><polygon points="246.29 199.67 139.88 146.41 139.88 254.37 246.29 199.67" style="fill:#fff;fill-rule:evenodd"/><path d="M197.45,606.25c.27-.16,118.66-57.55,118.77-57.6,1.62-1,2.54-1.24,2.59-4.1,0-.27-.05-223.4-.05-223.4C268.59,346.23,198,381.45,191.9,384.68c-1.94,1.08-2.21,2-2.21,3.4v212.4C189.63,605.28,190,610,197.45,606.25Z" transform="translate(-189.68 -192.38)" style="fill:#fff;fill-rule:evenodd"/><path d="M447.88,259.32V385.93S206.75,265.31,198.38,261c-5.55-2.91-5.55-5.66,0-8.79,5.13-2.86,103-51.65,118-59.15,1.94-.86,2.54-.86,4.26-.16l124.83,62.55c1.78.86,2.32,1.72,2.43,3.88Z" transform="translate(-189.68 -192.38)" style="fill:#fff;fill-rule:evenodd"/></svg>