<?xml version="1.0" encoding="UTF-8"?>
<svg width="24px" height="38px" viewBox="0 0 24 38" version="1.1" xmlns="http://www.w3.org/2000/svg" xmlns:xlink="http://www.w3.org/1999/xlink">
    <!-- Generator: Sketch 54.1 (76490) - https://sketchapp.com -->
    <title>Group 10</title>
    <desc>Created with Sketch.</desc>
    <defs>
        <polygon id="path-1" points="0 0.0495501742 10.9261562 0.0495501742 10.9261562 26.9999796 0 26.9999796"></polygon>
    </defs>
    <g id="Design" stroke="none" stroke-width="1" fill="none" fill-rule="evenodd">
        <g id="Landing-Page-HD-v5" transform="translate(-1216.000000, -3822.000000)">
            <g id="Group-10" transform="translate(1216.000000, 3822.000000)">
                <polygon id="Fill-3" fill="#FFFFFF" points="22 18.4400589 13 14 13 23"></polygon>
                <g id="Group-7" transform="translate(0.000000, 11.000000)">
                    <mask id="mask-2" fill="white">
                        <use xlink:href="#path-1"></use>
                    </mask>
                    <g id="Clip-6"></g>
                    <path d="M0.657571538,26.8714631 C0.680417692,26.8562226 10.6980331,21.4573516 10.7071715,21.4522714 C10.8440792,21.360923 10.9216715,21.3355223 10.9261562,21.0666512 C10.9261562,21.0412505 10.9216715,0.0495501742 10.9216715,0.0495501742 C6.67727923,2.40908676 0.703179231,5.72237247 0.187448462,6.02689861 C0.02321,6.12840732 0.000363846154,6.21467561 0.000363846154,6.34657108 L0.000363846154,26.3285467 C-0.00420538462,26.7801146 0.02321,27.2266024 0.657571538,26.8714631" id="Fill-5" fill="#FFFFFF" mask="url(#mask-2)"></path>
                </g>
                <path d="M24,5.87965787 L24,17 C24,17 2.1364979,6.40577252 1.3780317,6.02660108 C0.873989433,5.77065816 0.873989433,5.52894405 1.3780317,5.25394155 C1.84290393,5.00274157 10.7145556,0.717673911 12.0748985,0.0588448678 C12.251073,-0.0170421197 12.3049318,-0.0170421197 12.4615213,0.0445282255 L23.7798499,5.53834209 C23.9413356,5.61422908 23.9902075,5.69002823 24,5.87965787" id="Fill-8" fill="#FFFFFF"></path>
            </g>
        </g>
    </g>
</svg>