<svg xmlns="http://www.w3.org/2000/svg" xmlns:xlink="http://www.w3.org/1999/xlink" viewBox="0 0 106.42 171.14"><defs><style>.cls-1{fill:#0052ff;}.cls-1,.cls-2,.cls-3,.cls-4,.cls-5{fill-rule:evenodd;}.cls-2{fill:#003ebf;}.cls-3{fill:#002980;}.cls-4{fill:url(#linear-gradient);}.cls-5{fill:url(#linear-gradient-2);}</style><linearGradient id="linear-gradient" x1="5997.06" y1="2499.69" x2="5997.3" y2="2499.49" gradientTransform="matrix(231.6, 0, 0, -513.83, -1388912.25, 1284491.15)" gradientUnits="userSpaceOnUse"><stop offset="0" stop-color="#22d7ff"/><stop offset="1" stop-color="#0052ff"/></linearGradient><linearGradient id="linear-gradient-2" x1="5999.4" y1="2501.71" x2="5999.54" y2="2501.55" gradientTransform="matrix(454.75, 0, 0, -346.97, -2728192.42, 868029.07)" xlink:href="#linear-gradient"/></defs><g id="Layer_2" data-name="Layer 2"><g id="Layer_1-2" data-name="Layer 1"><polygon class="cls-1" points="106.42 79.75 53.18 53.07 53.18 107.29 106.42 79.75"/><polygon class="cls-2" points="59.96 103.78 53.18 63.48 53.18 107.29 59.96 103.78"/><polygon class="cls-3" points="99.59 76.3 53.18 53.07 53.18 58.99 99.59 76.3"/><path class="cls-4" d="M3.2,170.58l48.95-23.74c.67-.41,1.05-.51,1.07-1.69,0-.11,0-92.08,0-92.08C32.52,63.41,3.43,77.93.91,79.26c-.8.45-.91.82-.91,1.4V168.2C0,170.18.11,172.14,3.2,170.58Z"/><path class="cls-5" d="M106.42,27.58V79.73S7.09,30,3.65,28.26c-2.29-1.2-2.29-2.33,0-3.62C5.76,23.46,46.07,3.37,52.25.27A1.72,1.72,0,0,1,54,.21L105.42,26a1.53,1.53,0,0,1,1,1.61Z"/></g></g></svg>