<svg id="prefect-color-logo" xmlns="http://www.w3.org/2000/svg" xmlns:xlink="http://www.w3.org/1999/xlink" viewBox="0 0 464 745" aria-labelledby="color-logo-title color-logo-desc" role="img">
    <title>Prefect</title>
    <desc>Full color logo</desc>
    <defs>
        <linearGradient id="b" x1="85.3333333%" x2="14.4819849%" y1="85.332966%" y2="13.5089653%">
            <stop offset="0%" stop-color="#B4C0C9"/>
            <stop offset="97.2376%" stop-color="#94A5B2"/>
        </linearGradient>
        <path id="a" d="M232.25 115.966L.5.006v235.91z"/>
        <linearGradient id="d" x1="9.33332344%" x2="139.354775%" y1="10.6666448%" y2="37.5379955%">
            <stop offset="0%" stop-color="#647989"/>
            <stop offset="100%" stop-color="#2F383E"/>
        </linearGradient>
        <linearGradient id="e" x1="25.68884%" x2="84.1224849%" y1="17.5373656%" y2="88.8850663%">
            <stop offset="0%" stop-color="#2EDAFF"/>
            <stop offset="100%" stop-color="#3B8DFF"/>
        </linearGradient>
  </defs>
  <g fill="none" fill-rule="evenodd">
    <g transform="translate(231 231)">
      <mask id="c" fill="#fff">
        <use xlink:href="#a"/>
      </mask>
      <use fill="url(#b)" xlink:href="#a"/>
      <path fill="#0D3958" fill-opacity=".2" d="M30 220.646L.5 45.166v190.75zM202.5 101.085L.5.006v25.66z" mask="url(#c)"/>
    </g>
    <path fill="url(#d)" d="M14 742.37c.5-.26 212.755-103.17 213-103.3 2.934-1.65 4.535-2.18 4.6-7.4.006-.5-.1-400.655-.1-400.655C141.595 276.026 15 339.166 4 345.016c-3.5 1.861-4 3.65-4 6.15V732.17c0 8.5.5 17 14 10.2z"/>
    <path fill="url(#e)" d="M463.25 119.997v226.969S31 130.79 16 122.916c-10-5.25-10-10.25 0-15.75 9.233-5.078 184.558-92.559 211.5-106 3.5-1.5 4.5-1.5 7.575-.3l223.775 112.05c3.15 1.75 4.15 3.25 4.4 7.081z"/>
  </g>
</svg>