<?xml version="1.0" encoding="UTF-8"?>
<svg width="276px" height="29px" viewBox="0 0 276 29" version="1.1" xmlns="http://www.w3.org/2000/svg" xmlns:xlink="http://www.w3.org/1999/xlink">
    <!-- Generator: Sketch 59.1 (86144) - https://sketch.com -->
    <title>Group 12 Copy 2</title>
    <desc>Created with Sketch.</desc>
    <defs>
        <polygon id="path-1" points="0 0.4359375 28.7324858 0.4359375 28.7324858 19.2125429 0 19.2125429"></polygon>
        <polygon id="path-3" points="0.639750283 0.535628634 24.325379 0.535628634 24.325379 16.2209302 0.639750283 16.2209302"></polygon>
    </defs>
    <g id="Design" stroke="none" stroke-width="1" fill="none" fill-rule="evenodd">
        <g id="PrefectCloud-HD-v6" transform="translate(-651.000000, -132.000000)">
            <g id="Group-12-Copy-2" transform="translate(651.000000, 132.000000)">
                <g id="Group-12-Copy">
                    <g id="Group-7">
                        <g id="Group-3" transform="translate(0.000000, 0.240273)">
                            <mask id="mask-2" fill="white">
                                <use xlink:href="#path-1"></use>
                            </mask>
                            <g id="Clip-2"></g>
                            <path d="M3.89345853,16.4664746 C4.22000352,12.9519397 6.87474487,9.61989026 10.9301558,9.20084956 C15.1008997,8.7689673 17.0115353,10.6532987 18.2551854,12.4849121 C19.6447386,12.0726301 21.3142867,12.4119179 22.5586316,13.1330734 C24.1593969,14.0603699 25.3280111,15.803444 25.5503396,17.6012638 C26.7509135,17.9290618 27.3234094,18.3616199 27.8437971,19.2125429 C28.4086505,17.7134586 28.7331111,16.1008278 28.7331111,14.4111475 C28.7331111,6.69268823 22.3008695,0.43546439 14.3665208,0.43546439 C6.43217218,0.43546439 -6.94776589e-05,6.69268823 -6.94776589e-05,14.4111475 C-6.94776589e-05,15.9730879 0.274367275,17.4694687 0.760710887,18.8719033 C1.43811806,17.57896 2.37954034,17.0193379 3.89345853,16.4664746" id="Fill-1" fill="#378CF7" mask="url(#mask-2)"></path>
                        </g>
                        <g id="Group-6" transform="translate(2.084330, 12.405970)">
                            <mask id="mask-4" fill="white">
                                <use xlink:href="#path-3"></use>
                            </mask>
                            <g id="Clip-5"></g>
                            <path d="M21.5275137,8.01482922 C21.0620133,7.94048328 20.7285206,7.55523619 20.7215728,7.09564317 C20.7215728,5.50734375 19.8927043,4.36444404 18.9686515,3.83050509 C18.0445986,3.28980741 16.9023859,3.33914608 15.9227509,3.81901526 C15.4426603,4.04948765 14.8659957,3.86632631 14.6228239,3.40740916 C13.8106301,1.82586846 12.3703582,0.535628634 9.99422228,0.535628634 C6.74266784,0.535628634 4.71461498,3.08163881 4.74240604,5.84595567 C4.74935381,6.27918968 4.45059987,6.65700218 4.01983839,6.76514172 C2.1321304,7.22946584 0.730766016,8.47239462 0.639750283,10.4107958 C3.2479416,13.9246548 7.48468924,16.2212682 12.2821216,16.2212682 C17.3310631,16.2212682 21.7637377,13.6820167 24.325379,9.84982195 C23.7556622,8.87994549 22.6850115,8.20812863 21.5275137,8.01482922" id="Fill-4" fill="#378CF7" mask="url(#mask-4)"></path>
                        </g>
                    </g>
                    <path d="M183.254273,24.5675 C185.734626,24.5675 187.748088,24.2478125 189.936634,23.463125 L189.73237,21.8065625 C187.543824,22.6203125 185.705445,22.94 183.283454,22.94 L182.855308,22.936521 C176.952571,22.8387825 174.870116,20.6679817 174.821934,14.6976567 L174.821075,14.4828125 C174.821075,8.2053125 176.980441,6.025625 183.283454,6.025625 C185.705445,6.025625 187.543824,6.3453125 189.73237,7.1590625 L189.936634,5.5025 C187.777269,4.7178125 185.734626,4.398125 183.254273,4.398125 C175.950116,4.398125 173.101796,7.12907905 173.04202,14.2515307 L173.041057,14.4828125 C173.041057,21.7775 175.871577,24.5675 183.254273,24.5675 Z M193.409128,24.21875 L209.1083,24.21875 L209.1083,22.59125 L195.159965,22.59125 L195.159965,4.746875 L193.409128,4.746875 L193.409128,24.21875 Z M220.342837,24.5675 L220.804169,24.5641082 C228.011372,24.4564021 230.614414,21.7694104 230.614414,14.4828125 L230.610934,14.0287033 C230.500446,6.93487754 227.744786,4.398125 220.342837,4.398125 L219.879773,4.40151682 C212.722454,4.50808914 210.125988,7.13993211 210.072118,14.254236 L210.07126,14.4828125 C210.07126,21.9228125 212.755877,24.5675 220.342837,24.5675 Z M220.342837,22.9690625 L219.916607,22.9659104 C213.900981,22.8751773 211.897332,20.8095959 211.852065,14.697664 L211.851278,14.4828125 C211.851278,8.06 213.923101,5.9965625 220.342837,5.9965625 L220.769067,5.99971458 C226.854642,6.09150269 228.834396,8.20433287 228.834396,14.4828125 L228.831232,14.9092329 C228.739085,20.9973218 226.618309,22.9690625 220.342837,22.9690625 Z M243.307982,24.5675 L243.748139,24.5650635 C250.392413,24.4899035 252.237251,22.6555585 252.237251,16.255625 L252.237251,4.746875 L250.515595,4.746875 L250.515595,16.31375 L250.513064,16.691267 C250.445046,21.6326875 248.984655,22.9086731 243.571206,22.9394258 L243.366344,22.94 C237.617762,22.94 236.187912,21.6321875 236.187912,16.31375 L236.187912,4.746875 L234.437075,4.746875 L234.437075,16.255625 C234.437075,22.7946875 236.333815,24.5675 243.307982,24.5675 Z M257.168775,24.21875 L265.631154,24.21875 L266.092876,24.2156792 C273.379039,24.1170857 275.815189,21.6286288 275.815189,14.4828125 L275.811996,14.0422427 C275.709442,7.08949891 273.120449,4.746875 265.631154,4.746875 L257.168775,4.746875 L257.168775,24.21875 Z M258.919612,22.6203125 L258.919612,6.3453125 L265.543612,6.3453125 C272.08007,6.3453125 274.035172,8.234375 274.035172,14.4828125 L274.03218,14.8974792 C273.944989,20.8151977 271.933184,22.6203125 265.543612,22.6203125 L258.919612,22.6203125 Z" id="CLOUD" fill="#378CF7" fill-rule="nonzero"></path>
                    <path d="M155.359009,4.84375 L171.436123,4.84375 L171.436123,8.23259594 L164.751129,8.23259594 L164.751129,24.21875 L161.193195,24.21875 L161.193195,8.22080827 L154.508201,8.22080827 L147.955823,8.22080827 C141.56919,8.22080827 141.558044,8.16241564 141.558044,14.53125 C141.558044,20.8998661 141.558044,20.8998661 147.955823,20.8998661 L153.72365,20.8998661 L153.72365,24.21875 L147.955823,24.21875 C138,24.21875 138,23.5875639 138,14.53125 C138,5.47471777 137.856451,4.84375 147.955823,4.84375 L155.359009,4.84375 Z M119.762115,24.21875 L119.762115,4.84375 L135.950777,4.84375 L135.950777,8.17420331 L123.347065,8.17420331 L123.347065,12.7432351 L134.068117,12.7432351 L134.068117,16.0386529 L123.347065,16.0386529 L123.347065,20.8998661 L136.176211,20.8998661 L136.176211,24.21875 L119.762115,24.21875 Z M101.524229,24.21875 L101.524229,4.84375 L117.938326,4.84375 L117.938326,8.17420331 L105.190667,8.17420331 L105.190667,12.7432351 L116.009171,12.7432351 L116.009171,16.0386529 L105.190667,16.0386529 L105.190667,24.21875 L101.524229,24.21875 Z M82.0704846,24.21875 L82.0704846,4.84375 L98.2591467,4.84375 L98.2591467,8.17420331 L85.655435,8.17420331 L85.655435,12.7432351 L96.3652205,12.7432351 L96.3652205,16.0386529 L85.655435,16.0386529 L85.655435,20.8998661 L98.4845815,20.8998661 L98.4845815,24.21875 L82.0704846,24.21875 Z M66.2643172,13.9257813 L72.8285475,13.9257813 C75.1869524,13.9257813 75.9911894,13.1485876 75.9911894,10.942402 C75.9911894,8.67346015 75.1542673,7.87109375 72.8285475,7.87109375 L66.2643172,7.87109375 L66.2643172,13.9257813 Z M62.6167401,24.21875 L62.6167401,4.84375 L73.3462041,4.84375 C78.1552041,4.84375 79.9246271,6.54990606 79.9246271,11.0021526 C79.9246271,14.7648205 78.6655962,16.5293692 75.3877727,16.9851591 L80.8546256,24.21875 L76.374552,24.21875 L71.0778299,17.1021626 L66.1893792,17.1021626 L66.1893792,24.21875 L62.6167401,24.21875 Z M45.5947137,13.9257813 L52.4473162,13.9257813 C55.044978,13.9257813 55.9295154,13.1853698 55.9295154,10.9162841 C55.9295154,8.64731 55.044978,7.87109375 52.4473162,7.87109375 L45.5947137,7.87109375 L45.5947137,13.9257813 Z M42.5550661,24.21875 L42.5550661,4.84375 L53.3912805,4.84375 C58.3547236,4.84375 60.185022,6.57326311 60.185022,11.1539734 C60.185022,15.7347929 58.3547236,17.4292705 53.3912805,17.4292705 L46.1821007,17.4292705 L46.1821007,24.21875 L42.5550661,24.21875 Z" id="Fill-1-Copy" fill="#378CF7"></path>
                </g>
            </g>
        </g>
    </g>
</svg>