<?xml version="1.0" encoding="UTF-8" standalone="no"?>
<!DOCTYPE svg PUBLIC "-//W3C//DTD SVG 1.1//EN"
 "http://www.w3.org/Graphics/SVG/1.1/DTD/svg11.dtd">
<!-- Generated by graphviz version 2.40.1 (20161225.0304)
 -->
<!-- Title: %3 Pages: 1 -->
<svg width="436pt" height="332pt"
 viewBox="0.00 0.00 436.39 332.00" xmlns="http://www.w3.org/2000/svg" xmlns:xlink="http://www.w3.org/1999/xlink">
<g id="graph0" class="graph" transform="scale(1 1) rotate(0) translate(4 328)">
<title>%3</title>
<polygon fill="#ffffff" stroke="transparent" points="-4,4 -4,-328 432.3867,-328 432.3867,4 -4,4"/>
<!-- 4606668640 -->
<g id="node1" class="node">
<title>4606668640</title>
<ellipse fill="none" stroke="#000000" cx="102.9416" cy="-90" rx="102.8833" ry="18"/>
<text text-anchor="middle" x="102.9416" y="-85.8" font-family="Times,serif" font-size="14.00" fill="#000000">push_xcom_for_branch_b</text>
</g>
<!-- 4340724568 -->
<g id="node7" class="node">
<title>4340724568</title>
<ellipse fill="none" stroke="#000000" cx="213.9416" cy="-18" rx="27" ry="18"/>
<text text-anchor="middle" x="213.9416" y="-13.8" font-family="Times,serif" font-size="14.00" fill="#000000">join</text>
</g>
<!-- 4606668640&#45;&gt;4340724568 -->
<g id="edge1" class="edge">
<title>4606668640&#45;&gt;4340724568</title>
<path fill="none" stroke="#000000" d="M129.8116,-72.5708C146.7493,-61.5842 168.586,-47.4199 185.7671,-36.2753"/>
<polygon fill="#000000" stroke="#000000" points="187.7919,-39.1339 194.2768,-30.7555 183.9825,-33.2611 187.7919,-39.1339"/>
</g>
<!-- 4607053952 -->
<g id="node2" class="node">
<title>4607053952</title>
<ellipse fill="none" stroke="#000000" cx="213.9416" cy="-306" rx="57.0563" ry="18"/>
<text text-anchor="middle" x="213.9416" y="-301.8" font-family="Times,serif" font-size="14.00" fill="#000000">run_this_first</text>
</g>
<!-- 4526848040 -->
<g id="node3" class="node">
<title>4526848040</title>
<ellipse fill="none" stroke="#000000" cx="213.9416" cy="-234" rx="45.4355" ry="18"/>
<text text-anchor="middle" x="213.9416" y="-229.8" font-family="Times,serif" font-size="14.00" fill="#000000">branching</text>
</g>
<!-- 4607053952&#45;&gt;4526848040 -->
<g id="edge7" class="edge">
<title>4607053952&#45;&gt;4526848040</title>
<path fill="none" stroke="#000000" d="M213.9416,-287.8314C213.9416,-280.131 213.9416,-270.9743 213.9416,-262.4166"/>
<polygon fill="#000000" stroke="#000000" points="217.4417,-262.4132 213.9416,-252.4133 210.4417,-262.4133 217.4417,-262.4132"/>
</g>
<!-- 4526847480 -->
<g id="node5" class="node">
<title>4526847480</title>
<ellipse fill="none" stroke="#000000" cx="161.9416" cy="-162" rx="43.0215" ry="18"/>
<text text-anchor="middle" x="161.9416" y="-157.8" font-family="Times,serif" font-size="14.00" fill="#000000">branch_b</text>
</g>
<!-- 4526848040&#45;&gt;4526847480 -->
<g id="edge4" class="edge">
<title>4526848040&#45;&gt;4526847480</title>
<path fill="none" stroke="#000000" d="M201.3539,-216.5708C195.0305,-207.8153 187.2496,-197.0418 180.2765,-187.3867"/>
<polygon fill="#000000" stroke="#000000" points="183.1058,-185.3263 174.4135,-179.2687 177.431,-189.4247 183.1058,-185.3263"/>
</g>
<!-- 4607056696 -->
<g id="node6" class="node">
<title>4607056696</title>
<ellipse fill="none" stroke="#000000" cx="295.9416" cy="-162" rx="42.5283" ry="18"/>
<text text-anchor="middle" x="295.9416" y="-157.8" font-family="Times,serif" font-size="14.00" fill="#000000">branch_a</text>
</g>
<!-- 4526848040&#45;&gt;4607056696 -->
<g id="edge6" class="edge">
<title>4526848040&#45;&gt;4607056696</title>
<path fill="none" stroke="#000000" d="M232.9602,-217.3008C243.9047,-207.6909 257.8162,-195.476 269.7795,-184.9717"/>
<polygon fill="#000000" stroke="#000000" points="272.1038,-187.5885 277.3089,-178.3604 267.4852,-182.3284 272.1038,-187.5885"/>
</g>
<!-- 4606429224 -->
<g id="node4" class="node">
<title>4606429224</title>
<ellipse fill="none" stroke="#000000" cx="325.9416" cy="-90" rx="102.3901" ry="18"/>
<text text-anchor="middle" x="325.9416" y="-85.8" font-family="Times,serif" font-size="14.00" fill="#000000">push_xcom_for_branch_a</text>
</g>
<!-- 4606429224&#45;&gt;4340724568 -->
<g id="edge2" class="edge">
<title>4606429224&#45;&gt;4340724568</title>
<path fill="none" stroke="#000000" d="M298.8295,-72.5708C281.629,-61.5133 259.4214,-47.237 242.035,-36.06"/>
<polygon fill="#000000" stroke="#000000" points="243.739,-32.9946 233.4345,-30.5312 239.9537,-38.8829 243.739,-32.9946"/>
</g>
<!-- 4526847480&#45;&gt;4606668640 -->
<g id="edge3" class="edge">
<title>4526847480&#45;&gt;4606668640</title>
<path fill="none" stroke="#000000" d="M147.9594,-144.937C140.8247,-136.2302 131.997,-125.4574 124.0541,-115.7644"/>
<polygon fill="#000000" stroke="#000000" points="126.6922,-113.4617 117.6468,-107.9453 121.2778,-117.8985 126.6922,-113.4617"/>
</g>
<!-- 4607056696&#45;&gt;4606429224 -->
<g id="edge5" class="edge">
<title>4607056696&#45;&gt;4606429224</title>
<path fill="none" stroke="#000000" d="M303.3574,-144.2022C306.7213,-136.1287 310.7759,-126.3976 314.5158,-117.422"/>
<polygon fill="#000000" stroke="#000000" points="317.7874,-118.6701 318.4028,-108.0931 311.3258,-115.9777 317.7874,-118.6701"/>
</g>
</g>
</svg>
