<?xml version="1.0" encoding="UTF-8" standalone="no"?>
<!DOCTYPE svg PUBLIC "-//W3C//DTD SVG 1.1//EN"
 "http://www.w3.org/Graphics/SVG/1.1/DTD/svg11.dtd">
<!-- Generated by graphviz version 2.40.1 (20161225.0304)
 -->
<!-- Title: %3 Pages: 1 -->
<svg width="281pt" height="388pt"
 viewBox="0.00 0.00 280.53 388.00" xmlns="http://www.w3.org/2000/svg" xmlns:xlink="http://www.w3.org/1999/xlink">
<g id="graph0" class="graph" transform="scale(1 1) rotate(0) translate(4 384)">
<title>%3</title>
<polygon fill="#ffffff" stroke="transparent" points="-4,4 -4,-384 276.5335,-384 276.5335,4 -4,4"/>
<!-- 4713769000 -->
<g id="node1" class="node">
<title>4713769000</title>
<ellipse fill="none" stroke="#000000" cx="51.3533" cy="-276" rx="51.207" ry="18"/>
<text text-anchor="middle" x="51.3533" y="-271.8" font-family="Times,serif" font-size="14.00" fill="#000000">retrieve_url</text>
</g>
<!-- 4713769672 -->
<g id="node2" class="node">
<title>4713769672</title>
<ellipse fill="none" stroke="#000000" cx="138.3533" cy="-190" rx="77.7589" ry="18"/>
<text text-anchor="middle" x="138.3533" y="-185.8" font-family="Times,serif" font-size="14.00" fill="#000000">create_episode_list</text>
</g>
<!-- 4713769000&#45;&gt;4713769672 -->
<g id="edge4" class="edge">
<title>4713769000&#45;&gt;4713769672</title>
<path fill="none" stroke="#000000" d="M52.1137,-257.6648C53.3953,-247.3865 56.4798,-234.8865 63.6912,-226 69.0355,-219.4144 75.8763,-213.953 83.2414,-209.4472"/>
<polygon fill="#000000" stroke="#000000" points="84.9978,-212.4757 92.0699,-204.5867 81.6217,-206.3436 84.9978,-212.4757"/>
<text text-anchor="middle" x="94.6844" y="-228.8" font-family="Times,serif" font-size="14.00" fill="#000000">main_html</text>
</g>
<!-- 4713770232 -->
<g id="node6" class="node">
<title>4713770232</title>
<polygon fill="none" stroke="#000000" points="200.5451,-122 76.1615,-122 76.1615,-86 200.5451,-86 200.5451,-122"/>
<text text-anchor="middle" x="138.3533" y="-99.8" font-family="Times,serif" font-size="14.00" fill="#000000">retrieve_url &lt;map&gt;</text>
</g>
<!-- 4713769672&#45;&gt;4713770232 -->
<g id="edge2" class="edge">
<title>4713769672&#45;&gt;4713770232</title>
<path fill="none" stroke="#000000" stroke-dasharray="5,2" d="M138.3533,-171.7616C138.3533,-160.3597 138.3533,-145.4342 138.3533,-132.494"/>
<polygon fill="#000000" stroke="#000000" points="141.8534,-132.2121 138.3533,-122.2121 134.8534,-132.2121 141.8534,-132.2121"/>
<text text-anchor="middle" x="146.1292" y="-142.8" font-family="Times,serif" font-size="14.00" fill="#000000">url</text>
</g>
<!-- 4713768664 -->
<g id="node3" class="node">
<title>4713768664</title>
<ellipse fill="none" stroke="#000000" cx="94.3533" cy="-362" rx="27" ry="18"/>
<text text-anchor="middle" x="94.3533" y="-357.8" font-family="Times,serif" font-size="14.00" fill="#000000">url</text>
</g>
<!-- 4713768664&#45;&gt;4713769000 -->
<g id="edge1" class="edge">
<title>4713768664&#45;&gt;4713769000</title>
<path fill="none" stroke="#000000" d="M85.6516,-344.5966C79.7274,-332.7482 71.7648,-316.8231 65.0031,-303.2996"/>
<polygon fill="#000000" stroke="#000000" points="67.9407,-301.3485 60.3381,-293.9695 61.6797,-304.4791 67.9407,-301.3485"/>
<text text-anchor="middle" x="84.1292" y="-314.8" font-family="Times,serif" font-size="14.00" fill="#000000">url</text>
</g>
<!-- 4713768664&#45;&gt;4713769672 -->
<g id="edge5" class="edge">
<title>4713768664&#45;&gt;4713769672</title>
<path fill="none" stroke="#000000" d="M98.8963,-344.2408C106.5503,-314.3208 122.072,-253.6451 131.2002,-217.9623"/>
<polygon fill="#000000" stroke="#000000" points="134.6151,-218.7349 133.7027,-208.1795 127.8335,-217 134.6151,-218.7349"/>
<text text-anchor="middle" x="145.0672" y="-271.8" font-family="Times,serif" font-size="14.00" fill="#000000">base_url</text>
</g>
<!-- 4713769392 -->
<g id="node4" class="node">
<title>4713769392</title>
<polygon fill="none" stroke="#000000" points="213.7072,-36 62.9994,-36 62.9994,0 213.7072,0 213.7072,-36"/>
<text text-anchor="middle" x="138.3533" y="-13.8" font-family="Times,serif" font-size="14.00" fill="#000000">scrape_dialogue &lt;map&gt;</text>
</g>
<!-- 4713768888 -->
<g id="node5" class="node">
<title>4713768888</title>
<ellipse fill="none" stroke="#000000" cx="238.3533" cy="-276" rx="34.3614" ry="18"/>
<text text-anchor="middle" x="238.3533" y="-271.8" font-family="Times,serif" font-size="14.00" fill="#000000">bypass</text>
</g>
<!-- 4713768888&#45;&gt;4713769672 -->
<g id="edge3" class="edge">
<title>4713768888&#45;&gt;4713769672</title>
<path fill="none" stroke="#000000" d="M220.4753,-260.6249C205.4703,-247.7206 183.7721,-229.0602 166.4474,-214.1609"/>
<polygon fill="#000000" stroke="#000000" points="168.6989,-211.4809 158.8349,-207.6142 164.1346,-216.7882 168.6989,-211.4809"/>
<text text-anchor="middle" x="212.4085" y="-228.8" font-family="Times,serif" font-size="14.00" fill="#000000">bypass</text>
</g>
<!-- 4713770232&#45;&gt;4713769392 -->
<g id="edge6" class="edge">
<title>4713770232&#45;&gt;4713769392</title>
<path fill="none" stroke="#000000" stroke-dasharray="5,2" d="M138.3533,-85.7616C138.3533,-74.3597 138.3533,-59.4342 138.3533,-46.494"/>
<polygon fill="#000000" stroke="#000000" points="141.8534,-46.2121 138.3533,-36.2121 134.8534,-46.2121 141.8534,-46.2121"/>
<text text-anchor="middle" x="176.0706" y="-56.8" font-family="Times,serif" font-size="14.00" fill="#000000">episode_html</text>
</g>
</g>
</svg>
