<?xml version="1.0" encoding="UTF-8" standalone="no"?>
<!DOCTYPE svg PUBLIC "-//W3C//DTD SVG 1.1//EN"
 "http://www.w3.org/Graphics/SVG/1.1/DTD/svg11.dtd">
<!-- Generated by graphviz version 2.40.1 (20161225.0304)
 -->
<!-- Title: %3 Pages: 1 -->
<svg width="339pt" height="560pt"
 viewBox="0.00 0.00 339.36 560.00" xmlns="http://www.w3.org/2000/svg" xmlns:xlink="http://www.w3.org/1999/xlink">
<g id="graph0" class="graph" transform="scale(1 1) rotate(0) translate(4 556)">
<title>%3</title>
<polygon fill="#ffffff" stroke="transparent" points="-4,4 -4,-556 335.3647,-556 335.3647,4 -4,4"/>
<!-- 4582260128 -->
<g id="node1" class="node">
<title>4582260128</title>
<ellipse fill="none" stroke="#000000" cx="209.937" cy="-448" rx="51.207" ry="18"/>
<text text-anchor="middle" x="209.937" y="-443.8" font-family="Times,serif" font-size="14.00" fill="#000000">retrieve_url</text>
</g>
<!-- 4653053096 -->
<g id="node6" class="node">
<title>4653053096</title>
<ellipse fill="none" stroke="#000000" cx="209.937" cy="-362" rx="77.7589" ry="18"/>
<text text-anchor="middle" x="209.937" y="-357.8" font-family="Times,serif" font-size="14.00" fill="#000000">create_episode_list</text>
</g>
<!-- 4582260128&#45;&gt;4653053096 -->
<g id="edge5" class="edge">
<title>4582260128&#45;&gt;4653053096</title>
<path fill="none" stroke="#000000" d="M209.937,-429.7616C209.937,-418.3597 209.937,-403.4342 209.937,-390.494"/>
<polygon fill="#000000" stroke="#000000" points="213.4371,-390.2121 209.937,-380.2121 206.4371,-390.2121 213.4371,-390.2121"/>
<text text-anchor="middle" x="240.2681" y="-400.8" font-family="Times,serif" font-size="14.00" fill="#000000">main_html</text>
</g>
<!-- 4582259680 -->
<g id="node2" class="node">
<title>4582259680</title>
<ellipse fill="none" stroke="#000000" cx="105.937" cy="-448" rx="34.3614" ry="18"/>
<text text-anchor="middle" x="105.937" y="-443.8" font-family="Times,serif" font-size="14.00" fill="#000000">bypass</text>
</g>
<!-- 4582259680&#45;&gt;4653053096 -->
<g id="edge8" class="edge">
<title>4582259680&#45;&gt;4653053096</title>
<path fill="none" stroke="#000000" d="M124.5301,-432.6249C140.1353,-419.7206 162.7015,-401.0602 180.7192,-386.1609"/>
<polygon fill="#000000" stroke="#000000" points="183.1601,-388.6841 188.6362,-379.6142 178.6993,-383.2896 183.1601,-388.6841"/>
<text text-anchor="middle" x="183.9922" y="-400.8" font-family="Times,serif" font-size="14.00" fill="#000000">bypass</text>
</g>
<!-- 4653054272 -->
<g id="node3" class="node">
<title>4653054272</title>
<polygon fill="none" stroke="#000000" points="300.1082,-122 119.7658,-122 119.7658,-86 300.1082,-86 300.1082,-122"/>
<text text-anchor="middle" x="209.937" y="-99.8" font-family="Times,serif" font-size="14.00" fill="#000000">create_episode_script &lt;map&gt;</text>
</g>
<!-- 4653052648 -->
<g id="node7" class="node">
<title>4653052648</title>
<polygon fill="none" stroke="#000000" points="139.8111,-36 .0629,-36 .0629,0 139.8111,0 139.8111,-36"/>
<text text-anchor="middle" x="69.937" y="-13.8" font-family="Times,serif" font-size="14.00" fill="#000000">Insert Episode &lt;map&gt;</text>
</g>
<!-- 4653054272&#45;&gt;4653052648 -->
<g id="edge3" class="edge">
<title>4653054272&#45;&gt;4653052648</title>
<path fill="none" stroke="#000000" stroke-dasharray="5,2" d="M180.5884,-85.9716C159.4947,-73.014 130.8642,-55.4267 108.0112,-41.3884"/>
<polygon fill="#000000" stroke="#000000" points="109.5997,-38.2566 99.247,-36.0047 105.9358,-44.2212 109.5997,-38.2566"/>
<text text-anchor="middle" x="164.4888" y="-56.8" font-family="Times,serif" font-size="14.00" fill="#000000">script</text>
</g>
<!-- 4653053768 -->
<g id="node4" class="node">
<title>4653053768</title>
<polygon fill="none" stroke="#000000" points="272.1288,-294 147.7452,-294 147.7452,-258 272.1288,-258 272.1288,-294"/>
<text text-anchor="middle" x="209.937" y="-271.8" font-family="Times,serif" font-size="14.00" fill="#000000">retrieve_url &lt;map&gt;</text>
</g>
<!-- 4582259568 -->
<g id="node8" class="node">
<title>4582259568</title>
<polygon fill="none" stroke="#000000" points="285.2909,-208 134.5831,-208 134.5831,-172 285.2909,-172 285.2909,-208"/>
<text text-anchor="middle" x="209.937" y="-185.8" font-family="Times,serif" font-size="14.00" fill="#000000">scrape_dialogue &lt;map&gt;</text>
</g>
<!-- 4653053768&#45;&gt;4582259568 -->
<g id="edge7" class="edge">
<title>4653053768&#45;&gt;4582259568</title>
<path fill="none" stroke="#000000" stroke-dasharray="5,2" d="M209.937,-257.7616C209.937,-246.3597 209.937,-231.4342 209.937,-218.494"/>
<polygon fill="#000000" stroke="#000000" points="213.4371,-218.2121 209.937,-208.2121 206.4371,-218.2121 213.4371,-218.2121"/>
<text text-anchor="middle" x="247.6543" y="-228.8" font-family="Times,serif" font-size="14.00" fill="#000000">episode_html</text>
</g>
<!-- 4652813448 -->
<g id="node5" class="node">
<title>4652813448</title>
<ellipse fill="none" stroke="#000000" cx="252.937" cy="-534" rx="27" ry="18"/>
<text text-anchor="middle" x="252.937" y="-529.8" font-family="Times,serif" font-size="14.00" fill="#000000">url</text>
</g>
<!-- 4652813448&#45;&gt;4582260128 -->
<g id="edge4" class="edge">
<title>4652813448&#45;&gt;4582260128</title>
<path fill="none" stroke="#000000" d="M244.2353,-516.5966C238.3111,-504.7482 230.3485,-488.8231 223.5868,-475.2996"/>
<polygon fill="#000000" stroke="#000000" points="226.5245,-473.3485 218.9218,-465.9695 220.2635,-476.4791 226.5245,-473.3485"/>
<text text-anchor="middle" x="242.7129" y="-486.8" font-family="Times,serif" font-size="14.00" fill="#000000">url</text>
</g>
<!-- 4652813448&#45;&gt;4653053096 -->
<g id="edge9" class="edge">
<title>4652813448&#45;&gt;4653053096</title>
<path fill="none" stroke="#000000" d="M262.4809,-516.7754C276.1398,-489.5854 297.2801,-435.9157 274.937,-398 271.4608,-392.101 266.6319,-387.1006 261.1606,-382.8797"/>
<polygon fill="#000000" stroke="#000000" points="263.0198,-379.9123 252.7676,-377.2396 259.1154,-385.7223 263.0198,-379.9123"/>
<text text-anchor="middle" x="307.6509" y="-443.8" font-family="Times,serif" font-size="14.00" fill="#000000">base_url</text>
</g>
<!-- 4653053096&#45;&gt;4653053768 -->
<g id="edge2" class="edge">
<title>4653053096&#45;&gt;4653053768</title>
<path fill="none" stroke="#000000" stroke-dasharray="5,2" d="M209.937,-343.7616C209.937,-332.3597 209.937,-317.4342 209.937,-304.494"/>
<polygon fill="#000000" stroke="#000000" points="213.4371,-304.2121 209.937,-294.2121 206.4371,-304.2121 213.4371,-304.2121"/>
<text text-anchor="middle" x="217.7129" y="-314.8" font-family="Times,serif" font-size="14.00" fill="#000000">url</text>
</g>
<!-- 4582259568&#45;&gt;4653054272 -->
<g id="edge1" class="edge">
<title>4582259568&#45;&gt;4653054272</title>
<path fill="none" stroke="#000000" stroke-dasharray="5,2" d="M209.937,-171.7616C209.937,-160.3597 209.937,-145.4342 209.937,-132.494"/>
<polygon fill="#000000" stroke="#000000" points="213.4371,-132.2121 209.937,-122.2121 206.4371,-132.2121 213.4371,-132.2121"/>
<text text-anchor="middle" x="231.3198" y="-142.8" font-family="Times,serif" font-size="14.00" fill="#000000">episode</text>
</g>
<!-- 4652965616 -->
<g id="node9" class="node">
<title>4652965616</title>
<ellipse fill="none" stroke="#000000" cx="53.937" cy="-104" rx="47.8579" ry="18"/>
<text text-anchor="middle" x="53.937" y="-99.8" font-family="Times,serif" font-size="14.00" fill="#000000">Create DB</text>
</g>
<!-- 4652965616&#45;&gt;4653052648 -->
<g id="edge6" class="edge">
<title>4652965616&#45;&gt;4653052648</title>
<path fill="none" stroke="#000000" d="M57.3302,-85.7616C59.4727,-74.2456 62.2839,-59.1353 64.7079,-46.1064"/>
<polygon fill="#000000" stroke="#000000" points="68.1605,-46.6836 66.5487,-36.2121 61.2786,-45.4032 68.1605,-46.6836"/>
</g>
</g>
</svg>
