<svg xmlns="http://www.w3.org/2000/svg" viewBox="0 0 594.43 60.23"><defs><style>.cls-1,.cls-2{fill:#0A2053;}.cls-1{fill-rule:evenodd;}</style></defs><g id="Layer_2" data-name="Layer 2"><g id="Layer_1-2" data-name="Layer 1"><g id="Fill-1"><path class="cls-1" d="M326.73,14.09h34.48v7.06H346.88V54.46h-7.64V21.12H310.85c-13.69,0-13.72-.12-13.72,13.15s0,13.27,13.72,13.27h12.38v6.92H310.85c-21.35,0-21.35-1.32-21.35-20.19s-.31-20.18,21.35-20.18ZM252.09,54.46V14.09h34V21H259.63v9.52h22.53v6.86H259.63V47.54h27v6.92Zm-38.8,0V14.09h34.48V21H221v9.52h22.73v6.86H221V54.46Zm-40.37,0V14.09h34V21H180.46v9.52H203v6.86H180.46V47.54h27v6.92Zm-34-21.7H153.2c5.14,0,6.89-1.51,6.89-5.79s-1.82-6-6.89-6H138.88Zm-7.49,21.7V14.09h22.42c10.05,0,13.75,3.55,13.75,12.83,0,7.84-2.63,11.52-9.48,12.46L169.5,54.46h-9.36L149.07,39.63H138.86V54.46ZM96.85,33.37h14.51c5.5,0,7.37-1.51,7.37-6.13S116.86,21,111.36,21H96.85ZM89.2,54.46V14.09h22.87c10.47,0,14.34,3.6,14.34,13.15s-3.87,13.07-14.34,13.07H96.85V54.46Z"/></g><path class="cls-2" d="M391.92,34.52c0-15.76,5.67-21.37,21.68-21.37s21.68,5.61,21.68,21.37-5.73,21.37-21.68,21.37S391.92,50.29,391.92,34.52Zm39.6,0c0-13.61-4.37-18-17.92-18s-17.92,4.37-17.92,18,4.37,18,17.92,18S431.52,48.13,431.52,34.52Z"/><path class="cls-2" d="M444.4,13.89h24c9.85,0,13.61,3.45,13.61,12.19,0,8.56-3.7,12-13.31,12l14.6,17.06h-4.87L463.8,38.09H448.09V55.15H444.4ZM468,34.71c7.63,0,10.22-2.22,10.22-8.63s-2.65-8.8-10.22-8.8h-19.9V34.71Z"/><path class="cls-2" d="M491,13.89h3.7V55.15H491Z"/><path class="cls-2" d="M503.77,34.52c0-15.76,5.67-21.37,21.68-21.37s21.67,5.61,21.67,21.37-5.72,21.37-21.67,21.37S503.77,50.29,503.77,34.52Zm39.6,0c0-13.61-4.37-18-17.92-18s-17.92,4.37-17.92,18,4.37,18,17.92,18S543.37,48.13,543.37,34.52Z"/><path class="cls-2" d="M556.24,13.89h4.93l29.68,36v-36h3.58V55.15h-3.76L559.82,17.83V55.15h-3.58Z"/><circle class="cls-2" cx="373.51" cy="34.71" r="5.3"/><path class="cls-2" d="M29.94,29.61A210.11,210.11,0,0,0,2.58,42.32a30.56,30.56,0,0,0,4.85,7.59c6.91-3.51,17.66-7.81,24.89-10.55l-2.58,7.15a191.36,191.36,0,0,0-17.62,7.75A30.11,30.11,0,0,0,58.81,21,210.61,210.61,0,0,0,29.94,29.61Z"/><path class="cls-2" d="M28.67,7.5q6.91-2.61,14-4.75A30.1,30.1,0,0,0,.69,36.5,214.64,214.64,0,0,1,56.38,15.39,30.55,30.55,0,0,0,49.45,7c-6.31,1.74-17.18,5.13-23.28,7.44"/></g></g></svg>