<?xml version="1.0" encoding="UTF-8" standalone="no"?>
<!DOCTYPE svg PUBLIC "-//W3C//DTD SVG 1.1//EN"
 "http://www.w3.org/Graphics/SVG/1.1/DTD/svg11.dtd">
<!-- Generated by graphviz version 2.40.1 (20161225.0304)
 -->
<!-- Title: %3 Pages: 1 -->
<svg width="151pt" height="216pt"
 viewBox="0.00 0.00 151.00 216.00" xmlns="http://www.w3.org/2000/svg" xmlns:xlink="http://www.w3.org/1999/xlink">
<g id="graph0" class="graph" transform="scale(1 1) rotate(0) translate(4 212)">
<title>%3</title>
<polygon fill="#ffffff" stroke="transparent" points="-4,4 -4,-212 146.998,-212 146.998,4 -4,4"/>
<!-- 4712251688 -->
<g id="node1" class="node">
<title>4712251688</title>
<ellipse fill="none" stroke="#000000" cx="67.5634" cy="-104" rx="51.207" ry="18"/>
<text text-anchor="middle" x="67.5634" y="-99.8" font-family="Times,serif" font-size="14.00" fill="#000000">retrieve_url</text>
</g>
<!-- 4712253648 -->
<g id="node3" class="node">
<title>4712253648</title>
<ellipse fill="none" stroke="#000000" cx="67.5634" cy="-18" rx="67.6269" ry="18"/>
<text text-anchor="middle" x="67.5634" y="-13.8" font-family="Times,serif" font-size="14.00" fill="#000000">scrape_dialogue</text>
</g>
<!-- 4712251688&#45;&gt;4712253648 -->
<g id="edge1" class="edge">
<title>4712251688&#45;&gt;4712253648</title>
<path fill="none" stroke="#000000" d="M67.5634,-85.7616C67.5634,-74.3597 67.5634,-59.4342 67.5634,-46.494"/>
<polygon fill="#000000" stroke="#000000" points="71.0635,-46.2121 67.5634,-36.2121 64.0635,-46.2121 71.0635,-46.2121"/>
<text text-anchor="middle" x="105.2807" y="-56.8" font-family="Times,serif" font-size="14.00" fill="#000000">episode_html</text>
</g>
<!-- 4712252528 -->
<g id="node2" class="node">
<title>4712252528</title>
<ellipse fill="none" stroke="#000000" cx="67.5634" cy="-190" rx="27" ry="18"/>
<text text-anchor="middle" x="67.5634" y="-185.8" font-family="Times,serif" font-size="14.00" fill="#000000">url</text>
</g>
<!-- 4712252528&#45;&gt;4712251688 -->
<g id="edge2" class="edge">
<title>4712252528&#45;&gt;4712251688</title>
<path fill="none" stroke="#000000" d="M67.5634,-171.7616C67.5634,-160.3597 67.5634,-145.4342 67.5634,-132.494"/>
<polygon fill="#000000" stroke="#000000" points="71.0635,-132.2121 67.5634,-122.2121 64.0635,-132.2121 71.0635,-132.2121"/>
<text text-anchor="middle" x="75.3393" y="-142.8" font-family="Times,serif" font-size="14.00" fill="#000000">url</text>
</g>
</g>
</svg>
