<svg width="1174" height="131" viewBox="0 0 1174 131" fill="none" xmlns="http://www.w3.org/2000/svg">
<g clip-path="url(#clip0_107_163046)">
<g opacity="0.75" clip-path="url(#clip1_107_163046)">
<path d="M549.144 2.98442C548.618 3.28826 547.765 3.28826 547.239 2.98442C546.712 2.68058 546.712 2.18797 547.239 1.88413C547.765 1.58029 548.618 1.58029 549.144 1.88413C549.671 2.18797 549.671 2.68058 549.144 2.98442Z" fill="#D3E0FB" fill-opacity="0.6"/>
<path d="M534.216 11.2888C533.916 11.4624 533.428 11.4624 533.127 11.2888C532.827 11.1152 532.827 10.8337 533.127 10.6601C533.428 10.4865 533.916 10.4865 534.216 10.6601C534.517 10.8337 534.517 11.1152 534.216 11.2888Z" fill="#D3E0FB" fill-opacity="0.3"/>
<path d="M519.699 19.6697C519.398 19.8433 518.911 19.8433 518.61 19.6697C518.309 19.496 518.309 19.2146 518.61 19.0409C518.911 18.8673 519.398 18.8673 519.699 19.0409C520 19.2146 520 19.496 519.699 19.6697Z" fill="#D3E0FB" fill-opacity="0.3"/>
<path d="M505.179 28.0525C504.879 28.2261 504.391 28.2261 504.09 28.0525C503.79 27.8789 503.79 27.5974 504.09 27.4237C504.391 27.2501 504.879 27.2501 505.179 27.4237C505.48 27.5974 505.48 27.8789 505.179 28.0525Z" fill="#D3E0FB" fill-opacity="0.3"/>
<path d="M490.662 36.4353C490.361 36.6089 489.873 36.6089 489.573 36.4353C489.272 36.2617 489.272 35.9802 489.573 35.8066C489.873 35.6329 490.361 35.6329 490.662 35.8066C490.962 35.9802 490.962 36.2617 490.662 36.4353Z" fill="#D3E0FB" fill-opacity="0.3"/>
<path d="M476.142 44.8181C475.841 44.9917 475.354 44.9917 475.053 44.8181C474.752 44.6445 474.752 44.363 475.053 44.1894C475.354 44.0157 475.841 44.0157 476.142 44.1894C476.443 44.363 476.443 44.6445 476.142 44.8181Z" fill="#D3E0FB" fill-opacity="0.3"/>
<path d="M461.625 53.199C461.324 53.3726 460.836 53.3726 460.536 53.199C460.235 53.0253 460.235 52.7438 460.536 52.5702C460.836 52.3966 461.324 52.3966 461.625 52.5702C461.925 52.7438 461.925 53.0253 461.625 53.199Z" fill="#D3E0FB" fill-opacity="0.2"/>
<path d="M447.105 61.5818C446.804 61.7554 446.317 61.7554 446.016 61.5818C445.715 61.4082 445.715 61.1267 446.016 60.953C446.317 60.7794 446.804 60.7794 447.105 60.953C447.406 61.1267 447.406 61.4082 447.105 61.5818Z" fill="#D3E0FB" fill-opacity="0.1"/>
<path d="M578.181 2.98442C577.655 3.28826 576.802 3.28826 576.276 2.98442C575.749 2.68058 575.749 2.18797 576.276 1.88413C576.802 1.58029 577.655 1.58029 578.181 1.88413C578.708 2.18797 578.708 2.68058 578.181 2.98442Z" fill="#D3E0FB"/>
<path d="M563.662 11.3672C563.136 11.6711 562.282 11.6711 561.756 11.3672C561.23 11.0634 561.23 10.5708 561.756 10.2669C562.282 9.96311 563.136 9.96311 563.662 10.2669C564.188 10.5708 564.188 11.0634 563.662 11.3672Z" fill="#D3E0FB"/>
<path d="M548.736 19.6697C548.435 19.8433 547.948 19.8433 547.647 19.6697C547.346 19.496 547.346 19.2146 547.647 19.0409C547.948 18.8673 548.435 18.8673 548.736 19.0409C549.037 19.2146 549.037 19.496 548.736 19.6697Z" fill="#D3E0FB" fill-opacity="0.6"/>
<path d="M534.216 28.0525C533.916 28.2261 533.428 28.2261 533.127 28.0525C532.827 27.8789 532.827 27.5974 533.127 27.4237C533.428 27.2501 533.916 27.2501 534.216 27.4237C534.517 27.5974 534.517 27.8789 534.216 28.0525Z" fill="#D3E0FB" fill-opacity="0.6"/>
<path d="M519.699 36.4353C519.398 36.6089 518.911 36.6089 518.61 36.4353C518.309 36.2617 518.309 35.9802 518.61 35.8066C518.911 35.6329 519.398 35.6329 519.699 35.8066C520 35.9802 520 36.2617 519.699 36.4353Z" fill="#D3E0FB" fill-opacity="0.6"/>
<path d="M505.179 44.8181C504.879 44.9917 504.391 44.9917 504.09 44.8181C503.79 44.6445 503.79 44.363 504.09 44.1894C504.391 44.0157 504.879 44.0157 505.179 44.1894C505.48 44.363 505.48 44.6445 505.179 44.8181Z" fill="#D3E0FB" fill-opacity="0.6"/>
<path d="M490.662 53.199C490.361 53.3726 489.873 53.3726 489.573 53.199C489.272 53.0253 489.272 52.7438 489.573 52.5702C489.873 52.3966 490.361 52.3966 490.662 52.5702C490.962 52.7438 490.962 53.0253 490.662 53.199Z" fill="#D3E0FB" fill-opacity="0.3"/>
<path d="M476.142 61.5818C475.841 61.7554 475.354 61.7554 475.053 61.5818C474.752 61.4082 474.752 61.1267 475.053 60.953C475.354 60.7794 475.841 60.7794 476.142 60.953C476.443 61.1267 476.443 61.4082 476.142 61.5818Z" fill="#D3E0FB" fill-opacity="0.3"/>
<path d="M461.625 69.9646C461.324 70.1382 460.836 70.1382 460.536 69.9646C460.235 69.791 460.235 69.5095 460.536 69.3359C460.836 69.1622 461.324 69.1622 461.625 69.3359C461.925 69.5095 461.925 69.791 461.625 69.9646Z" fill="#D3E0FB" fill-opacity="0.2"/>
<path d="M607.219 2.98442C606.692 3.28826 605.839 3.28826 605.313 2.98442C604.786 2.68058 604.786 2.18797 605.313 1.88413C605.839 1.58029 606.692 1.58029 607.219 1.88413C607.745 2.18797 607.745 2.68058 607.219 2.98442Z" fill="#D3E0FB"/>
<path d="M592.699 11.3672C592.173 11.6711 591.319 11.6711 590.793 11.3672C590.267 11.0634 590.267 10.5708 590.793 10.2669C591.319 9.96311 592.173 9.96311 592.699 10.2669C593.225 10.5708 593.225 11.0634 592.699 11.3672Z" fill="#D3E0FB"/>
<path d="M578.181 19.7481C577.655 20.0519 576.802 20.0519 576.276 19.7481C575.749 19.4443 575.749 18.9516 576.276 18.6478C576.802 18.344 577.655 18.344 578.181 18.6478C578.708 18.9516 578.708 19.4443 578.181 19.7481Z" fill="#D3E0FB"/>
<path d="M563.253 28.0525C562.953 28.2261 562.465 28.2261 562.164 28.0525C561.864 27.8789 561.864 27.5974 562.164 27.4237C562.465 27.2501 562.953 27.2501 563.253 27.4237C563.554 27.5974 563.554 27.8789 563.253 28.0525Z" fill="#D3E0FB"/>
<path d="M548.736 36.4353C548.435 36.6089 547.948 36.6089 547.647 36.4353C547.346 36.2617 547.346 35.9802 547.647 35.8066C547.948 35.6329 548.435 35.6329 548.736 35.8066C549.037 35.9802 549.037 36.2617 548.736 36.4353Z" fill="#D3E0FB"/>
<path d="M534.216 44.8181C533.916 44.9917 533.428 44.9917 533.127 44.8181C532.827 44.6445 532.827 44.363 533.127 44.1894C533.428 44.0157 533.916 44.0157 534.216 44.1894C534.517 44.363 534.517 44.6445 534.216 44.8181Z" fill="#D3E0FB"/>
<path d="M519.699 53.199C519.398 53.3726 518.911 53.3726 518.61 53.199C518.309 53.0253 518.309 52.7438 518.61 52.5702C518.911 52.3966 519.398 52.3966 519.699 52.5702C520 52.7438 520 53.0253 519.699 53.199Z" fill="#D3E0FB"/>
<path d="M505.179 61.5818C504.879 61.7554 504.391 61.7554 504.09 61.5818C503.79 61.4082 503.79 61.1267 504.09 60.953C504.391 60.7794 504.879 60.7794 505.179 60.953C505.48 61.1267 505.48 61.4082 505.179 61.5818Z" fill="#D3E0FB" fill-opacity="0.6"/>
<path d="M490.662 69.9646C490.361 70.1382 489.873 70.1382 489.573 69.9646C489.272 69.791 489.272 69.5095 489.573 69.3359C489.873 69.1622 490.361 69.1622 490.662 69.3359C490.962 69.5095 490.962 69.791 490.662 69.9646Z" fill="#D3E0FB" fill-opacity="0.3"/>
<path d="M476.142 78.3474C475.841 78.521 475.354 78.521 475.053 78.3474C474.752 78.1738 474.752 77.8923 475.053 77.7187C475.354 77.545 475.841 77.545 476.142 77.7187C476.443 77.8923 476.443 78.1738 476.142 78.3474Z" fill="#D3E0FB" fill-opacity="0.3"/>
<path d="M636.664 3.06285C635.912 3.4969 634.693 3.4969 633.941 3.06285C633.19 2.62879 633.19 1.92505 633.941 1.491C634.693 1.05695 635.912 1.05695 636.664 1.491C637.416 1.92505 637.416 2.62879 636.664 3.06285Z" fill="#D3E0FB"/>
<path d="M621.738 11.3672C621.212 11.6711 620.359 11.6711 619.832 11.3672C619.306 11.0634 619.306 10.5708 619.832 10.2669C620.359 9.96311 621.212 9.96311 621.738 10.2669C622.264 10.5708 622.264 11.0634 621.738 11.3672Z" fill="#D3E0FB"/>
<path d="M607.219 19.7481C606.692 20.0519 605.839 20.0519 605.313 19.7481C604.786 19.4443 604.786 18.9516 605.313 18.6478C605.839 18.344 606.692 18.344 607.219 18.6478C607.745 18.9516 607.745 19.4443 607.219 19.7481Z" fill="#D3E0FB"/>
<path d="M592.699 28.1309C592.173 28.4347 591.319 28.4347 590.793 28.1309C590.267 27.8271 590.267 27.3345 590.793 27.0306C591.319 26.7268 592.173 26.7268 592.699 27.0306C593.225 27.3345 593.225 27.8271 592.699 28.1309Z" fill="#D3E0FB"/>
<path d="M577.773 36.4353C577.472 36.6089 576.985 36.6089 576.684 36.4353C576.383 36.2617 576.383 35.9802 576.684 35.8066C576.985 35.6329 577.472 35.6329 577.773 35.8066C578.074 35.9802 578.074 36.2617 577.773 36.4353Z" fill="#D3E0FB"/>
<path d="M563.253 44.8181C562.953 44.9917 562.465 44.9917 562.164 44.8181C561.864 44.6445 561.864 44.363 562.164 44.1894C562.465 44.0157 562.953 44.0157 563.253 44.1894C563.554 44.363 563.554 44.6445 563.253 44.8181Z" fill="#D3E0FB"/>
<path d="M548.736 53.199C548.435 53.3726 547.948 53.3726 547.647 53.199C547.346 53.0253 547.346 52.7438 547.647 52.5702C547.948 52.3966 548.435 52.3966 548.736 52.5702C549.037 52.7438 549.037 53.0253 548.736 53.199Z" fill="#D3E0FB"/>
<path d="M534.216 61.5818C533.916 61.7554 533.428 61.7554 533.127 61.5818C532.827 61.4082 532.827 61.1267 533.127 60.953C533.428 60.7794 533.916 60.7794 534.216 60.953C534.517 61.1267 534.517 61.4082 534.216 61.5818Z" fill="#D3E0FB"/>
<path d="M519.699 69.9646C519.398 70.1382 518.911 70.1382 518.61 69.9646C518.309 69.791 518.309 69.5095 518.61 69.3359C518.911 69.1622 519.398 69.1622 519.699 69.3359C520 69.5095 520 69.791 519.699 69.9646Z" fill="#D3E0FB"/>
<path d="M505.179 78.3474C504.879 78.521 504.391 78.521 504.09 78.3474C503.79 78.1738 503.79 77.8923 504.09 77.7187C504.391 77.545 504.879 77.545 505.179 77.7187C505.48 77.8923 505.48 78.1738 505.179 78.3474Z" fill="#D3E0FB" fill-opacity="0.6"/>
<path d="M490.662 86.7283C490.361 86.9019 489.873 86.9019 489.573 86.7283C489.272 86.5546 489.272 86.2731 489.573 86.0995C489.873 85.9259 490.361 85.9259 490.662 86.0995C490.962 86.2731 490.962 86.5546 490.662 86.7283Z" fill="#D3E0FB" fill-opacity="0.3"/>
<path d="M665.701 3.06285C664.949 3.4969 663.73 3.4969 662.979 3.06285C662.227 2.62879 662.227 1.92505 662.979 1.491C663.73 1.05695 664.949 1.05695 665.701 1.491C666.453 1.92505 666.453 2.62879 665.701 3.06285Z" fill="#D3E0FB"/>
<path d="M651.184 11.4457C650.432 11.8797 649.213 11.8797 648.461 11.4457C647.709 11.0116 647.709 10.3079 648.461 9.87381C649.213 9.43976 650.432 9.43976 651.184 9.87381C651.935 10.3079 651.935 11.0116 651.184 11.4457Z" fill="#D3E0FB"/>
<path d="M636.256 19.7481C635.729 20.0519 634.876 20.0519 634.35 19.7481C633.824 19.4443 633.824 18.9516 634.35 18.6478C634.876 18.344 635.729 18.344 636.256 18.6478C636.782 18.9516 636.782 19.4443 636.256 19.7481Z" fill="#D3E0FB"/>
<path d="M621.738 28.1309C621.212 28.4347 620.359 28.4347 619.832 28.1309C619.306 27.8271 619.306 27.3345 619.832 27.0306C620.359 26.7268 621.212 26.7268 621.738 27.0306C622.264 27.3345 622.264 27.8271 621.738 28.1309Z" fill="#D3E0FB"/>
<path d="M607.219 36.5137C606.692 36.8176 605.839 36.8176 605.313 36.5137C604.786 36.2099 604.786 35.7173 605.313 35.4134C605.839 35.1096 606.692 35.1096 607.219 35.4134C607.745 35.7173 607.745 36.2099 607.219 36.5137Z" fill="#D3E0FB"/>
<path d="M592.291 44.8181C591.99 44.9917 591.502 44.9917 591.202 44.8181C590.901 44.6445 590.901 44.363 591.202 44.1894C591.502 44.0157 591.99 44.0157 592.291 44.1894C592.591 44.363 592.591 44.6445 592.291 44.8181Z" fill="#D3E0FB"/>
<path d="M577.773 53.199C577.472 53.3726 576.985 53.3726 576.684 53.199C576.383 53.0253 576.383 52.7438 576.684 52.5702C576.985 52.3966 577.472 52.3966 577.773 52.5702C578.074 52.7438 578.074 53.0253 577.773 53.199Z" fill="#D3E0FB"/>
<path d="M563.253 61.5818C562.953 61.7554 562.465 61.7554 562.164 61.5818C561.864 61.4082 561.864 61.1267 562.164 60.953C562.465 60.7794 562.953 60.7794 563.253 60.953C563.554 61.1267 563.554 61.4082 563.253 61.5818Z" fill="#D3E0FB"/>
<path d="M548.736 69.9646C548.435 70.1382 547.948 70.1382 547.647 69.9646C547.346 69.791 547.346 69.5095 547.647 69.3359C547.948 69.1622 548.435 69.1622 548.736 69.3359C549.037 69.5095 549.037 69.791 548.736 69.9646Z" fill="#D3E0FB"/>
<path d="M534.216 78.3474C533.916 78.521 533.428 78.521 533.127 78.3474C532.827 78.1738 532.827 77.8923 533.127 77.7187C533.428 77.545 533.916 77.545 534.216 77.7187C534.517 77.8923 534.517 78.1738 534.216 78.3474Z" fill="#D3E0FB"/>
<path d="M519.699 86.7283C519.398 86.9019 518.911 86.9019 518.61 86.7283C518.309 86.5546 518.309 86.2731 518.61 86.0995C518.911 85.9259 519.398 85.9259 519.699 86.0995C520 86.2731 520 86.5546 519.699 86.7283Z" fill="#D3E0FB" fill-opacity="0.6"/>
<path d="M505.179 95.1111C504.879 95.2847 504.391 95.2847 504.09 95.1111C503.79 94.9375 503.79 94.656 504.09 94.4823C504.391 94.3087 504.879 94.3087 505.179 94.4823C505.48 94.656 505.48 94.9375 505.179 95.1111Z" fill="#D3E0FB" fill-opacity="0.3"/>
<path d="M695.147 3.14127C694.169 3.70554 692.585 3.70554 691.607 3.14127C690.63 2.577 690.63 1.66214 691.607 1.09787C692.585 0.533602 694.169 0.533602 695.147 1.09787C696.124 1.66214 696.124 2.577 695.147 3.14127Z" fill="#D3E0FB"/>
<path d="M680.221 11.4457C679.469 11.8797 678.25 11.8797 677.498 11.4457C676.746 11.0116 676.746 10.3079 677.498 9.87381C678.25 9.43976 679.469 9.43976 680.221 9.87381C680.972 10.3079 680.972 11.0116 680.221 11.4457Z" fill="#D3E0FB"/>
<path d="M665.701 19.8265C664.949 20.2606 663.73 20.2606 662.979 19.8265C662.227 19.3925 662.227 18.6887 662.979 18.2547C663.73 17.8206 664.949 17.8206 665.701 18.2547C666.453 18.6887 666.453 19.3925 665.701 19.8265Z" fill="#D3E0FB"/>
<path d="M650.775 28.1309C650.249 28.4347 649.396 28.4347 648.869 28.1309C648.343 27.8271 648.343 27.3345 648.869 27.0306C649.396 26.7268 650.249 26.7268 650.775 27.0306C651.301 27.3345 651.301 27.8271 650.775 28.1309Z" fill="#D3E0FB"/>
<path d="M636.256 36.5137C635.729 36.8176 634.876 36.8176 634.35 36.5137C633.824 36.2099 633.824 35.7173 634.35 35.4134C634.876 35.1096 635.729 35.1096 636.256 35.4134C636.782 35.7173 636.782 36.2099 636.256 36.5137Z" fill="#D3E0FB"/>
<path d="M621.738 44.8965C621.212 45.2004 620.359 45.2004 619.832 44.8965C619.306 44.5927 619.306 44.1001 619.832 43.7962C620.359 43.4924 621.212 43.4924 621.738 43.7962C622.264 44.1001 622.264 44.5927 621.738 44.8965Z" fill="#D3E0FB"/>
<path d="M606.81 53.199C606.509 53.3726 606.022 53.3726 605.721 53.199C605.42 53.0253 605.42 52.7438 605.721 52.5702C606.022 52.3966 606.509 52.3966 606.81 52.5702C607.111 52.7438 607.111 53.0253 606.81 53.199Z" fill="#D3E0FB"/>
<path d="M592.291 61.5818C591.99 61.7554 591.502 61.7554 591.202 61.5818C590.901 61.4082 590.901 61.1267 591.202 60.953C591.502 60.7794 591.99 60.7794 592.291 60.953C592.591 61.1267 592.591 61.4082 592.291 61.5818Z" fill="#D3E0FB"/>
<path d="M577.773 69.9646C577.472 70.1382 576.985 70.1382 576.684 69.9646C576.383 69.791 576.383 69.5095 576.684 69.3359C576.985 69.1622 577.472 69.1622 577.773 69.3359C578.074 69.5095 578.074 69.791 577.773 69.9646Z" fill="#D3E0FB"/>
<path d="M563.253 78.3474C562.953 78.521 562.465 78.521 562.164 78.3474C561.864 78.1738 561.864 77.8923 562.164 77.7187C562.465 77.545 562.953 77.545 563.253 77.7187C563.554 77.8923 563.554 78.1738 563.253 78.3474Z" fill="#D3E0FB"/>
<path d="M548.736 86.7283C548.435 86.9019 547.948 86.9019 547.647 86.7283C547.346 86.5546 547.346 86.2731 547.647 86.0995C547.948 85.9259 548.435 85.9259 548.736 86.0995C549.037 86.2731 549.037 86.5546 548.736 86.7283Z" fill="#D3E0FB"/>
<path d="M534.216 95.1111C533.916 95.2847 533.428 95.2847 533.127 95.1111C532.827 94.9375 532.827 94.656 533.127 94.4823C533.428 94.3087 533.916 94.3087 534.216 94.4823C534.517 94.656 534.517 94.9375 534.216 95.1111Z" fill="#D3E0FB" fill-opacity="0.6"/>
<path d="M519.699 103.494C519.398 103.668 518.911 103.668 518.61 103.494C518.309 103.32 518.309 103.039 518.61 102.865C518.911 102.692 519.398 102.692 519.699 102.865C520 103.039 520 103.32 519.699 103.494Z" fill="#D3E0FB" fill-opacity="0.3"/>
<path d="M724.184 3.14127C723.206 3.70554 721.622 3.70554 720.644 3.14127C719.667 2.577 719.667 1.66214 720.644 1.09787C721.622 0.533602 723.206 0.533602 724.184 1.09787C725.161 1.66214 725.161 2.577 724.184 3.14127Z" fill="#D3E0FB"/>
<path d="M709.666 11.5241C708.689 12.0884 707.104 12.0884 706.127 11.5241C705.15 10.9598 705.15 10.045 706.127 9.48068C707.104 8.91641 708.689 8.91641 709.666 9.48068C710.643 10.045 710.643 10.9598 709.666 11.5241Z" fill="#D3E0FB"/>
<path d="M694.738 19.8265C693.986 20.2606 692.767 20.2606 692.016 19.8265C691.264 19.3925 691.264 18.6887 692.016 18.2547C692.767 17.8206 693.986 17.8206 694.738 18.2547C695.49 18.6887 695.49 19.3925 694.738 19.8265Z" fill="#D3E0FB"/>
<path d="M680.221 28.2093C679.469 28.6434 678.25 28.6434 677.498 28.2093C676.746 27.7753 676.746 27.0715 677.498 26.6375C678.25 26.2034 679.469 26.2034 680.221 26.6375C680.972 27.0715 680.972 27.7753 680.221 28.2093Z" fill="#D3E0FB"/>
<path d="M665.293 36.5137C664.766 36.8176 663.913 36.8176 663.387 36.5137C662.861 36.2099 662.861 35.7173 663.387 35.4134C663.913 35.1096 664.766 35.1096 665.293 35.4134C665.819 35.7173 665.819 36.2099 665.293 36.5137Z" fill="#D3E0FB"/>
<path d="M650.775 44.8965C650.249 45.2004 649.396 45.2004 648.869 44.8965C648.343 44.5927 648.343 44.1001 648.869 43.7962C649.396 43.4924 650.249 43.4924 650.775 43.7962C651.301 44.1001 651.301 44.5927 650.775 44.8965Z" fill="#D3E0FB"/>
<path d="M636.256 53.2774C635.729 53.5812 634.876 53.5812 634.35 53.2774C633.824 52.9736 633.824 52.4809 634.35 52.1771C634.876 51.8733 635.729 51.8733 636.256 52.1771C636.782 52.4809 636.782 52.9736 636.256 53.2774Z" fill="#D3E0FB"/>
<path d="M621.33 61.5818C621.029 61.7554 620.541 61.7554 620.241 61.5818C619.94 61.4082 619.94 61.1267 620.241 60.953C620.541 60.7794 621.029 60.7794 621.33 60.953C621.63 61.1267 621.63 61.4082 621.33 61.5818Z" fill="#D3E0FB"/>
<path d="M606.81 69.9646C606.509 70.1382 606.022 70.1382 605.721 69.9646C605.42 69.791 605.42 69.5095 605.721 69.3359C606.022 69.1622 606.509 69.1622 606.81 69.3359C607.111 69.5095 607.111 69.791 606.81 69.9646Z" fill="#D3E0FB"/>
<path d="M592.291 78.3474C591.99 78.521 591.502 78.521 591.202 78.3474C590.901 78.1738 590.901 77.8923 591.202 77.7187C591.502 77.545 591.99 77.545 592.291 77.7187C592.591 77.8923 592.591 78.1738 592.291 78.3474Z" fill="#D3E0FB"/>
<path d="M577.773 86.7283C577.472 86.9019 576.985 86.9019 576.684 86.7283C576.383 86.5546 576.383 86.2731 576.684 86.0995C576.985 85.9259 577.472 85.9259 577.773 86.0995C578.074 86.2731 578.074 86.5546 577.773 86.7283Z" fill="#D3E0FB"/>
<path d="M563.253 95.1111C562.953 95.2847 562.465 95.2847 562.164 95.1111C561.864 94.9375 561.864 94.656 562.164 94.4823C562.465 94.3087 562.953 94.3087 563.253 94.4823C563.554 94.656 563.554 94.9375 563.253 95.1111Z" fill="#D3E0FB"/>
<path d="M548.736 103.494C548.435 103.668 547.948 103.668 547.647 103.494C547.346 103.32 547.346 103.039 547.647 102.865C547.948 102.692 548.435 102.692 548.736 102.865C549.037 103.039 549.037 103.32 548.736 103.494Z" fill="#D3E0FB" fill-opacity="0.6"/>
<path d="M534.216 111.877C533.916 112.05 533.428 112.05 533.127 111.877C532.827 111.703 532.827 111.422 533.127 111.248C533.428 111.074 533.916 111.074 534.216 111.248C534.517 111.422 534.517 111.703 534.216 111.877Z" fill="#D3E0FB" fill-opacity="0.3"/>
<path d="M753.631 3.21969C752.428 3.91418 750.478 3.91418 749.275 3.21969C748.072 2.52521 748.072 1.39923 749.275 0.704741C750.478 0.0102566 752.428 0.0102567 753.631 0.704741C754.834 1.39923 754.834 2.52521 753.631 3.21969Z" fill="#D3E0FB"/>
<path d="M738.703 11.5241C737.726 12.0884 736.141 12.0884 735.164 11.5241C734.187 10.9598 734.187 10.045 735.164 9.48068C736.141 8.91641 737.726 8.91641 738.703 9.48068C739.681 10.045 739.681 10.9598 738.703 11.5241Z" fill="#D3E0FB"/>
<path d="M724.184 19.9069C723.206 20.4712 721.622 20.4712 720.644 19.9069C719.667 19.3426 719.667 18.4278 720.644 17.8635C721.622 17.2992 723.206 17.2992 724.184 17.8635C725.161 18.4278 725.161 19.3426 724.184 19.9069Z" fill="#D3E0FB"/>
<path d="M709.258 28.2093C708.506 28.6434 707.287 28.6434 706.535 28.2093C705.783 27.7753 705.783 27.0715 706.535 26.6375C707.287 26.2034 708.506 26.2034 709.258 26.6375C710.01 27.0715 710.01 27.7753 709.258 28.2093Z" fill="#D3E0FB"/>
<path d="M694.738 36.5921C693.986 37.0262 692.767 37.0262 692.016 36.5921C691.264 36.1581 691.264 35.4544 692.016 35.0203C692.767 34.5862 693.986 34.5862 694.738 35.0203C695.49 35.4544 695.49 36.1581 694.738 36.5921Z" fill="#D3E0FB"/>
<path d="M679.812 44.8965C679.286 45.2004 678.433 45.2004 677.906 44.8965C677.38 44.5927 677.38 44.1001 677.906 43.7962C678.433 43.4924 679.286 43.4924 679.812 43.7962C680.339 44.1001 680.339 44.5927 679.812 44.8965Z" fill="#D3E0FB"/>
<path d="M665.293 53.2774C664.766 53.5812 663.913 53.5812 663.387 53.2774C662.861 52.9736 662.861 52.4809 663.387 52.1771C663.913 51.8733 664.766 51.8733 665.293 52.1771C665.819 52.4809 665.819 52.9736 665.293 53.2774Z" fill="#D3E0FB"/>
<path d="M650.775 61.6602C650.249 61.964 649.396 61.964 648.869 61.6602C648.343 61.3564 648.343 60.8637 648.869 60.5599C649.396 60.2561 650.249 60.2561 650.775 60.5599C651.301 60.8637 651.301 61.3564 650.775 61.6602Z" fill="#D3E0FB"/>
<path d="M635.847 69.9646C635.547 70.1382 635.059 70.1382 634.758 69.9646C634.458 69.791 634.458 69.5095 634.758 69.3359C635.059 69.1622 635.547 69.1622 635.847 69.3359C636.148 69.5095 636.148 69.791 635.847 69.9646Z" fill="#D3E0FB"/>
<path d="M621.33 78.3474C621.029 78.521 620.541 78.521 620.241 78.3474C619.94 78.1738 619.94 77.8923 620.241 77.7187C620.541 77.545 621.029 77.545 621.33 77.7187C621.63 77.8923 621.63 78.1738 621.33 78.3474Z" fill="#D3E0FB"/>
<path d="M606.81 86.7283C606.509 86.9019 606.022 86.9019 605.721 86.7283C605.42 86.5546 605.42 86.2731 605.721 86.0995C606.022 85.9259 606.509 85.9259 606.81 86.0995C607.111 86.2731 607.111 86.5546 606.81 86.7283Z" fill="#D3E0FB"/>
<path d="M592.291 95.1111C591.99 95.2847 591.502 95.2847 591.202 95.1111C590.901 94.9375 590.901 94.656 591.202 94.4823C591.502 94.3087 591.99 94.3087 592.291 94.4823C592.591 94.656 592.591 94.9375 592.291 95.1111Z" fill="#D3E0FB"/>
<path d="M577.773 103.494C577.472 103.668 576.985 103.668 576.684 103.494C576.383 103.32 576.383 103.039 576.684 102.865C576.985 102.692 577.472 102.692 577.773 102.865C578.074 103.039 578.074 103.32 577.773 103.494Z" fill="#D3E0FB"/>
<path d="M563.253 111.877C562.953 112.05 562.465 112.05 562.164 111.877C561.864 111.703 561.864 111.422 562.164 111.248C562.465 111.074 562.953 111.074 563.253 111.248C563.554 111.422 563.554 111.703 563.253 111.877Z" fill="#D3E0FB"/>
<path d="M548.736 120.258C548.435 120.431 547.948 120.431 547.647 120.258C547.346 120.084 547.346 119.802 547.647 119.629C547.948 119.455 548.435 119.455 548.736 119.629C549.037 119.802 549.037 120.084 548.736 120.258Z" fill="#D3E0FB" fill-opacity="0.3"/>
<path d="M783.077 3.29812C781.648 4.12282 779.332 4.12282 777.904 3.29812C776.475 2.47342 776.475 1.13631 777.904 0.311612C779.332 -0.513089 781.648 -0.513089 783.077 0.311612C784.505 1.13631 784.505 2.47342 783.077 3.29812Z" fill="#D3E0FB"/>
<path d="M768.149 11.6025C766.946 12.297 764.996 12.297 763.793 11.6025C762.59 10.908 762.59 9.78204 763.793 9.08755C764.996 8.39307 766.946 8.39307 768.149 9.08755C769.352 9.78204 769.352 10.908 768.149 11.6025Z" fill="#D3E0FB"/>
<path d="M753.223 19.9069C752.245 20.4712 750.661 20.4712 749.683 19.9069C748.706 19.3426 748.706 18.4278 749.683 17.8635C750.661 17.2992 752.245 17.2992 753.223 17.8635C754.2 18.4278 754.2 19.3426 753.223 19.9069Z" fill="#D3E0FB"/>
<path d="M738.703 28.2878C737.726 28.852 736.141 28.852 735.164 28.2878C734.187 27.7235 734.187 26.8086 735.164 26.2444C736.141 25.6801 737.726 25.6801 738.703 26.2444C739.681 26.8086 739.681 27.7235 738.703 28.2878Z" fill="#D3E0FB"/>
<path d="M723.775 36.5921C723.024 37.0262 721.805 37.0262 721.053 36.5921C720.301 36.1581 720.301 35.4544 721.053 35.0203C721.805 34.5862 723.024 34.5862 723.775 35.0203C724.527 35.4544 724.527 36.1581 723.775 36.5921Z" fill="#D3E0FB"/>
<path d="M709.258 44.975C708.506 45.409 707.287 45.409 706.535 44.975C705.783 44.5409 705.783 43.8372 706.535 43.4031C707.287 42.9691 708.506 42.9691 709.258 43.4031C710.01 43.8372 710.01 44.5409 709.258 44.975Z" fill="#D3E0FB"/>
<path d="M694.33 53.2774C693.804 53.5812 692.95 53.5812 692.424 53.2774C691.898 52.9736 691.898 52.4809 692.424 52.1771C692.95 51.8733 693.804 51.8733 694.33 52.1771C694.856 52.4809 694.856 52.9736 694.33 53.2774Z" fill="#D3E0FB"/>
<path d="M679.812 61.6602C679.286 61.964 678.433 61.964 677.906 61.6602C677.38 61.3564 677.38 60.8637 677.906 60.5599C678.433 60.2561 679.286 60.2561 679.812 60.5599C680.339 60.8637 680.339 61.3564 679.812 61.6602Z" fill="#D3E0FB"/>
<path d="M665.293 70.043C664.766 70.3469 663.913 70.3469 663.387 70.043C662.861 69.7392 662.861 69.2466 663.387 68.9427C663.913 68.6389 664.766 68.6389 665.293 68.9427C665.819 69.2466 665.819 69.7392 665.293 70.043Z" fill="#D3E0FB"/>
<path d="M650.367 78.3474C650.066 78.521 649.578 78.521 649.278 78.3474C648.977 78.1738 648.977 77.8923 649.278 77.7187C649.578 77.545 650.066 77.545 650.367 77.7187C650.667 77.8923 650.667 78.1738 650.367 78.3474Z" fill="#D3E0FB"/>
<path d="M635.847 86.7283C635.547 86.9019 635.059 86.9019 634.758 86.7283C634.458 86.5546 634.458 86.2731 634.758 86.0995C635.059 85.9259 635.547 85.9259 635.847 86.0995C636.148 86.2731 636.148 86.5546 635.847 86.7283Z" fill="#D3E0FB"/>
<path d="M621.33 95.1111C621.029 95.2847 620.541 95.2847 620.241 95.1111C619.94 94.9375 619.94 94.656 620.241 94.4823C620.541 94.3087 621.029 94.3087 621.33 94.4823C621.63 94.656 621.63 94.9375 621.33 95.1111Z" fill="#D3E0FB"/>
<path d="M606.81 103.494C606.509 103.668 606.022 103.668 605.721 103.494C605.42 103.32 605.42 103.039 605.721 102.865C606.022 102.692 606.509 102.692 606.81 102.865C607.111 103.039 607.111 103.32 606.81 103.494Z" fill="#D3E0FB"/>
<path d="M592.291 111.877C591.99 112.05 591.502 112.05 591.202 111.877C590.901 111.703 590.901 111.422 591.202 111.248C591.502 111.074 591.99 111.074 592.291 111.248C592.591 111.422 592.591 111.703 592.291 111.877Z" fill="#D3E0FB"/>
<path d="M577.773 120.258C577.472 120.431 576.985 120.431 576.684 120.258C576.383 120.084 576.383 119.802 576.684 119.629C576.985 119.455 577.472 119.455 577.773 119.629C578.074 119.802 578.074 120.084 577.773 120.258Z" fill="#D3E0FB"/>
<path d="M563.253 128.64C562.953 128.814 562.465 128.814 562.164 128.64C561.864 128.467 561.864 128.185 562.164 128.012C562.465 127.838 562.953 127.838 563.253 128.012C563.554 128.185 563.554 128.467 563.253 128.64Z" fill="#D3E0FB" fill-opacity="0.3"/>
<path d="M812.522 3.37654C810.868 4.33146 808.187 4.33146 806.533 3.37654C804.879 2.42162 804.879 0.873398 806.533 -0.0815181C808.187 -1.03643 810.868 -1.03643 812.522 -0.0815178C814.176 0.873399 814.176 2.42162 812.522 3.37654Z" fill="#D3E0FB"/>
<path d="M797.594 11.6809C796.166 12.5056 793.85 12.5056 792.421 11.6809C790.993 10.8562 790.993 9.51912 792.421 8.69442C793.85 7.86972 796.166 7.86972 797.594 8.69442C799.023 9.51912 799.023 10.8562 797.594 11.6809Z" fill="#D3E0FB"/>
<path d="M782.668 19.9853C781.465 20.6798 779.515 20.6798 778.312 19.9853C777.109 19.2908 777.109 18.1649 778.312 17.4704C779.515 16.7759 781.465 16.7759 782.668 17.4704C783.871 18.1649 783.871 19.2908 782.668 19.9853Z" fill="#D3E0FB"/>
<path d="M767.74 28.2878C766.763 28.852 765.178 28.852 764.201 28.2878C763.224 27.7235 763.224 26.8086 764.201 26.2444C765.178 25.6801 766.763 25.6801 767.74 26.2444C768.718 26.8086 768.718 27.7235 767.74 28.2878Z" fill="#D3E0FB"/>
<path d="M753.223 36.6706C752.245 37.2348 750.661 37.2348 749.683 36.6706C748.706 36.1063 748.706 35.1914 749.683 34.6272C750.661 34.0629 752.245 34.0629 753.223 34.6272C754.2 35.1914 754.2 36.1063 753.223 36.6706Z" fill="#D3E0FB"/>
<path d="M738.295 44.975C737.543 45.409 736.324 45.409 735.572 44.975C734.821 44.5409 734.821 43.8372 735.572 43.4031C736.324 42.9691 737.543 42.9691 738.295 43.4031C739.047 43.8372 739.047 44.5409 738.295 44.975Z" fill="#D3E0FB"/>
<path d="M723.775 53.3578C723.024 53.7918 721.805 53.7918 721.053 53.3578C720.301 52.9237 720.301 52.22 721.053 51.7859C721.805 51.3519 723.024 51.3519 723.775 51.7859C724.527 52.22 724.527 52.9237 723.775 53.3578Z" fill="#D3E0FB"/>
<path d="M708.849 61.6602C708.323 61.964 707.47 61.964 706.944 61.6602C706.417 61.3564 706.417 60.8637 706.944 60.5599C707.47 60.2561 708.323 60.2561 708.849 60.5599C709.376 60.8637 709.376 61.3564 708.849 61.6602Z" fill="#D3E0FB"/>
<path d="M694.33 70.043C693.804 70.3469 692.95 70.3469 692.424 70.043C691.898 69.7392 691.898 69.2466 692.424 68.9427C692.95 68.6389 693.804 68.6389 694.33 68.9427C694.856 69.2466 694.856 69.7392 694.33 70.043Z" fill="#D3E0FB"/>
<path d="M679.812 78.4258C679.286 78.7297 678.433 78.7297 677.906 78.4258C677.38 78.122 677.38 77.6294 677.906 77.3255C678.433 77.0217 679.286 77.0217 679.812 77.3255C680.339 77.6294 680.339 78.122 679.812 78.4258Z" fill="#D3E0FB"/>
<path d="M664.884 86.7283C664.584 86.9019 664.096 86.9019 663.795 86.7283C663.495 86.5546 663.495 86.2731 663.795 86.0995C664.096 85.9259 664.584 85.9259 664.884 86.0995C665.185 86.2731 665.185 86.5546 664.884 86.7283Z" fill="#D3E0FB"/>
<path d="M650.367 95.1111C650.066 95.2847 649.578 95.2847 649.278 95.1111C648.977 94.9375 648.977 94.656 649.278 94.4823C649.578 94.3087 650.066 94.3087 650.367 94.4823C650.667 94.656 650.667 94.9375 650.367 95.1111Z" fill="#D3E0FB"/>
<path d="M635.847 103.494C635.547 103.668 635.059 103.668 634.758 103.494C634.458 103.32 634.458 103.039 634.758 102.865C635.059 102.692 635.547 102.692 635.847 102.865C636.148 103.039 636.148 103.32 635.847 103.494Z" fill="#D3E0FB"/>
<path d="M621.33 111.877C621.029 112.05 620.541 112.05 620.241 111.877C619.94 111.703 619.94 111.422 620.241 111.248C620.541 111.074 621.029 111.074 621.33 111.248C621.63 111.422 621.63 111.703 621.33 111.877Z" fill="#D3E0FB"/>
<path d="M606.81 120.258C606.509 120.431 606.022 120.431 605.721 120.258C605.42 120.084 605.42 119.802 605.721 119.629C606.022 119.455 606.509 119.455 606.81 119.629C607.111 119.802 607.111 120.084 606.81 120.258Z" fill="#D3E0FB"/>
<path d="M592.293 128.64C591.992 128.814 591.504 128.814 591.204 128.64C590.903 128.467 590.903 128.185 591.204 128.012C591.504 127.838 591.992 127.838 592.293 128.012C592.593 128.185 592.593 128.467 592.293 128.64Z" fill="#D3E0FB"/>
<path d="M841.559 3.37654C839.905 4.33146 837.224 4.33146 835.57 3.37654C833.916 2.42162 833.916 0.873398 835.57 -0.0815181C837.224 -1.03643 839.905 -1.03643 841.559 -0.0815178C843.213 0.873399 843.213 2.42162 841.559 3.37654Z" fill="#D3E0FB"/>
<path d="M827.04 11.7594C825.386 12.7143 822.704 12.7143 821.05 11.7594C819.396 10.8044 819.396 9.25621 821.05 8.30129C822.704 7.34638 825.386 7.34638 827.04 8.30129C828.694 9.25621 828.694 10.8044 827.04 11.7594Z" fill="#D3E0FB"/>
<path d="M812.114 20.0637C810.685 20.8884 808.369 20.8884 806.941 20.0637C805.513 19.239 805.513 17.9019 806.941 17.0772C808.369 16.2525 810.685 16.2525 812.114 17.0772C813.542 17.9019 813.542 19.239 812.114 20.0637Z" fill="#D3E0FB"/>
<path d="M797.186 28.3662C795.983 29.0607 794.033 29.0607 792.83 28.3662C791.627 27.6717 791.627 26.5457 792.83 25.8512C794.033 25.1567 795.983 25.1567 797.186 25.8512C798.389 26.5457 798.389 27.6717 797.186 28.3662Z" fill="#D3E0FB"/>
<path d="M782.26 36.6706C781.283 37.2348 779.698 37.2348 778.721 36.6706C777.743 36.1063 777.743 35.1914 778.721 34.6272C779.698 34.0629 781.283 34.0629 782.26 34.6272C783.237 35.1914 783.237 36.1063 782.26 36.6706Z" fill="#D3E0FB"/>
<path d="M767.74 45.0534C766.763 45.6176 765.178 45.6176 764.201 45.0534C763.224 44.4891 763.224 43.5742 764.201 43.01C765.178 42.4457 766.763 42.4457 767.74 43.01C768.718 43.5742 768.718 44.4891 767.74 45.0534Z" fill="#D3E0FB"/>
<path d="M752.814 53.3578C752.063 53.7918 750.844 53.7918 750.092 53.3578C749.34 52.9237 749.34 52.22 750.092 51.7859C750.844 51.3519 752.063 51.3519 752.814 51.7859C753.566 52.22 753.566 52.9237 752.814 53.3578Z" fill="#D3E0FB"/>
<path d="M738.295 61.7386C737.543 62.1727 736.324 62.1727 735.572 61.7386C734.821 61.3046 734.821 60.6008 735.572 60.1668C736.324 59.7327 737.543 59.7327 738.295 60.1668C739.047 60.6008 739.047 61.3046 738.295 61.7386Z" fill="#D3E0FB"/>
<path d="M723.367 70.043C722.841 70.3469 721.987 70.3469 721.461 70.043C720.935 69.7392 720.935 69.2466 721.461 68.9427C721.987 68.6389 722.841 68.6389 723.367 68.9427C723.893 69.2466 723.893 69.7392 723.367 70.043Z" fill="#D3E0FB"/>
<path d="M708.849 78.4258C708.323 78.7297 707.47 78.7297 706.944 78.4258C706.417 78.122 706.417 77.6294 706.944 77.3255C707.47 77.0217 708.323 77.0217 708.849 77.3255C709.376 77.6294 709.376 78.122 708.849 78.4258Z" fill="#D3E0FB"/>
<path d="M694.33 86.8086C693.804 87.1125 692.95 87.1125 692.424 86.8086C691.898 86.5048 691.898 86.0122 692.424 85.7083C692.95 85.4045 693.804 85.4045 694.33 85.7083C694.856 86.0122 694.856 86.5048 694.33 86.8086Z" fill="#D3E0FB"/>
<path d="M679.404 95.1111C679.103 95.2847 678.616 95.2847 678.315 95.1111C678.014 94.9375 678.014 94.656 678.315 94.4823C678.616 94.3087 679.103 94.3087 679.404 94.4823C679.705 94.656 679.705 94.9375 679.404 95.1111Z" fill="#D3E0FB"/>
<path d="M664.884 103.494C664.584 103.668 664.096 103.668 663.795 103.494C663.495 103.32 663.495 103.039 663.795 102.865C664.096 102.692 664.584 102.692 664.884 102.865C665.185 103.039 665.185 103.32 664.884 103.494Z" fill="#D3E0FB"/>
<path d="M650.367 111.877C650.066 112.05 649.578 112.05 649.278 111.877C648.977 111.703 648.977 111.422 649.278 111.248C649.578 111.074 650.066 111.074 650.367 111.248C650.667 111.422 650.667 111.703 650.367 111.877Z" fill="#D3E0FB"/>
<path d="M635.847 120.258C635.547 120.431 635.059 120.431 634.758 120.258C634.458 120.084 634.458 119.802 634.758 119.629C635.059 119.455 635.547 119.455 635.847 119.629C636.148 119.802 636.148 120.084 635.847 120.258Z" fill="#D3E0FB"/>
<path d="M621.33 128.64C621.029 128.814 620.541 128.814 620.241 128.64C619.94 128.467 619.94 128.185 620.241 128.012C620.541 127.838 621.029 127.838 621.33 128.012C621.63 128.185 621.63 128.467 621.33 128.64Z" fill="#D3E0FB"/>
<path d="M863.518 -0.0816863L864.879 -0.867609C866.383 -1.73571 868.82 -1.73571 870.324 -0.867608L871.685 -0.081686C873.189 0.78642 873.189 2.1939 871.685 3.062L870.324 3.84793C868.82 4.71603 866.383 4.71603 864.879 3.84793L863.518 3.062C862.014 2.1939 862.014 0.786419 863.518 -0.0816863Z" fill="#D3E0FB"/>
<path d="M856.077 11.7594C854.423 12.7143 851.741 12.7143 850.087 11.7594C848.433 10.8044 848.433 9.25621 850.087 8.30129C851.741 7.34638 854.423 7.34638 856.077 8.30129C857.731 9.25621 857.731 10.8044 856.077 11.7594Z" fill="#D3E0FB"/>
<path d="M841.559 20.1422C839.905 21.0971 837.224 21.0971 835.57 20.1422C833.916 19.1872 833.916 17.639 835.57 16.6841C837.224 15.7292 839.905 15.7292 841.559 16.6841C843.213 17.639 843.213 19.1872 841.559 20.1422Z" fill="#D3E0FB"/>
<path d="M826.631 28.4466C825.203 29.2713 822.887 29.2713 821.459 28.4466C820.03 27.6219 820.03 26.2847 821.459 25.46C822.887 24.6353 825.203 24.6353 826.631 25.46C828.06 26.2847 828.06 27.6219 826.631 28.4466Z" fill="#D3E0FB"/>
<path d="M811.705 36.749C810.502 37.4435 808.552 37.4435 807.349 36.749C806.146 36.0545 806.146 34.9285 807.349 34.234C808.552 33.5396 810.502 33.5396 811.705 34.234C812.908 34.9285 812.908 36.0545 811.705 36.749Z" fill="#D3E0FB"/>
<path d="M796.777 45.0534C795.8 45.6176 794.216 45.6176 793.238 45.0534C792.261 44.4891 792.261 43.5742 793.238 43.01C794.216 42.4457 795.8 42.4457 796.777 43.01C797.755 43.5742 797.755 44.4891 796.777 45.0534Z" fill="#D3E0FB"/>
<path d="M782.26 53.4362C781.283 54.0005 779.698 54.0005 778.721 53.4362C777.743 52.8719 777.743 51.9571 778.721 51.3928C779.698 50.8285 781.283 50.8285 782.26 51.3928C783.237 51.9571 783.237 52.8719 782.26 53.4362Z" fill="#D3E0FB"/>
<path d="M767.332 61.7386C766.58 62.1727 765.361 62.1727 764.609 61.7386C763.858 61.3046 763.858 60.6008 764.609 60.1668C765.361 59.7327 766.58 59.7327 767.332 60.1668C768.084 60.6008 768.084 61.3046 767.332 61.7386Z" fill="#D3E0FB"/>
<path d="M752.814 70.1214C752.063 70.5555 750.844 70.5555 750.092 70.1214C749.34 69.6874 749.34 68.9836 750.092 68.5496C750.844 68.1155 752.063 68.1155 752.814 68.5496C753.566 68.9836 753.566 69.6874 752.814 70.1214Z" fill="#D3E0FB"/>
<path d="M737.886 78.4258C737.36 78.7297 736.507 78.7297 735.981 78.4258C735.454 78.122 735.454 77.6294 735.981 77.3255C736.507 77.0217 737.36 77.0217 737.886 77.3255C738.413 77.6294 738.413 78.122 737.886 78.4258Z" fill="#D3E0FB"/>
<path d="M723.367 86.8086C722.841 87.1125 721.987 87.1125 721.461 86.8086C720.935 86.5048 720.935 86.0122 721.461 85.7083C721.987 85.4045 722.841 85.4045 723.367 85.7083C723.893 86.0122 723.893 86.5048 723.367 86.8086Z" fill="#D3E0FB"/>
<path d="M708.849 95.1895C708.323 95.4933 707.47 95.4933 706.944 95.1895C706.417 94.8857 706.417 94.393 706.944 94.0892C707.47 93.7854 708.323 93.7854 708.849 94.0892C709.376 94.393 709.376 94.8857 708.849 95.1895Z" fill="#D3E0FB"/>
<path d="M693.921 103.494C693.621 103.668 693.133 103.668 692.832 103.494C692.532 103.32 692.532 103.039 692.832 102.865C693.133 102.692 693.621 102.692 693.921 102.865C694.222 103.039 694.222 103.32 693.921 103.494Z" fill="#D3E0FB"/>
<path d="M679.404 111.877C679.103 112.05 678.616 112.05 678.315 111.877C678.014 111.703 678.014 111.422 678.315 111.248C678.616 111.074 679.103 111.074 679.404 111.248C679.705 111.422 679.705 111.703 679.404 111.877Z" fill="#D3E0FB"/>
<path d="M664.884 120.258C664.584 120.431 664.096 120.431 663.795 120.258C663.495 120.084 663.495 119.802 663.795 119.629C664.096 119.455 664.584 119.455 664.884 119.629C665.185 119.802 665.185 120.084 664.884 120.258Z" fill="#D3E0FB"/>
<path d="M650.367 128.64C650.066 128.814 649.578 128.814 649.278 128.64C648.977 128.467 648.977 128.185 649.278 128.012C649.578 127.838 650.066 127.838 650.367 128.012C650.667 128.185 650.667 128.467 650.367 128.64Z" fill="#D3E0FB"/>
<path d="M891.194 0.0753298L894.461 -1.81088C895.664 -2.50537 897.614 -2.50537 898.817 -1.81088L902.084 0.0753302C903.287 0.769815 903.287 1.8958 902.084 2.59028L898.817 4.47649C897.614 5.17098 895.664 5.17098 894.461 4.47649L891.194 2.59028C889.991 1.8958 889.991 0.769814 891.194 0.0753298Z" fill="#D3E0FB"/>
<path d="M878.037 8.30113L879.399 7.5152C880.902 6.6471 883.34 6.6471 884.844 7.5152L886.205 8.30113C887.708 9.16923 887.708 10.5767 886.205 11.4448L884.844 12.2307C883.34 13.0988 880.902 13.0988 879.399 12.2307L878.037 11.4448C876.534 10.5767 876.534 9.16923 878.037 8.30113Z" fill="#D3E0FB"/>
<path d="M870.596 20.1422C868.942 21.0971 866.261 21.0971 864.607 20.1422C862.953 19.1872 862.953 17.639 864.607 16.6841C866.261 15.7292 868.942 15.7292 870.596 16.6841C872.25 17.639 872.25 19.1872 870.596 20.1422Z" fill="#D3E0FB"/>
<path d="M856.077 28.525C854.423 29.4799 851.741 29.4799 850.087 28.525C848.433 27.5701 848.433 26.0218 850.087 25.0669C851.741 24.112 854.423 24.112 856.077 25.0669C857.731 26.0218 857.731 27.5701 856.077 28.525Z" fill="#D3E0FB"/>
<path d="M841.151 36.8274C839.722 37.6521 837.406 37.6521 835.978 36.8274C834.55 36.0027 834.55 34.6656 835.978 33.8409C837.406 33.0162 839.722 33.0162 841.151 33.8409C842.579 34.6656 842.579 36.0027 841.151 36.8274Z" fill="#D3E0FB"/>
<path d="M826.223 45.1318C825.02 45.8263 823.07 45.8263 821.867 45.1318C820.664 44.4373 820.664 43.3113 821.867 42.6169C823.07 41.9224 825.02 41.9224 826.223 42.6169C827.426 43.3113 827.426 44.4373 826.223 45.1318Z" fill="#D3E0FB"/>
<path d="M811.297 53.4362C810.32 54.0005 808.735 54.0005 807.758 53.4362C806.78 52.8719 806.78 51.9571 807.758 51.3928C808.735 50.8285 810.32 50.8285 811.297 51.3928C812.274 51.9571 812.274 52.8719 811.297 53.4362Z" fill="#D3E0FB"/>
<path d="M796.777 61.8171C795.8 62.3813 794.216 62.3813 793.238 61.8171C792.261 61.2528 792.261 60.3379 793.238 59.7737C794.216 59.2094 795.8 59.2094 796.777 59.7737C797.755 60.3379 797.755 61.2528 796.777 61.8171Z" fill="#D3E0FB"/>
<path d="M781.851 70.1214C781.1 70.5555 779.881 70.5555 779.129 70.1214C778.377 69.6874 778.377 68.9836 779.129 68.5496C779.881 68.1155 781.1 68.1155 781.851 68.5496C782.603 68.9836 782.603 69.6874 781.851 70.1214Z" fill="#D3E0FB"/>
<path d="M767.332 78.5043C766.58 78.9383 765.361 78.9383 764.609 78.5043C763.858 78.0702 763.858 77.3665 764.609 76.9324C765.361 76.4984 766.58 76.4984 767.332 76.9324C768.084 77.3665 768.084 78.0702 767.332 78.5043Z" fill="#D3E0FB"/>
<path d="M752.406 86.8086C751.88 87.1125 751.027 87.1125 750.5 86.8086C749.974 86.5048 749.974 86.0122 750.5 85.7083C751.027 85.4045 751.88 85.4045 752.406 85.7083C752.932 86.0122 752.932 86.5048 752.406 86.8086Z" fill="#D3E0FB"/>
<path d="M737.886 95.1895C737.36 95.4933 736.507 95.4933 735.981 95.1895C735.454 94.8857 735.454 94.393 735.981 94.0892C736.507 93.7854 737.36 93.7854 737.886 94.0892C738.413 94.393 738.413 94.8857 737.886 95.1895Z" fill="#D3E0FB"/>
<path d="M723.367 103.572C722.841 103.876 721.987 103.876 721.461 103.572C720.935 103.268 720.935 102.776 721.461 102.472C721.987 102.168 722.841 102.168 723.367 102.472C723.893 102.776 723.893 103.268 723.367 103.572Z" fill="#D3E0FB"/>
<path d="M708.441 111.877C708.14 112.05 707.653 112.05 707.352 111.877C707.051 111.703 707.051 111.422 707.352 111.248C707.653 111.074 708.14 111.074 708.441 111.248C708.742 111.422 708.742 111.703 708.441 111.877Z" fill="#D3E0FB"/>
<path d="M693.921 120.258C693.621 120.431 693.133 120.431 692.832 120.258C692.532 120.084 692.532 119.802 692.832 119.629C693.133 119.455 693.621 119.455 693.921 119.629C694.222 119.802 694.222 120.084 693.921 120.258Z" fill="#D3E0FB"/>
<path d="M679.404 128.64C679.103 128.814 678.616 128.814 678.315 128.64C678.014 128.467 678.014 128.185 678.315 128.012C678.616 127.838 679.103 127.838 679.404 128.012C679.705 128.185 679.705 128.467 679.404 128.64Z" fill="#D3E0FB"/>
<path d="M918.869 0.234299L924.042 -2.75221C924.944 -3.27307 926.407 -3.27307 927.309 -2.75221L932.482 0.234299C933.384 0.755163 933.384 1.59965 932.482 2.12051L927.309 5.10702C926.407 5.62788 924.944 5.62788 924.042 5.10702L918.869 2.12051C917.967 1.59965 917.967 0.755162 918.869 0.234299Z" fill="#D3E0FB"/>
<path d="M905.713 8.45814L908.98 6.57193C910.183 5.87744 912.133 5.87744 913.336 6.57193L916.603 8.45814C917.806 9.15263 917.806 10.2786 916.603 10.9731L913.336 12.8593C912.133 13.5538 910.183 13.5538 908.98 12.8593L905.713 10.9731C904.51 10.2786 904.51 9.15263 905.713 8.45814Z" fill="#D3E0FB"/>
<path d="M892.555 16.6839L893.916 15.898C895.42 15.0299 897.858 15.0299 899.361 15.898L900.722 16.6839C902.226 17.552 902.226 18.9595 900.722 19.8276L899.361 20.6136C897.858 21.4817 895.42 21.4817 893.916 20.6136L892.555 19.8276C891.051 18.9595 891.051 17.552 892.555 16.6839Z" fill="#D3E0FB"/>
<path d="M885.116 28.525C883.462 29.4799 880.78 29.4799 879.126 28.525C877.472 27.5701 877.472 26.0218 879.126 25.0669C880.78 24.112 883.462 24.112 885.116 25.0669C886.77 26.0218 886.77 27.5701 885.116 28.525Z" fill="#D3E0FB"/>
<path d="M870.596 36.9058C868.942 37.8608 866.261 37.8608 864.607 36.9058C862.953 35.9509 862.953 34.4027 864.607 33.4478C866.261 32.4929 868.942 32.4929 870.596 33.4478C872.25 34.4027 872.25 35.9509 870.596 36.9058Z" fill="#D3E0FB"/>
<path d="M855.668 45.2102C854.24 46.0349 851.924 46.0349 850.496 45.2102C849.067 44.3855 849.067 43.0484 850.496 42.2237C851.924 41.399 854.24 41.399 855.668 42.2237C857.097 43.0484 857.097 44.3855 855.668 45.2102Z" fill="#D3E0FB"/>
<path d="M840.742 53.5146C839.54 54.2091 837.589 54.2091 836.386 53.5146C835.184 52.8201 835.184 51.6941 836.386 50.9997C837.589 50.3052 839.54 50.3052 840.742 50.9997C841.945 51.6941 841.945 52.8201 840.742 53.5146Z" fill="#D3E0FB"/>
<path d="M825.815 61.8171C824.837 62.3813 823.253 62.3813 822.275 61.8171C821.298 61.2528 821.298 60.3379 822.275 59.7737C823.253 59.2094 824.837 59.2094 825.815 59.7737C826.792 60.3379 826.792 61.2528 825.815 61.8171Z" fill="#D3E0FB"/>
<path d="M811.297 70.1999C810.32 70.7641 808.735 70.7641 807.758 70.1999C806.78 69.6356 806.78 68.7207 807.758 68.1565C808.735 67.5922 810.32 67.5922 811.297 68.1565C812.274 68.7207 812.274 69.6356 811.297 70.1999Z" fill="#D3E0FB"/>
<path d="M796.369 78.5043C795.617 78.9383 794.398 78.9383 793.647 78.5043C792.895 78.0702 792.895 77.3665 793.647 76.9324C794.398 76.4984 795.617 76.4984 796.369 76.9324C797.121 77.3665 797.121 78.0702 796.369 78.5043Z" fill="#D3E0FB"/>
<path d="M781.851 86.8871C781.1 87.3211 779.881 87.3211 779.129 86.8871C778.377 86.453 778.377 85.7493 779.129 85.3152C779.881 84.8812 781.1 84.8812 781.851 85.3152C782.603 85.7493 782.603 86.453 781.851 86.8871Z" fill="#D3E0FB"/>
<path d="M766.924 95.1895C766.397 95.4933 765.544 95.4933 765.018 95.1895C764.492 94.8857 764.492 94.393 765.018 94.0892C765.544 93.7854 766.397 93.7854 766.924 94.0892C767.45 94.393 767.45 94.8857 766.924 95.1895Z" fill="#D3E0FB"/>
<path d="M752.406 103.572C751.88 103.876 751.027 103.876 750.5 103.572C749.974 103.268 749.974 102.776 750.5 102.472C751.027 102.168 751.88 102.168 752.406 102.472C752.932 102.776 752.932 103.268 752.406 103.572Z" fill="#D3E0FB"/>
<path d="M737.886 111.955C737.36 112.259 736.507 112.259 735.981 111.955C735.454 111.651 735.454 111.159 735.981 110.855C736.507 110.551 737.36 110.551 737.886 110.855C738.413 111.159 738.413 111.651 737.886 111.955Z" fill="#D3E0FB"/>
<path d="M722.959 120.258C722.658 120.431 722.17 120.431 721.87 120.258C721.569 120.084 721.569 119.802 721.87 119.629C722.17 119.455 722.658 119.455 722.959 119.629C723.259 119.802 723.259 120.084 722.959 120.258Z" fill="#D3E0FB"/>
<path d="M708.441 128.64C708.14 128.814 707.653 128.814 707.352 128.64C707.051 128.467 707.051 128.185 707.352 128.012C707.653 127.838 708.14 127.838 708.441 128.012C708.742 128.185 708.742 128.467 708.441 128.64Z" fill="#D3E0FB"/>
<path d="M946.545 0.391315L953.624 -3.69548C954.225 -4.04272 955.2 -4.04272 955.802 -3.69548L962.88 0.391316C963.482 0.738558 963.482 1.30155 962.88 1.64879L955.802 5.73559C955.2 6.08283 954.225 6.08283 953.624 5.73559L946.545 1.64879C945.944 1.30155 945.944 0.738558 946.545 0.391315Z" fill="#D3E0FB"/>
<path d="M933.389 8.61516L938.562 5.62865C939.464 5.10779 940.927 5.10779 941.829 5.62865L947.002 8.61516C947.904 9.13602 947.904 9.98051 947.002 10.5014L941.829 13.4879C940.927 14.0087 939.464 14.0087 938.562 13.4879L933.389 10.5014C932.487 9.98051 932.487 9.13602 933.389 8.61516Z" fill="#D3E0FB"/>
<path d="M920.231 16.841L923.498 14.9547C924.701 14.2603 926.651 14.2603 927.854 14.9547L931.121 16.841C932.324 17.5354 932.324 18.6614 931.121 19.3559L927.854 21.2421C926.651 21.9366 924.701 21.9366 923.498 21.2421L920.231 19.3559C919.028 18.6614 919.028 17.5354 920.231 16.841Z" fill="#D3E0FB"/>
<path d="M907.074 25.0668L908.436 24.2808C909.939 23.4127 912.377 23.4127 913.881 24.2808L915.242 25.0668C916.746 25.9349 916.746 27.3423 915.242 28.2104L913.881 28.9964C912.377 29.8645 909.939 29.8645 908.436 28.9964L907.074 28.2104C905.571 27.3423 905.571 25.9349 907.074 25.0668Z" fill="#D3E0FB"/>
<path d="M899.633 36.9058C897.979 37.8608 895.298 37.8608 893.644 36.9058C891.99 35.9509 891.99 34.4027 893.644 33.4478C895.298 32.4929 897.979 32.4929 899.633 33.4478C901.287 34.4027 901.287 35.9509 899.633 36.9058Z" fill="#D3E0FB"/>
<path d="M885.116 45.2886C883.462 46.2436 880.78 46.2436 879.126 45.2886C877.472 44.3337 877.472 42.7855 879.126 41.8306C880.78 40.8757 883.462 40.8757 885.116 41.8306C886.77 42.7855 886.77 44.3337 885.116 45.2886Z" fill="#D3E0FB"/>
<path d="M870.188 53.593C868.76 54.4177 866.444 54.4177 865.015 53.593C863.587 52.7683 863.587 51.4312 865.015 50.6065C866.444 49.7818 868.76 49.7818 870.188 50.6065C871.616 51.4312 871.616 52.7683 870.188 53.593Z" fill="#D3E0FB"/>
<path d="M855.26 61.8955C854.057 62.59 852.107 62.59 850.904 61.8955C849.701 61.201 849.701 60.075 850.904 59.3805C852.107 58.686 854.057 58.686 855.26 59.3805C856.463 60.075 856.463 61.201 855.26 61.8955Z" fill="#D3E0FB"/>
<path d="M840.334 70.1999C839.357 70.7641 837.772 70.7641 836.795 70.1999C835.817 69.6356 835.817 68.7207 836.795 68.1565C837.772 67.5922 839.357 67.5922 840.334 68.1565C841.311 68.7207 841.311 69.6356 840.334 70.1999Z" fill="#D3E0FB"/>
<path d="M825.815 78.5827C824.837 79.1469 823.253 79.1469 822.275 78.5827C821.298 78.0184 821.298 77.1035 822.275 76.5393C823.253 75.975 824.837 75.975 825.815 76.5393C826.792 77.1035 826.792 78.0184 825.815 78.5827Z" fill="#D3E0FB"/>
<path d="M810.889 86.8871C810.137 87.3211 808.918 87.3211 808.166 86.8871C807.414 86.453 807.414 85.7493 808.166 85.3152C808.918 84.8812 810.137 84.8812 810.889 85.3152C811.64 85.7493 811.64 86.453 810.889 86.8871Z" fill="#D3E0FB"/>
<path d="M796.369 95.2679C795.617 95.702 794.398 95.702 793.647 95.2679C792.895 94.8339 792.895 94.1301 793.647 93.6961C794.398 93.262 795.617 93.262 796.369 93.6961C797.121 94.1301 797.121 94.8339 796.369 95.2679Z" fill="#D3E0FB"/>
<path d="M781.443 103.572C780.917 103.876 780.064 103.876 779.537 103.572C779.011 103.268 779.011 102.776 779.537 102.472C780.064 102.168 780.917 102.168 781.443 102.472C781.969 102.776 781.969 103.268 781.443 103.572Z" fill="#D3E0FB"/>
<path d="M766.924 111.955C766.397 112.259 765.544 112.259 765.018 111.955C764.492 111.651 764.492 111.159 765.018 110.855C765.544 110.551 766.397 110.551 766.924 110.855C767.45 111.159 767.45 111.651 766.924 111.955Z" fill="#D3E0FB"/>
<path d="M752.406 120.338C751.88 120.642 751.027 120.642 750.5 120.338C749.974 120.034 749.974 119.541 750.5 119.238C751.027 118.934 751.88 118.934 752.406 119.238C752.932 119.541 752.932 120.034 752.406 120.338Z" fill="#D3E0FB"/>
<path d="M737.478 128.64C737.177 128.814 736.69 128.814 736.389 128.64C736.088 128.467 736.088 128.185 736.389 128.012C736.69 127.838 737.177 127.838 737.478 128.012C737.779 128.185 737.779 128.467 737.478 128.64Z" fill="#D3E0FB"/>
<path d="M974.221 0.548331L983.205 -4.63876C983.506 -4.81238 983.994 -4.81238 984.295 -4.63876L993.279 0.548331C993.58 0.721953 993.58 1.00345 993.279 1.17707L984.295 6.36416C983.994 6.53778 983.506 6.53778 983.205 6.36416L974.221 1.17707C973.92 1.00345 973.92 0.721952 974.221 0.548331Z" fill="#D3E0FB"/>
<path d="M961.065 8.77217L968.143 4.68538C968.745 4.33814 969.72 4.33814 970.321 4.68538L977.4 8.77218C978.001 9.11942 978.001 9.68241 977.4 10.0297L970.321 14.1164C969.72 14.4637 968.745 14.4637 968.143 14.1164L961.065 10.0297C960.463 9.68241 960.463 9.11942 961.065 8.77217Z" fill="#D3E0FB"/>
<path d="M947.907 16.998L953.079 14.0115C953.982 13.4906 955.444 13.4906 956.346 14.0115L961.519 16.998C962.421 17.5188 962.421 18.3633 961.519 18.8842L956.346 21.8707C955.444 22.3916 953.982 22.3916 953.079 21.8707L947.907 18.8842C947.004 18.3633 947.004 17.5188 947.907 16.998Z" fill="#D3E0FB"/>
<path d="M934.75 25.2238L938.017 23.3376C939.22 22.6431 941.17 22.6431 942.373 23.3376L945.64 25.2238C946.843 25.9183 946.843 27.0442 945.64 27.7387L942.373 29.6249C941.17 30.3194 939.22 30.3194 938.017 29.6249L934.75 27.7387C933.547 27.0442 933.547 25.9183 934.75 25.2238Z" fill="#D3E0FB"/>
<path d="M921.592 33.4476L922.953 32.6617C924.457 31.7936 926.895 31.7936 928.398 32.6617L929.76 33.4476C931.263 34.3157 931.263 35.7232 929.76 36.5913L928.398 37.3772C926.895 38.2453 924.457 38.2453 922.953 37.3772L921.592 36.5913C920.088 35.7232 920.088 34.3157 921.592 33.4476Z" fill="#D3E0FB"/>
<path d="M914.153 45.2886C912.499 46.2436 909.817 46.2436 908.163 45.2886C906.509 44.3337 906.509 42.7855 908.163 41.8306C909.817 40.8757 912.499 40.8757 914.153 41.8306C915.807 42.7855 915.807 44.3337 914.153 45.2886Z" fill="#D3E0FB"/>
<path d="M899.633 53.6715C897.979 54.6264 895.298 54.6264 893.644 53.6715C891.99 52.7165 891.99 51.1683 893.644 50.2134C895.298 49.2585 897.979 49.2585 899.633 50.2134C901.287 51.1683 901.287 52.7165 899.633 53.6715Z" fill="#D3E0FB"/>
<path d="M884.707 61.9759C883.279 62.8006 880.963 62.8006 879.535 61.9759C878.106 61.1511 878.106 59.814 879.535 58.9893C880.963 58.1646 883.279 58.1646 884.707 58.9893C886.136 59.814 886.136 61.1512 884.707 61.9759Z" fill="#D3E0FB"/>
<path d="M869.78 70.2783C868.577 70.9728 866.626 70.9728 865.424 70.2783C864.221 69.5838 864.221 68.4578 865.424 67.7633C866.626 67.0689 868.577 67.0689 869.78 67.7633C870.982 68.4578 870.982 69.5838 869.78 70.2783Z" fill="#D3E0FB"/>
<path d="M854.852 78.5827C853.874 79.1469 852.29 79.1469 851.312 78.5827C850.335 78.0184 850.335 77.1035 851.312 76.5393C852.29 75.975 853.874 75.975 854.852 76.5393C855.829 77.1035 855.829 78.0184 854.852 78.5827Z" fill="#D3E0FB"/>
<path d="M840.334 86.9655C839.357 87.5298 837.772 87.5298 836.795 86.9655C835.817 86.4012 835.817 85.4864 836.795 84.9221C837.772 84.3578 839.357 84.3578 840.334 84.9221C841.311 85.4864 841.311 86.4012 840.334 86.9655Z" fill="#D3E0FB"/>
<path d="M825.406 95.2679C824.654 95.702 823.435 95.702 822.684 95.2679C821.932 94.8339 821.932 94.1301 822.684 93.6961C823.435 93.262 824.654 93.262 825.406 93.6961C826.158 94.1301 826.158 94.8339 825.406 95.2679Z" fill="#D3E0FB"/>
<path d="M810.889 103.651C810.137 104.085 808.918 104.085 808.166 103.651C807.414 103.217 807.414 102.513 808.166 102.079C808.918 101.645 810.137 101.645 810.889 102.079C811.64 102.513 811.64 103.217 810.889 103.651Z" fill="#D3E0FB"/>
<path d="M795.961 111.955C795.434 112.259 794.581 112.259 794.055 111.955C793.529 111.651 793.529 111.159 794.055 110.855C794.581 110.551 795.434 110.551 795.961 110.855C796.487 111.159 796.487 111.651 795.961 111.955Z" fill="#D3E0FB"/>
<path d="M781.443 120.338C780.917 120.642 780.064 120.642 779.537 120.338C779.011 120.034 779.011 119.541 779.537 119.238C780.064 118.934 780.917 118.934 781.443 119.238C781.969 119.541 781.969 120.034 781.443 120.338Z" fill="#D3E0FB"/>
<path d="M766.924 128.719C766.397 129.023 765.544 129.023 765.018 128.719C764.492 128.415 764.492 127.922 765.018 127.619C765.544 127.315 766.397 127.315 766.924 127.619C767.45 127.922 767.45 128.415 766.924 128.719Z" fill="#D3E0FB"/>
<path d="M1001.9 0.705347L1012.79 -5.58203L1023.68 0.705348L1012.79 6.99273L1001.9 0.705347Z" fill="#D3E0FB"/>
<path d="M988.741 8.93114L997.725 3.74406C998.026 3.57044 998.513 3.57044 998.814 3.74406L1007.8 8.93114C1008.1 9.10477 1008.1 9.38626 1007.8 9.55988L998.814 14.747C998.513 14.9206 998.026 14.9206 997.725 14.747L988.741 9.55988C988.44 9.38626 988.44 9.10476 988.741 8.93114Z" fill="#D3E0FB"/>
<path d="M975.582 17.155L982.661 13.0682C983.262 12.7209 984.238 12.7209 984.839 13.0682L991.918 17.155C992.519 17.5022 992.519 18.0652 991.918 18.4125L984.839 22.4993C984.238 22.8465 983.262 22.8465 982.661 22.4993L975.582 18.4125C974.981 18.0652 974.981 17.5022 975.582 17.155Z" fill="#D3E0FB"/>
<path d="M962.426 25.3808L967.599 22.3943C968.501 21.8734 969.964 21.8734 970.866 22.3943L976.039 25.3808C976.941 25.9016 976.941 26.7461 976.039 27.267L970.866 30.2535C969.964 30.7744 968.501 30.7744 967.599 30.2535L962.426 27.267C961.524 26.7461 961.524 25.9016 962.426 25.3808Z" fill="#D3E0FB"/>
<path d="M949.268 33.6066L952.535 31.7204C953.738 31.0259 955.688 31.0259 956.891 31.7204L960.158 33.6066C961.361 34.3011 961.361 35.427 960.158 36.1215L956.891 38.0077C955.688 38.7022 953.738 38.7022 952.535 38.0077L949.268 36.1215C948.065 35.427 948.065 34.3011 949.268 33.6066Z" fill="#D3E0FB"/>
<path d="M936.112 41.8304L937.473 41.0445C938.976 40.1764 941.414 40.1764 942.918 41.0445L944.279 41.8304C945.783 42.6985 945.783 44.106 944.279 44.9741L942.918 45.76C941.414 46.6281 938.976 46.6281 937.473 45.76L936.112 44.9741C934.608 44.106 934.608 42.6985 936.112 41.8304Z" fill="#D3E0FB"/>
<path d="M928.671 53.6715C927.017 54.6264 924.335 54.6264 922.681 53.6715C921.027 52.7165 921.027 51.1683 922.681 50.2134C924.335 49.2585 927.017 49.2585 928.671 50.2134C930.325 51.1683 930.325 52.7165 928.671 53.6715Z" fill="#D3E0FB"/>
<path d="M914.153 62.0543C912.499 63.0092 909.817 63.0092 908.163 62.0543C906.509 61.0994 906.509 59.5511 908.163 58.5962C909.817 57.6413 912.499 57.6413 914.153 58.5962C915.807 59.5511 915.807 61.0994 914.153 62.0543Z" fill="#D3E0FB"/>
<path d="M899.225 70.3567C897.797 71.1814 895.481 71.1814 894.052 70.3567C892.624 69.532 892.624 68.1949 894.052 67.3702C895.481 66.5455 897.797 66.5455 899.225 67.3702C900.653 68.1949 900.653 69.532 899.225 70.3567Z" fill="#D3E0FB"/>
<path d="M884.299 78.6611C883.096 79.3556 881.146 79.3556 879.943 78.6611C878.74 77.9666 878.74 76.8406 879.943 76.1461C881.146 75.4517 883.096 75.4517 884.299 76.1461C885.502 76.8406 885.502 77.9666 884.299 78.6611Z" fill="#D3E0FB"/>
<path d="M869.371 86.9655C868.394 87.5298 866.809 87.5298 865.832 86.9655C864.855 86.4012 864.855 85.4864 865.832 84.9221C866.809 84.3578 868.394 84.3578 869.371 84.9221C870.349 85.4864 870.349 86.4012 869.371 86.9655Z" fill="#D3E0FB"/>
<path d="M854.852 95.3463C853.874 95.9106 852.29 95.9106 851.312 95.3463C850.335 94.7821 850.335 93.8672 851.312 93.3029C852.29 92.7387 853.874 92.7387 854.852 93.3029C855.829 93.8672 855.829 94.7821 854.852 95.3463Z" fill="#D3E0FB"/>
<path d="M839.926 103.651C839.174 104.085 837.955 104.085 837.203 103.651C836.451 103.217 836.451 102.513 837.203 102.079C837.955 101.645 839.174 101.645 839.926 102.079C840.678 102.513 840.678 103.217 839.926 103.651Z" fill="#D3E0FB"/>
<path d="M825.406 112.034C824.654 112.468 823.435 112.468 822.684 112.034C821.932 111.599 821.932 110.896 822.684 110.462C823.435 110.028 824.654 110.028 825.406 110.462C826.158 110.896 826.158 111.599 825.406 112.034Z" fill="#D3E0FB"/>
<path d="M810.48 120.338C809.954 120.642 809.101 120.642 808.574 120.338C808.048 120.034 808.048 119.541 808.574 119.238C809.101 118.934 809.954 118.934 810.48 119.238C811.006 119.541 811.006 120.034 810.48 120.338Z" fill="#D3E0FB"/>
<path d="M795.961 128.719C795.434 129.023 794.581 129.023 794.055 128.719C793.529 128.415 793.529 127.922 794.055 127.619C794.581 127.315 795.434 127.315 795.961 127.619C796.487 127.922 796.487 128.415 795.961 128.719Z" fill="#D3E0FB"/>
<path d="M1030.12 0.547995L1041.83 -6.21094L1053.53 0.547995L1041.83 7.30693L1030.12 0.547995Z" fill="#D3E0FB"/>
<path d="M1016.42 9.08816L1027.31 2.80078L1038.2 9.08816L1027.31 15.3755L1016.42 9.08816Z" fill="#D3E0FB"/>
<path d="M1003.26 17.312L1012.24 12.1249C1012.55 11.9513 1013.03 11.9513 1013.33 12.1249L1022.32 17.312C1022.62 17.4856 1022.62 17.7671 1022.32 17.9407L1013.33 23.1278C1013.03 23.3014 1012.55 23.3014 1012.24 23.1278L1003.26 17.9407C1002.96 17.7671 1002.96 17.4856 1003.26 17.312Z" fill="#D3E0FB"/>
<path d="M990.102 25.5378L997.181 21.451C997.782 21.1038 998.757 21.1038 999.359 21.451L1006.44 25.5378C1007.04 25.885 1007.04 26.448 1006.44 26.7953L999.359 30.8821C998.757 31.2293 997.782 31.2293 997.181 30.8821L990.102 26.7953C989.501 26.448 989.501 25.885 990.102 25.5378Z" fill="#D3E0FB"/>
<path d="M976.944 33.7636L982.116 30.7771C983.019 30.2562 984.481 30.2562 985.384 30.7771L990.556 33.7636C991.458 34.2845 991.458 35.1289 990.556 35.6498L985.384 38.6363C984.481 39.1572 983.019 39.1572 982.116 38.6363L976.944 35.6498C976.042 35.1289 976.042 34.2845 976.944 33.7636Z" fill="#D3E0FB"/>
<path d="M963.787 41.9874L967.054 40.1012C968.257 39.4067 970.208 39.4067 971.41 40.1012L974.677 41.9874C975.88 42.6819 975.88 43.8079 974.677 44.5024L971.41 46.3886C970.208 47.0831 968.257 47.0831 967.054 46.3886L963.787 44.5024C962.585 43.8079 962.585 42.6819 963.787 41.9874Z" fill="#D3E0FB"/>
<path d="M950.629 50.2132L951.99 49.4273C953.494 48.5592 955.932 48.5592 957.435 49.4273L958.797 50.2132C960.3 51.0813 960.3 52.4888 958.797 53.3569L957.435 54.1428C955.932 55.011 953.494 55.011 951.99 54.1428L950.629 53.3569C949.126 52.4888 949.126 51.0813 950.629 50.2132Z" fill="#D3E0FB"/>
<path d="M943.19 62.0543C941.536 63.0092 938.855 63.0092 937.201 62.0543C935.547 61.0994 935.547 59.5511 937.201 58.5962C938.855 57.6413 941.536 57.6413 943.19 58.5962C944.844 59.5511 944.844 61.0994 943.19 62.0543Z" fill="#D3E0FB"/>
<path d="M928.671 70.4351C927.017 71.3901 924.335 71.3901 922.681 70.4351C921.027 69.4802 921.027 67.932 922.681 66.9771C924.335 66.0222 927.017 66.0222 928.671 66.9771C930.325 67.932 930.325 69.4802 928.671 70.4351Z" fill="#D3E0FB"/>
<path d="M913.745 78.7395C912.316 79.5642 910 79.5642 908.572 78.7395C907.143 77.9148 907.143 76.5777 908.572 75.753C910 74.9283 912.316 74.9283 913.745 75.753C915.173 76.5777 915.173 77.9148 913.745 78.7395Z" fill="#D3E0FB"/>
<path d="M898.817 87.0439C897.614 87.7384 895.664 87.7384 894.461 87.0439C893.258 86.3494 893.258 85.2234 894.461 84.529C895.664 83.8345 897.614 83.8345 898.817 84.529C900.02 85.2234 900.02 86.3494 898.817 87.0439Z" fill="#D3E0FB"/>
<path d="M883.891 95.3463C882.913 95.9106 881.329 95.9106 880.351 95.3463C879.374 94.7821 879.374 93.8672 880.351 93.3029C881.329 92.7387 882.913 92.7387 883.891 93.3029C884.868 93.8672 884.868 94.7821 883.891 95.3463Z" fill="#D3E0FB"/>
<path d="M869.371 103.729C868.394 104.293 866.809 104.293 865.832 103.729C864.855 103.165 864.855 102.25 865.832 101.686C866.809 101.121 868.394 101.121 869.371 101.686C870.349 102.25 870.349 103.165 869.371 103.729Z" fill="#D3E0FB"/>
<path d="M854.443 112.034C853.691 112.468 852.473 112.468 851.721 112.034C850.969 111.599 850.969 110.896 851.721 110.462C852.473 110.028 853.691 110.028 854.443 110.462C855.195 110.896 855.195 111.599 854.443 112.034Z" fill="#D3E0FB"/>
<path d="M839.926 120.416C839.174 120.85 837.955 120.85 837.203 120.416C836.451 119.982 836.451 119.279 837.203 118.845C837.955 118.41 839.174 118.41 839.926 118.845C840.678 119.279 840.678 119.982 839.926 120.416Z" fill="#D3E0FB"/>
<path d="M824.998 128.719C824.472 129.023 823.618 129.023 823.092 128.719C822.566 128.415 822.566 127.922 823.092 127.619C823.618 127.315 824.472 127.315 824.998 127.619C825.524 127.922 825.524 128.415 824.998 128.719Z" fill="#D3E0FB"/>
<path d="M1058.34 0.390641L1070.86 -6.83984L1083.39 0.390642L1070.86 7.62113L1058.34 0.390641Z" fill="#D3E0FB"/>
<path d="M1044.64 8.93081L1056.34 2.17188L1068.05 8.93081L1056.34 15.6897L1044.64 8.93081Z" fill="#D3E0FB"/>
<path d="M1030.94 17.469L1041.83 11.1816L1052.72 17.469L1041.83 23.7564L1030.94 17.469Z" fill="#D3E0FB"/>
<path d="M1017.78 25.6948L1026.76 20.5077C1027.06 20.3341 1027.55 20.3341 1027.85 20.5077L1036.84 25.6948C1037.14 25.8684 1037.14 26.1499 1036.84 26.3236L1027.85 31.5106C1027.55 31.6843 1027.06 31.6843 1026.76 31.5106L1017.78 26.3236C1017.48 26.1499 1017.48 25.8684 1017.78 25.6948Z" fill="#D3E0FB"/>
<path d="M1004.62 33.9206L1011.7 29.8338C1012.3 29.4866 1013.28 29.4866 1013.88 29.8338L1020.96 33.9206C1021.56 34.2679 1021.56 34.8308 1020.96 35.1781L1013.88 39.2649C1013.28 39.6121 1012.3 39.6121 1011.7 39.2649L1004.62 35.1781C1004.02 34.8308 1004.02 34.2679 1004.62 33.9206Z" fill="#D3E0FB"/>
<path d="M991.463 42.1445L996.636 39.158C997.538 38.6371 999.001 38.6371 999.903 39.158L1005.08 42.1445C1005.98 42.6653 1005.98 43.5098 1005.08 44.0307L999.903 47.0172C999.001 47.538 997.538 47.538 996.636 47.0172L991.463 44.0307C990.561 43.5098 990.561 42.6653 991.463 42.1445Z" fill="#D3E0FB"/>
<path d="M978.305 50.3703L981.572 48.484C982.775 47.7896 984.725 47.7896 985.928 48.484L989.195 50.3703C990.398 51.0647 990.398 52.1907 989.195 52.8852L985.928 54.7714C984.725 55.4659 982.775 55.4659 981.572 54.7714L978.305 52.8852C977.102 52.1907 977.102 51.0647 978.305 50.3703Z" fill="#D3E0FB"/>
<path d="M965.149 58.596L966.51 57.8101C968.014 56.942 970.451 56.942 971.955 57.8101L973.316 58.596C974.82 59.4642 974.82 60.8716 973.316 61.7397L971.955 62.5257C970.451 63.3938 968.014 63.3938 966.51 62.5257L965.149 61.7397C963.645 60.8716 963.645 59.4642 965.149 58.596Z" fill="#D3E0FB"/>
<path d="M957.708 70.4351C956.054 71.3901 953.372 71.3901 951.718 70.4351C950.064 69.4802 950.064 67.932 951.718 66.9771C953.372 66.0222 956.054 66.0222 957.708 66.9771C959.362 67.932 959.362 69.4802 957.708 70.4351Z" fill="#D3E0FB"/>
<path d="M943.19 78.8179C941.536 79.7729 938.855 79.7729 937.201 78.8179C935.547 77.863 935.547 76.3148 937.201 75.3599C938.855 74.405 941.536 74.405 943.19 75.3599C944.844 76.3148 944.844 77.863 943.19 78.8179Z" fill="#D3E0FB"/>
<path d="M928.262 87.1223C926.834 87.947 924.518 87.947 923.089 87.1223C921.661 86.2976 921.661 84.9605 923.089 84.1358C924.518 83.3111 926.834 83.3111 928.262 84.1358C929.691 84.9605 929.691 86.2976 928.262 87.1223Z" fill="#D3E0FB"/>
<path d="M913.336 95.4267C912.133 96.1212 910.183 96.1212 908.98 95.4267C907.777 94.7322 907.777 93.6063 908.98 92.9118C910.183 92.2173 912.133 92.2173 913.336 92.9118C914.539 93.6063 914.539 94.7322 913.336 95.4267Z" fill="#D3E0FB"/>
<path d="M898.408 103.729C897.431 104.293 895.846 104.293 894.869 103.729C893.892 103.165 893.892 102.25 894.869 101.686C895.846 101.121 897.431 101.121 898.408 101.686C899.386 102.25 899.386 103.165 898.408 103.729Z" fill="#D3E0FB"/>
<path d="M883.891 112.112C882.913 112.676 881.329 112.676 880.351 112.112C879.374 111.548 879.374 110.633 880.351 110.069C881.329 109.504 882.913 109.504 883.891 110.069C884.868 110.633 884.868 111.548 883.891 112.112Z" fill="#D3E0FB"/>
<path d="M868.963 120.416C868.211 120.85 866.992 120.85 866.24 120.416C865.489 119.982 865.489 119.279 866.24 118.845C866.992 118.41 868.211 118.41 868.963 118.845C869.715 119.279 869.715 119.982 868.963 120.416Z" fill="#D3E0FB"/>
<path d="M854.443 128.797C853.691 129.231 852.473 129.231 851.721 128.797C850.969 128.363 850.969 127.659 851.721 127.225C852.473 126.791 853.691 126.791 854.443 127.225C855.195 127.659 855.195 128.363 854.443 128.797Z" fill="#D3E0FB"/>
<path d="M1087.38 0.390641L1099.9 -6.83984L1112.42 0.390642L1099.9 7.62113L1087.38 0.390641Z" fill="#D3E0FB"/>
<path d="M1072.86 8.77345L1085.38 1.54297L1097.9 8.77345L1085.38 16.0039L1072.86 8.77345Z" fill="#D3E0FB"/>
<path d="M1059.16 17.3117L1070.86 10.5527L1082.57 17.3117L1070.86 24.0706L1059.16 17.3117Z" fill="#D3E0FB"/>
<path d="M1045.45 25.8518L1056.34 19.5645L1067.23 25.8518L1056.34 32.1392L1045.45 25.8518Z" fill="#D3E0FB"/>
<path d="M1032.3 34.0776L1041.28 28.8905C1041.58 28.7169 1042.07 28.7169 1042.37 28.8905L1051.35 34.0776C1051.66 34.2512 1051.66 34.5327 1051.35 34.7064L1042.37 39.8935C1042.07 40.0671 1041.58 40.0671 1041.28 39.8935L1032.3 34.7064C1032 34.5327 1032 34.2512 1032.3 34.0776Z" fill="#D3E0FB"/>
<path d="M1019.14 42.3015L1026.22 38.2147C1026.82 37.8674 1027.79 37.8674 1028.4 38.2147L1035.47 42.3015C1036.08 42.6487 1036.08 43.2117 1035.47 43.5589L1028.4 47.6457C1027.79 47.993 1026.82 47.993 1026.22 47.6457L1019.14 43.5589C1018.54 43.2117 1018.54 42.6487 1019.14 42.3015Z" fill="#D3E0FB"/>
<path d="M1005.98 50.5273L1011.16 47.5408C1012.06 47.0199 1013.52 47.0199 1014.42 47.5408L1019.6 50.5273C1020.5 51.0481 1020.5 51.8926 1019.6 52.4135L1014.42 55.4C1013.52 55.9208 1012.06 55.9208 1011.16 55.4L1005.98 52.4135C1005.08 51.8926 1005.08 51.0481 1005.98 50.5273Z" fill="#D3E0FB"/>
<path d="M992.825 58.7531L996.092 56.8669C997.294 56.1724 999.245 56.1724 1000.45 56.8669L1003.71 58.7531C1004.92 59.4475 1004.92 60.5735 1003.71 61.268L1000.45 63.1542C999.245 63.8487 997.294 63.8487 996.092 63.1542L992.825 61.268C991.622 60.5735 991.622 59.4475 992.825 58.7531Z" fill="#D3E0FB"/>
<path d="M979.666 66.9789L981.027 66.1929C982.531 65.3248 984.969 65.3248 986.473 66.1929L987.834 66.9789C989.337 67.847 989.337 69.2544 987.834 70.1226L986.473 70.9085C984.969 71.7766 982.531 71.7766 981.027 70.9085L979.666 70.1225C978.163 69.2544 978.163 67.847 979.666 66.9789Z" fill="#D3E0FB"/>
<path d="M972.227 78.8179C970.573 79.7729 967.892 79.7729 966.238 78.8179C964.584 77.863 964.584 76.3148 966.238 75.3599C967.892 74.405 970.573 74.405 972.227 75.3599C973.881 76.3148 973.881 77.863 972.227 78.8179Z" fill="#D3E0FB"/>
<path d="M957.708 87.2008C956.054 88.1557 953.372 88.1557 951.718 87.2008C950.064 86.2458 950.064 84.6976 951.718 83.7427C953.372 82.7878 956.054 82.7878 957.708 83.7427C959.362 84.6976 959.362 86.2458 957.708 87.2008Z" fill="#D3E0FB"/>
<path d="M942.782 95.5051C941.353 96.3298 939.037 96.3298 937.609 95.5051C936.181 94.6804 936.181 93.3433 937.609 92.5186C939.037 91.6939 941.353 91.6939 942.782 92.5186C944.21 93.3433 944.21 94.6804 942.782 95.5051Z" fill="#D3E0FB"/>
<path d="M927.854 103.808C926.651 104.502 924.701 104.502 923.498 103.808C922.295 103.113 922.295 101.987 923.498 101.293C924.701 100.598 926.651 100.598 927.854 101.293C929.057 101.987 929.057 103.113 927.854 103.808Z" fill="#D3E0FB"/>
<path d="M912.928 112.112C911.95 112.676 910.366 112.676 909.389 112.112C908.411 111.548 908.411 110.633 909.389 110.069C910.366 109.504 911.95 109.504 912.928 110.069C913.905 110.633 913.905 111.548 912.928 112.112Z" fill="#D3E0FB"/>
<path d="M898.408 120.495C897.431 121.059 895.846 121.059 894.869 120.495C893.892 119.931 893.892 119.016 894.869 118.451C895.846 117.887 897.431 117.887 898.408 118.451C899.386 119.016 899.386 119.931 898.408 120.495Z" fill="#D3E0FB"/>
<path d="M883.482 128.797C882.731 129.231 881.512 129.231 880.76 128.797C880.008 128.363 880.008 127.659 880.76 127.225C881.512 126.791 882.731 126.791 883.482 127.225C884.234 127.659 884.234 128.363 883.482 128.797Z" fill="#D3E0FB"/>
<path d="M1116.41 0.390641L1128.94 -6.83984L1141.46 0.390642L1128.94 7.62113L1116.41 0.390641Z" fill="#D3E0FB"/>
<path d="M1101.89 8.77345L1114.42 1.54297L1126.94 8.77345L1114.42 16.0039L1101.89 8.77345Z" fill="#D3E0FB"/>
<path d="M1087.38 17.1563L1099.9 9.92578L1112.42 17.1563L1099.9 24.3868L1087.38 17.1563Z" fill="#D3E0FB"/>
<path d="M1073.67 25.6945L1085.38 18.9355L1097.09 25.6945L1085.38 32.4534L1073.67 25.6945Z" fill="#D3E0FB"/>
<path d="M1059.97 34.2346L1070.86 27.9473L1081.75 34.2346L1070.86 40.522L1059.97 34.2346Z" fill="#D3E0FB"/>
<path d="M1046.81 42.4604L1055.8 37.2734C1056.1 37.0997 1056.59 37.0997 1056.89 37.2734L1065.87 42.4604C1066.17 42.6341 1066.17 42.9156 1065.87 43.0892L1056.89 48.2763C1056.59 48.4499 1056.1 48.4499 1055.8 48.2763L1046.81 43.0892C1046.51 42.9156 1046.51 42.6341 1046.81 42.4604Z" fill="#D3E0FB"/>
<path d="M1033.66 50.6843L1040.74 46.5975C1041.34 46.2502 1042.31 46.2502 1042.92 46.5975L1049.99 50.6843C1050.6 51.0315 1050.6 51.5945 1049.99 51.9418L1042.92 56.0286C1042.31 56.3758 1041.34 56.3758 1040.74 56.0286L1033.66 51.9418C1033.06 51.5945 1033.06 51.0315 1033.66 50.6843Z" fill="#D3E0FB"/>
<path d="M1020.5 58.9101L1025.67 55.9236C1026.58 55.4027 1028.04 55.4027 1028.94 55.9236L1034.11 58.9101C1035.02 59.4309 1035.02 60.2754 1034.11 60.7963L1028.94 63.7828C1028.04 64.3037 1026.58 64.3037 1025.67 63.7828L1020.5 60.7963C1019.6 60.2754 1019.6 59.4309 1020.5 58.9101Z" fill="#D3E0FB"/>
<path d="M1007.34 67.1359L1010.61 65.2497C1011.81 64.5552 1013.76 64.5552 1014.97 65.2497L1018.23 67.1359C1019.44 67.8304 1019.44 68.9563 1018.23 69.6508L1014.97 71.537C1013.76 72.2315 1011.81 72.2315 1010.61 71.537L1007.34 69.6508C1006.14 68.9563 1006.14 67.8304 1007.34 67.1359Z" fill="#D3E0FB"/>
<path d="M994.186 75.3597L995.547 74.5738C997.051 73.7057 999.488 73.7057 1000.99 74.5738L1002.35 75.3597C1003.86 76.2278 1003.86 77.6353 1002.35 78.5034L1000.99 79.2893C999.488 80.1574 997.051 80.1574 995.547 79.2893L994.186 78.5034C992.682 77.6353 992.682 76.2278 994.186 75.3597Z" fill="#D3E0FB"/>
<path d="M986.745 87.2008C985.091 88.1557 982.409 88.1557 980.755 87.2008C979.101 86.2458 979.101 84.6976 980.755 83.7427C982.409 82.7878 985.091 82.7878 986.745 83.7427C988.399 84.6976 988.399 86.2458 986.745 87.2008Z" fill="#D3E0FB"/>
<path d="M972.227 95.5836C970.573 96.5385 967.892 96.5385 966.238 95.5836C964.584 94.6287 964.584 93.0804 966.238 92.1255C967.892 91.1706 970.573 91.1706 972.227 92.1255C973.881 93.0804 973.881 94.6287 972.227 95.5836Z" fill="#D3E0FB"/>
<path d="M957.299 103.886C955.871 104.711 953.555 104.711 952.127 103.886C950.698 103.061 950.698 101.724 952.127 100.9C953.555 100.075 955.871 100.075 957.299 100.9C958.728 101.724 958.728 103.061 957.299 103.886Z" fill="#D3E0FB"/>
<path d="M942.373 112.19C941.17 112.885 939.22 112.885 938.017 112.19C936.814 111.496 936.814 110.37 938.017 109.675C939.22 108.981 941.17 108.981 942.373 109.675C943.576 110.37 943.576 111.496 942.373 112.19Z" fill="#D3E0FB"/>
<path d="M927.445 120.495C926.468 121.059 924.883 121.059 923.906 120.495C922.929 119.931 922.929 119.016 923.906 118.451C924.883 117.887 926.468 117.887 927.445 118.451C928.423 119.016 928.423 119.931 927.445 120.495Z" fill="#D3E0FB"/>
<path d="M912.928 128.878C911.95 129.442 910.366 129.442 909.389 128.878C908.411 128.313 908.411 127.398 909.389 126.834C910.366 126.27 911.95 126.27 912.928 126.834C913.905 127.398 913.905 128.313 912.928 128.878Z" fill="#D3E0FB"/>
<path d="M1145.45 0.390641L1157.97 -6.83984L1170.5 0.390642L1157.97 7.62113L1145.45 0.390641Z" fill="#D3E0FB"/>
<path d="M1130.93 8.77345L1143.46 1.54297L1155.98 8.77345L1143.46 16.0039L1130.93 8.77345Z" fill="#D3E0FB"/>
<path d="M1116.41 17.1563L1128.94 9.92578L1141.46 17.1563L1128.94 24.3868L1116.41 17.1563Z" fill="#D3E0FB"/>
<path d="M1101.89 25.5371L1114.42 18.3066L1126.94 25.5371L1114.42 32.7676L1101.89 25.5371Z" fill="#D3E0FB"/>
<path d="M1088.19 34.0773L1099.9 27.3184L1111.61 34.0773L1099.9 40.8362L1088.19 34.0773Z" fill="#D3E0FB"/>
<path d="M1074.49 42.6175L1085.38 36.3301L1096.27 42.6175L1085.38 48.9048L1074.49 42.6175Z" fill="#D3E0FB"/>
<path d="M1061.33 50.8413L1070.32 45.6542C1070.62 45.4806 1071.11 45.4806 1071.41 45.6542L1080.39 50.8413C1080.69 51.0149 1080.69 51.2964 1080.39 51.47L1071.41 56.6571C1071.11 56.8307 1070.62 56.8307 1070.32 56.6571L1061.33 51.47C1061.03 51.2964 1061.03 51.0149 1061.33 50.8413Z" fill="#D3E0FB"/>
<path d="M1048.18 59.0671L1055.25 54.9803C1055.86 54.6331 1056.83 54.6331 1057.43 54.9803L1064.51 59.0671C1065.11 59.4143 1065.11 59.9773 1064.51 60.3246L1057.43 64.4114C1056.83 64.7586 1055.86 64.7586 1055.25 64.4114L1048.18 60.3246C1047.57 59.9773 1047.57 59.4143 1048.18 59.0671Z" fill="#D3E0FB"/>
<path d="M1035.02 67.2929L1040.19 64.3064C1041.09 63.7855 1042.56 63.7855 1043.46 64.3064L1048.63 67.2929C1049.53 67.8138 1049.53 68.6582 1048.63 69.1791L1043.46 72.1656C1042.56 72.6865 1041.09 72.6865 1040.19 72.1656L1035.02 69.1791C1034.12 68.6582 1034.12 67.8138 1035.02 67.2929Z" fill="#D3E0FB"/>
<path d="M1021.86 75.5167L1025.13 73.6305C1026.33 72.936 1028.28 72.936 1029.48 73.6305L1032.75 75.5167C1033.95 76.2112 1033.95 77.3372 1032.75 78.0317L1029.48 79.9179C1028.28 80.6124 1026.33 80.6124 1025.13 79.9179L1021.86 78.0317C1020.66 77.3372 1020.66 76.2112 1021.86 75.5167Z" fill="#D3E0FB"/>
<path d="M1008.71 83.7425L1010.07 82.9566C1011.57 82.0885 1014.01 82.0885 1015.51 82.9566L1016.87 83.7425C1018.38 84.6106 1018.38 86.0181 1016.87 86.8862L1015.51 87.6721C1014.01 88.5402 1011.57 88.5402 1010.07 87.6721L1008.71 86.8862C1007.2 86.0181 1007.2 84.6106 1008.71 83.7425Z" fill="#D3E0FB"/>
<path d="M1001.26 95.5836C999.61 96.5385 996.929 96.5385 995.275 95.5836C993.621 94.6287 993.621 93.0804 995.275 92.1255C996.929 91.1706 999.61 91.1706 1001.26 92.1255C1002.92 93.0804 1002.92 94.6287 1001.26 95.5836Z" fill="#D3E0FB"/>
<path d="M986.745 103.964C985.091 104.919 982.409 104.919 980.755 103.964C979.101 103.01 979.101 101.461 980.755 100.506C982.409 99.5515 985.091 99.5515 986.745 100.506C988.399 101.461 988.399 103.01 986.745 103.964Z" fill="#D3E0FB"/>
<path d="M971.819 112.269C970.39 113.094 968.074 113.094 966.646 112.269C965.218 111.444 965.218 110.107 966.646 109.282C968.074 108.458 970.39 108.458 971.819 109.282C973.247 110.107 973.247 111.444 971.819 112.269Z" fill="#D3E0FB"/>
<path d="M956.891 120.573C955.688 121.268 953.738 121.268 952.535 120.573C951.332 119.879 951.332 118.753 952.535 118.058C953.738 117.364 955.688 117.364 956.891 118.058C958.094 118.753 958.094 119.879 956.891 120.573Z" fill="#D3E0FB"/>
<path d="M941.965 128.878C940.988 129.442 939.403 129.442 938.426 128.878C937.448 128.313 937.448 127.398 938.426 126.834C939.403 126.27 940.988 126.27 941.965 126.834C942.942 127.398 942.942 128.313 941.965 128.878Z" fill="#D3E0FB"/>
<path d="M1159.97 8.77345L1172.49 1.54297L1185.02 8.77345L1172.49 16.0039L1159.97 8.77345Z" fill="#D3E0FB"/>
<path d="M1145.45 17.1563L1157.97 9.92578L1170.5 17.1563L1157.97 24.3868L1145.45 17.1563Z" fill="#D3E0FB"/>
<path d="M1130.93 25.5371L1143.46 18.3066L1155.98 25.5371L1143.46 32.7676L1130.93 25.5371Z" fill="#D3E0FB"/>
<path d="M1116.41 33.9199L1128.94 26.6895L1141.46 33.9199L1128.94 41.1504L1116.41 33.9199Z" fill="#D3E0FB"/>
<path d="M1102.71 42.4601L1114.42 35.7012L1126.12 42.4601L1114.42 49.219L1102.71 42.4601Z" fill="#D3E0FB"/>
<path d="M1089.01 50.9983L1099.9 44.7109L1110.79 50.9983L1099.9 57.2857L1089.01 50.9983Z" fill="#D3E0FB"/>
<path d="M1075.85 59.2241L1084.84 54.037C1085.14 53.8634 1085.62 53.8634 1085.93 54.037L1094.91 59.2241C1095.21 59.3977 1095.21 59.6792 1094.91 59.8529L1085.93 65.0399C1085.62 65.2136 1085.14 65.2136 1084.84 65.0399L1075.85 59.8528C1075.55 59.6792 1075.55 59.3977 1075.85 59.2241Z" fill="#D3E0FB"/>
<path d="M1062.7 67.4499L1069.77 63.3631C1070.38 63.0159 1071.35 63.0159 1071.95 63.3631L1079.03 67.4499C1079.63 67.7972 1079.63 68.3601 1079.03 68.7074L1071.95 72.7942C1071.35 73.1414 1070.38 73.1414 1069.77 72.7942L1062.7 68.7074C1062.09 68.3601 1062.09 67.7972 1062.7 67.4499Z" fill="#D3E0FB"/>
<path d="M1049.54 75.6738L1054.71 72.6872C1055.61 72.1664 1057.08 72.1664 1057.98 72.6872L1063.15 75.6738C1064.05 76.1946 1064.05 77.0391 1063.15 77.56L1057.98 80.5465C1057.08 81.0673 1055.61 81.0673 1054.71 80.5465L1049.54 77.56C1048.64 77.0391 1048.64 76.1946 1049.54 75.6738Z" fill="#D3E0FB"/>
<path d="M1036.38 83.8995L1039.65 82.0133C1040.85 81.3189 1042.8 81.3189 1044 82.0133L1047.27 83.8995C1048.47 84.594 1048.47 85.72 1047.27 86.4145L1044 88.3007C1042.8 88.9952 1040.85 88.9952 1039.65 88.3007L1036.38 86.4145C1035.18 85.72 1035.18 84.594 1036.38 83.8995Z" fill="#D3E0FB"/>
<path d="M1023.22 92.1253L1024.58 91.3394C1026.09 90.4713 1028.53 90.4713 1030.03 91.3394L1031.39 92.1253C1032.89 92.9935 1032.89 94.4009 1031.39 95.269L1030.03 96.055C1028.53 96.9231 1026.09 96.9231 1024.58 96.055L1023.22 95.269C1021.72 94.4009 1021.72 92.9935 1023.22 92.1253Z" fill="#D3E0FB"/>
<path d="M1015.78 103.964C1014.13 104.919 1011.45 104.919 1009.79 103.964C1008.14 103.01 1008.14 101.461 1009.79 100.506C1011.45 99.5515 1014.13 99.5515 1015.78 100.506C1017.44 101.461 1017.44 103.01 1015.78 103.964Z" fill="#D3E0FB"/>
<path d="M1001.26 112.347C999.61 113.302 996.929 113.302 995.275 112.347C993.621 111.392 993.621 109.844 995.275 108.889C996.929 107.934 999.61 107.934 1001.26 108.889C1002.92 109.844 1002.92 111.392 1001.26 112.347Z" fill="#D3E0FB"/>
<path d="M986.336 120.652C984.908 121.476 982.592 121.476 981.164 120.652C979.735 119.827 979.735 118.49 981.164 117.665C982.592 116.84 984.908 116.84 986.336 117.665C987.765 118.49 987.765 119.827 986.336 120.652Z" fill="#D3E0FB"/>
<path d="M971.41 128.956C970.208 129.651 968.257 129.651 967.054 128.956C965.852 128.262 965.852 127.136 967.054 126.441C968.257 125.747 970.208 125.747 971.41 126.441C972.613 127.136 972.613 128.262 971.41 128.956Z" fill="#D3E0FB"/>
<path d="M1159.97 25.5371L1172.49 18.3066L1185.02 25.5371L1172.49 32.7676L1159.97 25.5371Z" fill="#D3E0FB"/>
<path d="M1145.45 33.9199L1157.97 26.6895L1170.5 33.9199L1157.97 41.1504L1145.45 33.9199Z" fill="#D3E0FB"/>
<path d="M1130.93 42.3028L1143.46 35.0723L1155.98 42.3028L1143.46 49.5332L1130.93 42.3028Z" fill="#D3E0FB"/>
<path d="M1117.23 50.8429L1128.94 44.084L1140.64 50.8429L1128.94 57.6018L1117.23 50.8429Z" fill="#D3E0FB"/>
<path d="M1103.53 59.3811L1114.42 53.0938L1125.31 59.3811L1114.42 65.6685L1103.53 59.3811Z" fill="#D3E0FB"/>
<path d="M1090.37 67.6069L1099.36 62.4198C1099.66 62.2462 1100.14 62.2462 1100.44 62.4198L1109.43 67.6069C1109.73 67.7805 1109.73 68.062 1109.43 68.2357L1100.44 73.4227C1100.14 73.5964 1099.66 73.5964 1099.36 73.4227L1090.37 68.2357C1090.07 68.062 1090.07 67.7805 1090.37 67.6069Z" fill="#D3E0FB"/>
<path d="M1077.21 75.8327L1084.29 71.7459C1084.89 71.3987 1085.87 71.3987 1086.47 71.7459L1093.55 75.8327C1094.15 76.18 1094.15 76.743 1093.55 77.0902L1086.47 81.177C1085.87 81.5242 1084.89 81.5242 1084.29 81.177L1077.21 77.0902C1076.61 76.743 1076.61 76.18 1077.21 75.8327Z" fill="#D3E0FB"/>
<path d="M1064.06 84.0566L1069.23 81.0701C1070.13 80.5492 1071.59 80.5492 1072.5 81.0701L1077.67 84.0566C1078.57 84.5774 1078.57 85.4219 1077.67 85.9428L1072.5 88.9293C1071.59 89.4501 1070.13 89.4501 1069.23 88.9293L1064.06 85.9428C1063.15 85.4219 1063.15 84.5774 1064.06 84.0566Z" fill="#D3E0FB"/>
<path d="M1050.9 92.2824L1054.17 90.3961C1055.37 89.7017 1057.32 89.7017 1058.52 90.3961L1061.79 92.2824C1062.99 92.9768 1062.99 94.1028 1061.79 94.7973L1058.52 96.6835C1057.32 97.378 1055.37 97.378 1054.17 96.6835L1050.9 94.7973C1049.7 94.1028 1049.7 92.9768 1050.9 92.2824Z" fill="#D3E0FB"/>
<path d="M1037.74 100.508L1039.1 99.7222C1040.61 98.8541 1043.05 98.8541 1044.55 99.7222L1045.91 100.508C1047.41 101.376 1047.41 102.784 1045.91 103.652L1044.55 104.438C1043.05 105.306 1040.61 105.306 1039.1 104.438L1037.74 103.652C1036.24 102.784 1036.24 101.376 1037.74 100.508Z" fill="#D3E0FB"/>
<path d="M1030.3 112.347C1028.65 113.302 1025.97 113.302 1024.31 112.347C1022.66 111.392 1022.66 109.844 1024.31 108.889C1025.97 107.934 1028.65 107.934 1030.3 108.889C1031.96 109.844 1031.96 111.392 1030.3 112.347Z" fill="#D3E0FB"/>
<path d="M1015.78 120.73C1014.13 121.685 1011.45 121.685 1009.79 120.73C1008.14 119.775 1008.14 118.227 1009.79 117.272C1011.45 116.317 1014.13 116.317 1015.78 117.272C1017.44 118.227 1017.44 119.775 1015.78 120.73Z" fill="#D3E0FB"/>
<path d="M1000.86 129.034C999.427 129.859 997.112 129.859 995.683 129.034C994.255 128.21 994.255 126.873 995.683 126.048C997.112 125.223 999.427 125.223 1000.86 126.048C1002.28 126.873 1002.28 128.21 1000.86 129.034Z" fill="#D3E0FB"/>
<path d="M1159.97 42.3028L1172.49 35.0723L1185.02 42.3028L1172.49 49.5332L1159.97 42.3028Z" fill="#D3E0FB"/>
<path d="M1145.45 50.6856L1157.97 43.4551L1170.5 50.6856L1157.97 57.916L1145.45 50.6856Z" fill="#D3E0FB"/>
<path d="M1131.75 59.2238L1143.46 52.4648L1155.16 59.2238L1143.46 65.9827L1131.75 59.2238Z" fill="#D3E0FB"/>
<path d="M1118.05 67.7639L1128.94 61.4766L1139.83 67.7639L1128.94 74.0513L1118.05 67.7639Z" fill="#D3E0FB"/>
<path d="M1104.89 75.9897L1113.87 70.8027C1114.17 70.629 1114.66 70.629 1114.96 70.8027L1123.95 75.9897C1124.25 76.1634 1124.25 76.4449 1123.95 76.6185L1114.96 81.8056C1114.66 81.9792 1114.17 81.9792 1113.87 81.8056L1104.89 76.6185C1104.59 76.4449 1104.59 76.1634 1104.89 75.9897Z" fill="#D3E0FB"/>
<path d="M1091.73 84.2136L1098.81 80.1268C1099.41 79.7795 1100.39 79.7795 1100.99 80.1268L1108.07 84.2136C1108.67 84.5608 1108.67 85.1238 1108.07 85.4711L1100.99 89.5579C1100.39 89.9051 1099.41 89.9051 1098.81 89.5579L1091.73 85.4711C1091.13 85.1238 1091.13 84.5608 1091.73 84.2136Z" fill="#D3E0FB"/>
<path d="M1078.57 92.4394L1083.75 89.4529C1084.65 88.932 1086.11 88.932 1087.01 89.4529L1092.19 92.4394C1093.09 92.9602 1093.09 93.8047 1092.19 94.3256L1087.01 97.3121C1086.11 97.833 1084.65 97.833 1083.75 97.3121L1078.57 94.3256C1077.67 93.8047 1077.67 92.9602 1078.57 92.4394Z" fill="#D3E0FB"/>
<path d="M1065.42 100.665L1068.69 98.779C1069.89 98.0845 1071.84 98.0845 1073.04 98.779L1076.31 100.665C1077.51 101.36 1077.51 102.486 1076.31 103.18L1073.04 105.066C1071.84 105.761 1069.89 105.761 1068.69 105.066L1065.42 103.18C1064.22 102.486 1064.22 101.36 1065.42 100.665Z" fill="#D3E0FB"/>
<path d="M1052.26 108.889L1053.62 108.103C1055.12 107.235 1057.56 107.235 1059.07 108.103L1060.43 108.889C1061.93 109.757 1061.93 111.165 1060.43 112.033L1059.07 112.819C1057.56 113.687 1055.12 113.687 1053.62 112.819L1052.26 112.033C1050.76 111.165 1050.76 109.757 1052.26 108.889Z" fill="#D3E0FB"/>
<path d="M1044.82 120.73C1043.17 121.685 1040.49 121.685 1038.83 120.73C1037.18 119.775 1037.18 118.227 1038.83 117.272C1040.49 116.317 1043.17 116.317 1044.82 117.272C1046.47 118.227 1046.47 119.775 1044.82 120.73Z" fill="#D3E0FB"/>
<path d="M1030.3 129.113C1028.65 130.068 1025.97 130.068 1024.31 129.113C1022.66 128.158 1022.66 126.61 1024.31 125.655C1025.97 124.7 1028.65 124.7 1030.3 125.655C1031.96 126.61 1031.96 128.158 1030.3 129.113Z" fill="#D3E0FB"/>
<path d="M1159.97 59.0664L1172.49 51.8359L1185.02 59.0664L1172.49 66.2969L1159.97 59.0664Z" fill="#D3E0FB"/>
<path d="M1146.27 67.6066L1157.97 60.8477L1169.68 67.6066L1157.97 74.3655L1146.27 67.6066Z" fill="#D3E0FB"/>
<path d="M1132.57 76.1468L1143.46 69.8594L1154.35 76.1468L1143.46 82.4341L1132.57 76.1468Z" fill="#D3E0FB"/>
<path d="M1119.41 84.3706L1128.39 79.1835C1128.69 79.0099 1129.18 79.0099 1129.48 79.1835L1138.47 84.3706C1138.77 84.5442 1138.77 84.8257 1138.47 84.9993L1129.48 90.1864C1129.18 90.36 1128.69 90.36 1128.39 90.1864L1119.41 84.9993C1119.11 84.8257 1119.11 84.5442 1119.41 84.3706Z" fill="#D3E0FB"/>
<path d="M1106.25 92.5964L1113.33 88.5096C1113.93 88.1624 1114.91 88.1624 1115.51 88.5096L1122.59 92.5964C1123.19 92.9436 1123.19 93.5066 1122.59 93.8539L1115.51 97.9407C1114.91 98.2879 1113.93 98.2879 1113.33 97.9407L1106.25 93.8539C1105.65 93.5066 1105.65 92.9436 1106.25 92.5964Z" fill="#D3E0FB"/>
<path d="M1093.09 100.822L1098.27 97.8357C1099.17 97.3148 1100.63 97.3148 1101.53 97.8357L1106.71 100.822C1107.61 101.343 1107.61 102.188 1106.71 102.708L1101.53 105.695C1100.63 106.216 1099.17 106.216 1098.27 105.695L1093.09 102.708C1092.19 102.188 1092.19 101.343 1093.09 100.822Z" fill="#D3E0FB"/>
<path d="M1079.94 109.046L1083.2 107.16C1084.41 106.465 1086.36 106.465 1087.56 107.16L1090.83 109.046C1092.03 109.741 1092.03 110.866 1090.83 111.561L1087.56 113.447C1086.36 114.142 1084.41 114.142 1083.2 113.447L1079.94 111.561C1078.73 110.866 1078.73 109.741 1079.94 109.046Z" fill="#D3E0FB"/>
<path d="M1066.78 117.272L1068.14 116.486C1069.64 115.618 1072.08 115.618 1073.59 116.486L1074.95 117.272C1076.45 118.14 1076.45 119.547 1074.95 120.416L1073.59 121.201C1072.08 122.07 1069.64 122.07 1068.14 121.201L1066.78 120.416C1065.28 119.547 1065.28 118.14 1066.78 117.272Z" fill="#D3E0FB"/>
<path d="M1059.34 129.113C1057.68 130.068 1055 130.068 1053.35 129.113C1051.7 128.158 1051.7 126.61 1053.35 125.655C1055 124.7 1057.68 124.7 1059.34 125.655C1060.99 126.61 1060.99 128.158 1059.34 129.113Z" fill="#D3E0FB"/>
<path d="M1160.79 75.9894L1172.49 69.2305L1184.2 75.9894L1172.49 82.7483L1160.79 75.9894Z" fill="#D3E0FB"/>
<path d="M1147.08 84.5276L1157.97 78.2402L1168.86 84.5276L1157.97 90.815L1147.08 84.5276Z" fill="#D3E0FB"/>
<path d="M1133.93 92.7534L1142.91 87.5663C1143.21 87.3927 1143.7 87.3927 1144 87.5663L1152.99 92.7534C1153.29 92.927 1153.29 93.2085 1152.99 93.3821L1144 98.5692C1143.7 98.7429 1143.21 98.7429 1142.91 98.5692L1133.93 93.3821C1133.63 93.2085 1133.63 92.927 1133.93 92.7534Z" fill="#D3E0FB"/>
<path d="M1120.77 100.979L1127.85 96.8924C1128.45 96.5452 1129.43 96.5452 1130.03 96.8924L1137.11 100.979C1137.71 101.326 1137.71 101.889 1137.11 102.237L1130.03 106.323C1129.43 106.671 1128.45 106.671 1127.85 106.323L1120.77 102.237C1120.17 101.889 1120.17 101.326 1120.77 100.979Z" fill="#D3E0FB"/>
<path d="M1107.61 109.203L1112.78 106.217C1113.69 105.696 1115.15 105.696 1116.05 106.217L1121.22 109.203C1122.13 109.724 1122.13 110.568 1121.22 111.089L1116.05 114.076C1115.15 114.597 1113.69 114.597 1112.78 114.076L1107.61 111.089C1106.71 110.568 1106.71 109.724 1107.61 109.203Z" fill="#D3E0FB"/>
<path d="M1094.46 117.429L1097.72 115.543C1098.93 114.848 1100.88 114.848 1102.08 115.543L1105.35 117.429C1106.55 118.123 1106.55 119.249 1105.35 119.944L1102.08 121.83C1100.88 122.524 1098.93 122.524 1097.72 121.83L1094.46 119.944C1093.25 119.249 1093.25 118.123 1094.46 117.429Z" fill="#D3E0FB"/>
<path d="M1081.3 125.655L1082.66 124.869C1084.16 124.001 1086.6 124.001 1088.1 124.869L1089.46 125.655C1090.97 126.523 1090.97 127.93 1089.46 128.798L1088.1 129.584C1086.6 130.452 1084.16 130.452 1082.66 129.584L1081.3 128.798C1079.79 127.93 1079.79 126.523 1081.3 125.655Z" fill="#D3E0FB"/>
<path d="M1161.6 92.9104L1172.49 86.623L1183.38 92.9104L1172.49 99.1978L1161.6 92.9104Z" fill="#D3E0FB"/>
<path d="M1148.45 101.136L1157.43 95.9491C1157.73 95.7755 1158.22 95.7755 1158.52 95.9491L1167.5 101.136C1167.8 101.31 1167.8 101.591 1167.5 101.765L1158.52 106.952C1158.22 107.126 1157.73 107.126 1157.43 106.952L1148.45 101.765C1148.15 101.591 1148.15 101.31 1148.45 101.136Z" fill="#D3E0FB"/>
<path d="M1135.29 109.362L1142.37 105.275C1142.97 104.928 1143.94 104.928 1144.55 105.275L1151.62 109.362C1152.23 109.709 1152.23 110.272 1151.62 110.619L1144.55 114.706C1143.94 115.054 1142.97 115.054 1142.37 114.706L1135.29 110.619C1134.69 110.272 1134.69 109.709 1135.29 109.362Z" fill="#D3E0FB"/>
<path d="M1122.13 117.586L1127.3 114.599C1128.21 114.078 1129.67 114.078 1130.57 114.599L1135.74 117.586C1136.65 118.107 1136.65 118.951 1135.74 119.472L1130.57 122.459C1129.67 122.979 1128.21 122.979 1127.3 122.459L1122.13 119.472C1121.23 118.951 1121.23 118.107 1122.13 117.586Z" fill="#D3E0FB"/>
<path d="M1108.97 125.812L1112.24 123.925C1113.44 123.231 1115.39 123.231 1116.6 123.925L1119.86 125.812C1121.07 126.506 1121.07 127.632 1119.86 128.327L1116.6 130.213C1115.39 130.907 1113.44 130.907 1112.24 130.213L1108.97 128.327C1107.77 127.632 1107.77 126.506 1108.97 125.812Z" fill="#D3E0FB"/>
<path d="M1162.97 109.519L1171.95 104.332C1172.25 104.158 1172.74 104.158 1173.04 104.332L1182.02 109.519C1182.32 109.693 1182.32 109.974 1182.02 110.148L1173.04 115.335C1172.74 115.508 1172.25 115.508 1171.95 115.335L1162.97 110.148C1162.66 109.974 1162.66 109.693 1162.97 109.519Z" fill="#D3E0FB"/>
<path d="M1149.81 117.743L1156.89 113.656C1157.49 113.309 1158.46 113.309 1159.06 113.656L1166.14 117.743C1166.74 118.09 1166.74 118.653 1166.14 119L1159.06 123.087C1158.46 123.434 1157.49 123.434 1156.89 123.087L1149.81 119C1149.21 118.653 1149.21 118.09 1149.81 117.743Z" fill="#D3E0FB"/>
<path d="M1136.65 125.969L1141.82 122.982C1142.73 122.461 1144.19 122.461 1145.09 122.982L1150.26 125.969C1151.17 126.49 1151.17 127.334 1150.26 127.855L1145.09 130.841C1144.19 131.362 1142.73 131.362 1141.82 130.841L1136.65 127.855C1135.75 127.334 1135.75 126.49 1136.65 125.969Z" fill="#D3E0FB"/>
<path d="M1164.33 126.126L1171.41 122.039C1172.01 121.692 1172.98 121.692 1173.58 122.039L1180.66 126.126C1181.26 126.473 1181.26 127.036 1180.66 127.383L1173.58 131.47C1172.98 131.817 1172.01 131.817 1171.41 131.47L1164.33 127.383C1163.73 127.036 1163.73 126.473 1164.33 126.126Z" fill="#D3E0FB"/>
<path d="M1151.17 134.351L1156.34 131.365C1157.24 130.844 1158.71 130.844 1159.61 131.365L1164.78 134.351C1165.68 134.872 1165.68 135.717 1164.78 136.238L1159.61 139.224C1158.71 139.745 1157.24 139.745 1156.34 139.224L1151.17 136.238C1150.27 135.717 1150.27 134.872 1151.17 134.351Z" fill="#D3E0FB"/>
</g>
</g>
<defs>
<clipPath id="clip0_107_163046">
<rect width="1174" height="131" rx="6" fill="white"/>
</clipPath>
<clipPath id="clip1_107_163046">
<rect width="502.99" height="502.99" fill="white" transform="matrix(-0.866025 0.5 0.866025 0.5 867.602 -189.994)"/>
</clipPath>
</defs>
</svg>
