<svg width="1080" height="286" viewBox="0 0 1080 286" fill="none" xmlns="http://www.w3.org/2000/svg">
<path d="M187.871 48.7188L208.862 60.7988L209.549 61.1953V180.023L208.862 180.42L125.941 228.137V200.814L126.628 200.418L137.503 194.166L151.504 186.098L185.815 166.352V76.4443L107.699 121.4V285.392L83.9658 270.776V107.736L186.503 48.7188L187.187 48.3262L187.871 48.7188ZM145.889 24.5566L168.945 37.8262L65.7168 97.2383V259.537L42.6357 245.324L41.9834 244.924V83.5684L144.521 24.5566L145.205 24.165L145.889 24.5566ZM948.329 102.198C980.779 102.199 1003.65 121.908 1010.56 153.596H984.226C978.649 133.887 965.87 124.04 948.589 124.04C925.455 124.04 910.026 142.952 910.026 174.363C910.026 205.774 925.194 224.165 948.865 224.165C966.423 224.165 979.982 214.579 985.298 195.667H1011.64C1004.73 227.892 980.518 246.267 948.865 246.268V246.251C908.173 246.251 883.429 217.753 883.429 174.363C883.429 130.974 908.173 102.198 948.329 102.198ZM595.935 102.198C635.033 102.198 659.241 128.826 659.777 171.157L648.608 182.338H559.241C561.631 207.89 575.467 224.67 598.341 224.67L598.324 224.687C614.809 224.686 626.792 215.897 632.904 198.857H659.501C652.592 230.008 629.977 246.251 598.324 246.251C556.575 246.251 532.368 217.509 532.368 174.363C532.368 131.218 556.836 102.198 595.935 102.198ZM807.98 102.198C847.079 102.199 871.287 128.826 871.823 171.157L860.654 182.338H771.287C773.677 207.89 787.512 224.67 810.386 224.67V224.687C826.871 224.686 838.853 215.897 844.966 198.857H871.562C864.653 230.008 842.039 246.251 810.386 246.251C768.621 246.251 744.413 217.509 744.413 174.363C744.413 131.218 768.881 102.198 807.98 102.198ZM386.521 53.1943C424.563 53.1946 445.308 75.5574 445.309 110.451C445.308 145.345 424.563 167.707 386.521 167.707H329.604V243.322H300.877V53.1943H386.521ZM744.869 75.2959H713.752V105.649H741.406V128.288H713.752V243.322H687.691V128.288H664.817V105.649H687.691V74.2217L711.622 53.1943H744.869V75.2959ZM532.677 128.287H483.206V243.32H457.146L457.405 126.415L481.076 105.648H532.677V128.287ZM1052.61 105.646H1080V128.286H1052.61V220.681H1080V243.319H1042.75L1026.27 227.076V64.373H1052.61V105.646ZM103.905 0.392578L126.962 13.6611L23.7334 73.0742V233.68L0 219.066V59.4102L102.537 0.392578L103.222 0L103.905 0.392578ZM596.211 123.764C577.596 123.764 563.501 138.411 559.778 162.107H634.254C630.515 137.077 616.158 123.764 596.211 123.764ZM808.257 123.764C789.642 123.764 775.546 138.411 771.823 162.107H846.299C842.56 137.077 828.204 123.764 808.257 123.764ZM329.604 143.457H378.539V143.474C400.08 143.473 416.304 134.945 416.305 110.451C416.305 89.1472 403.803 77.4279 378.539 77.4277H329.604V143.457Z" fill="white"/>
</svg>
