<svg xmlns="http://www.w3.org/2000/svg" xmlns:xlink="http://www.w3.org/1999/xlink" viewBox="0 0 670.03 171.14"><defs><style>.cls-1{fill:#090422;}.cls-1,.cls-2,.cls-3,.cls-4,.cls-5,.cls-6{fill-rule:evenodd;}.cls-2{fill:#0052ff;}.cls-3{fill:#003ebf;}.cls-4{fill:#002980;}.cls-5{fill:url(#linear-gradient);}.cls-6{fill:url(#linear-gradient-2);}</style><linearGradient id="linear-gradient" x1="5997.06" y1="2896.46" x2="5997.3" y2="2896.26" gradientTransform="matrix(231.6, 0, 0, -513.83, -1388912.25, 1488363.83)" gradientUnits="userSpaceOnUse"><stop offset="0" stop-color="#22d7ff"/><stop offset="1" stop-color="#0052ff"/></linearGradient><linearGradient id="linear-gradient-2" x1="5999.4" y1="2898.85" x2="5999.54" y2="2898.69" gradientTransform="matrix(454.75, 0, 0, -346.97, -2728192.42, 1005825.2)" xlink:href="#linear-gradient"/></defs><g id="Layer_2" data-name="Layer 2"><g id="Layer_1-2" data-name="Layer 1"><path class="cls-1" d="M159.64,122.15V49h42.58c19.51,0,26.7,6.53,26.7,23.83s-7.19,23.7-26.7,23.7H173.89v25.63Zm14.25-38.21h27c10.24,0,13.72-2.74,13.72-11.13s-3.48-11.25-13.72-11.25h-27Zm65.18,38.21V49h41.74c18.71,0,25.6,6.44,25.6,23.26,0,14.21-4.9,20.87-17.65,22.59L310,122.15H292.6L272,95.28H253v26.87ZM253,82.84h26.66c9.57,0,12.84-2.74,12.84-10.51,0-8-3.4-10.81-12.84-10.81H253Zm63.81,39.31V49h63.37V61.57H330.86V78.82h41.92V91.27H330.86v18.35h50.21v12.53Zm76,0V49h64.2V61.57H407.19V78.82h42.32V91.27H407.2v30.88Zm72.67,0V49H528.9V61.57H479.57V78.82h42V91.27h-42v18.35h50.22v12.53ZM605.82,49H670V61.77h-26.7v60.36H629.12V61.75H576.25c-25.5,0-25.55-.22-25.55,23.82s0,24.06,25.55,24.06h23v12.53h-23c-39.75,0-39.75-2.38-39.75-36.59S535.92,49,576.25,49Z"/><polygon class="cls-2" points="106.42 79.75 53.18 53.07 53.18 107.29 106.42 79.75"/><polygon class="cls-3" points="59.96 103.78 53.18 63.48 53.18 107.29 59.96 103.78"/><polygon class="cls-4" points="99.59 76.3 53.18 53.07 53.18 58.99 99.59 76.3"/><path class="cls-5" d="M3.2,170.58l48.95-23.74c.67-.41,1.05-.51,1.07-1.69,0-.11,0-92.08,0-92.08C32.52,63.41,3.43,77.93.91,79.26c-.8.45-.91.82-.91,1.4V168.2C0,170.18.11,172.14,3.2,170.58Z"/><path class="cls-6" d="M106.42,27.58V79.73S7.09,30,3.65,28.26c-2.29-1.2-2.29-2.33,0-3.62C5.76,23.46,46.07,3.37,52.25.27A1.72,1.72,0,0,1,54,.21L105.42,26a1.53,1.53,0,0,1,1,1.61Z"/></g></g></svg>